<svg width="997" height="848" viewBox="0 0 997 848" fill="none" xmlns="http://www.w3.org/2000/svg">
<path d="M498.5 88L997 423.5L498.5 759L0 423.5L498.5 88Z" fill="#373737"/>
<path d="M997 423.5L498.5 88L0.5 423.5H997Z" fill="url(#paint0_linear_358_271)"/>
<rect width="537.209" height="537.209" transform="matrix(0.615111 0.78844 -0.615111 0.78844 498 0)" fill="black"/>
<path d="M325.116 428.079C315.01 425.072 304.903 422.065 294.702 419.031C294.702 412.643 294.682 406.364 294.706 400.085C294.849 362.432 295.017 324.78 295.104 287.127C295.109 285.306 295.597 284.523 297.351 283.97C363.654 263.042 429.941 242.062 496.23 221.091C496.529 220.997 496.84 220.939 497.301 221.108C497.45 307.976 497.445 394.6 497.444 481.225C497.444 481.701 497.496 482.177 497.524 482.653C496.756 482.528 495.963 482.489 495.225 482.267C479.657 477.571 464.104 472.823 448.518 468.19C446.814 467.684 446.323 466.956 446.354 465.238C446.461 459.273 446.396 453.305 446.432 446.892C446.45 445.332 446.416 444.218 446.416 443.103C446.413 393.329 446.413 343.554 446.413 293.779C446.413 292.773 446.413 291.767 446.413 290.604C445.52 290.69 444.972 290.688 444.448 290.801C431.008 293.697 417.583 296.667 404.12 299.45C401.737 299.943 400.942 300.775 400.946 303.288C401.027 352.027 401.006 400.767 401.011 449.506C401.011 450.459 401.086 451.412 401.126 452.365C396.446 450.907 391.755 449.481 387.088 447.982C379.079 445.41 371.096 442.757 363.074 440.227C361.7 439.794 361.216 439.194 361.243 437.74C361.329 433.205 361.256 428.667 361.197 423.729C361.149 385.333 361.149 347.337 361.149 309.185C360.085 309.3 359.534 309.317 359 309.423C348.793 311.45 338.609 313.602 328.369 315.447C325.618 315.943 325.076 317.091 325.082 319.658C325.156 355.798 325.123 391.938 325.116 428.079Z" fill="#D0D2D3"/>
<path d="M497.712 482.706C497.496 482.177 497.444 481.701 497.444 481.225C497.445 394.6 497.45 307.976 497.481 221.136C504.331 223.002 511.173 225.024 517.975 227.175C577.674 246.061 637.362 264.98 697.074 283.826C699.075 284.458 699.719 285.296 699.724 287.432C699.819 330.345 699.992 373.258 700.22 416.171C700.231 418.23 699.781 419.179 697.638 419.796C688.476 422.432 679.385 425.315 670.078 427.888C669.879 426.951 669.861 426.235 669.861 425.519C669.86 389.942 669.845 354.364 669.901 318.786C669.904 316.85 669.429 316.054 667.411 315.669C656.884 313.661 646.392 311.463 635.883 309.36C635.231 309.23 634.53 309.343 633.638 309.343C633.638 310.445 633.637 311.386 633.637 312.327C633.637 348.621 633.637 384.915 633.641 421.209C633.641 422.083 633.688 422.957 633.713 423.831C633.713 429.065 633.713 434.298 633.713 439.567C620.496 443.883 607.464 448.139 594.235 452.213C594.018 450.997 593.981 449.963 593.981 448.929C593.978 400.376 593.964 351.824 594.023 303.272C594.025 301.021 593.567 299.999 591.12 299.5C578.905 297.008 566.741 294.265 554.555 291.623C552.666 291.214 550.761 290.876 548.566 290.448C548.566 291.906 548.566 292.926 548.566 293.946C548.566 343.772 548.565 393.598 548.569 443.424C548.569 444.457 548.624 445.491 548.654 446.524C548.618 452.887 548.572 459.25 548.559 465.612C548.557 466.703 548.538 467.521 547.167 467.931C530.733 472.834 514.319 477.805 497.712 482.706Z" fill="#F57F20"/>
<path d="M548.845 446.533C548.625 445.491 548.569 444.457 548.569 443.424C548.565 393.598 548.566 343.772 548.566 293.946C548.566 292.926 548.566 291.906 548.566 290.448C550.761 290.876 552.666 291.214 554.555 291.623C566.741 294.264 578.905 297.008 591.12 299.5C593.567 299.999 594.025 301.021 594.023 303.272C593.964 351.824 593.978 400.376 593.981 448.929C593.981 449.963 594.018 450.997 594.072 452.246C579.082 450.488 564.059 448.515 548.845 446.533Z" fill="#6D6E71"/>
<path d="M401.287 452.401C401.086 451.412 401.012 450.459 401.012 449.506C401.006 400.767 401.027 352.027 400.947 303.288C400.942 300.775 401.737 299.943 404.12 299.45C417.583 296.667 431.008 293.697 444.448 290.801C444.972 290.688 445.52 290.69 446.414 290.604C446.414 291.768 446.414 292.773 446.414 293.779C446.414 343.554 446.413 393.329 446.416 443.103C446.416 444.218 446.45 445.332 446.433 446.672C443.028 447.205 439.645 447.406 436.291 447.836C424.671 449.327 413.061 450.897 401.287 452.401Z" fill="#7F7F7F"/>
<path d="M633.92 423.835C633.688 422.957 633.641 422.083 633.641 421.209C633.637 384.915 633.637 348.621 633.637 312.327C633.637 311.386 633.638 310.445 633.638 309.343C634.53 309.343 635.231 309.23 635.883 309.36C646.392 311.463 656.884 313.661 667.411 315.669C669.429 316.054 669.904 316.85 669.901 318.787C669.845 354.364 669.86 389.942 669.861 425.519C669.861 426.235 669.879 426.951 669.899 427.885C657.982 426.681 646.055 425.26 633.92 423.835Z" fill="#6E6E71"/>
<path d="M325.317 428.087C325.123 391.938 325.156 355.798 325.082 319.658C325.076 317.091 325.618 315.943 328.369 315.447C338.609 313.602 348.793 311.45 359 309.423C359.534 309.317 360.085 309.3 361.149 309.185C361.149 347.336 361.149 385.332 361.115 423.541C349.226 425.201 337.372 426.649 325.317 428.087Z" fill="#7F7F7F"/>
<path d="M620.204 546.635C620.426 545.034 621.141 544.524 622.635 544.587C625.795 544.719 628.965 544.627 632.215 544.627C632.215 572.133 632.215 599.408 632.215 626.805C628.396 626.805 624.691 626.805 620.803 626.805C620.803 611.562 620.803 596.34 620.803 581.118C620.651 581.094 620.498 581.07 620.346 581.046C617.12 593.784 613.894 606.522 610.658 619.302C608.566 619.302 606.591 619.302 604.428 619.302C601.225 606.736 598.022 594.174 594.82 581.613C594.627 581.645 594.434 581.678 594.241 581.71C594.241 596.698 594.241 611.687 594.241 626.801C590.507 626.801 586.73 626.801 582.798 626.801C582.798 599.47 582.798 572.197 582.798 544.776C586.557 544.776 590.345 544.776 594.309 544.776C598.664 560.131 603.027 575.515 607.499 591.282C611.794 576.21 615.981 561.516 620.204 546.635Z" fill="#BABBBE"/>
<path d="M455.782 553.104C456.065 550.678 456.199 548.441 456.627 546.262C456.752 545.621 457.658 544.743 458.291 544.666C460.07 544.448 461.893 544.59 463.969 544.59C460.221 572.232 456.514 599.566 452.796 626.987C450.796 626.987 448.989 626.987 446.838 626.987C443.883 606.519 440.925 586.031 437.966 565.543C437.781 565.544 437.595 565.544 437.409 565.545C434.467 585.95 431.524 606.354 428.558 626.92C426.594 626.92 424.732 626.92 422.578 626.92C418.871 599.596 415.156 572.214 411.421 544.689C413.96 544.689 416.169 544.689 418.654 544.689C420.938 564.038 423.22 583.363 425.501 602.687C425.736 602.717 425.972 602.748 426.208 602.778C429.001 583.427 431.795 564.077 434.597 544.67C436.646 544.67 438.546 544.67 440.843 544.67C443.675 564.485 446.514 584.35 449.354 604.216C449.488 604.212 449.623 604.207 449.757 604.203C451.753 587.241 453.75 570.279 455.782 553.104Z" fill="#F17D20"/>
<path d="M817.601 607.663C818.85 614.101 820.058 620.339 821.302 626.762C817.252 626.762 813.336 626.762 809.175 626.762C808.363 621.741 807.543 616.663 806.696 611.426C801.611 611.426 796.565 611.426 791.259 611.426C790.436 616.488 789.599 621.632 788.752 626.842C784.778 626.842 780.902 626.842 776.649 626.842C781.972 599.35 787.267 572.01 792.581 544.569C796.902 544.569 801.082 544.569 805.527 544.569C809.532 565.503 813.547 586.482 817.601 607.663ZM794.842 600.703C798.163 600.703 801.485 600.703 804.965 600.703C803 588.514 801.072 576.555 799.034 563.92C798.725 565.299 798.52 566.044 798.394 566.803C797.65 571.265 796.922 575.729 796.193 580.193C795.182 586.38 794.165 592.566 793.179 598.758C793.031 599.686 792.516 600.963 794.842 600.703Z" fill="#BABBBE"/>
<path d="M160.478 576.808C160.478 593.589 160.478 610.131 160.478 626.803C158.157 626.803 156.054 626.803 153.797 626.803C153.797 608.521 153.797 590.322 153.797 572.123C153.659 572.082 153.521 572.04 153.383 571.999C153.195 572.661 152.996 573.319 152.82 573.984C149.012 588.36 145.216 602.739 141.373 617.105C141.174 617.849 140.571 618.485 140.156 619.171C139.731 618.495 139.108 617.873 138.91 617.136C135.079 602.849 131.297 588.548 127.505 574.25C127.308 573.508 127.105 572.768 126.617 572.078C126.617 590.248 126.617 608.417 126.617 626.76C124.407 626.76 122.301 626.76 120 626.76C120 599.48 120 572.152 120 544.596C121.844 544.596 123.691 544.408 125.46 544.696C126.1 544.8 126.846 545.972 127.051 546.781C131.214 563.202 135.304 579.641 139.412 596.076C139.604 596.843 139.822 597.604 140.158 598.856C142.378 589.965 144.481 581.537 146.587 573.109C148.785 564.313 151.034 555.53 153.142 546.712C153.528 545.097 154.09 544.382 155.81 544.56C157.29 544.714 158.799 544.592 160.478 544.592C160.478 555.414 160.478 565.991 160.478 576.808Z" fill="#F37E20"/>
<path d="M681.377 626.928C674.152 626.928 667.166 626.928 660.018 626.928C660.018 599.462 660.018 572.141 660.018 544.738C671.173 544.738 682.278 544.738 693.517 544.738C693.517 548.299 693.517 551.748 693.517 555.398C686.415 555.398 679.445 555.398 672.302 555.398C672.302 563.496 672.302 571.394 672.302 579.471C678.331 579.471 684.271 579.471 690.396 579.471C690.396 583.083 690.396 586.521 690.396 590.179C684.375 590.179 678.367 590.179 672.244 590.179C672.244 598.861 672.244 607.326 672.244 616.026C679.462 616.026 686.579 616.026 693.796 616.026C693.796 619.725 693.796 623.191 693.796 626.928C689.679 626.928 685.648 626.928 681.377 626.928Z" fill="#BABBBE"/>
<path d="M516.907 617.661C510.851 601.002 504.872 584.514 498.892 568.026C498.709 568.048 498.526 568.07 498.343 568.092C498.343 587.642 498.343 607.193 498.343 626.821C495.876 626.821 493.765 626.821 491.519 626.821C491.519 599.436 491.519 572.166 491.519 544.603C493.014 544.603 494.548 544.398 495.976 544.696C496.624 544.832 497.283 545.887 497.565 546.661C504.108 564.582 510.6 582.522 517.102 600.458C517.397 601.273 517.701 602.086 518.38 602.855C518.38 583.54 518.38 564.224 518.38 544.751C520.736 544.751 522.842 544.751 525.119 544.751C525.119 572.077 525.119 599.394 525.119 626.679C524.889 626.778 524.752 626.881 524.61 626.891C520.369 627.179 520.368 627.178 518.931 623.214C518.281 621.421 517.633 619.626 516.907 617.661Z" fill="#F27E20"/>
<path d="M352.061 545.303C353.385 545.009 354.543 544.624 355.704 544.615C362.94 544.558 370.176 544.566 377.412 544.593C381.961 544.611 383.968 546.619 383.971 551.159C383.983 574.237 383.984 597.315 383.97 620.393C383.967 624.818 381.83 626.915 377.333 626.932C370.177 626.958 363.02 626.957 355.864 626.932C351.365 626.917 349.226 624.865 349.22 620.382C349.189 597.304 349.208 574.226 349.201 551.148C349.2 548.793 349.778 546.736 352.061 545.303ZM356.58 613.362C356.58 615.644 356.58 617.926 356.58 620.263C363.419 620.263 369.963 620.263 376.565 620.263C376.565 597.144 376.565 574.19 376.565 551.181C369.871 551.181 363.317 551.181 356.58 551.181C356.58 571.847 356.58 592.366 356.58 613.362Z" fill="#EF7D21"/>
<path d="M238.283 626.94C235.586 626.94 233.127 626.94 230.49 626.94C230.49 599.536 230.49 572.275 230.49 544.957C230.545 544.907 230.659 544.711 230.773 544.711C237.844 544.723 244.937 544.416 251.98 544.874C258.501 545.299 263.614 551.064 264.115 557.618C264.249 559.36 264.205 561.117 264.205 562.867C264.211 579.024 264.222 595.18 264.203 611.336C264.191 621.006 258.264 626.89 248.542 626.938C245.202 626.954 241.862 626.94 238.283 626.94ZM237.659 563.667C237.659 582.508 237.659 601.349 237.659 620.394C241.274 620.394 244.599 620.491 247.916 620.373C253.607 620.17 256.854 616.794 256.909 611.105C256.956 606.169 256.92 601.232 256.92 596.296C256.92 584.273 256.944 572.251 256.906 560.228C256.891 555.337 254.226 551.741 249.727 551.271C245.818 550.862 241.832 551.186 237.659 551.186C237.659 555.262 237.659 559.226 237.659 563.667Z" fill="#EE7C21"/>
<path d="M744.881 544.632C748.597 544.632 752.074 544.632 755.667 544.632C755.667 548.273 755.667 551.661 755.667 555.326C751.243 555.326 746.842 555.326 742.217 555.326C742.217 579.27 742.217 602.941 742.217 626.769C738.067 626.769 734.145 626.769 729.991 626.769C729.991 603.02 729.991 579.352 729.991 555.474C725.426 555.474 721.084 555.474 716.56 555.474C716.56 551.826 716.56 548.384 716.56 544.632C725.94 544.632 735.291 544.632 744.881 544.632Z" fill="#BBBCBF"/>
<path d="M845.906 590.665C845.906 575.245 845.906 560.063 845.906 544.757C850.026 544.757 853.897 544.757 857.981 544.757C857.981 568.339 857.981 591.948 857.981 615.814C864.736 615.814 871.288 615.814 878 615.814C878 619.596 878 623.125 878 626.791C867.364 626.791 856.752 626.791 845.906 626.791C845.906 614.752 845.906 602.828 845.906 590.665Z" fill="#BCBDC0"/>
<path d="M290.225 547.654C290.225 546.568 290.225 545.715 290.225 544.739C301.198 544.739 311.905 544.739 322.825 544.739C322.825 546.774 322.825 548.776 322.825 550.961C318.78 550.961 314.75 550.961 310.418 550.961C310.418 576.309 310.418 601.486 310.418 626.797C307.855 626.797 305.594 626.797 303.078 626.797C303.078 601.583 303.078 576.465 303.078 551.112C298.741 551.112 294.649 551.112 290.225 551.112C290.225 549.884 290.225 548.886 290.225 547.654Z" fill="#F37E20"/>
<path d="M191.627 599.745C191.627 581.304 191.627 563.102 191.627 544.737C194.144 544.737 196.478 544.737 198.919 544.737C198.919 572.115 198.919 599.364 198.919 626.779C196.561 626.779 194.296 626.779 191.626 626.779C191.626 617.878 191.626 608.931 191.627 599.745Z" fill="#E97A21"/>
<path d="M453.49 494.581C453.49 495.584 453.49 496.366 453.49 497.316C452.12 497.316 450.973 497.316 449.585 497.316C449.509 496.097 449.433 494.855 449.343 493.405C447.939 493.405 446.572 493.405 445.078 493.405C444.457 495.596 444.566 497.54 446.619 499.06C447.443 499.67 448.032 500.614 448.883 501.165C453.281 504.012 454.055 508.187 453.523 512.984C453.33 514.719 452.688 515.65 450.904 515.648C448.441 515.645 445.978 515.638 443.515 515.652C441.655 515.663 440.718 514.809 440.758 512.897C440.796 511.078 440.766 509.258 440.766 507.237C442.123 507.237 443.326 507.237 444.673 507.237C444.757 508.692 444.839 510.096 444.929 511.652C446.429 511.652 447.808 511.652 449.27 511.652C449.708 508.935 449.767 506.522 447.236 504.784C446.329 504.162 445.69 503.145 444.775 502.543C440.829 499.944 440.325 496.134 440.741 491.885C440.902 490.231 441.629 489.387 443.259 489.367C445.483 489.338 447.707 489.346 449.932 489.356C453.111 489.368 453.475 489.741 453.49 492.929C453.492 493.406 453.49 493.883 453.49 494.581Z" fill="#696A6C"/>
<path d="M427.326 489.356C428.653 489.356 429.747 489.356 430.991 489.356C430.991 490.67 430.991 491.745 430.991 493.116C428.883 493.116 426.783 493.116 424.491 493.116C424.491 495.585 424.491 497.764 424.491 500.236C426.255 500.236 428.037 500.236 430.002 500.236C430.002 501.649 430.002 502.779 430.002 504.2C428.134 504.2 426.35 504.2 424.438 504.2C424.438 506.83 424.438 509.173 424.438 511.773C426.684 511.773 428.794 511.773 431.061 511.773C431.061 513.102 431.061 514.178 431.061 515.454C427.582 515.454 424.071 515.454 420.42 515.454C420.42 506.802 420.42 498.249 420.42 489.356C422.703 489.356 424.899 489.356 427.326 489.356Z" fill="#6A6B6D"/>
<path d="M562.177 489.401C562.886 490.332 563.805 491.224 563.82 492.131C563.942 499.04 563.878 505.952 563.893 512.863C563.897 514.689 563.173 515.714 561.211 515.663C559.387 515.615 557.559 515.606 555.735 515.666C553.905 515.727 553.086 514.802 553.081 513.085C553.063 506.016 553.061 498.946 553.084 491.877C553.089 490.142 553.967 489.276 555.777 489.336C557.839 489.405 559.904 489.362 562.177 489.401ZM555.407 497.253C555.407 502.698 555.407 508.142 555.407 513.527C557.676 513.527 559.534 513.527 561.375 513.527C561.375 506.055 561.375 498.781 561.375 491.438C559.366 491.438 557.512 491.438 555.408 491.438C555.408 493.319 555.408 495.05 555.407 497.253Z" fill="#68686A"/>
<path d="M542.402 502.263C542.402 505.677 542.409 508.852 542.401 512.027C542.392 515.292 542.02 515.649 538.66 515.653C537.154 515.655 535.646 515.616 534.14 515.662C532.425 515.714 531.612 514.812 531.604 513.218C531.572 506.075 531.572 498.931 531.604 491.788C531.612 490.195 532.423 489.297 534.138 489.341C535.961 489.389 537.788 489.402 539.61 489.338C541.69 489.264 542.434 490.322 542.412 492.262C542.375 495.515 542.402 498.77 542.402 502.263ZM533.921 500.113C533.921 504.605 533.921 509.097 533.921 513.528C536.188 513.528 538.046 513.528 539.89 513.528C539.89 506.056 539.89 498.783 539.89 491.436C537.883 491.436 536.028 491.436 533.921 491.436C533.921 494.271 533.921 496.954 533.921 500.113Z" fill="#68686A"/>
<path d="M464.14 493.183C460.755 493.086 462.728 490.891 462.2 489.485C466.411 489.485 470.358 489.485 474.506 489.485C474.506 490.649 474.506 491.776 474.506 493.054C473.212 493.134 471.968 493.211 470.49 493.302C470.49 500.641 470.49 507.932 470.49 515.431C469.121 515.431 467.984 515.431 466.598 515.431C466.598 508.2 466.598 500.912 466.598 493.391C465.705 493.308 465.032 493.246 464.14 493.183Z" fill="#6D6E70"/>
<path d="M513.163 496.305C512.585 496.922 512.017 497.325 510.868 498.142C510.868 495.265 510.693 493.201 510.964 491.198C511.057 490.508 512.201 489.546 512.966 489.442C514.837 489.186 516.808 489.128 518.653 489.462C519.493 489.614 520.697 490.834 520.764 491.65C521.044 495.04 521.005 498.378 519.202 501.581C517.074 505.362 515.404 509.401 513.347 513.724C515.573 513.724 517.441 513.656 519.299 513.766C519.838 513.798 520.347 514.339 520.87 514.647C520.374 514.981 519.887 515.589 519.381 515.605C516.457 515.697 513.53 515.65 510.257 515.65C510.59 514.621 510.747 513.863 511.069 513.184C513.042 509.022 514.889 504.788 517.102 500.757C518.751 497.753 518.573 494.716 518.393 491.425C516.7 491.425 515.15 491.425 513.173 491.425C513.173 492.993 513.173 494.542 513.163 496.305Z" fill="#68696B"/>
<path d="M577.387 515.594C577.192 514.82 577.055 514.051 577.208 513.345C578.686 506.513 580.215 499.691 581.722 492.865C581.822 492.414 581.866 491.95 581.95 491.405C580.205 491.405 578.564 491.405 576.758 491.405C576.65 492.59 576.552 493.67 576.435 494.951C575.74 494.989 575.081 495.024 574.276 495.068C574.276 493.156 574.276 491.438 574.276 489.535C577.712 489.535 581.064 489.535 584.783 489.535C584.125 492.581 583.513 495.5 582.863 498.41C581.703 503.607 580.567 508.81 579.289 513.978C579.128 514.629 578.169 515.083 577.387 515.594Z" fill="#69696B"/>
<path d="M483.468 512.475C484.619 511.854 485.759 511.438 487.255 510.892C487.255 512.838 487.255 514.067 487.255 515.475C486.041 515.475 484.903 515.475 483.455 515.475C483.455 514.535 483.455 513.607 483.468 512.475Z" fill="#67686A"/>
<defs>
<linearGradient id="paint0_linear_358_271" x1="202" y1="292" x2="971.5" y2="394" gradientUnits="userSpaceOnUse">
<stop stop-color="#D9D9D9"/>
<stop offset="1" stop-color="#D9D9D9" stop-opacity="0"/>
</linearGradient>
</defs>
</svg>