<svg width="600" height="429" viewBox="0 0 600 429" fill="none" xmlns="http://www.w3.org/2000/svg">
<g filter="url(#filter0_d_1_2)">
<path d="M530.055 63.4435L100.784 24.5799C87.6614 23.3918 75.9839 33.9052 74.7022 48.0623L48.5041 337.435C47.2224 351.592 56.8218 364.032 69.9449 365.22L499.216 404.083C512.339 405.271 524.016 394.758 525.298 380.601L551.496 91.2284C552.778 77.0713 543.178 64.6316 530.055 63.4435Z" fill="#EF3D33"/>
<path d="M258.342 113.956L263.666 55.1516L252.779 54.1659L250.614 78.0851L229.555 76.1786L231.721 52.2594L220.834 51.2738L215.51 110.078L226.397 111.064L228.634 86.3502L249.693 88.2567L247.455 112.97L258.342 113.956Z" fill="white"/>
<path d="M314.404 96.1983C315.563 83.4044 306.55 72.3335 293.677 71.168C280.327 69.9594 269.523 79.5567 268.329 92.748C267.142 105.86 276.306 117.025 289.497 118.219C298.874 119.068 308.509 113.531 312.183 104.81L301.057 103.803C298.559 107.502 294.666 108.913 290.375 108.524C286.004 108.128 282.232 105.544 280.179 101.672C279.63 100.661 279.167 99.5778 279.037 98.3642L313.287 101.465C313.842 99.7527 314.246 97.9466 314.404 96.1983ZM303.885 92.0413L279.489 89.8326C281.567 83.6915 286.442 80.2873 292.879 80.87C299.315 81.4527 303.427 85.5905 303.885 92.0413Z" fill="white"/>
<path d="M329.648 120.412L334.971 61.6072L324.402 60.6503L319.079 119.455L329.648 120.412Z" fill="white"/>
<path d="M348.738 122.14L354.062 63.3355L343.493 62.3786L338.169 121.183L348.738 122.14Z" fill="white"/>
<path d="M403.847 104.777C405.02 91.8238 395.639 80.399 382.606 79.2192C369.574 78.0393 358.12 87.738 356.948 100.691C355.782 113.564 365.474 125.097 378.347 126.263C391.697 127.471 402.638 118.127 403.847 104.777ZM393.256 104.058C392.602 111.29 386.695 117.244 379.225 116.568C371.596 115.877 366.848 109.038 367.517 101.648C368.164 94.4959 374.259 88.2377 381.729 88.914C389.198 89.5902 393.897 96.9858 393.256 104.058Z" fill="white"/>
<path d="M236.761 147.254L237.818 135.575C238.271 130.576 235.8 127.109 230.66 126.643C227.828 126.387 225.686 127.074 223.967 129.316C223.149 127.056 220.52 125.725 218.247 125.52C215.695 125.288 214.23 125.896 212.451 127.639L212.381 127.632L212.571 125.534L209.214 125.231L207.46 144.601L211.097 144.93L212.075 134.126C212.369 130.874 213.646 128.452 217.387 128.791C218.891 128.927 220.102 129.565 220.824 130.935C221.511 132.301 221.4 133.525 221.267 134.994L220.292 145.763L223.929 146.092L224.907 135.288C225.195 132.106 226.268 129.595 230.044 129.937C233.611 130.259 234.375 133.113 234.099 136.155L233.124 146.925L236.761 147.254Z" fill="white"/>
<path d="M259.508 129.784L255.592 129.429L248.391 143.936L244.053 128.385L240.137 128.03L246.145 147.716L242.693 154.312L246.469 154.654L259.508 129.784Z" fill="white"/>
<path d="M287.933 151.887L288.972 140.418C289.127 138.705 289.009 136.896 288.198 135.342C286.909 132.829 284.42 131.51 281.658 131.26C279.42 131.058 277.326 131.608 275.759 133.335L275.689 133.329L275.876 131.266L272.484 130.959L270.731 150.329L274.367 150.658L275.323 140.099C275.618 136.847 277.406 134.224 280.972 134.547C284.819 134.895 285.548 137.746 285.25 141.033L284.297 151.557L287.933 151.887Z" fill="white"/>
<path d="M312.096 154.074L313.85 134.704L310.213 134.374L309.966 137.102L309.896 137.095C308.662 134.763 306.205 133.483 303.617 133.248C297.743 132.717 292.939 136.723 292.407 142.597C291.878 148.437 295.968 153.108 301.772 153.633C304.429 153.874 307.086 152.951 308.662 150.732L308.732 150.738L308.459 153.745L312.096 154.074ZM309.403 144.101C309.064 147.842 305.814 150.65 302.038 150.308C298.331 149.973 295.717 146.528 296.047 142.892C296.388 139.116 299.471 136.222 303.317 136.57C307.268 136.928 309.754 140.22 309.403 144.101Z" fill="white"/>
<path d="M346.094 157.152L347.152 145.474C347.604 140.474 345.133 137.007 339.993 136.542C337.161 136.285 335.019 136.973 333.3 139.214C332.483 136.955 329.854 135.624 327.581 135.418C325.028 135.187 323.563 135.795 321.784 137.537L321.714 137.531L321.904 135.433L318.547 135.129L316.794 154.499L320.43 154.829L321.408 144.025C321.703 140.773 322.979 138.35 326.721 138.689C328.224 138.825 329.435 139.464 330.157 140.833C330.845 142.2 330.734 143.424 330.601 144.892L329.626 155.661L333.262 155.99L334.24 145.186C334.528 142.004 335.602 139.493 339.378 139.835C342.944 140.158 343.708 143.012 343.433 146.054L342.458 156.823L346.094 157.152Z" fill="white"/>
<path d="M370.444 149.345C370.938 143.891 366.976 138.985 361.486 138.488C355.822 137.975 351.142 142.169 350.635 147.763C350.145 153.183 354.047 158.366 359.571 158.866C363.802 159.249 367.641 156.953 369.467 153.134L365.83 152.805C364.598 154.738 362.284 155.763 360.012 155.557C356.83 155.269 354.588 152.774 354.126 149.701L370.175 151.154C370.299 150.566 370.39 149.94 370.444 149.345ZM366.897 148.037L354.379 146.904C354.877 143.741 358.004 141.521 361.151 141.806C364.298 142.091 366.975 144.836 366.897 148.037Z" fill="white"/>
<path d="M389.106 139.261L389.493 134.995L385.856 134.666L385.47 138.932L389.106 139.261ZM387.15 160.869L388.904 141.499L385.267 141.169L383.514 160.54L387.15 160.869Z" fill="white"/>
<path d="M404.074 156.655C404.413 152.914 401.898 151.1 398.805 149.833C397.514 149.293 395.871 148.757 396.026 147.043C396.143 145.75 397.262 145.075 398.486 145.186C399.954 145.319 400.708 146.339 400.756 147.754L404.392 148.083C404.626 144.72 402.283 142.181 398.961 141.88C395.779 141.592 392.671 143.602 392.371 146.924C391.75 153.777 400.786 152.48 400.419 156.536C400.267 158.214 398.99 159.086 397.381 158.94C395.214 158.744 394.374 157.117 394.414 155.111L390.778 154.782C390.503 157.824 391.794 160.303 394.569 161.576C395.348 161.929 396.172 162.179 397.011 162.255C400.717 162.591 403.729 160.467 404.074 156.655Z" fill="white"/>
<path d="M542.2 193.906L65.4064 150.739L48.6539 335.781L525.448 378.947L542.2 193.906Z" fill="white"/>
</g>
<path d="M209.245 222.98V309H193.835L164.97 244.255V309H157.265V229.765C153.048 231.222 149.752 233.56 147.375 236.78C144.998 239.923 143.81 244.063 143.81 249.2C143.81 251.577 144.002 253.608 144.385 255.295C144.768 256.905 145.228 258.285 145.765 259.435C146.302 260.508 146.877 261.39 147.49 262.08C148.18 262.77 148.793 263.345 149.33 263.805C144.5 263.805 140.935 262.655 138.635 260.355C136.412 257.978 135.3 254.183 135.3 248.97C135.3 245.827 135.913 242.722 137.14 239.655C138.443 236.512 140.245 233.713 142.545 231.26C144.845 228.73 147.605 226.698 150.825 225.165C154.045 223.555 157.61 222.75 161.52 222.75C162.823 222.75 164.165 222.865 165.545 223.095C166.925 223.325 168.267 223.747 169.57 224.36L201.54 298.19V222.98H209.245ZM240.868 250.925C243.858 250.925 246.427 251.385 248.573 252.305C250.72 253.225 252.483 254.528 253.863 256.215C255.243 257.825 256.317 259.742 257.083 261.965C257.927 264.188 258.54 266.565 258.923 269.095H259.613C262.833 269.095 265.785 268.443 268.468 267.14C271.152 265.837 273.452 264.188 275.368 262.195L277.093 265.3C275.56 267.753 273.107 269.785 269.733 271.395C266.437 273.005 263.025 274.117 259.498 274.73C259.498 275.497 259.498 276.263 259.498 277.03C259.575 277.797 259.613 278.602 259.613 279.445C259.613 288.875 257.888 296.273 254.438 301.64C250.988 307.007 246.158 309.69 239.948 309.69C237.418 309.69 234.85 309.23 232.243 308.31C229.713 307.39 227.413 305.857 225.343 303.71C223.273 301.563 221.587 298.803 220.283 295.43C219.057 292.057 218.443 287.878 218.443 282.895C218.443 279.522 218.788 275.957 219.478 272.2C220.245 268.443 221.472 264.993 223.158 261.85C224.922 258.707 227.222 256.1 230.058 254.03C232.972 251.96 236.575 250.925 240.868 250.925ZM242.018 300.95C246.082 300.95 249.072 298.957 250.988 294.97C252.905 290.907 253.863 285.195 253.863 277.835C253.863 277.375 253.863 276.915 253.863 276.455C253.863 275.995 253.825 275.535 253.748 275.075C251.525 274.922 249.915 274.423 248.918 273.58C247.998 272.737 247.538 271.318 247.538 269.325C247.538 267.562 247.922 266.335 248.688 265.645C249.455 264.878 250.605 264.457 252.138 264.38C251.218 261.697 250.03 259.857 248.573 258.86C247.193 257.787 245.622 257.25 243.858 257.25C241.482 257.25 239.45 258.055 237.763 259.665C236.153 261.198 234.812 263.192 233.738 265.645C232.742 268.098 232.013 270.82 231.553 273.81C231.093 276.723 230.863 279.598 230.863 282.435C230.863 286.192 231.208 289.258 231.898 291.635C232.588 294.012 233.47 295.89 234.543 297.27C235.617 298.65 236.805 299.608 238.108 300.145C239.412 300.682 240.715 300.95 242.018 300.95ZM268.117 230.11L279.617 228.5V255.755C280.92 254.452 282.454 253.378 284.217 252.535C285.98 251.692 288.089 251.27 290.542 251.27C292.612 251.27 294.759 251.653 296.982 252.42C299.205 253.11 301.275 254.375 303.192 256.215C305.109 258.055 306.68 260.585 307.907 263.805C309.134 267.025 309.747 271.127 309.747 276.11C309.747 280.48 309.21 284.697 308.137 288.76C307.14 292.823 305.569 296.427 303.422 299.57C301.352 302.637 298.745 305.09 295.602 306.93C292.459 308.77 288.779 309.69 284.562 309.69C282.185 309.69 279.962 309.345 277.892 308.655C275.899 307.888 274.174 306.7 272.717 305.09C271.26 303.403 270.11 301.218 269.267 298.535C268.424 295.775 268.002 292.402 268.002 288.415L268.117 230.11ZM299.512 278.755C299.512 275.765 299.244 272.967 298.707 270.36C298.17 267.753 297.365 265.492 296.292 263.575C295.295 261.582 294.03 260.048 292.497 258.975C291.04 257.825 289.354 257.25 287.437 257.25C285.904 257.25 284.485 257.633 283.182 258.4C281.879 259.09 280.69 260.01 279.617 261.16V291.405C279.617 298.305 281.879 301.755 286.402 301.755C288.549 301.755 290.427 301.142 292.037 299.915C293.724 298.612 295.104 296.887 296.177 294.74C297.327 292.593 298.17 290.14 298.707 287.38C299.244 284.62 299.512 281.745 299.512 278.755ZM337.113 250.925C340.103 250.925 342.672 251.385 344.818 252.305C346.965 253.225 348.728 254.528 350.108 256.215C351.488 257.825 352.562 259.742 353.328 261.965C354.172 264.188 354.785 266.565 355.168 269.095H355.858C359.078 269.095 362.03 268.443 364.713 267.14C367.397 265.837 369.697 264.188 371.613 262.195L373.338 265.3C371.805 267.753 369.352 269.785 365.978 271.395C362.682 273.005 359.27 274.117 355.743 274.73C355.743 275.497 355.743 276.263 355.743 277.03C355.82 277.797 355.858 278.602 355.858 279.445C355.858 288.875 354.133 296.273 350.683 301.64C347.233 307.007 342.403 309.69 336.193 309.69C333.663 309.69 331.095 309.23 328.488 308.31C325.958 307.39 323.658 305.857 321.588 303.71C319.518 301.563 317.832 298.803 316.528 295.43C315.302 292.057 314.688 287.878 314.688 282.895C314.688 279.522 315.033 275.957 315.723 272.2C316.49 268.443 317.717 264.993 319.403 261.85C321.167 258.707 323.467 256.1 326.303 254.03C329.217 251.96 332.82 250.925 337.113 250.925ZM338.263 300.95C342.327 300.95 345.317 298.957 347.233 294.97C349.15 290.907 350.108 285.195 350.108 277.835C350.108 277.375 350.108 276.915 350.108 276.455C350.108 275.995 350.07 275.535 349.993 275.075C347.77 274.922 346.16 274.423 345.163 273.58C344.243 272.737 343.783 271.318 343.783 269.325C343.783 267.562 344.167 266.335 344.933 265.645C345.7 264.878 346.85 264.457 348.383 264.38C347.463 261.697 346.275 259.857 344.818 258.86C343.438 257.787 341.867 257.25 340.103 257.25C337.727 257.25 335.695 258.055 334.008 259.665C332.398 261.198 331.057 263.192 329.983 265.645C328.987 268.098 328.258 270.82 327.798 273.81C327.338 276.723 327.108 279.598 327.108 282.435C327.108 286.192 327.453 289.258 328.143 291.635C328.833 294.012 329.715 295.89 330.788 297.27C331.862 298.65 333.05 299.608 334.353 300.145C335.657 300.682 336.96 300.95 338.263 300.95ZM406.682 228.5V290.6C406.682 291.367 406.72 292.325 406.797 293.475C406.874 294.625 407.065 295.775 407.372 296.925C407.755 297.998 408.292 298.957 408.982 299.8C409.672 300.567 410.63 300.95 411.857 300.95C415.614 300.95 418.374 296.772 420.137 288.415H424.392C423.549 293.245 422.475 297.078 421.172 299.915C419.869 302.675 418.489 304.783 417.032 306.24C415.575 307.697 414.08 308.617 412.547 309C411.014 309.46 409.634 309.69 408.407 309.69C406.644 309.69 405.11 309.383 403.807 308.77C402.58 308.157 401.507 307.352 400.587 306.355C399.744 305.358 399.054 304.208 398.517 302.905C397.98 301.602 397.559 300.222 397.252 298.765C396.102 301.755 394.224 304.323 391.617 306.47C389.087 308.617 385.982 309.69 382.302 309.69C380.002 309.69 377.664 309.23 375.287 308.31C372.987 307.39 370.879 305.895 368.962 303.825C367.122 301.678 365.589 298.957 364.362 295.66C363.212 292.287 362.637 288.185 362.637 283.355C362.637 279.828 363.02 276.148 363.787 272.315C364.63 268.482 365.934 264.993 367.697 261.85C369.46 258.707 371.722 256.1 374.482 254.03C377.242 251.96 380.577 250.925 384.487 250.925C385.407 250.925 386.365 251.04 387.362 251.27C388.435 251.423 389.432 251.73 390.352 252.19C391.349 252.65 392.269 253.302 393.112 254.145C393.955 254.912 394.645 255.87 395.182 257.02V230.11L406.682 228.5ZM385.177 300.95C386.327 300.95 387.477 300.643 388.627 300.03C389.854 299.34 390.927 298.458 391.847 297.385C392.844 296.235 393.649 294.893 394.262 293.36C394.875 291.827 395.182 290.178 395.182 288.415V262.195C394.645 260.968 393.802 259.857 392.652 258.86C391.579 257.787 390.16 257.25 388.397 257.25C385.944 257.25 383.835 258.093 382.072 259.78C380.309 261.39 378.89 263.46 377.817 265.99C376.744 268.443 375.939 271.165 375.402 274.155C374.942 277.068 374.712 279.867 374.712 282.55C374.712 289.143 375.594 293.858 377.357 296.695C379.197 299.532 381.804 300.95 385.177 300.95ZM458.932 251.5V318.085C458.932 321.688 458.549 324.717 457.782 327.17C457.016 329.7 455.942 331.732 454.562 333.265C453.259 334.875 451.726 336.025 449.962 336.715C448.276 337.405 446.474 337.75 444.557 337.75C440.724 337.75 437.734 336.638 435.587 334.415C433.441 332.268 432.367 329.623 432.367 326.48C432.367 324.487 432.789 322.685 433.632 321.075C434.552 319.465 435.702 317.97 437.082 316.59C438.539 315.287 440.149 314.098 441.912 313.025C443.752 312.028 445.592 311.147 447.432 310.38V303.135C445.899 305.358 444.136 307.007 442.142 308.08C440.226 309.153 438.271 309.69 436.277 309.69C434.054 309.69 431.946 309.383 429.952 308.77C427.959 308.157 426.234 307.16 424.777 305.78C423.321 304.323 422.171 302.483 421.327 300.26C420.484 297.96 420.062 295.162 420.062 291.865V251.5H431.562V290.6C431.562 294.357 432.214 297.04 433.517 298.65C434.821 300.183 436.469 300.95 438.462 300.95C439.536 300.95 440.609 300.682 441.682 300.145C442.756 299.532 443.714 298.688 444.557 297.615C445.401 296.542 446.091 295.238 446.627 293.705C447.164 292.172 447.432 290.408 447.432 288.415V251.5H458.932ZM442.372 331.77C444.442 331.77 445.784 330.965 446.397 329.355C447.087 327.822 447.432 325.713 447.432 323.03V314.98C443.599 316.743 440.877 318.468 439.267 320.155C437.657 321.918 436.852 323.873 436.852 326.02C436.852 327.783 437.312 329.163 438.232 330.16C439.229 331.233 440.609 331.77 442.372 331.77Z" fill="black"/>
<defs>
<filter id="filter0_d_1_2" x="44.3894" y="24.4883" width="511.221" height="387.687" filterUnits="userSpaceOnUse" color-interpolation-filters="sRGB">
<feFlood flood-opacity="0" result="BackgroundImageFix"/>
<feColorMatrix in="SourceAlpha" type="matrix" values="0 0 0 0 0 0 0 0 0 0 0 0 0 0 0 0 0 0 127 0" result="hardAlpha"/>
<feOffset dy="4"/>
<feGaussianBlur stdDeviation="2"/>
<feComposite in2="hardAlpha" operator="out"/>
<feColorMatrix type="matrix" values="0 0 0 0 0 0 0 0 0 0 0 0 0 0 0 0 0 0 0.25 0"/>
<feBlend mode="normal" in2="BackgroundImageFix" result="effect1_dropShadow_1_2"/>
<feBlend mode="normal" in="SourceGraphic" in2="effect1_dropShadow_1_2" result="shape"/>
</filter>
</defs>
</svg>
