<?xml version="1.0" encoding="UTF-8" standalone="no"?>
<svg xmlns:dc="http://purl.org/dc/elements/1.1/" xmlns:cc="http://creativecommons.org/ns#" xmlns:rdf="http://www.w3.org/1999/02/22-rdf-syntax-ns#" xmlns:svg="http://www.w3.org/2000/svg" xmlns="http://www.w3.org/2000/svg" height="1149.5803" width="1590.0333" id="svg61" xml:space="preserve" viewBox="0 0 1590.0333 1149.5803" y="0px" x="0px" version="1.1"><metadata id="metadata67"><rdf:RDF><cc:Work rdf:about=""><dc:format>image/svg+xml</dc:format><dc:type rdf:resource="http://purl.org/dc/dcmitype/StillImage"/><dc:title/></cc:Work></rdf:RDF></metadata><defs id="defs65"/>
<style id="style2" type="text/css">
	.st0{display:none; fill: #e94939;}
</style>
<g transform="translate(-107.8,-329.3)" id="Logo_1_">
	<g style="fill:#fff;fill-opacity:1" id="Hot_Sauce_Co">
		<g style="fill:#fff;fill-opacity:1" id="g10">
			<path style="fill:#fff;fill-opacity:1" id="path4" d="m 265.8,1358.4 c 0,1.3 0.5,3 0,4.1 -0.8,1.6 -0.3,3 -0.5,4.3 -0.3,1.6 0,3 0,4.3 -0.3,2.2 0.8,4.1 0.5,6.2 0,2.2 -0.8,4.3 -0.5,6.5 0,2.2 0.3,4.6 0,6.5 -1.1,3.8 -0.3,7.6 -0.8,11.1 0,1.6 0.8,2.7 0.8,4.3 -0.3,1.6 -0.5,3.2 0,4.6 0.8,1.9 0.5,3.8 0.5,5.9 v 22.2 c 0,3.5 -1.4,6.8 -0.5,10.3 1.1,4.9 0.3,10 0.5,14.9 0.3,2.4 -0.8,4.9 -1.6,7 -1.1,3.2 -3.8,4.1 -6.8,4.6 -7.6,1.1 -15.1,0.5 -22.4,0.8 -2.2,0 -4.1,-0.5 -5.9,-0.8 -0.8,-0.3 -1.6,-0.5 -2.4,-1.3 -3,-2.4 -4.3,-5.4 -4.3,-9.2 0.3,-4.3 0.3,-8.9 0,-13.2 0,-2.4 1.1,-4.6 0.8,-7 -0.3,-2.2 0.3,-4.9 0,-7 -1.1,-4.3 -0.8,-8.7 -0.5,-13 0.3,-3.2 0.5,-6.5 0.5,-9.7 0,-0.8 -1.6,-5.4 -1.9,-5.9 -1.9,-2.4 -4.6,-2.7 -7.3,-2.2 -2.4,0.5 -4.9,1.3 -7.3,2.4 -2.4,1.1 -4.3,3 -6.2,4.9 -0.8,0.8 -1.1,1.6 -1.4,2.4 -0.8,2.7 -1.4,5.1 -1.4,7.8 0,2.4 -0.5,5.1 -0.5,7.6 -0.3,2.2 0.8,3.8 0.5,5.9 0,1.9 -0.3,4.1 0.3,5.9 0.5,2.4 0,4.6 0.5,6.8 0.5,2.2 0.5,4.1 0.5,6.2 0,1.6 0,3.2 -0.5,4.9 -0.5,1.3 -0.3,3 -0.5,4.6 -0.5,1.6 -0.8,3.2 -1.4,4.6 -1.6,3.2 -4.3,4.9 -7.8,5.4 -7,1.1 -13.8,0.3 -20.8,0.3 -2.2,0.3 -4.6,-0.3 -6.8,-1.6 -2.2,-1.3 -4.1,-3 -4.3,-5.9 -0.3,-1.3 -0.5,-3 -0.5,-4.6 v -34.6 c 0,-2.2 -0.5,-4.1 -0.8,-6.2 0,-2.2 0.3,-4.1 0,-6.2 0,-1.9 0.5,-3.5 0.8,-5.1 0,-1.9 -0.3,-3.5 0,-5.1 0.3,-1.3 0.8,-2.7 0.5,-3.8 -0.8,-2.7 -0.3,-5.4 -0.8,-8.1 -0.8,-5.4 -0.3,-10.6 -0.5,-15.9 0,-5.4 -0.5,-10.8 0.3,-16.2 0.5,-5.4 0.3,-10.5 0.5,-15.9 0,-5.4 -0.3,-10.8 0,-16.2 0,-2.2 -1.1,-4.3 -0.8,-6.5 0.3,-2.2 0,-4.3 0,-6.5 0,-3.2 1.1,-6.2 0.8,-9.5 -0.3,-3.3 -0.3,-6.2 0,-9.5 0.3,-1.9 0.8,-4.1 2.4,-5.4 1.6,-1.6 3.8,-2.2 5.9,-2.4 6.2,0 12.2,0 18.4,0 h 5.7 c 2.7,0 6.8,2.4 8.1,4.9 0.5,0.5 0,1.6 0.8,1.9 -0.3,2.2 0.8,3.8 0.8,5.7 v 37.6 c -1.4,7 -0.5,14.3 -0.8,21.6 0,1.6 0.5,3 0.8,4.3 0.5,1.3 2.2,2.4 3.2,3.5 0.5,0.8 1.4,0.3 2.2,0.5 4.1,0.3 7.6,-1.3 11.1,-3 3,-1.3 5.1,-3.8 6.5,-6.8 0,-0.3 0.3,-0.5 0.3,-0.8 0,-3 1.1,-5.4 0.5,-8.4 -0.3,-2.2 0.8,-4.1 0.8,-6.2 0,-2.2 -0.3,-4.3 0,-6.5 0,-1.1 1.1,-2.2 0.5,-3.2 -1.1,-2.7 -0.5,-5.9 -0.5,-8.7 0,-3.2 -0.5,-6.2 0,-9.2 0.8,-3.5 0.3,-6.8 0.5,-10 0.3,-1.9 -1.1,-3.5 -0.5,-5.4 0.3,-1.6 0,-3.5 0.8,-5.1 1.4,-2.4 3.2,-4.6 6.5,-5.4 1.6,-0.3 3.2,-0.3 4.9,-0.5 5.4,-1.3 10.5,-0.3 15.9,-0.8 1.4,0 2.4,0.8 3.5,0.8 1.4,0 2.4,0 3.8,0.5 2.4,1.1 5.1,2.7 6.2,6.5 0,0.3 0.5,0.5 0.5,0.5 -0.5,2.7 0.8,4.9 0.5,7.3 v 27 24.6 z"/>
			<path style="fill:#fff;fill-opacity:1" id="path6" d="m 402.3,1340.6 c 0,5.4 0,10.5 -0.3,15.7 0,3.2 1.6,6.2 0.8,9.5 -1.1,4.3 -0.5,8.4 -0.5,12.7 -0.3,4.3 0,8.4 0,12.7 0,2.7 0.8,5.1 0.5,7.8 -0.3,2.7 0.3,5.4 0,8.1 -1.1,6.2 -0.5,12.4 -0.5,18.9 -0.3,6.2 -0.3,12.4 0,18.7 0,1.6 -1.1,2.7 -0.8,4.3 0.3,1.3 0.3,2.7 -0.5,4.1 -0.5,1.1 -0.3,2.4 -0.5,3.8 -0.3,1.6 -1.1,2.7 -1.4,4.1 -0.3,1.3 -1.1,2.4 -1.9,3.5 -1.4,1.6 -3,3 -5.1,4.3 -2.7,1.9 -6.2,2.4 -9.5,3.8 -1.9,0.8 -3.8,1.3 -6,1.9 h -1.4 c -10.3,-0.5 -20.5,1.1 -31.1,0.8 -3,-0.3 -5.9,-0.3 -8.9,0 -3.2,0 -6,-1.3 -8.9,-0.8 -1.6,-1.1 -3.5,0 -4.9,-0.8 -1.6,-0.8 -3.5,0 -4.9,-0.5 -3,-0.8 -6,-0.8 -8.6,-2.2 -2.4,-1.1 -4.9,-2.7 -6.8,-4.3 -2.2,-1.9 -4.6,-7.3 -4.9,-10.3 0,-1.3 -0.8,-2.7 -0.5,-4.1 -1.4,-1.1 0.3,-3.2 -1.4,-4.1 0,-4.1 -1.4,-7.8 -1.4,-11.9 0.3,-7.3 -0.3,-14.6 0.3,-21.9 1.1,-16.2 0.3,-32.4 0.5,-48.4 v -48.4 c 0,-2.4 0.5,-5.1 1.6,-7.3 3,-6.5 4.9,-8.7 10.5,-13.2 1.9,-1.6 3.5,-2.7 6,-3.2 1.4,-0.3 2.7,-1.1 4.3,-1.1 14.6,0.5 29.2,-0.8 43.8,-0.5 h 10 c 3.8,-0.3 7.3,0.5 10.8,1.1 3.8,0.5 7,1.9 10,3.5 3.2,1.3 5.4,4.1 7.3,7 0.5,0.8 2.2,5.4 1.9,6.2 -0.3,1.1 0.8,1.9 0.8,3 -0.3,1.1 -0.3,2.2 0.5,3 0.3,0 0,0.5 0,0.5 -0.3,2.4 0.8,4.6 0.8,7 -0.3,2.4 0,4.6 0,7 z m -42.2,-2.2 c 0,-1.6 -0.8,-3 -1.4,-4.3 -0.5,-1.9 -2.2,-3.2 -3.8,-4.3 -1.1,-0.8 -3,-1.1 -4.9,-1.3 -3,-0.3 -5.7,0.5 -8.4,1.3 -2.7,0.8 -5.7,4.9 -5.7,7.6 -0.3,8.9 0.5,17.8 -0.8,27 0.5,4.9 -0.3,10 0.5,15.1 0.8,4.9 -0.3,10 0.8,15.1 0.3,1.6 0,3.5 -0.5,5.4 -0.5,1.9 -0.3,4.1 0,5.9 0.3,1.9 -0.8,3.8 -0.8,5.9 0.5,5.9 -0.3,11.9 0.8,17.8 0.3,2.7 1.6,4.9 3.8,6.2 1.9,1.3 4.3,2.2 6.8,2.2 1.6,0 3.2,-0.3 4.6,0 1.6,0 3.2,-0.3 4,-1.1 1.9,-1.3 3.5,-2.7 4,-5.1 0.5,-1.3 0.8,-2.4 0.8,-3.8 -0.3,-1.6 0.8,-2.7 0.5,-4.3 -0.3,-3.2 0,-6.8 0,-10 0,-3.2 -0.3,-6.5 0,-9.7 0.3,-3.5 -0.8,-6.5 -0.8,-9.7 0.3,-8.9 0.3,-17.8 0.3,-26.8 v -29.1 z"/>
			<path style="fill:#fff;fill-opacity:1" id="path8" d="m 451.7,1287.1 c 3.8,0 7.3,0.8 11.1,0.5 3.8,-0.3 7.6,0 11.4,0 h 11.1 c 3.8,0 7.6,0 11.4,0 h 11.4 c 3.2,0 6.2,-0.8 9.5,-0.5 h 9.7 c 3.2,0 6,1.1 7.8,3.8 0.8,0.8 1.1,2.2 1.1,3.2 0,5.1 0.3,10.5 0,15.7 -0.3,2.4 -0.5,5.1 -0.5,7.8 -0.3,2.4 -2.4,5.4 -5.1,6.2 -1.3,0.5 -2.7,0.8 -4.3,0.8 -1.1,0 -2.2,-0.5 -3.2,0.5 -0.3,0.3 -1.3,0.3 -1.9,0 -3,-0.5 -3,-0.5 -5.1,0 -0.8,0.3 -1.6,0 -2.4,0 -4,0 -6.8,2.2 -8.9,5.1 -1.1,1.3 -1.6,3.5 -1.4,5.4 0.3,2.4 -1.1,4.3 -0.8,6.8 0.3,2.2 0.3,4.3 0,6.5 -0.3,1.3 -0.8,3 -0.5,4.6 1.1,3.5 0,7 0.8,10.5 0.8,4.1 0.3,7.8 0.5,11.9 0.3,3.2 -1.1,6.2 -0.8,9.5 -1.4,4.6 -0.3,9.5 -0.5,14.3 1.4,6.8 0.5,13.5 0.5,20 0.3,4.9 0.3,9.7 0,14.6 0,3.5 1.1,6.5 0.8,10 -0.3,3.2 -0.3,6.5 0,10 0.3,2.4 -0.8,4.9 -0.8,7.6 0.3,2.4 -1.1,4.6 -1.1,7 0,0.3 0,0.5 -0.3,0.8 -1.1,1.1 -1.9,2.2 -3.2,3 -0.5,0.8 -1.6,0.8 -2.4,1.1 -2.4,0 -4.9,0.8 -7.6,0.8 -2.4,-0.3 -5.1,-0.5 -7.6,0 -3.2,0.8 -6.2,0.3 -9.2,0.5 -3.8,0 -7.8,-2.2 -10,-5.4 -0.3,-0.5 0.3,-1.6 -0.5,-1.9 0,-1.9 -0.5,-3.5 -0.8,-5.1 -0.5,-3.2 -0.3,-6.2 -0.8,-9.2 -0.8,-3.8 -0.3,-7.3 -0.5,-10.8 0,-3.5 -0.3,-7.3 0.3,-10.8 0.8,-6.2 -0.3,-12.4 0.5,-18.7 0.5,-4.3 0.5,-8.4 0.5,-12.4 0,-4.1 0.3,-8.4 0,-12.4 -0.8,-5.9 -0.5,-11.6 -0.8,-17.6 0,-1.6 0.8,-3.2 0.8,-4.9 0,-1.7 -0.5,-3.5 0.5,-4.9 0.3,-0.3 0.3,-1.1 0,-1.3 -1.1,-1.9 -0.3,-4.1 -0.5,-6.2 -1.1,-6.5 -0.3,-12.7 -0.8,-19.2 0,-1.9 -0.8,-3.8 -2.2,-5.1 -1.9,-2.2 -4.1,-3 -7,-3.5 -5.1,-0.8 -10.5,0 -15.7,-0.5 -3.2,-0.3 -7,-2.2 -8.1,-6.2 -0.3,-1.3 -0.5,-2.2 -0.5,-3.5 v -11.6 c -0.3,-1.6 0.8,-3.2 0.5,-4.9 v -5.1 c 0.5,-3 2.4,-5.1 5.1,-6.2 1.4,-0.3 2.7,-0.8 4.1,-0.5 h 8.9 z"/>
		</g>
		<g style="fill:#fff;fill-opacity:1" id="g22">
			<path style="fill:#fff;fill-opacity:1" id="path12" d="m 697.6,1289.8 c 2.7,0.3 5.4,-1.1 8.4,-0.8 3,0.3 5.9,0.3 8.7,0 2.2,0 4.3,0.8 6.2,0.8 2.2,0 3.8,0.8 5.7,1.3 1.9,0.5 3.5,0.8 5.4,1.6 1.6,0.5 3.2,1.3 4.6,2.2 1.3,0.5 2.2,1.3 3.2,2.2 0.8,1.1 1.6,1.9 2.7,3 2.2,1.9 3,4.6 3.8,7.3 0.8,3.5 1.3,6.8 1.3,10.3 -0.3,1.3 0.8,2.4 0.5,4.1 -0.3,1.1 -0.3,2.7 0.5,3.8 -0.3,4.3 1.3,8.1 0.8,12.2 -0.5,3 -0.8,5.9 -1.9,8.9 -0.8,2.4 -2.4,3.5 -4.1,5.1 -1.1,0.8 -2.7,1.1 -4.3,1.1 -5.9,0 -11.6,-0.3 -17.6,0 -2.4,0 -4.9,-0.5 -7.3,-0.8 -0.5,0 -1.3,-0.5 -1.9,-1.1 -1.3,-0.8 -2.4,-1.9 -3.2,-3.2 -0.8,-0.8 -1.3,-2.4 -1.3,-3.5 0.3,-2.7 -0.5,-5.4 -0.8,-7.8 0,-1.9 -1.1,-4.1 -2.4,-5.1 -1.3,-1 -3,-2.4 -5.1,-2.4 -1.9,-0.3 -4,-0.8 -6.2,-0.5 -1.6,0 -3.2,0.3 -4.6,0.8 -2.7,1.1 -4.6,3 -5.4,5.7 -0.5,1.3 -0.8,2.7 -0.8,4.1 0.3,2.2 0,4.1 0.3,6.2 0,1.6 0.8,5.9 1.9,7.3 1.3,1.6 3,3.5 4.9,4.9 3,2.4 6.8,3.5 9.7,5.9 1.9,0 3.2,1.9 4.9,2.4 1.9,0.8 3.5,1.6 5.1,2.7 1.6,1.3 3.2,2.2 4.9,3.2 1.9,1.3 4.1,2.2 6.2,3 l 5.1,2.4 c 1.9,0.8 3.2,2.2 4.9,3.2 1.6,1.1 3.2,2.2 4.9,3 l 4.9,3.5 c 3.5,2.7 6,6.2 7.3,10.3 1.1,3.2 1.6,6.5 2.2,9.7 0.5,3.5 0.5,7 0.5,10.8 0,3.5 0.5,7.3 0,10.8 -0.8,6.2 -0.3,12.2 -0.8,18.1 -0.3,2.7 -0.5,5.7 -1.6,8.7 0.3,2.2 -1.1,4.3 -1.6,6.5 -0.3,2.2 -1.3,4.3 -2.7,5.9 -2.4,3 -5.1,5.7 -9.5,6.8 -2.4,0.5 -4.6,1.3 -6.8,2.2 -1.1,0.3 -2.2,0.3 -3.2,0.3 -0.8,0 -1.6,0.8 -2.7,0.8 -3.5,-0.5 -7,1.1 -10.5,0.5 -4.6,1.3 -9.2,0.3 -13.8,0.5 -1.6,0.3 -3.2,0 -4.9,-0.5 -1.7,-0.5 -3.2,0.5 -4.6,-0.5 -0.5,-0.3 -1.3,0 -1.9,0 -3.8,0 -7.6,-0.3 -11.1,0 -4,0 -7.8,-1.3 -11.9,-2.4 -1.3,-0.3 -2.7,-0.5 -4,-1.1 -3.2,-1.3 -6.5,-2.7 -9.7,-4.6 -1.6,-0.8 -3,-2.7 -4.3,-4.1 -1.9,-1.6 -3.2,-3.5 -4,-5.9 -0.5,-1.3 -1.1,-2.7 -1.1,-4.3 0.3,-7.6 -1.1,-15.1 -0.8,-22.7 0.3,-2.7 0,-5.4 0,-8.1 0,-3.8 1.6,-6.8 4.3,-9.2 0.8,-0.8 1.3,-0.5 2.2,-0.8 1.6,-0.8 3.5,-1.1 5.7,-1.1 h 8.9 c 4,-0.3 7.8,1.1 11.9,0.5 1.1,0.8 2.7,0.5 3.8,0.8 1.3,0.5 3,1.6 3.5,3.2 0.3,0.8 1.3,1.6 1.3,2.4 -0.3,2.2 0.8,3.8 0.5,5.9 -0.3,2.4 0.5,4.9 1.6,7 1.6,3 4.1,4.6 7.3,5.4 3.2,0.8 6.2,0.5 9.5,0.5 1.6,0 3,-0.8 4.3,-2.2 3.2,-3.2 4.1,-6.5 2.7,-11.1 -0.3,-1.1 0.5,-2.2 -0.5,-3.2 -0.8,-5.4 -4,-8.9 -7.8,-12.2 -3.5,-3 -7.6,-5.1 -11.6,-7.3 -1.6,-0.8 -3.2,-1.3 -4.6,-1.9 -1.6,-0.8 -3,-1.6 -4.3,-2.4 -3.2,-1.3 -6,-3.5 -8.9,-5.1 -1.1,-0.5 -2.2,-1.3 -3.2,-1.6 -1,-0.3 -1.6,-2.2 -3.2,-1.6 -1.6,-1.1 -3.2,-2.2 -4.6,-3.2 -3,-2.7 -5.4,-5.7 -7.8,-8.9 -0.8,-1.3 -2.2,-2.7 -3.2,-4.1 -2.4,-2.4 -3.8,-5.4 -4.9,-8.7 -0.5,-1.3 -0.8,-2.7 -0.8,-4.1 0.5,-12.7 -0.8,-25.4 -0.5,-37.8 0,-3.2 0.8,-6.5 1.1,-9.7 0.3,-3.2 1.1,-6.2 2.2,-9.2 0.5,-1.6 1.6,-3 2.7,-4.3 3,-3 6,-5.7 9.7,-7.6 2.2,-1.1 4.6,-2.2 7.3,-2.2 2.2,-0.3 4.3,-1.1 6.5,-0.8 2.4,0.3 4.9,0 7.3,0 h 6.8 z"/>
			<path style="fill:#fff;fill-opacity:1" id="path14" d="m 878.7,1476.6 c -2.2,0 -4.6,-0.3 -7,0 -2.7,0.3 -5.4,-0.8 -8.1,-0.8 -0.5,0 -0.8,-0.3 -1.1,-0.5 -3,-1.6 -4.9,-3.8 -5.7,-7.3 l -3.2,-14.9 c -0.8,-3.2 -2.4,-5.9 -5.1,-8.1 -0.3,0 -0.3,-0.3 -0.8,-0.3 -1.9,0.3 -3.5,0 -5.7,0.5 -3.2,1.1 -6.5,2.4 -9.5,4.1 -3.5,1.9 -7.3,3 -11.1,4.3 -4.3,1.6 -7,5.4 -8.7,9.5 -0.5,1.6 -0.8,3.2 -1.3,4.9 -0.5,1.3 -1.1,3.2 -2.2,4.6 -1.9,2.4 -4.6,3.8 -7.6,3.8 -7.3,0.3 -14.6,0.3 -21.9,0 -2.4,0 -5.1,-0.5 -7.3,-2.2 -1.1,-0.8 -2.4,-1.6 -2.4,-2.7 0,-1.3 -0.8,-2.4 -0.8,-3.8 0.3,-2.4 -0.5,-4.6 0.8,-7 -0.5,-2.2 0.5,-4.3 0.5,-6.5 0.3,-1.3 0.3,-3 1.1,-4.3 0.8,-1.3 -0.5,-3 0.8,-4.3 0,-2.7 0.8,-5.1 1.3,-7.8 0.8,-3.5 1.1,-7.3 2.4,-10.5 0.5,-1.3 0.3,-2.7 0.5,-4.1 0.8,-2.7 1.1,-5.7 2.2,-8.7 0.3,-1.1 0.3,-2.4 0.5,-3.8 0.8,-3 1.1,-6.2 2.2,-9.2 -0.5,-1.9 0.8,-3.8 0.5,-5.7 -0.3,-1.3 0.8,-1.9 0.8,-3.2 -0.3,-1.1 -0.5,-2.4 0.5,-3.2 -0.5,-3 0.5,-5.7 0.8,-8.1 0,-2.7 0.5,-5.1 1.1,-7.8 0.3,-1.3 0.3,-3.2 0.8,-4.9 0.8,-4.6 1.1,-9.2 3,-13.5 0.3,-3.5 2.4,-6.5 2.2,-10 0.8,-1.3 0.3,-3 0.5,-4.3 0.5,-1.6 0.3,-3.2 0.8,-4.6 0.8,-3 1.1,-5.9 1.6,-8.7 l 1.6,-8.9 c 0.5,-2.7 0.8,-5.1 1.6,-7.8 0.5,-1.6 0.5,-3.2 0.8,-5.1 0.5,-2.7 0.8,-5.4 1.9,-7.8 0.8,-1.9 1.6,-3.8 2.7,-4.3 1.6,-1.1 3.2,-1.6 5.1,-1.6 h 23.8 c 1.9,0 4,0.3 6.2,-0.3 3,-0.8 6.2,-0.3 9.5,-0.5 3,0 6.2,0.3 9.2,0 4.6,-0.3 7.6,2.4 10.3,5.4 0.3,1.9 1.6,3.8 2.2,5.7 1.1,3.8 2.2,7.6 3,11.6 0.5,1.9 1.3,3.8 0.8,5.9 -0.3,1.1 1.1,1.6 0.8,3 -0.3,0.8 -0.5,1.9 0.5,2.4 -0.5,2.2 0.5,4.1 0.8,5.9 0.3,3 0.3,6.2 1.1,9.2 0.3,1.3 0.3,3 0.5,4.3 l 0.8,3.8 c 0.5,1.9 0.5,4.1 1.3,5.7 0.8,1.9 0.8,3.8 1.3,5.7 0.5,0.8 0.5,1.6 0.5,2.4 0,0.8 0.8,1.3 0.5,2.2 -0.5,2.2 0.5,4.3 0.8,6.2 0.5,2.7 0.8,5.4 1.6,7.8 0.5,1.3 -0.3,3 0.8,4.1 0,3 1.1,5.7 1.6,8.4 0.3,2.2 0.8,4.6 1.3,7 0.5,1.6 1.3,3.5 1.1,5.4 -0.3,1.3 0.8,2.7 0.5,4.1 0,1.1 -0.5,2.4 0.5,3.5 0.3,0.3 0,0.8 0.3,1.3 0,3.8 1.3,7 1.1,10.8 1.1,1.1 0.5,2.4 0.8,3.5 0.3,1.1 0.3,2.4 0.5,3.5 0.8,2.4 0.8,5.4 1.9,7.8 0.3,1.3 -0.3,2.7 0.8,3.5 -0.5,1.9 0.3,3.8 0.8,5.4 0.3,1.3 0,3.2 1.1,4.6 -0.3,3.2 1.3,6.2 1.3,9.5 1.1,2.4 0.3,5.1 0.5,7.6 0.3,1.9 -0.8,3.5 -1.6,4.9 -0.5,1.1 -1.9,2.2 -3.5,2.4 -1.6,0.2 -3.2,1.1 -4.9,1.1 z m -48.1,-67.1 c 1.1,-0.3 2.4,0.3 3.8,-0.3 1.9,-0.8 3.5,-1.6 5.4,-2.7 2.4,-2.2 4,-4.3 4,-7.3 0,-1.9 0.5,-3.5 -0.5,-5.4 -0.8,-1.6 0.5,-3.8 -0.8,-5.4 0.3,-3.5 -0.5,-6.8 -1.1,-10 -0.5,-2.4 -1.1,-4.6 -1.3,-7 -0.5,-4.1 -1.6,-7.6 -2.7,-11.3 -0.3,-1.6 -1.3,-2.7 -2.4,-3.8 -0.8,-0.8 -1.3,-0.8 -2.2,0 -0.8,0.5 -1.9,2.7 -2.4,4.1 -1.1,2.4 -1.3,4.9 -2.2,7.3 -0.9,2.4 -0.5,5.1 -1.9,7.6 0.3,3.2 -1.1,6.2 -1.3,9.2 -0.3,1.9 0,3.8 -0.5,5.1 -0.5,1.6 -0.8,2.7 -0.5,4.1 0.3,1.6 -0.8,2.7 -0.8,4.3 0.3,1.6 0,3 0,4.6 0,1.6 0.8,3.2 1.3,4.6 0.8,1.6 2.2,3 4.3,2.4 z"/>
			<path style="fill:#fff;fill-opacity:1" id="path16" d="m 960.9,1351.1 c 0,4.3 0.8,8.4 0.8,12.7 0,4.6 -1.1,8.9 -0.8,13.2 -0.8,2.2 -0.8,4.1 0,5.9 -0.5,4.3 0.8,8.4 0.8,12.4 -0.3,3.5 -0.3,6.8 0,10 0,3.2 -1.3,6.5 -0.8,9.5 -1.3,4.1 -0.3,7.8 -0.5,11.9 1.3,4.6 2.4,9.2 7.6,11.3 0.5,0.3 1.1,0.5 1.6,0.5 1.3,-0.3 2.7,0.5 3.5,0.3 1.3,-0.5 2.7,-0.3 3.8,-0.3 4,-0.8 8.7,-3.2 9.5,-8.4 0.5,-2.7 0.8,-5.4 0.5,-8.1 -0.5,-3.5 0,-7.3 -0.8,-11.1 -0.5,-4.1 -0.3,-8.1 -0.3,-12.4 -0.3,-2.2 -0.3,-4.3 0.3,-6.5 0.8,-1.9 0.3,-4.1 0.8,-6.2 0.3,-2.2 0.8,-4.6 -0.5,-6.8 v -0.3 c 0.5,-3 -0.8,-5.7 -0.8,-8.7 0.3,-8.4 0,-16.5 0,-24.9 0.3,-7.6 1.1,-14.9 0.8,-22.4 -0.3,-7.6 -0.3,-15.1 0,-22.7 0,-2.4 0.5,-5.1 2.4,-7.3 1.6,-2.2 4.3,-2.7 6.8,-3 7.3,-0.3 14.9,0 22.4,0 1.1,0 1.9,0.8 3.2,0.8 1.1,-0.3 2.2,0 3.2,0.3 2.7,0.8 3.8,2.7 4.6,4.9 0.5,1.9 0.8,3.8 0.8,5.9 -0.3,2.2 0.3,4.6 -0.3,6.8 -0.8,2.7 -0.8,5.7 -0.3,8.4 0.8,4.9 0,9.5 0.5,14.1 0,2.4 -1.1,4.6 -0.8,6.8 0.3,2.4 0.5,4.9 0,7 -1.1,4.3 -0.8,8.7 -0.5,13 0.8,5.9 0.5,11.6 0.5,17.6 0.3,5.7 0,11.6 0,17.6 0,2.4 -0.8,4.6 -0.5,7 v 7.3 c 0,1.6 0,3.5 0.5,5.1 0.5,1.6 0,3.5 0.5,5.4 0.5,1.6 0.8,3.8 -0.5,5.4 -0.3,0.5 0,1.3 0,1.9 0,3 0.5,5.9 0,8.9 -0.8,4.1 -0.3,8.4 -0.5,12.7 0,1.1 -0.5,2.2 0.5,3.2 0.3,0.3 0.3,1.3 0,1.9 -0.8,2.4 -0.5,4.9 -1.3,7.3 -0.8,2.2 -1.9,4.1 -3.2,5.9 -2.2,3.2 -5.4,5.9 -9.2,7 -3.5,1.1 -6.8,2.4 -10.3,3.2 -1.9,0.3 -3.8,1.1 -5.7,0.8 -1.3,-0.3 -2.7,0.8 -4.3,0.5 -1.1,0 -2.7,-0.5 -3.8,0.5 -0.5,0.5 -1.3,0.3 -1.9,0.3 -9.2,0 -18.4,-0.3 -27.3,0 -1.9,0 -3.2,-1.1 -4.9,-0.8 -1.6,0.3 -3.5,0.5 -4.9,0 -2.2,-0.8 -4.3,-0.3 -6.2,-0.5 -4.3,-1.1 -8.9,-0.8 -12.7,-3.2 -1.3,-0.8 -2.7,-1.6 -3.8,-2.7 -1.1,-0.8 -2.2,-1.3 -3.2,-2.4 -3,-3.2 -5.4,-7 -6.5,-11.1 -0.3,-0.3 -0.3,-0.5 -0.3,-0.5 0,-2.7 -0.8,-5.1 -0.8,-7.6 0.3,-4.9 0.3,-9.7 0,-14.3 -1.1,-14.9 -0.5,-29.5 -0.5,-44.1 -0.3,-14.9 0,-29.5 0,-44.3 v -44.3 c -0.3,-1.9 0.3,-3.5 0.8,-5.1 0.5,-2.4 2.4,-4.3 4.6,-5.1 2.2,-0.5 4.6,-1.3 7,-1.3 3.8,0 7.6,-0.3 11.3,0 3.8,0.5 7.6,0.3 11.4,0.8 2.7,0.3 4.9,2.2 6.2,4.3 1.1,1.6 1.3,3.2 1.3,5.1 v 26.2 z"/>
			<path style="fill:#fff;fill-opacity:1" id="path18" d="m 1096.1,1292.8 c 4.1,0 7.8,0 11.9,0.3 3.2,0 6.5,0.8 10,0.5 3,0 5.9,-1.1 8.9,-0.8 1.6,0.3 3.5,-0.3 5.1,0.5 1.6,0.8 3.2,-0.3 4.9,0.8 0.8,0.3 1.9,0 2.7,0 0.8,0 1.1,0.8 1.9,0.8 3.2,0.3 6.2,1.6 9.5,2.7 1.1,0.3 1.9,1.1 3,1.9 1.3,1.6 3,3 4.3,4.3 1.6,1.9 2.2,4.6 3.5,6.8 0.5,1.1 0.5,2.4 1.1,3.5 0.8,1.1 -0.3,2.4 0.8,3.8 0.5,1.1 -0.3,2.7 0,3.8 1.3,5.9 0.3,11.6 0.5,17.3 0.3,1.9 0.3,3.5 -0.5,5.4 -0.5,1.3 0.5,3.2 -0.5,4.9 -0.3,0.5 -0.3,1.3 0,1.9 0.3,2.4 -0.5,4.9 -0.8,7.3 -0.3,2.2 -2.2,3.8 -4.3,4.3 -1.6,0.5 -3.2,1.1 -5.1,0.8 h -3.5 c -4.6,-0.3 -9.2,-0.8 -13.8,-0.8 -1.3,0.3 -3,-0.3 -4.3,-0.8 -4.1,-1.6 -5.9,-4.6 -5.7,-8.7 0,-1.6 -1.1,-3 -0.8,-4.6 0.3,-1.6 0.3,-3.2 0,-4.9 -0.3,-1.1 -0.8,-2.4 -0.5,-3.5 0.3,-1.3 -0.5,-2.4 -0.8,-3.8 -0.8,-2.7 -2.4,-4.9 -5.1,-6.5 -1.1,-0.5 -2.4,0.3 -3.5,-0.5 -0.8,-0.5 -1.6,-0.3 -2.7,0.3 -1.1,0.6 -2.7,-0.5 -4.1,0.8 -2.4,0 -4.1,1.9 -5.1,3.5 -1.3,1.9 -1.9,4.1 -2.2,6.5 -0.8,6.8 -0.5,13.2 -0.5,20 -1.3,3.5 -0.5,7.6 -0.5,11.3 -0.3,1.9 -0.5,4.1 0.3,6.2 0.8,1.9 -0.3,4.1 0.8,6.2 0.3,0.5 0,1.3 0,1.9 v 11.6 c 0.3,2.2 -0.8,3.8 -0.5,5.9 v 6.2 c 0,1.9 0.3,4.1 -0.3,6.2 -0.8,3.5 -0.3,7.3 -0.5,11.1 0,2.2 0.8,4.3 1.9,6.2 1.3,3 3.8,4.1 6.8,4.6 1.1,0.3 2.4,-0.3 3.5,0.5 0.3,0.3 1.1,0.3 1.3,0 0.5,-0.8 1.6,-0.5 2.4,-0.5 3.2,0 5.7,-1.3 7.8,-3.8 1.1,-1.6 1.3,-3.5 1.6,-5.1 0,-2.7 0.5,-5.1 -0.5,-7.8 -0.5,-1.3 0,-8.1 0.5,-9.5 0.3,-0.8 1.9,-3 3,-3.5 0.5,-0.8 1.3,-1.9 2.2,-1.9 1.6,0 3,-1.1 4.9,-0.8 6.2,0.5 12.4,-1.1 18.9,-0.8 1.3,0.3 3,0.3 4.1,0.8 2.7,1.1 4.6,3 5.4,5.9 0.3,2.2 0.3,4.1 0.5,5.9 1.1,4.6 0.5,9.2 0.5,13.8 0.3,4.6 0.3,8.9 0,13.5 -0.3,5.1 -0.8,10 -2.4,14.9 -0.8,2.2 -1.9,4.3 -3.5,5.9 -3,4.1 -7,6.2 -11.9,7.6 -2.2,0.5 -4.6,0.8 -7,1.3 -2.7,0.5 -5.7,0 -8.4,0.5 -3,0.8 -5.7,0.3 -8.7,0.5 -2.2,0.5 -4.3,1.1 -6.2,0.5 -4.1,-0.8 -8.1,0 -12.2,-0.5 -3.2,-0.5 -6.8,-0.5 -10,-0.5 h -10 c -4.3,-0.3 -8.4,-1.3 -12.2,-2.7 -3.2,-1.3 -5.1,-3.8 -7.3,-6.2 -1.3,-1.3 -2.2,-3.2 -2.7,-5.1 -1.1,-3 -1.6,-5.9 -2.2,-8.9 0,-1.9 -0.3,-3.8 -0.3,-5.7 -0.3,-1.3 -1.1,-2.4 -0.8,-3.8 0.3,-1.1 0.3,-2.2 -0.5,-3.2 -0.3,0 0,-0.3 0,-0.5 0.3,-2.4 -0.8,-4.9 -0.8,-7.3 v -7.3 c 0,-2.7 -0.3,-5.1 0.3,-7.6 1.1,-9.5 0.3,-18.9 0.5,-28.7 1.1,-4.3 0.8,-8.9 0.5,-13.2 -0.8,-6.2 0,-12.7 -0.8,-18.9 -0.3,-3.8 -0.3,-7.8 -0.5,-11.6 0,-4.1 0,-7.8 0.3,-11.9 0,-3.2 0.8,-6.5 0.5,-9.7 0.8,-1.3 0.3,-2.7 0.5,-4.1 l 0.8,-4.1 c 0.8,-2.7 1.1,-5.7 2.4,-8.4 0.5,-1.3 0.8,-3 1.6,-4.1 1.3,-1.9 3,-3.2 4.6,-4.9 1.3,-1.1 3.2,-1.9 5.1,-2.4 l 4.3,-1.1 c 1.3,-0.5 3,0.3 4.6,-0.8 0.3,-0.5 1.1,-0.3 1.9,-0.3 z"/>
			<path style="fill:#fff;fill-opacity:1" id="path20" d="m 1239.9,1288.2 c 12.4,0 24.6,0 36.8,0.3 4.1,0 7,1.6 8.7,5.4 0.3,0.8 0.3,1.6 0.3,2.2 0,4.9 1.3,9.5 0.8,14.3 1.1,2.7 0.5,5.7 0.5,8.7 0,4.6 -3,7.6 -7.6,7.6 -4.1,0 -8.1,-0.8 -12.2,-0.5 -4.1,0 -8.1,0.3 -11.9,-0.3 -3.5,-0.5 -6.8,-0.3 -10,-0.5 -2.4,0 -4.3,0.8 -5.9,2.7 -0.8,0.8 -2.2,1.3 -2.2,2.2 0,1.3 -0.5,2.7 -0.8,4.1 -0.5,2.4 -0.8,4.9 -1.1,7.3 -0.5,2.7 -0.5,5.7 0,8.7 0,1.3 0.3,3 0.8,4.6 1.1,3.8 3.5,6.2 7.6,7.3 0.3,0.3 0.8,0.3 1.3,0.3 3.5,0 7,1.1 10.5,0.8 3.5,-0.3 7,-0.3 10.5,0 2.4,0 4.9,0.3 7,1.1 3,1.3 5.1,3.2 6.2,6.8 0.5,3 0.3,5.7 0.5,8.4 0,2.2 -0.3,4.6 0,6.8 0,1.6 -1.1,3 -0.8,4.6 0.3,1.3 0,3 -0.5,4.3 -0.8,2.2 -4.1,4.9 -6.5,4.9 -3.2,0.3 -6.5,1.1 -9.7,0.8 -1.9,0.8 -4.1,1.1 -5.9,0.5 -4.1,-1.1 -7.8,-0.3 -11.9,-0.5 -2.2,-0.3 -4.3,0.5 -5.7,2.4 -0.5,0.5 -1.1,1.1 -1.6,1.6 l -0.8,0.8 c -0.5,1.1 -1.6,7 -1.1,7.8 0.5,0.8 0.5,1.3 0.5,2.2 0,3 0,5.9 -0.3,8.9 0,2.4 1.1,4.3 0.8,6.8 0,0.5 0.5,1.1 0.8,1.6 2.2,3 5.1,4.6 8.9,4.6 3.8,0 7,1.1 10.8,0.8 3.8,-0.3 7.6,0 11.3,0 h 11.1 c 3,0 4.9,1.3 6.5,4.1 0.3,0.8 0.3,1.6 0.5,2.4 0.3,1.3 -0.8,3 0.5,4.3 -0.3,1.1 -0.5,1.9 -0.5,3.2 0,4.3 -0.3,8.7 0,13 0,2.2 -0.5,4.3 -1.3,6.2 -1.3,2.2 -3.5,4.1 -6.2,4.3 -1.3,0.3 -3,0 -4.3,0.5 -0.8,0.3 -2.2,0.5 -3.2,-0.3 -0.8,-0.5 -1.9,-0.3 -3,-0.3 h -55.9 c -3.8,0 -7.3,-0.8 -10.8,-0.8 -1.6,0 -3.2,-0.5 -4.6,-1.1 -1.6,-0.8 -2.4,-1.9 -3.2,-3.2 -1.1,-1.6 -1.1,-3.2 -1.6,-4.6 -0.5,-3 -0.8,-5.7 -0.3,-8.4 1.1,-8.7 0.3,-17.3 0.5,-25.9 v -25.9 c 0,-2.4 -1.1,-4.9 -0.8,-7.6 0.3,-2.4 0,-4.9 0,-7.3 0.3,-1.6 0,-3.2 0.8,-4.6 0.5,-1.3 -0.5,-3 0.5,-4.3 -0.3,-3 1.1,-5.7 0.8,-8.7 -0.3,-1.1 -1.1,-1.9 -0.8,-3.2 0,-0.8 0.5,-2.2 -0.5,-3 0.3,-1.9 -0.8,-3.8 -0.8,-5.9 0,-20.5 0,-41.1 0.3,-61.6 0,-3.2 1.1,-6.5 3.8,-8.9 0.5,-0.5 1.1,-1.1 2.2,-1.1 0.5,0 1.1,-0.5 1.6,-0.5 1.3,-0.3 2.7,-0.8 4.3,-0.8 12.2,-0.2 24.4,-0.4 36.3,-0.4 z"/>
		</g>
		<g style="fill:#fff;fill-opacity:1" id="g30">
			<path style="fill:#fff;fill-opacity:1" id="path24" d="m 1429.1,1292.8 c 4.1,0 7.8,0 11.9,0.3 3.2,0 6.5,0.8 10,0.5 3,0 5.9,-1.1 8.9,-0.8 1.6,0.3 3.5,-0.3 5.1,0.5 1.6,0.8 3.2,-0.3 4.9,0.8 0.8,0.3 1.9,0 2.7,0 0.8,0 1.1,0.8 1.9,0.8 3.2,0.3 6.2,1.6 9.5,2.7 1.1,0.3 1.9,1.1 3,1.9 1.3,1.6 3,3 4.3,4.3 1.6,1.9 2.2,4.6 3.5,6.8 0.5,1.1 0.5,2.4 1.1,3.5 0.8,1.1 -0.3,2.4 0.8,3.8 0.5,1.1 -0.3,2.7 0,3.8 1.3,5.9 0.3,11.6 0.5,17.3 0.3,1.9 0.3,3.5 -0.5,5.4 -0.5,1.3 0.5,3.2 -0.5,4.9 -0.3,0.5 -0.3,1.3 0,1.9 0.3,2.4 -0.5,4.9 -0.8,7.3 -0.3,2.2 -2.2,3.8 -4.3,4.3 -1.6,0.5 -3.2,1.1 -5.1,0.8 h -3.5 c -4.6,-0.3 -9.2,-0.8 -13.8,-0.8 -1.3,0.3 -3,-0.3 -4.3,-0.8 -4.1,-1.6 -5.9,-4.6 -5.7,-8.7 0,-1.6 -1.1,-3 -0.8,-4.6 0.3,-1.6 0.3,-3.2 0,-4.9 -0.3,-1.1 -0.8,-2.4 -0.5,-3.5 0.3,-1.3 -0.5,-2.4 -0.8,-3.8 -0.8,-2.7 -2.4,-4.9 -5.1,-6.5 -1.1,-0.5 -2.4,0.3 -3.5,-0.5 -0.8,-0.5 -1.6,-0.3 -2.7,0.3 -1.1,0.6 -2.7,-0.5 -4.1,0.8 -2.4,0 -4.1,1.9 -5.1,3.5 -1.3,1.9 -1.9,4.1 -2.2,6.5 -0.8,6.8 -0.5,13.2 -0.5,20 -1.3,3.5 -0.5,7.6 -0.5,11.3 -0.3,1.9 -0.5,4.1 0.3,6.2 0.8,1.9 -0.3,4.1 0.8,6.2 0.3,0.5 0,1.3 0,1.9 v 11.6 c 0.3,2.2 -0.8,3.8 -0.5,5.9 v 6.2 c 0,1.9 0.3,4.1 -0.3,6.2 -0.8,3.5 -0.3,7.3 -0.5,11.1 0,2.2 0.8,4.3 1.9,6.2 1.3,3 3.8,4.1 6.8,4.6 1.1,0.3 2.4,-0.3 3.5,0.5 0.3,0.3 1.1,0.3 1.3,0 0.5,-0.8 1.6,-0.5 2.4,-0.5 3.2,0 5.7,-1.3 7.8,-3.8 1.1,-1.6 1.3,-3.5 1.6,-5.1 0,-2.7 0.5,-5.1 -0.5,-7.8 -0.5,-1.3 0,-8.1 0.5,-9.5 0.3,-0.8 1.9,-3 3,-3.5 0.5,-0.8 1.3,-1.9 2.2,-1.9 1.6,0 3,-1.1 4.9,-0.8 6.2,0.5 12.4,-1.1 18.9,-0.8 1.3,0.3 3,0.3 4.1,0.8 2.7,1.1 4.6,3 5.4,5.9 0.3,2.2 0.3,4.1 0.5,5.9 1.1,4.6 0.5,9.2 0.5,13.8 0.3,4.6 0.3,8.9 0,13.5 -0.3,5.1 -0.8,10 -2.4,14.9 -0.8,2.2 -1.9,4.3 -3.5,5.9 -3,4.1 -7,6.2 -11.9,7.6 -2.2,0.5 -4.6,0.8 -7,1.3 -2.7,0.5 -5.7,0 -8.4,0.5 -3,0.8 -5.7,0.3 -8.7,0.5 -2.2,0.5 -4.3,1.1 -6.2,0.5 -4.1,-0.8 -8.1,0 -12.2,-0.5 -3.2,-0.5 -6.8,-0.5 -10,-0.5 h -10 c -4.3,-0.3 -8.4,-1.3 -12.2,-2.7 -3.2,-1.3 -5.1,-3.8 -7.3,-6.2 -1.3,-1.3 -2.2,-3.2 -2.7,-5.1 -1.1,-3 -1.6,-5.9 -2.2,-8.9 0,-1.9 -0.3,-3.8 -0.3,-5.7 -0.3,-1.3 -1.1,-2.4 -0.8,-3.8 0.3,-1.1 0.3,-2.2 -0.5,-3.2 -0.3,0 0,-0.3 0,-0.5 0.3,-2.4 -0.8,-4.9 -0.8,-7.3 v -7.3 c 0,-2.7 -0.3,-5.1 0.3,-7.6 1.1,-9.5 0.3,-18.9 0.5,-28.7 1.1,-4.3 0.8,-8.9 0.5,-13.2 -0.8,-6.2 0,-12.7 -0.8,-18.9 -0.3,-3.8 -0.3,-7.8 -0.5,-11.6 0,-4.1 0,-7.8 0.3,-11.9 0,-3.2 0.8,-6.5 0.5,-9.7 0.8,-1.3 0.3,-2.7 0.5,-4.1 l 0.8,-4.1 c 0.8,-2.7 1.1,-5.7 2.4,-8.4 0.5,-1.3 0.8,-3 1.6,-4.1 1.3,-1.9 3,-3.2 4.6,-4.9 1.3,-1.1 3.2,-1.9 5.1,-2.4 l 4.3,-1.1 c 1.3,-0.5 3,0.3 4.6,-0.8 0.3,-0.5 1.1,-0.3 1.9,-0.3 z"/>
			<path style="fill:#fff;fill-opacity:1" id="path26" d="m 1633.7,1340.6 c 0,5.4 0,10.5 -0.3,15.7 0,3.2 1.6,6.2 0.8,9.5 -1.1,4.3 -0.5,8.4 -0.5,12.7 -0.3,4.3 0,8.4 0,12.7 0,2.7 0.8,5.1 0.5,7.8 -0.3,2.7 0.3,5.4 0,8.1 -1.1,6.2 -0.5,12.4 -0.5,18.9 -0.3,6.2 -0.3,12.4 0,18.7 0,1.6 -1.1,2.7 -0.8,4.3 0.3,1.3 0.3,2.7 -0.5,4.1 -0.5,1.1 -0.3,2.4 -0.5,3.8 -0.3,1.6 -1.1,2.7 -1.3,4.1 -0.3,1.3 -1.1,2.4 -1.9,3.5 -1.3,1.6 -3,3 -5.1,4.3 -2.7,1.9 -6.2,2.4 -9.5,3.8 -1.9,0.8 -3.8,1.3 -5.9,1.9 h -1.3 c -10.3,-0.5 -20.5,1.1 -31.1,0.8 -3,-0.3 -5.9,-0.3 -8.9,0 -3.2,0 -5.9,-1.3 -8.9,-0.8 -1.6,-1.1 -3.5,0 -4.9,-0.8 -1.6,-0.8 -3.5,0 -4.9,-0.5 -3,-0.8 -5.9,-0.8 -8.7,-2.2 -2.4,-1.1 -4.9,-2.7 -6.8,-4.3 -2.2,-1.9 -4.6,-7.3 -4.9,-10.3 0,-1.3 -0.8,-2.7 -0.5,-4.1 -1.3,-1.1 0.3,-3.2 -1.3,-4.1 0,-4.1 -1.3,-7.8 -1.3,-11.9 0.3,-7.3 -0.3,-14.6 0.3,-21.9 1.1,-16.2 0.3,-32.4 0.5,-48.4 v -48.4 c 0,-2.4 0.5,-5.1 1.6,-7.3 3,-6.5 4.9,-8.7 10.6,-13.2 1.9,-1.6 3.5,-2.7 5.9,-3.2 1.3,-0.3 2.7,-1.1 4.3,-1.1 14.6,0.5 29.2,-0.8 43.8,-0.5 h 10 c 3.8,-0.3 7.3,0.5 10.8,1.1 3.8,0.5 7,1.9 10,3.5 3.2,1.3 5.4,4.1 7.3,7 0.5,0.8 2.2,5.4 1.9,6.2 -0.3,1.1 0.8,1.9 0.8,3 -0.3,1.1 -0.3,2.2 0.5,3 0.3,0 0,0.5 0,0.5 -0.3,2.4 0.8,4.6 0.8,7 -0.3,2.4 0,4.6 0,7 z m -42.2,-2.2 c 0,-1.6 -0.8,-3 -1.3,-4.3 -0.5,-1.9 -2.2,-3.2 -3.8,-4.3 -1.1,-0.8 -3,-1.1 -4.9,-1.3 -3,-0.3 -5.7,0.5 -8.4,1.3 -2.7,0.8 -5.7,4.9 -5.7,7.6 -0.3,8.9 0.5,17.8 -0.8,27 0.5,4.9 -0.3,10 0.5,15.1 0.8,4.9 -0.3,10 0.8,15.1 0.3,1.6 0,3.5 -0.5,5.4 -0.5,1.9 -0.3,4.1 0,5.9 0.3,1.9 -0.8,3.8 -0.8,5.9 0.5,5.9 -0.3,11.9 0.8,17.8 0.3,2.7 1.6,4.9 3.8,6.2 1.9,1.3 4.3,2.2 6.8,2.2 1.6,0 3.2,-0.3 4.6,0 1.6,0 3.2,-0.3 4.1,-1.1 1.9,-1.3 3.5,-2.7 4.1,-5.1 0.5,-1.3 0.8,-2.4 0.8,-3.8 -0.3,-1.6 0.8,-2.7 0.5,-4.3 -0.3,-3.2 0,-6.8 0,-10 0,-3.2 -0.3,-6.5 0,-9.7 0.3,-3.5 -0.8,-6.5 -0.8,-9.7 0.3,-8.9 0.3,-17.8 0.3,-26.8 z"/>
			<path style="fill:#fff;fill-opacity:1" id="path28" d="m 1678.5,1438.2 c 3.5,0 6.8,0.3 10,0 3.2,0 5.7,1.3 7.3,4.1 1.3,1.9 1.9,4.1 1.9,6.2 0,5.1 0.3,10.3 0,15.1 0,2.4 -0.5,4.9 -1.1,7 -0.3,1.6 -1.6,2.2 -2.4,3.2 -1.3,2.2 -3.8,2.7 -5.9,2.7 h -21.1 c -3.5,0 -5.9,-2.2 -7.6,-4.9 0.3,-1.6 -0.8,-3 -0.8,-4.6 0.3,-6.5 0,-13.2 0,-19.7 0,-3.5 1.9,-5.9 4.6,-7.8 1.3,-1.1 3,-1.3 4.9,-1.3 3.4,0.2 6.6,0 10.2,0 z"/>
		</g>
	</g>
	<g style="fill:#fff;fill-opacity:1" id="Rocket">
		<path style="fill:#fff;fill-opacity:1" id="path33" d="m 331.5,1097.9 30.6,90.8 c 2,7.5 9.1,20.6 -15.5,20.6 H 297 c -8.5,0 -15,-5 -17,-13.5 L 250.4,1108 h -11.5 v 84.2 c 0,10 -7,17.1 -16.6,17.1 H 172 c -9.5,0 -16.6,-7 -16.6,-17.1 v -38.6 h -22.6 c -4,0 -7,-3 -7,-7 0,-3.5 3,-6.5 7,-6.5 h 22.6 v -61.2 H 201 c 2,0 3.5,-1.5 3.5,-3.5 0,-2 -1.5,-3.5 -3.5,-3.5 h -86.2 c -4,0 -7,-3 -7,-7 0,-3.5 3,-6.5 7,-6.5 h 40.6 v -152 H 174 c 2,0 3.5,-1.5 3.5,-3.5 0,-2 -1.5,-3.5 -3.5,-3.5 h -41.1 c -4,0 -7,-3 -7,-7 0,-3.5 3,-6.5 7,-6.5 h 22.6 v -61.2 c 0,-9.5 7,-16.5 16.6,-16.5 h 114.3 c 50.1,0 78.2,27.6 78.2,77.7 v 144.4 c 0,38.5 -16.6,57.6 -33.1,67.6 z M 281.3,899.4 c 0,-7.5 -3,-10 -10.5,-10 h -32.1 v 137.4 h 32.1 c 7.5,0 10.5,-2.5 10.5,-10 z"/>
		<path style="fill:#fff;fill-opacity:1" id="path35" d="m 633.8,886.3 v 245.2 c 0,50.1 -27.6,77.7 -78.2,77.7 H 502 c -45.6,0 -72.2,-22.6 -77.2,-64.7 h 47.1 c 2,0 3.5,-1.5 3.5,-3.5 0,-1.5 -1.5,-3 -3.5,-3 h -68.2 c -4,0 -7,-3 -7,-7 0,-3.5 3,-7 7,-7 h 20.6 v -49.6 h -11.5 c -4,0 -7,-3 -7,-7 0,-3.5 3,-6.5 7,-6.5 h 11.5 V 908.4 h 38.6 c 2,0 3.5,-1.5 3.5,-3 0,-2 -1.5,-3.5 -3.5,-3.5 h -68.2 c -4,0 -7,-3 -7,-7 0,-3.5 3,-6.5 7,-6.5 h 29.6 v -2 c 0,-50.1 27.6,-78.2 77.7,-78.2 h 53.7 c 50.5,-0.1 78.1,28 78.1,78.1 z m -79.7,12.1 c 0,-7.5 -3,-10 -10.5,-10 H 516 c -7.5,0 -10,2.5 -10,10 v 221.1 c 0,7.5 2.5,10 10,10 h 27.6 c 8,0 10.5,-2.5 10.5,-10 z"/>
		<path style="fill:#fff;fill-opacity:1" id="path37" d="m 820.3,938 v -38.1 c 0,-7.5 -2.5,-10 -10,-10 h -24.1 c -7.5,0 -10,2 -10,10 V 1118 c 0,7.5 2.5,10 10,10 h 24.1 c 7.5,0 10,-2.5 10,-10 v -38.1 c 0,-10 7,-17.1 17,-17.1 H 885 c 10,0 16.5,7 16.5,17.1 v 51.6 c 0,49.6 -28.1,77.7 -77.7,77.7 h -52.7 c -50.1,0 -78.7,-28.1 -78.7,-77.7 v -75.2 h -18.5 c -4,0 -7,-3 -7,-6.5 0,-4 3,-7 7,-7 h 18.5 V 981.6 H 724 c 2,0 3.5,-1.5 3.5,-3.5 0,-2 -1.5,-3.5 -3.5,-3.5 h -68.7 c -3.5,0 -6.5,-3 -6.5,-6.5 0,-4 3,-7 6.5,-7 h 37.1 v -74.7 c 0,-49.6 28.6,-78.2 78.7,-78.2 h 52.7 c 49.6,0 77.7,28.6 77.7,78.2 V 938 c 0,10 -6.5,16.5 -16.5,16.5 h -47.6 c -10.1,0 -17.1,-6.5 -17.1,-16.5 z"/>
		<path style="fill:#fff;fill-opacity:1" id="path39" d="m 1193.3,1201.7 c -2,3 -6,7.5 -15.5,7.5 h -51.2 c -9,0 -16,-4.5 -19.1,-12.5 l -53.2,-124.3 -7.5,15 v 103.3 c 0,11 -7.5,18.6 -18.6,18.6 h -46.1 c -11,0 -18.5,-7.5 -18.5,-18.6 v -36.6 h 26.6 c 2,0 3.5,-1.5 3.5,-3.5 0,-2 -1.5,-3.5 -3.5,-3.5 h -50.1 c -4,0 -7,-3 -7,-6.5 0,-4 3,-7 7,-7 h 23.6 v -143 h 26.6 c 2,0 3.5,-1.5 3.5,-3.5 0,-2 -1.5,-3.5 -3.5,-3.5 H 922 c -4,0 -8,-3 -8,-6.5 0,-4 4,-7 8,-7 h 41.6 v -77.2 h -14.5 c -4,0 -7,-3 -7,-6.5 0,-4 3,-7 7,-7 h 14.5 v -52.2 c 0,-11.5 7.5,-19 18.5,-19 h 46.1 c 11,0 18.6,7.5 18.6,19 V 936 l 56.7,-115.3 c 5,-10 13,-12.5 19.1,-12.5 h 50.1 c 6.5,0 12,3 15,7.5 1.5,3 4,9 0,17 l -79.7,163.4 84.7,189.5 c 3.1,5.1 3.1,11.1 0.6,16.1 z"/>
		<path style="fill:#fff;fill-opacity:1" id="path41" d="m 1235.4,1011.2 v -58.9 h 48.1 c 2,0 3.5,-2 3.5,-3.5 0,-2 -1.5,-3.5 -3.5,-3.5 h -77.7 c -3.5,0 -6.5,-3 -6.5,-7 0,-3.5 3,-6.5 6.5,-6.5 h 29.6 V 825.2 c 0,-10 7,-17 16.1,-17 H 1428 c 10,0 16.6,6.5 16.6,17 v 47.6 c 0,10.5 -6.5,17.5 -16.6,17.5 h -110.8 v 104.8 h 82.2 c 10,0 17.1,7 17.1,17 v 47.1 c 0,10.5 -7,17.5 -17.1,17.5 h -82.2 v 51.2 H 1428 c 10.5,0 16.6,6.5 16.6,16.6 v 48.1 c 0,10.5 -6.5,16.6 -16.6,16.6 h -176.5 c -9,0 -16.1,-7 -16.1,-16.6 v -168 h -20.1 c -4,0 -7,-3 -7,-7 0,-3.5 3,-6.5 7,-6.5 0,0.1 20.1,0.1 20.1,0.1 z"/>
		<path style="fill:#fff;fill-opacity:1" id="path43" d="m 1551.8,1030.7 h 40.1 c 1.5,0 3,-1.5 3,-3.5 0,-2 -1.5,-3.5 -3,-3.5 h -86.2 c -4,0 -7,-3 -7,-6.5 0,-4 3,-7 7,-7 h 46.1 V 950 h -19.1 c -3.5,0 -6.5,-3 -6.5,-7 0,-3.5 3,-6.5 6.5,-6.5 h 19.1 v -47.1 h -46.6 c -10,0 -16.6,-7 -16.6,-16.5 v -48.1 c 0,-9.5 6.5,-16.5 16.6,-16.5 h 175.5 c 10,0 17.1,6.5 17.1,16.5 v 48.1 c 0,10 -7,16.5 -17.1,16.5 h -46.1 v 302.8 c 0,10.5 -6.5,17.1 -17.1,17.1 h -49.1 c -10,0 -16.6,-7 -16.6,-17.1 v -95.8 h -19.1 c -3.5,0 -6.5,-3 -6.5,-7 0,-3.5 3,-6.5 6.5,-6.5 h 19.1 z"/>
	</g>
	<g style="fill:#fff;fill-opacity:1" id="Bottle">
		<path style="fill:#fff;fill-opacity:1" id="path46" d="M 555.6,329.3 H 502 c -42.2,0 -68.5,19.3 -76.2,55.5 -1.1,5.1 -1.5,10.4 -1.5,15.6 h -20.6 c -4,0 -7,3 -7,7 0,3.5 3,7 7,7 h 67.7 c 2,0 3.5,1.5 3.5,3.5 0,1.5 -1.5,3 -3.5,3 H 424.3 V 464 h -11.5 c -4,0 -7,3 -7,7 0,3.5 3,6.5 7,6.5 h 11.5 v 158.9 h -29.6 c -4,0 -7,3 -7,7 0,3.5 3,6.5 7,6.5 h 29.6 38.6 c 2,0 3.5,1.5 3.5,3 0,2 -1.5,3.5 -3.5,3.5 h -38.4 c 2.4,41.1 36.3,73.7 78,73.7 h 53.2 c 50.6,0 78.2,-28.1 78.2,-78.2 V 407 c -0.1,-50.1 -27.7,-77.7 -78.3,-77.7 z m -1.5,310.9 c 0,7.5 -3,10 -10.5,10 H 516 c -7.5,0 -10,-2.5 -10,-10 V 419 c 0,-7.5 2.5,-10 10,-10 h 27.6 c 8,0 10.5,2.5 10.5,10 z"/>
		<path style="fill:#fff;fill-opacity:1" id="path48" d="m 347.5,557.4 c 10.5,8 17,20.1 17,34.1 v 61.2 c 0,49.6 -28.6,77.7 -78.2,77.7 H 172.5 c -10,0 -17.1,-6.5 -17.1,-16.5 v -20.5 h 19.1 c 1.5,0 3,-1.5 3,-3.5 0,-1.5 -1.5,-3 -3,-3 h -41.6 c -3.5,0 -6.5,-3.5 -6.5,-7 0,-4 3,-7 6.5,-7 h 22.6 V 568.5 h -22.6 c -3.5,0 -6.5,-3 -6.5,-6.5 0,-4 3,-7 6.5,-7 h 22.6 V 412 h 28.1 c 1.5,0 3,-1.5 3,-3.5 0,-2 -1.5,-3.5 -3,-3.5 h -68.7 c -3.5,0 -6.5,-3 -6.5,-6.5 0,-4 3,-7 6.5,-7 h 40.6 v -45.1 c 0,-10 7,-17 17.1,-17 h 113.8 c 49.6,0 78.2,28.6 78.2,78.2 v 115.3 c 0,14 -6.6,26.5 -17.1,34.5 z M 282.8,421 c 0,-8 -2.5,-10 -10,-10 h -33.6 v 105.8 h 33.6 c 7.5,0 10,-3 10,-10 z m 0,187.1 c 0,-8 -2.5,-10 -10,-10 h -33.6 v 51.1 h 33.6 c 7.5,0 10,-2.5 10,-10 z"/>
		<path style="fill:#fff;fill-opacity:1" id="path50" d="m 1444.5,665.7 v 48.1 c 0,10.5 -6.5,16.5 -16.5,16.5 h -176 c -10,0 -16.6,-6.5 -16.6,-16.5 v -56.6 h 31.6 c 2,0 3.5,-1.5 3.5,-3.5 0,-2 -1.5,-3.5 -3.5,-3.5 h -59.7 c -3.5,0 -6.5,-3 -6.5,-6.5 0,-4 3,-7 6.5,-7 h 28.1 v -50.1 h -18.6 c -4,0 -7,-3 -7,-6.5 0,-4 3,-7 7,-7 h 18.6 V 421 h 40.6 c 2,0 3.5,-1.5 3.5,-3.5 0,-2 -1.5,-3.5 -3.5,-3.5 h -86.7 c -3.5,0 -6.5,-3 -6.5,-6.5 0,-4 3,-7 6.5,-7 h 46.1 v -54.1 c 0,-10 6.5,-17 16.6,-17 h 49.6 c 10,0 17.1,7 17.1,17 V 649.2 H 1428 c 10,0 16.5,7 16.5,16.5 z"/>
		<path style="fill:#fff;fill-opacity:1" id="path52" d="m 1570.3,411.5 v 104.8 h 82.2 c 10,0 17.1,7 17.1,17 v 47.1 c 0,10.5 -7,17.5 -17.1,17.5 h -82.2 V 649 h 110.8 c 10.5,0 16.6,6.5 16.6,16.5 v 48.1 c 0,10.5 -6.5,16.5 -16.6,16.5 h -176.5 c -9,0 -16.1,-7 -16.1,-16.5 V 602.5 h 30.1 c 2,0 3.5,-1.5 3.5,-3.5 0,-2 -1.5,-3.5 -3.5,-3.5 h -50.1 c -4,0 -7,-3 -7,-6.5 0,-4 3,-7 7,-7 h 20.1 v -49.6 h -20.1 c -4,0 -7,-3 -7,-7 0,-3.5 3,-6.5 7,-6.5 h 20.1 v -134 h 48.1 c 2,0 3.5,-2 3.5,-3.5 0,-2 -1.5,-3.5 -3.5,-3.5 H 1459 c -3.5,0 -6.5,-3 -6.5,-7 0,-3.5 3,-6.5 6.5,-6.5 h 29.6 v -18 c 0,-10 7,-17 16.1,-17 h 176.5 c 10,0 16.6,6.5 16.6,17 V 394 c 0,10.5 -6.5,17.5 -16.6,17.5 z"/>
		<path style="fill:#fff;fill-opacity:1" id="path54" d="M 901.5,345.8 V 394 c 0,10 -7,16.5 -17,16.5 h -46.1 v 302.8 c 0,10.5 -6.5,17 -17,17 h -49.1 c -10,0 -16.5,-7 -16.5,-17 V 593 h -19 c -3.5,0 -6.5,-3 -6.5,-7 0,-3.5 3,-6.5 6.5,-6.5 h 19 v -52.1 h 40.1 c 1.5,0 3,-1.5 3,-3.5 0,-2 -1.5,-3.5 -3,-3.5 h -86.2 c -4,0 -7,-3 -7,-6.5 0,-4 3,-7 7,-7 h 46.1 V 410.6 H 709 c -10,0 -16.5,-7 -16.5,-16.5 V 346 c 0,-9.5 6.5,-16.5 16.5,-16.5 h 175.5 c 10,-0.2 17,6.3 17,16.3 z"/>
		<path style="fill:#fff;fill-opacity:1" id="path56" d="m 1010.7,520.3 h -19 c -3.5,0 -6.5,-3 -6.5,-7 0,-3.5 3,-6.5 6.5,-6.5 h 19 m -0.4,0 v -96.3 h -46.6 c -10,0 -16.5,-7 -16.5,-16.5 v -48.1 c 0,-9.5 6.5,-16.5 16.5,-16.5 h 175.5 c 10,0 17.1,6.5 17.1,16.5 V 394 c 0,10 -7,16.5 -17.1,16.5 H 1093 v 302.8 c 0,10.5 -6.5,17 -17.1,17 h -49.1 c -10,0 -16.5,-7 -16.5,-17 V 600 h 40.1 c 1.5,0 3,-1.5 3,-3.5 0,-2 -1.5,-3.5 -3,-3.5 h -86.2 c -4,0 -7,-3 -7,-6.5 0,-4 3,-7 7,-7 h 46.1 v -59.2"/>
	</g>
</g>
<g transform="translate(-107.8,-329.3)" style="display:none" class="st0" id="Guides">
</g>
</svg>