<?xml version="1.0" encoding="utf-8"?>
<!-- Generator: Adobe Illustrator 16.0.3, SVG Export Plug-In . SVG Version: 6.00 Build 0)  -->
<!DOCTYPE svg PUBLIC "-//W3C//DTD SVG 1.1//EN" "http://www.w3.org/Graphics/SVG/1.1/DTD/svg11.dtd">
<svg version="1.1" 
    xmlns="http://www.w3.org/2000/svg" 
    xmlns:xlink="http://www.w3.org/1999/xlink" x="0px" y="0px" width="1740px" height="442px"  viewBox="0 0 1740.499 442.56"><path fill="#FFF" d="M483.467 322.423c-2.265-38.028-4.737-75.8-7.407-113.628-2.683-37.818-5.772-73.838-9.263-108.801-3.501-34.963-7.313-67.271-11.422-94.386h-87.671c-7.427 12.844-15.994 29.856-25.688 49.686a2589.225 2589.225 0 0 0-30.34 64.252 3310.748 3310.748 0 0 0-31.258 70.769c-10.317 24.132-20.017 46.789-29.092 68.046-9.085-21.257-18.784-43.971-29.095-68.103a3352.705 3352.705 0 0 0-31.266-70.854c-10.524-23.099-20.634-44.57-30.329-64.411C150.931 35.164 142.375 18.495 134.947 5l-.076.606h-.001l.079-.606-.087.608H42.957c-4.119 27.115-7.931 59.5-11.422 94.462-3.502 34.963-6.589 71.211-9.261 109.029a9867.824 9867.824 0 0 0-7.408 113.402c-2.268 38.03-4.225 74.134-5.866 106.958h93.844c1.235-41.386 2.875-85.969 4.94-134.637 2.054-48.657 5.141-97.272 9.26-146.754l.013-.12c7.427 17.167 15.678 36.17 24.761 57.014a8329.491 8329.491 0 0 1 26.934 62.562c8.875 20.856 17.452 41.072 25.708 60.085 8.257 19.017 15.272 34.778 21.06 49.047h67.294c5.779-14.269 12.8-30.03 21.061-49.047 8.255-19.013 16.82-39.088 25.696-59.944 8.877-20.852 17.86-41.778 26.946-62.633a36996.908 36996.908 0 0 0 24.771-57.078c4.108 49.48 7.196 98.229 9.259 146.888 2.055 48.666 3.704 93.232 4.94 134.618h93.845a11909.292 11909.292 0 0 0-5.865-107.037zM124.261 85.894zm-7.249 61.103L134.305 9.551c.001-.004-.034-.008-.034-.014l-17.259 137.47v-.01z"/><path fill="#9C27B0" d="M483.467 322.413a10464.952 10464.952 0 0 0-7.407-114.218 3837.088 3837.088 0 0 0-9.263-109.436c-3.501-35.192-7.313-66.628-11.422-93.92L381.288 147.09c4.108 49.804 7.196 98.571 9.259 147.551 2.055 48.983 3.704 94.198 4.94 135.198h93.845c-1.649-32.001-3.609-69.147-5.865-107.426z"/><path d="M455.375 4.838L382.13 157.482l-1.253-15.065" opacity=".2"/><path fill="#F44336" d="M367.705 4.838c-7.427 12-15.994 29.549-25.688 49.509-9.707 19.97-19.813 41.173-30.34 64.421-10.525 23.259-20.943 46.826-31.258 71.106-10.317 24.291-20.017 47.033-29.092 68.429l31.486 118.535c5.779-14.363 12.8-29.739 21.061-48.879 8.255-19.14 16.82-39.354 25.696-60.347 8.877-20.99 17.86-42.057 26.946-63.047 9.073-20.992 17.333-39.665 24.771-56.952L455.375 4.838h-87.67z"/><path d="M256.596 245.828l26.218 130.828-33.647-113.544" opacity=".2"/><g fill="#4CAF50"><path d="M117.043 147.073L134.949 4.851c-10.171 71.43-17.906 142.222-17.906 142.222z"/><path d="M251.328 258.004c-9.085-21.395-18.784-44.141-29.095-68.43a3379.047 3379.047 0 0 0-31.266-71.259c-10.524-23.25-20.634-44.833-30.329-64.802-9.705-19.959-18.261-35.091-25.689-48.675l-17.905 142.229a23581.656 23581.656 0 0 0 24.774 57.421 8360.456 8360.456 0 0 1 26.934 62.974 9004.624 9004.624 0 0 0 25.708 60.244c8.257 19.14 15.272 35.132 21.06 49.132h67.294l-31.486-118.834z"/></g><path d="M122.957 160.817L134.949 4.854l-20.035 140.104" opacity=".2"/><path fill="#2196F3" d="M42.957 4.838c-4.119 26-7.931 59.387-11.422 94.578-3.502 35.192-6.589 71.425-9.261 109.491-2.682 38.075-5.15 75.428-7.408 113.708-2.268 38.28-4.225 75.223-5.866 107.223h93.844c1.235-41 2.875-86.223 4.94-135.207 2.054-48.977 5.141-97.252 9.26-147.058 0 0 7.734-72.735 17.905-142.735H42.957z"/><linearGradient id="a" gradientUnits="userSpaceOnUse" x1="441.025" y1="402.638" x2="423.744" y2="63.312"><stop offset="0" stop-color="#fff"/><stop offset="1"/></linearGradient><path opacity=".1" fill="url(#a)" d="M483.467 322.413a10464.952 10464.952 0 0 0-7.407-114.218 3837.088 3837.088 0 0 0-9.263-109.436c-3.501-35.192-7.313-66.628-11.422-93.92L381.288 147.09c4.108 49.804 7.196 98.571 9.259 147.551 2.055 48.983 3.704 94.198 4.94 135.198h93.845c-1.649-32.001-3.609-69.147-5.865-107.426z"/><linearGradient id="b" gradientUnits="userSpaceOnUse" x1="367.306" y1="405.572" x2="350.015" y2="66.048"><stop offset="0" stop-color="#fff"/><stop offset="1"/></linearGradient><path opacity=".1" fill="url(#b)" d="M367.705 4.838c-7.427 12-15.994 29.549-25.688 49.509-9.707 19.97-19.813 41.173-30.34 64.421-10.525 23.259-20.943 46.826-31.258 71.106-10.317 24.291-20.017 47.033-29.092 68.429l31.486 118.353c5.779-14.363 12.8-29.557 21.061-48.696 8.255-19.14 16.82-39.354 25.696-60.347 8.877-20.99 17.86-42.057 26.946-63.047 9.073-20.992 17.333-39.665 24.771-56.952L455.375 4.838h-87.67z"/><g opacity=".1"><linearGradient id="c" gradientUnits="userSpaceOnUse" x1="143.244" y1="414.627" x2="126.118" y2="78.353"><stop offset="0" stop-color="#fff"/><stop offset="1"/></linearGradient><path fill="url(#c)" d="M117.043 147.073L134.949 4.851c-10.171 71.43-17.906 142.222-17.906 142.222z"/><linearGradient id="d" gradientUnits="userSpaceOnUse" x1="207.688" y1="414.305" x2="190.439" y2="75.604"><stop offset="0" stop-color="#fff"/><stop offset="1"/></linearGradient><path fill="url(#d)" d="M251.328 258.004c-9.085-21.395-18.784-44.141-29.095-68.43a3379.047 3379.047 0 0 0-31.266-71.259c-10.524-23.25-20.634-44.833-30.329-64.802-9.705-19.959-18.261-35.091-25.689-48.675l-17.905 142.229a23581.656 23581.656 0 0 0 24.774 57.421 8360.456 8360.456 0 0 1 26.934 62.974 9004.624 9004.624 0 0 0 25.708 60.244c8.257 19.14 15.272 35.132 21.06 49.132h67.294l-31.486-118.834z"/></g><linearGradient id="e" gradientUnits="userSpaceOnUse" x1="82.338" y1="420.834" x2="65.015" y2="80.676"><stop offset="0" stop-color="#fff"/><stop offset="1"/></linearGradient><path opacity=".1" fill="url(#e)" d="M42.957 4.838c-4.119 26-7.931 59.387-11.422 94.578-3.502 35.192-6.589 71.425-9.261 109.491-2.682 38.075-5.15 75.428-7.408 113.708-2.268 38.28-4.225 75.223-5.866 107.223h93.844c1.235-41 2.875-86.223 4.94-135.207 2.054-48.977 5.141-97.252 9.26-147.058 0 0 7.734-72.735 17.905-142.735H42.957z"/><path d="M566.232 76.742l30.559 95.521h.563l30.934-95.521h41.808v136.484h-31.777v-33.84l3-62.337-.563-.094-32.902 96.271h-21.373l-32.527-95.427-.563.094 3 61.493v33.84h-31.777V76.742h41.618zM748.085 213.132c-.876-1.625-1.673-3.437-2.391-5.438a56.066 56.066 0 0 1-1.828-6.187c-2.999 4.188-6.625 7.516-10.873 9.983-4.25 2.468-9.406 3.702-15.467 3.702-9.626 0-17.453-2.78-23.482-8.343-6.031-5.562-9.046-12.967-9.046-22.216 0-10.061 3.765-17.825 11.296-23.294 7.529-5.468 18.982-8.202 34.355-8.202h11.53v-7.218c0-4.313-1.017-7.624-3.047-9.937-2.032-2.312-5.173-3.469-9.421-3.469-3.626 0-6.327.86-8.108 2.578-1.781 1.72-2.672 4.391-2.672 8.015l-30.652-.094-.188-.563c-.438-9.248 3.404-16.981 11.53-23.2 8.123-6.218 18.871-9.327 32.246-9.327 12.497 0 22.638 3.126 30.418 9.374 7.78 6.25 11.671 15.186 11.671 26.81v38.245c0 5.438.451 10.468 1.358 15.092.906 4.625 2.266 9.219 4.078 13.78l-31.307-.091zm-20.904-20.529c3.124 0 6-.624 8.624-1.875 2.625-1.249 4.749-2.874 6.375-4.874v-15.842h-11.249c-5 0-8.641 1.219-10.921 3.655-2.281 2.438-3.421 5.531-3.421 9.28 0 2.875.984 5.203 2.952 6.984 1.969 1.781 4.515 2.672 7.64 2.672zM829.076 86.584V111.8h17.154v21.935h-17.154v46.495c0 3.625.733 6.233 2.203 7.827 1.468 1.594 3.451 2.39 5.952 2.39 1.998 0 3.577-.062 4.733-.188 1.155-.124 2.64-.374 4.453-.749l2.25 23.435c-3.501.812-6.656 1.39-9.468 1.733-2.813.344-6.125.516-9.937.516-10.437 0-18.343-2.78-23.716-8.343-5.375-5.562-8.062-14.372-8.062-26.434v-46.683h-14.248V111.8h14.248V86.584h31.592zM907.441 215.194c-14.936 0-26.855-4.687-35.761-14.061s-13.358-21.122-13.358-35.246v-3.562c0-15.436 4.046-28.043 12.14-37.824 8.092-9.779 19.668-14.638 34.73-14.576 13.747 0 24.527 4.125 32.34 12.374 7.811 8.249 11.717 19.436 11.717 33.559v16.592h-57.931l-.188.563c.687 5.188 2.813 9.452 6.375 12.795 3.562 3.344 8.311 5.015 14.248 5.015 5.999 0 10.795-.469 14.389-1.405 3.592-.938 8.139-2.563 13.639-4.875l7.5 19.311c-4.438 3.25-10.171 5.952-17.201 8.108-7.032 2.155-14.578 3.232-22.639 3.232zm-2.249-80.897c-4.563 0-7.985 1.626-10.265 4.875-2.281 3.25-3.673 7.593-4.172 13.029l.281.469h27.278v-2.438c0-5.123-1.063-9.061-3.188-11.811-2.125-2.749-5.435-4.124-9.934-4.124zM1019.928 139.735l-11.53-.094c-3.626 0-6.594.609-8.905 1.827-2.313 1.219-4.03 2.953-5.155 5.203v66.555h-31.684V111.8h29.809l1.125 14.904c2.124-5.312 4.937-9.436 8.437-12.373 3.498-2.938 7.593-4.406 12.279-4.406 1.5 0 3.03.11 4.594.328 1.562.22 2.936.484 4.124.797l-3.094 28.685zM1066.797 88.272h-31.777V66.993h31.777v21.279zm0 124.954h-31.777V111.8h31.777v101.426zM1144.506 213.132c-.875-1.625-1.672-3.437-2.39-5.438a56.066 56.066 0 0 1-1.828-6.187c-2.999 4.188-6.626 7.516-10.874 9.983-4.25 2.468-9.405 3.702-15.467 3.702-9.625 0-17.452-2.78-23.481-8.343-6.031-5.562-9.046-12.967-9.046-22.216 0-10.061 3.765-17.825 11.296-23.294 7.529-5.468 18.981-8.202 34.355-8.202h11.529v-7.218c0-4.313-1.016-7.624-3.046-9.937-2.033-2.312-5.173-3.469-9.421-3.469-3.626 0-6.327.86-8.108 2.578-1.781 1.72-2.672 4.391-2.672 8.015l-30.652-.094-.188-.563c-.439-9.248 3.404-16.981 11.529-23.2 8.124-6.218 18.872-9.327 32.246-9.327 12.498 0 22.639 3.126 30.419 9.374 7.78 6.25 11.671 15.186 11.671 26.81v38.245c0 5.438.451 10.468 1.358 15.092.905 4.625 2.265 9.219 4.078 13.78l-31.308-.091zm-20.903-20.529c3.124 0 5.999-.624 8.624-1.875 2.625-1.249 4.749-2.874 6.374-4.874v-15.842h-11.248c-5.001 0-8.642 1.219-10.921 3.655-2.281 2.438-3.422 5.531-3.422 9.28 0 2.875.984 5.203 2.953 6.984 1.969 1.781 4.515 2.672 7.64 2.672zM1221.185 213.226h-31.777V66.993h31.777v146.233z"/><path fill="#F44336" d="M1396.383 165.326l.188.562c-.626 15.999-5.36 28.216-14.201 36.652-8.844 8.437-21.671 12.654-38.48 12.654-16.873 0-30.591-5.187-41.151-15.561-10.563-10.373-15.842-23.84-15.842-40.401v-28.496c0-16.498 5.077-29.95 15.232-40.354 10.154-10.405 23.356-15.607 39.604-15.607 17.248 0 30.434 4.344 39.559 13.029 9.122 8.687 14.278 21.029 15.467 37.026l-.188.563h-30.84c-.439-8.873-2.423-15.467-5.953-19.778-3.531-4.313-9.546-6.468-18.045-6.468-7.188 0-12.842 2.891-16.967 8.671-4.124 5.78-6.187 13.357-6.187 22.731v28.684c0 9.437 2.25 17.061 6.749 22.872 4.5 5.813 10.687 8.718 18.561 8.718 7.623 0 13.03-2.03 16.217-6.093 3.188-4.062 4.998-10.529 5.438-19.403h30.839z"/><path fill="#FF9800" d="M1407.538 161.576c0-15.248 4.313-27.668 12.937-37.262 8.624-9.592 20.652-14.389 36.089-14.389 15.498 0 27.56 4.797 36.184 14.389 8.624 9.594 12.936 22.014 12.936 37.262v1.969c0 15.311-4.312 27.746-12.936 37.308s-20.622 14.342-35.996 14.342c-15.561 0-27.652-4.78-36.276-14.342s-12.937-21.997-12.937-37.308v-1.969zm31.684 1.968c0 8.499 1.327 15.171 3.983 20.013 2.654 4.844 7.171 7.265 13.545 7.265 6.188 0 10.623-2.437 13.312-7.312 2.687-4.874 4.03-11.529 4.03-19.966v-1.969c0-8.249-1.344-14.857-4.03-19.826-2.688-4.968-7.188-7.452-13.499-7.452-6.25 0-10.703 2.5-13.357 7.499-2.656 5-3.983 11.593-3.983 19.779v1.969z"/><path fill="#4CAF50" d="M1552.833 213.226h-31.777V66.993h31.777v146.233z"/><path fill="#2196F3" d="M1568.019 161.576c0-15.248 4.312-27.668 12.937-37.262 8.623-9.592 20.652-14.389 36.089-14.389 15.497 0 27.56 4.797 36.184 14.389 8.624 9.594 12.936 22.014 12.936 37.262v1.969c0 15.311-4.312 27.746-12.936 37.308s-20.623 14.342-35.996 14.342c-15.561 0-27.653-4.78-36.276-14.342-8.625-9.562-12.937-21.997-12.937-37.308v-1.969zm31.684 1.968c0 8.499 1.327 15.171 3.984 20.013 2.654 4.844 7.171 7.265 13.545 7.265 6.187 0 10.622-2.437 13.312-7.312 2.686-4.874 4.03-11.529 4.03-19.966v-1.969c0-8.249-1.345-14.857-4.03-19.826-2.689-4.968-7.188-7.452-13.499-7.452-6.251 0-10.703 2.5-13.357 7.499-2.657 5-3.984 11.593-3.984 19.779v1.969z"/><path fill="#9C27B0" d="M1737.405 139.735l-11.529-.094c-3.626 0-6.594.609-8.905 1.827-2.313 1.219-4.03 2.953-5.155 5.203v66.555h-31.684V111.8h29.809l1.125 14.904c2.124-5.312 4.936-9.436 8.436-12.373 3.499-2.938 7.594-4.406 12.28-4.406 1.5 0 3.03.11 4.593.328 1.563.22 2.937.484 4.125.797l-3.095 28.685z"/><path d="M535.767 316.886v56.712h-11.155V237.115h46.963c14.311 0 25.387 3.641 33.23 10.92 7.843 7.282 11.765 16.92 11.765 28.919 0 12.124-3.922 21.811-11.765 29.059-7.844 7.25-18.92 10.874-33.23 10.874h-35.808zm0-9.561h35.808c11.249 0 19.7-2.859 25.356-8.577 5.654-5.718 8.483-12.919 8.483-21.606 0-8.748-2.812-16.013-8.437-21.795-5.624-5.779-14.093-8.671-25.403-8.671h-35.808v60.649zM703.465 373.598c-.75-3.437-1.282-6.404-1.593-8.905a61.039 61.039 0 0 1-.469-7.593c-3.75 5.313-8.75 9.719-14.999 13.217-6.25 3.499-13.28 5.25-21.091 5.25-9.874 0-17.546-2.625-23.013-7.874-5.469-5.25-8.202-12.28-8.202-21.092 0-9.374 4.046-16.873 12.139-22.497 8.092-5.624 19.013-8.437 32.762-8.437h22.404v-12.561c0-7.248-2.329-12.937-6.984-17.061-4.656-4.125-11.171-6.188-19.544-6.188-7.813 0-14.295 1.969-19.451 5.906-5.155 3.937-7.733 8.749-7.733 14.436l-10.312-.094-.188-.563c-.375-7.561 3.077-14.325 10.358-20.295 7.28-5.967 16.545-8.951 27.794-8.951 11.185 0 20.184 2.844 26.996 8.53 6.812 5.688 10.218 13.843 10.218 24.466v49.868c0 3.563.203 7.031.609 10.405a65.268 65.268 0 0 0 2.016 10.03h-11.717zm-36.839-7.968c8.062 0 15.186-1.89 21.372-5.671 6.187-3.78 10.654-8.607 13.405-14.483v-21.185h-22.592c-10.188 0-18.325 2.173-24.419 6.515-6.093 4.344-9.14 9.734-9.14 16.17 0 5.501 1.891 9.983 5.672 13.452 3.781 3.468 9.015 5.202 15.702 5.202zM755.022 373.598h-11.155V227.366h11.155v146.232zM824.108 375.567c-12.687 0-23.232-4.688-31.637-14.062-8.407-9.373-12.608-21.246-12.608-35.62v-5.156c0-14.497 4.172-26.527 12.515-36.089s18.449-14.342 30.324-14.342c12.436 0 22.216 3.937 29.34 11.811s10.687 18.373 10.687 31.496v9.562h-71.616v2.713c0 11.412 3.029 20.952 9.093 28.62 6.061 7.672 14.028 11.506 23.903 11.506 6.998 0 12.966-.968 17.903-2.906 4.937-1.937 9.155-4.717 12.655-8.343l4.78 7.687c-3.813 4.017-8.641 7.207-14.482 9.573-5.844 2.366-12.796 3.55-20.857 3.55zm-1.406-95.708c-8.313 0-15.279 3.165-20.904 9.488-5.624 6.326-8.905 14.256-9.842 23.791l.188.467h59.43V310.8c0-8.787-2.595-16.14-7.78-22.061-5.189-5.919-12.219-8.88-21.092-8.88zM902.567 246.208v25.965h22.31v9.187h-22.31v66.086c0 6.626 1.202 11.327 3.609 14.107 2.405 2.782 5.607 4.172 9.608 4.172 1.811 0 3.576-.077 5.296-.234 1.717-.155 3.702-.422 5.952-.797l1.688 8.343c-1.875.812-4.156 1.437-6.843 1.875a50.16 50.16 0 0 1-8.062.656c-7.124 0-12.672-2.25-16.639-6.749-3.969-4.5-5.953-11.624-5.953-21.373V281.36h-17.528v-9.187h17.528v-25.965h11.344zM966.309 246.208v25.965h22.311v9.187h-22.311v66.086c0 6.626 1.202 11.327 3.609 14.107 2.405 2.782 5.607 4.172 9.608 4.172 1.811 0 3.577-.077 5.296-.234 1.718-.155 3.703-.422 5.952-.797l1.688 8.343c-1.875.812-4.156 1.437-6.843 1.875a50.16 50.16 0 0 1-8.062.656c-7.124 0-12.672-2.25-16.639-6.749-3.969-4.5-5.952-11.624-5.952-21.373V281.36h-17.529v-9.187h17.529v-25.965h11.343zM1050.487 375.567c-12.687 0-23.232-4.688-31.637-14.062-8.406-9.373-12.608-21.246-12.608-35.62v-5.156c0-14.497 4.172-26.527 12.515-36.089s18.45-14.342 30.324-14.342c12.436 0 22.216 3.937 29.341 11.811 7.124 7.874 10.686 18.373 10.686 31.496v9.562h-71.616v2.713c0 11.412 3.03 20.952 9.093 28.62 6.062 7.672 14.029 11.506 23.903 11.506 6.999 0 12.966-.968 17.904-2.906 4.937-1.937 9.154-4.717 12.655-8.343l4.78 7.687c-3.813 4.017-8.642 7.207-14.483 9.573-5.844 2.366-12.796 3.55-20.857 3.55zm-1.406-95.708c-8.313 0-15.279 3.165-20.903 9.488-5.625 6.326-8.905 14.256-9.843 23.791l.188.467h59.431V310.8c0-8.787-2.595-16.14-7.78-22.061-5.189-5.919-12.219-8.88-21.093-8.88z"/></svg>