<svg width="638" height="204" viewBox="0 0 638 204" fill="none" xmlns="http://www.w3.org/2000/svg">
<path d="M235.055 12.6194V74.3092H247.25V89.7433H215V12.6194H235.055Z" fill="white"/>
<path d="M272.165 12.6194V89.7433H252.11V12.6194H272.165Z" fill="white"/>
<path d="M327.9 12.6194L317.695 89.7433H287.23L275.642 12.6194H296.793C299.252 33.8643 301.006 51.8409 302.058 66.5453C303.094 51.6828 304.192 38.4887 305.357 26.9609L306.75 12.6194H327.9V12.6194Z" fill="white"/>
<path d="M331.283 12.6194H364.725V28.0535H351.34V42.6779H363.869V57.3511H351.34V74.3092H366.06V89.7433H331.283V12.6194Z" fill="white"/>
<path d="M450.901 12.6194V89.7433H433.371L433.345 37.675L426.366 89.7433H413.933L406.573 38.8672L406.549 89.7433H389.02V12.6194H414.971C415.74 17.2555 416.534 22.7209 417.351 29.0155L420.198 48.6331L424.807 12.6194H450.901V12.6194Z" fill="white"/>
<path d="M504.54 12.6194V64.1628C504.54 70.0067 504.348 74.1121 503.968 76.477C503.587 78.8438 502.46 81.2731 500.585 83.7648C498.711 86.2585 496.241 88.1472 493.178 89.4331C490.112 90.7189 486.499 91.3629 482.341 91.3629C477.734 91.3629 473.671 90.5999 470.146 89.076C466.62 87.5521 463.984 85.5677 462.237 83.1209C460.489 80.676 459.457 78.0945 459.139 75.3804C458.823 72.6643 458.663 66.957 458.663 58.2545V12.6194H478.719V70.4516C478.719 73.8194 478.901 75.9697 479.266 76.9063C479.63 77.8428 480.368 78.3111 481.482 78.3111C482.75 78.3111 483.568 77.796 483.935 76.7638C484.3 75.7316 484.481 73.2945 484.481 69.4506V12.6194H504.54Z" fill="white"/>
<path d="M554.796 35.962H536.171V30.2449C536.171 27.5776 535.931 25.8781 535.455 25.1483C534.979 24.4185 534.187 24.0517 533.073 24.0517C531.867 24.0517 530.954 24.5434 530.335 25.5307C529.717 26.5161 529.406 28.0088 529.406 30.0107C529.406 32.5844 529.754 34.5239 530.45 35.8254C531.114 37.1288 533.005 38.7015 536.117 40.5415C545.044 45.841 550.667 50.1883 552.985 53.5873C555.303 56.9864 556.464 62.4635 556.464 70.0225C556.464 75.5171 555.82 79.5659 554.534 82.1708C553.248 84.7757 550.763 86.9591 547.079 88.721C543.395 90.483 539.108 91.3649 534.216 91.3649C528.85 91.3649 524.269 90.3483 520.474 88.3152C516.679 86.282 514.193 83.6947 513.02 80.5513C511.842 77.4079 511.256 72.9454 511.256 67.1659V62.1161H529.885V71.5015C529.885 74.3913 530.146 76.2508 530.669 77.0742C531.194 77.8996 532.121 78.3132 533.455 78.3132C534.79 78.3132 535.781 77.7883 536.433 76.7405C537.083 75.6927 537.41 74.1376 537.41 72.0713C537.41 67.5308 536.79 64.561 535.551 63.1639C534.283 61.7669 531.153 59.4332 526.167 56.161C521.178 52.8595 517.879 50.4615 516.259 48.9669C514.64 47.4742 513.295 45.4098 512.234 42.7737C511.168 40.1376 510.64 36.7717 510.64 32.6742C510.64 26.7678 511.393 22.4478 512.901 19.7161C514.407 16.9863 516.846 14.8498 520.212 13.3083C523.578 11.7707 527.643 11 532.406 11C537.615 11 542.052 11.8429 545.721 13.5249C549.389 15.2088 551.818 17.3278 553.008 19.8839C554.199 22.442 554.794 26.7834 554.794 32.9122V35.962H554.796Z" fill="white"/>
<path d="M582.806 12.6194V89.7433H562.753V12.6194H582.806Z" fill="white"/>
<path d="M637.683 46.2039H617.631V32.799C617.631 28.9025 617.416 26.4693 616.987 25.5034C616.557 24.5376 615.613 24.0537 614.152 24.0537C612.501 24.0537 611.453 24.641 611.008 25.8156C610.563 26.9922 610.341 29.5307 610.341 33.4371V69.2596C610.341 73.0079 610.563 75.4527 611.008 76.5961C611.455 77.7396 612.452 78.3113 614.011 78.3113C615.502 78.3113 616.479 77.7396 616.94 76.5922C617.398 75.4469 617.631 72.7561 617.631 68.522V58.8283H637.683V61.8352C637.683 69.8176 637.119 75.48 635.993 78.8186C634.866 82.1591 632.374 85.084 628.514 87.5991C624.655 90.1103 619.9 91.3669 614.245 91.3669C608.37 91.3669 603.529 90.3035 599.718 88.1747C595.908 86.0459 593.381 83.1015 592.142 79.3376C590.903 75.5737 590.286 69.9132 590.286 62.3542V39.8215C590.286 34.2644 590.477 30.0966 590.858 27.3161C591.238 24.5376 592.372 21.8624 594.263 19.2888C596.151 16.7171 598.774 14.6917 602.122 13.2146C605.471 11.7376 609.324 11 613.675 11C619.582 11 624.456 12.1415 628.302 14.4244C632.144 16.7073 634.669 19.5542 635.874 22.9649C637.082 26.3737 637.685 31.6771 637.685 38.8771V46.2039H637.683Z" fill="white"/>
<path d="M215 106.27H252.411V123.269H237.09V139.377H250.731V155.537H237.09V191.215H215V106.27Z" fill="white"/>
<path d="M308.237 156.009C308.237 164.545 308.036 170.586 307.634 174.138C307.23 177.689 305.971 180.932 303.856 183.87C301.739 186.809 298.881 189.064 295.279 190.639C291.675 192.214 287.478 193 282.686 193C278.137 193 274.055 192.257 270.434 190.77C266.814 189.283 263.901 187.055 261.698 184.079C259.495 181.107 258.182 177.87 257.763 174.372C257.343 170.875 257.132 164.754 257.132 156.007V141.474C257.132 132.94 257.333 126.897 257.735 123.345C258.137 119.796 259.398 116.551 261.513 113.613C263.628 110.674 266.488 108.419 270.09 106.844C273.692 105.269 277.891 104.483 282.684 104.483C287.232 104.483 291.316 105.226 294.935 106.713C298.555 108.2 301.468 110.43 303.671 113.404C305.874 116.378 307.187 119.613 307.607 123.111C308.026 126.61 308.237 132.731 308.237 141.476V156.009V156.009ZM286.147 128.097C286.147 124.145 285.928 121.617 285.491 120.514C285.052 119.412 284.153 118.861 282.789 118.861C281.634 118.861 280.752 119.308 280.139 120.2C279.526 121.094 279.22 123.726 279.22 128.097V167.763C279.22 172.696 279.421 175.738 279.823 176.893C280.225 178.046 281.162 178.623 282.629 178.623C284.133 178.623 285.095 177.96 285.515 176.629C285.934 175.301 286.145 172.136 286.145 167.133V128.097H286.147Z" fill="white"/>
<path d="M316.473 106.27H332.108C342.532 106.27 349.589 106.674 353.279 107.478C356.969 108.284 359.978 110.337 362.303 113.644C364.627 116.949 365.792 122.221 365.792 129.462C365.792 136.073 364.969 140.518 363.326 142.789C361.683 145.064 358.448 146.428 353.619 146.883C357.991 147.968 360.93 149.42 362.434 151.238C363.939 153.059 364.873 154.727 365.242 156.249C365.609 157.771 365.792 161.96 365.792 168.815V191.219H345.279V162.988C345.279 158.44 344.92 155.626 344.204 154.54C343.486 153.457 341.607 152.914 338.563 152.914V191.217H316.473V106.27ZM338.563 120.803V139.691C341.045 139.691 342.787 139.349 343.784 138.668C344.781 137.987 345.279 135.775 345.279 132.032V127.363C345.279 124.67 344.797 122.902 343.837 122.063C342.875 121.222 341.117 120.803 338.563 120.803Z" fill="white"/>
<path d="M374.347 106.27H411.18V123.269H396.436V139.377H410.235V155.537H396.436V174.216H412.649V191.215H374.347V106.27Z" fill="white"/>
<path d="M470.573 143.26H448.485V128.495C448.485 124.202 448.249 121.523 447.779 120.458C447.307 119.394 446.265 118.861 444.655 118.861C442.835 118.861 441.681 119.509 441.194 120.803C440.704 122.099 440.458 124.895 440.458 129.197V168.653C440.458 172.781 440.704 175.474 441.194 176.733C441.681 177.993 442.784 178.622 444.499 178.622C446.142 178.622 447.217 177.991 447.724 176.729C448.232 175.466 448.485 172.504 448.485 167.839V157.162H470.573V160.473C470.573 169.265 469.953 175.502 468.712 179.178C467.469 182.856 464.723 186.079 460.474 188.848C456.224 191.615 450.987 192.998 444.758 192.998C438.288 192.998 432.954 191.825 428.756 189.484C424.559 187.141 421.777 183.896 420.415 179.751C419.051 175.605 418.368 169.373 418.368 161.047V136.229C418.368 130.108 418.577 125.517 418.998 122.456C419.418 119.396 420.667 116.448 422.749 113.615C424.829 110.781 427.715 108.551 431.408 106.926C435.098 105.299 439.338 104.487 444.132 104.487C450.637 104.487 456.005 105.743 460.241 108.259C464.472 110.774 467.254 113.909 468.581 117.665C469.912 121.42 470.573 127.261 470.573 135.191V143.26V143.26Z" fill="white"/>
<path d="M516.682 106.27L529.315 191.217H506.741L505.557 175.948H497.654L496.327 191.217H473.488L484.753 106.27H516.682V106.27ZM504.975 160.889C503.855 151.267 502.735 139.375 501.609 125.211C499.359 141.476 497.945 153.369 497.369 160.889H504.975Z" fill="white"/>
<path d="M579.869 131.98H559.35V125.683C559.35 122.744 559.09 120.875 558.565 120.069C558.04 119.265 557.162 118.861 555.941 118.861C554.61 118.861 553.607 119.404 552.924 120.491C552.241 121.576 551.9 123.219 551.9 125.425C551.9 128.259 552.284 130.395 553.051 131.831C553.785 133.265 555.865 134.998 559.293 137.025C569.127 142.861 575.318 147.65 577.872 151.392C580.427 155.135 581.701 161.17 581.701 169.494C581.701 175.544 580.994 180.005 579.578 182.873C578.159 185.742 575.422 188.145 571.367 190.087C567.309 192.028 562.587 192.998 557.199 192.998C551.285 192.998 546.241 191.878 542.062 189.64C537.88 187.402 535.145 184.551 533.849 181.088C532.555 177.626 531.91 172.711 531.91 166.344V160.783H552.423V171.119C552.423 174.301 552.711 176.348 553.289 177.258C553.867 178.167 554.891 178.621 556.36 178.621C557.83 178.621 558.92 178.044 559.638 176.891C560.356 175.736 560.713 174.022 560.713 171.749C560.713 166.748 560.032 163.476 558.669 161.937C557.268 160.399 553.824 157.827 548.331 154.223C542.84 150.586 539.201 147.944 537.416 146.3C535.632 144.657 534.155 142.383 532.985 139.478C531.814 136.575 531.227 132.867 531.227 128.354C531.227 121.849 532.058 117.092 533.72 114.083C535.383 111.074 538.066 108.723 541.775 107.025C545.48 105.33 549.958 104.481 555.207 104.481C560.94 104.481 565.83 105.408 569.872 107.261C573.911 109.115 576.587 111.449 577.898 114.264C579.211 117.082 579.869 121.864 579.869 128.614V131.98V131.98Z" fill="white"/>
<path d="M633.121 106.27V123.269H620.003V191.217H597.917V123.269H584.85V106.27H633.121V106.27Z" fill="white"/>
<path d="M196 140.25C187.149 162.193 170.962 180.367 150.215 191.655C129.468 202.943 105.452 206.643 82.2826 202.122C59.1133 197.6 38.2335 185.138 23.2215 166.872C8.20947 148.605 0 125.671 0 102C0 78.3291 8.20947 55.3951 23.2215 37.1285C38.2335 18.8618 59.1133 6.39988 82.2826 1.87833C105.452 -2.64323 129.468 1.05716 150.215 12.3453C170.962 23.6335 187.149 41.8066 196 63.7501L101.711 102L196 140.25Z" fill="#BF0A30"/>
<path d="M101.5 153C129.39 153 152 130.167 152 102C152 73.8335 129.39 51 101.5 51C73.6096 51 51 73.8335 51 102C51 130.167 73.6096 153 101.5 153Z" fill="#FFD700"/>
</svg>
