<?xml version="1.0" encoding="UTF-8"?>
<svg width="179px" height="24px" viewBox="0 0 179 24" version="1.1" xmlns="http://www.w3.org/2000/svg" xmlns:xlink="http://www.w3.org/1999/xlink">
    <!-- Generator: Sketch 54.1 (76490) - https://sketchapp.com -->
    <title>Logos/WhiteFooterlogo</title>
    <desc>Created with Sketch.</desc>
    <g id="Symbols" stroke="none" stroke-width="1" fill="none" fill-rule="evenodd">
        <g id="Footer" transform="translate(-149.000000, -39.000000)" fill="#FFFFFF" fill-rule="nonzero">
            <g id="Logos/WhiteFooterlogo" transform="translate(149.000000, 39.000000)">
                <path d="M58.5090389,5.63372861 L61.235462,5.63372861 L57.8001689,16.8665916 L54.7465751,16.8665916 L52.838079,9.34166397 L50.8750544,16.8665916 L47.8214605,16.8665916 L44.3861675,5.63372861 L47.2761759,5.63372861 L49.3482574,14.1401686 L51.420339,5.63372861 L54.4194043,5.63372861 L56.4369574,14.1401686 L58.5090389,5.63372861 Z M66.4156658,17.030177 C64.779812,17.030177 63.4711289,16.4848924 62.4350882,15.4488516 C61.3990474,14.4128109 60.9082912,12.9950709 60.9082912,11.2501601 C60.9082912,9.50524936 61.3990474,8.14203782 62.4350882,7.0514686 C63.4711289,6.01542783 64.779812,5.47014322 66.4701943,5.47014322 C68.1605766,5.47014322 69.4692597,5.96089937 70.5053004,6.99694014 C71.5413412,8.0329809 72.0866258,9.39619243 72.0866258,11.0865747 C72.0866258,11.468274 72.0866258,11.8499732 72.0320973,12.177144 L63.8528281,12.177144 C63.9073566,12.886014 64.1799989,13.485827 64.6707551,13.9220547 C65.1615112,14.3582824 65.7613243,14.5763963 66.4701943,14.5763963 C67.4517066,14.5763963 68.1605766,14.194697 68.6513327,13.3767701 L71.7049266,13.3767701 C71.3777558,14.4673393 70.7779427,15.3397947 69.7964304,15.9941362 C68.8694466,16.6484778 67.7243489,17.030177 66.4156658,17.030177 Z M68.324162,8.52373705 C67.8334058,8.08750936 67.2335927,7.86939552 66.4701943,7.86939552 C65.7613243,7.86939552 65.1615112,8.08750936 64.6707551,8.52373705 C64.1799989,8.95996474 63.9073566,9.55977782 63.7982997,10.3231763 L69.0875604,10.3231763 C69.0875604,9.61430628 68.8149181,9.0144932 68.324162,8.52373705 Z M76.4489027,2.79824862 C76.4489027,3.28900477 76.2853173,3.670704 75.9581465,4.05240323 C75.6309758,4.43410246 75.1947481,4.54315938 74.7585204,4.54315938 C74.2677642,4.54315938 73.886065,4.379574 73.5588942,4.05240323 C73.2317235,3.72523246 73.0681381,3.28900477 73.0681381,2.79824862 C73.0681381,2.30749247 73.2317235,1.92579324 73.5588942,1.54409401 C73.886065,1.21692324 74.3222927,1.05333786 74.7585204,1.05333786 C75.2492765,1.05333786 75.6309758,1.21692324 75.9581465,1.54409401 C76.2307889,1.87126478 76.4489027,2.30749247 76.4489027,2.79824862 Z M73.2862519,16.8665916 L73.2862519,5.63372861 L76.1217319,5.63372861 L76.1217319,16.8665916 L73.2862519,16.8665916 Z M85.5551557,5.63372861 L85.5551557,7.97845244 L80.8657081,14.5218678 L85.5551557,14.5218678 L85.5551557,16.8665916 L77.5394719,16.8665916 L77.5394719,14.5218678 L82.2834481,7.97845244 L77.5394719,7.97845244 L77.5394719,5.63372861 L85.5551557,5.63372861 Z M91.6078149,17.030177 C89.9719611,17.030177 88.663278,16.4848924 87.6272373,15.4488516 C86.5911965,14.4128109 86.1004403,12.9950709 86.1004403,11.2501601 C86.1004403,9.50524936 86.5911965,8.14203782 87.6272373,7.0514686 C88.663278,6.01542783 89.9719611,5.47014322 91.6078149,5.47014322 C93.2436688,5.47014322 94.6068803,5.96089937 95.6429211,6.99694014 C96.6789618,8.0329809 97.2242464,9.39619243 97.2242464,11.0865747 C97.2242464,11.468274 97.169718,11.8499732 97.169718,12.177144 L88.9904488,12.177144 C89.0449772,12.886014 89.3176196,13.485827 89.8083757,13.9220547 C90.2991319,14.3582824 90.8989449,14.5763963 91.6078149,14.5763963 C92.5893272,14.5763963 93.2981972,14.194697 93.7889534,13.3767701 L96.8425472,13.3767701 C96.5153764,14.4673393 95.9155634,15.3397947 94.9340511,15.9941362 C94.0070672,16.6484778 92.916498,17.030177 91.6078149,17.030177 Z M93.4617826,8.52373705 C92.9710265,8.08750936 92.3712134,7.86939552 91.6078149,7.86939552 C90.8989449,7.86939552 90.2991319,8.08750936 89.8083757,8.52373705 C89.3176196,8.95996474 89.0449772,9.55977782 88.9359203,10.3231763 L94.2251811,10.3231763 C94.2251811,9.61430628 93.9525388,9.0144932 93.4617826,8.52373705 Z M101.313881,5.63372861 L101.313881,7.32411091 C102.022751,6.0699563 103.167849,5.47014322 104.803703,5.47014322 C106.112386,5.47014322 107.148426,5.90637091 107.966353,6.72429783 C108.78428,7.54222475 109.165979,8.7418509 109.165979,10.2141194 L109.165979,16.8120632 L106.330499,16.8120632 L106.330499,10.650347 C106.330499,9.77789166 106.112386,9.12355013 105.676158,8.63279398 C105.23993,8.14203782 104.640117,7.92392398 103.876719,7.92392398 C103.11332,7.92392398 102.513507,8.14203782 102.022751,8.63279398 C101.586523,9.12355013 101.368409,9.77789166 101.368409,10.650347 L101.368409,16.8665916 L98.5329295,16.8665916 L98.5329295,5.63372861 L101.313881,5.63372861 Z M117.945062,16.6484778 L113.528256,5.63372861 L116.745436,5.63372861 L119.580916,13.594884 L122.579981,5.63372861 L125.579046,5.63372861 L118.599403,22.1558524 L115.600338,22.1558524 L117.945062,16.6484778 Z M126.615087,15.3943232 C125.524518,14.3037539 124.979233,12.9405424 124.979233,11.1956317 C124.979233,9.45072089 125.524518,8.08750936 126.615087,7.0514686 C127.705656,6.01542783 129.068868,5.47014322 130.75925,5.47014322 C132.449632,5.47014322 133.758315,6.01542783 134.903413,7.0514686 C135.993982,8.08750936 136.539267,9.50524936 136.539267,11.1956317 C136.539267,12.9405424 135.993982,14.3037539 134.848885,15.3943232 C133.758315,16.4848924 132.340575,16.9756485 130.704722,16.9756485 C129.068868,16.9756485 127.705656,16.4848924 126.615087,15.3943232 Z M130.75925,14.5763963 C131.577177,14.5763963 132.231519,14.3037539 132.831332,13.7039409 C133.431145,13.1041278 133.703787,12.2862009 133.703787,11.1956317 C133.703787,10.1050624 133.431145,9.28713551 132.831332,8.7418509 C132.286047,8.14203782 131.577177,7.86939552 130.75925,7.86939552 C129.941323,7.86939552 129.286982,8.14203782 128.741697,8.7418509 C128.196412,9.34166397 127.92377,10.1595909 127.92377,11.2501601 C127.92377,12.3407293 128.196412,13.1586563 128.741697,13.7584693 C129.286982,14.3037539 129.941323,14.5763963 130.75925,14.5763963 Z M145.481935,5.63372861 L148.317415,5.63372861 L148.317415,16.8665916 L145.481935,16.8665916 L145.481935,15.1762093 C144.773065,16.4303639 143.573439,17.030177 141.992113,17.030177 C140.737959,17.030177 139.701918,16.5939493 138.883991,15.7760224 C138.066064,14.9580955 137.684365,13.7584693 137.684365,12.2862009 L137.684365,5.63372861 L140.519845,5.63372861 L140.519845,11.7954447 C140.519845,12.6679001 140.737959,13.3222416 141.174186,13.8129978 C141.610414,14.3037539 142.210227,14.5218678 142.973625,14.5218678 C143.737024,14.5218678 144.336837,14.3037539 144.827593,13.8129978 C145.263821,13.3222416 145.481935,12.6679001 145.481935,11.7954447 L145.481935,5.63372861 Z M153.115919,5.63372861 L153.115919,7.32411091 C153.824789,6.0699563 154.969887,5.47014322 156.605741,5.47014322 C157.914424,5.47014322 158.950465,5.90637091 159.768392,6.72429783 C160.586318,7.54222475 160.968018,8.7418509 160.968018,10.2141194 L160.968018,16.8120632 L158.132538,16.8120632 L158.132538,10.650347 C158.132538,9.77789166 157.914424,9.12355013 157.478196,8.63279398 C157.041968,8.14203782 156.442155,7.92392398 155.678757,7.92392398 C154.915358,7.92392398 154.315545,8.14203782 153.824789,8.63279398 C153.388562,9.12355013 153.170448,9.77789166 153.170448,10.650347 L153.170448,16.8665916 L150.334968,16.8665916 L150.334968,5.63372861 L153.115919,5.63372861 Z M163.585384,15.3943232 C162.603871,14.3037539 162.058587,12.9405424 162.058587,11.2501601 C162.058587,9.55977782 162.549343,8.19656629 163.530855,7.10599706 C164.512368,6.01542783 165.821051,5.47014322 167.347848,5.47014322 C168.874645,5.47014322 170.074271,6.12448476 170.892198,7.37863937 L170.892198,5.63372861 L173.727678,5.63372861 L173.727678,16.9211201 C173.727678,18.5024455 173.236921,19.865657 172.309938,20.8471693 C171.382954,21.8832101 170.019742,22.3739662 168.32936,22.3739662 C166.638978,22.3739662 165.275766,22.0467954 164.239725,21.3379255 C163.258213,20.6290555 162.6584,19.6475432 162.549343,18.3388601 L165.330295,18.3388601 C165.49388,18.8296162 165.821051,19.2113155 166.366335,19.5384862 C166.857091,19.8111285 167.511433,19.9747139 168.274831,19.9747139 C169.03823,19.9747139 169.638043,19.7020716 170.183328,19.2113155 C170.674084,18.7205593 170.946726,17.9571609 170.946726,16.9756485 L170.946726,15.0126239 C170.074271,16.3758355 168.929173,17.030177 167.402376,17.030177 C165.875579,17.030177 164.621425,16.4848924 163.585384,15.3943232 Z M170.019742,13.6494124 C170.619555,13.0495993 170.892198,12.2316724 170.892198,11.2501601 C170.892198,10.2141194 170.619555,9.39619243 170.019742,8.85090782 C169.419929,8.25109475 168.711059,7.97845244 167.947661,7.97845244 C167.184262,7.97845244 166.475392,8.25109475 165.875579,8.85090782 C165.275766,9.45072089 165.003124,10.2141194 165.003124,11.2501601 C165.003124,12.2862009 165.275766,13.1041278 165.875579,13.7039409 C166.475392,14.3037539 167.184262,14.5763963 167.947661,14.5763963 C168.765588,14.5218678 169.419929,14.2492255 170.019742,13.6494124 Z M178.526182,15.2307378 C178.526182,15.6669655 178.362597,16.0486647 178.035426,16.3758355 C177.708255,16.7030062 177.326556,16.8665916 176.890328,16.8665916 C176.454101,16.8665916 176.072401,16.7030062 175.745231,16.3758355 C175.41806,16.0486647 175.254475,15.6669655 175.254475,15.2307378 C175.254475,14.7945101 175.41806,14.4128109 175.745231,14.0856401 C176.072401,13.7584693 176.454101,13.594884 176.890328,13.594884 C177.326556,13.594884 177.708255,13.7584693 178.035426,14.0856401 C178.362597,14.3582824 178.526182,14.7945101 178.526182,15.2307378 Z" id="Shape"/>
                <path d="M32.2808491,0.126354018 L21.9204414,20.574527 L18.9759045,20.574527 L22.3566691,13.8675263 L15.3770261,0.126354018 L12.4870176,0.126354018 L12.4870176,0.126354018 L2.29019537,0.126354018 L2.29019537,0.126354018 L0.327170768,0.126354018 L8.94266765,17.1937624 L11.9962615,11.2501601 L14.8317415,16.8665916 L16.3585384,13.9220547 L16.3040099,13.8675263 L10.6875784,2.79824862 L13.6866438,2.79824862 L19.3030753,13.8675263 L14.5590992,23.2464216 L23.5562953,23.2464216 L35.2799144,0.126354018 L32.2808491,0.126354018 Z M10.4694646,8.30562321 L8.99719611,11.2501601 L4.74397613,2.79824862 L7.7430415,2.79824862 L10.4694646,8.30562321 Z M20.8298722,5.08844399 L19.3576037,2.14390708 L20.3936445,0.126354018 L23.3927099,0.126354018 L23.3927099,0.126354018 L29.3363122,0.126354018 L23.883466,10.9229893 L22.4111976,7.97845244 L25.0285637,2.79824862 L22.0840268,2.79824862 L20.8298722,5.08844399 Z" id="Shape"/>
            </g>
        </g>
    </g>
</svg>