<svg id="Layer_7" data-name="Layer 7" xmlns="http://www.w3.org/2000/svg" viewBox="0 0 1864.41 296.22"><defs><style>.cls-1{fill:#fff;}</style></defs><path id="Fill" class="cls-1" d="M1859.26,82.3c-49.46,56.47-104.86,105.39-149.17,105.39-22.16,0-31.17-10.71-26.79-27.51a34.49,34.49,0,0,0,13.65,6.3c22.42,5.67,47.92-4.2,70.08-26.66,36.84-37.58,13.65-66.55-23.7-66.55-22.68,0-58,16.37-86.83,53.74-7.8,10.17-13.24,20-16.31,29.22-25.54,19.25-50.44,31.46-72.57,31.46s-31.18-10.71-26.8-27.51a34.6,34.6,0,0,0,13.66,6.3c22.41,5.67,47.92-4.2,70.07-26.66,36.84-37.58,13.66-66.55-23.7-66.55-22.67,0-58,16.37-86.82,53.74-1.32,1.71-2.54,3.41-3.72,5.1-16.16,12.45-30,23-33.9,25.56-6.44,4.61-12.62,9.23-14.68,7.34-2.06-1.68,4.63-13.22,8.5-18.89,11.08-17,12.88-18.06,19.32-28.13,17.26-26.88-8.24-16.17-28.08-25.41a20,20,0,0,1-5.67-3.78C1471.26,75.16,1483.62,61.09,1470,54c-12.62-6.71-35-9.65-50,5.46-18.81,19.32,1.29,37.79,15.2,43.67,6.18,2.52,21.9,4,8.76,21.83-12.62,17.22-26.79,40.1-37.36,55.85-14.42,21.83-6.95,31.91,10.05,31.91,10.56,0,25-5,47.15-22.25,6.18-4.73,18-14.17,31.67-25.27-4.74,27.77,14.75,47.52,59.27,47.52,28.36,0,57-12.85,83.34-31.53,4.17,19.06,23.76,31.53,59.14,31.53,63.63,0,128.56-64.66,166.43-114.84C1865.7,95.1,1863.38,77.68,1859.26,82.3ZM1606.52,97.2c13.14,0-.77,24.56-17.26,35.9-12.11,8.19-26.54,16.17-39.16,8.19a21,21,0,0,0,2.06-2.94C1568.9,115.47,1593.12,97.2,1606.52,97.2Zm142.47,0c13.14,0-.77,24.56-17.26,35.9-12.11,8.19-26.53,16.17-39.16,8.19a19.45,19.45,0,0,0,2.06-2.94C1711.38,115.47,1735.6,97.2,1749,97.2ZM1498.05,33.59c5.67,0,10.82-2.52,13.14-6.72l8.24-13.22a4.42,4.42,0,0,0-.25-5.25,7.1,7.1,0,0,0-5.67-2.73H1323.89c-4.12,0-8,1.89-9.79,5l-9.79,16a3.85,3.85,0,0,0,.26,4.62,5.83,5.83,0,0,0,4.89,2.31h76c-16.74,25.82-41,63-54.61,83.14-125.22,12.17-153.3,95.94-92.75,95.94,38.13,0,79.09-12,122.89-75.16,8.76-12.6,45.34-69.07,68-103.92ZM1242.74,189.36c-23.19,0,9.27-44.5,75.74-54.58C1287.05,176.77,1258.71,189.36,1242.74,189.36ZM1176.26,82.3c-30.91,24.35-79.35,61.72-120,89.64,31.17-47.45,64.15-98.67,64.15-98.67h-40.71l-18.81,29.39c-.25,0-.51.42-.77.84C1046.42,124.7,1000.3,165,985.36,165s-7.47-13.22-3.61-18.89c11.08-17,47.92-72.85,47.92-72.85l-41,.21-21.93,33.39c-30,20.48-69,46.52-75.2,50.8-6.7,4.61-12.89,9.23-15,7.34-2.06-1.68,4.9-13.22,8.76-18.89,4.38-6.72,19.84-30.23,36.84-56.27h30.66c4.38-6.71,7-10.7,7-10.7l-30.66.21c23.7-36.53,33.49-50.18,33.49-50.18h-41s-8,11.34-33.49,50.18H858.6s-2.58,3.78-7,10.49h29.89l-8.61,13.05c-26.71,20.92-64.7,50.21-71.52,54.77-6.44,4.61-12.62,9.23-14.68,7.34-2.07-1.68,4.63-13.22,8.5-18.89,11.08-17,16.74-25.62,23.44-35.48,17.52-26.66,1.81-37.37-18-37.37-12.37,0-49.73,9-101.25,64L785.94,5.67h-40.7L674.35,113.33c-25.53,19.53-54.35,41-80.09,58.61,31.18-47.45,64.15-98.67,64.15-98.67h-40.7L602.51,97.2c-2.84-12.59-13.66-23.93-28.6-23.93-22.93,0-55.91,15.11-92.49,60.46-1.57,1.94-3,3.85-4.41,5.75-11.83,9.06-21.2,16.13-24.19,18.19-6.7,4.61-12.88,9.23-14.94,7.34-2.07-1.68,4.89-13.22,8.75-18.89,11.08-17,47.92-72.85,47.92-72.85l-41,.21L431.7,106.83c-26.22,20.49-60.09,46.56-66.49,50.84-6.7,4.61-12.62,9.23-14.68,7.34-2.32-1.68,4.63-13.22,8.5-18.89,6.18-9.66,35-52.91,58.22-89C440.44,21.62,426.53,1.47,392,1.47c-22.93,0-45.34,7.56-67,25.19.77-16.58-14.43-25.19-37.62-25.19-18.54,0-35.81,4.83-54.36,16.16,4.9-7.55,7.73-12,7.73-12H192.34s-50.76,78.1-72.66,111.06c-125.21,12-148.14,95.73-87.59,95.73,38.13,0,79.09-12,122.89-75,6.44-9.24,27.05-40.94,46.63-71C220.42,39.47,239,23.72,264,23.72c14.94,0,15.2,14.28,3.35,33.38C242.58,95.94,167.09,212.46,167.09,212.46h43.54S284.57,101,311.36,59.41c18.3-23.51,34.27-35.69,57.2-35.69,14.94,0,15.2,14.7,2.83,33.8-31.17,48.29-71.62,113.16-78.57,123.24-14.69,21.83-7,31.91,10,31.91,11.08,0,27.57-5,49.73-22.25,9-6.88,29.83-23.72,51.22-41.16-9.51,14.46-17.54,26.62-20.81,31.5-14.69,21.83-7,31.91,10.05,31.91,10.82,0,24.73-5,47.14-22.25,4.2-3.25,11.06-8.73,19.4-15.44-4.75,23,7.7,37.69,30.85,37.69,18.8,0,37.87-11.13,53.58-24.35l-13.91,21.62c-52,25.19-94.55,34.64-94.55,58.57,0,18.48,23.7,27.71,39.67,27.71,32.72,0,46.12-16.79,67.51-46.39,4.37-6.09,18.54-27.71,35.55-53.75,22.54-13.31,46.86-28.43,71.57-45.55L609,212.67h40.7c33.5-50.39,102.29-102.87,117-102.87,8.76,0,5.67,9.24-5.15,25.4-11.6,17.64-19.33,29.81-29.89,45.56-14.43,21.83-7,31.91,10,31.91,10.56,0,25-5,47.15-22.25,9.72-7.44,33.3-26.53,56.46-45.43-11.82,18-20.77,31.67-23.48,35.77-14.69,21.83-7,31.91,10,31.91,10.83,0,24.74-5,47.15-22.25,9.77-7.57,36.85-27.21,63.41-46.43-7.15,10.84-13.12,19.87-16,24.17-14.69,22.05-9,44.51,16.74,44.51,17.27,0,50.76-24.14,79.1-49.76l-30.15,47c-52,25.19-94.55,34.64-94.55,58.57,0,18.48,23.71,27.71,39.68,27.71,32.72,0,46.11-16.79,67.5-46.39,4.38-6.09,18.55-27.71,35.55-53.75,43-25.4,92.49-57.31,138.87-97.41C1181.67,96.36,1181.42,78.31,1176.26,82.3ZM36.73,189.36c-23.19,0,4.12-44.5,70.59-54.79C75.89,176.77,52.7,189.36,36.73,189.36Zm469.94,57.11c-13.4,20.36-20.61,35.69-31.18,35.69-5.41,0-10.05-2.1-10.05-9,0-9.66,19.33-22.67,50-40.52Zm66.72-108.12c-16.48,22.67-40.7,41.15-54.1,41.15s-10.56-18.48,5.93-41.15c16.74-22.67,41-41.15,54.1-41.15C592.72,97.2,590.14,115.68,573.39,138.35ZM968.61,246.47c-13.4,20.36-20.61,35.69-31.17,35.69-5.41,0-10.05-2.1-10.05-9,0-9.66,19.32-22.67,50-40.52ZM472.14,23.3C479.35,10.5,497.65,0,513.36,0c16,0,22.93,10.5,16,23.3s-25.51,23.1-41.23,23.1S465.18,36.11,472.14,23.3Z"/></svg>