<svg xmlns="http://www.w3.org/2000/svg" width="331.627" height="95.743" viewBox="0 0 331.627 95.743"><path id="Path_1" data-name="Path 1" d="M11.439,40.092a4.079,4.079,0,0,0,.479-1.816c.071-1.031.162-2.061.237-3.091.12-1.647,1.1-2.9,1.977-4.177A11.971,11.971,0,0,0,15.8,27.941a4.571,4.571,0,0,1,.253-.539c.537.075.645.406.657.84a10.025,10.025,0,0,1-1.074,4.816,9,9,0,0,0-.983,5.022c.147,1.415.278,2.832.421,4.248a4.785,4.785,0,0,0,.845,2.315,1.847,1.847,0,0,0,.641.562,26.474,26.474,0,0,0,3.112,1.482,8.076,8.076,0,0,0,2.248.259c.382.02.7-.47.787-.982.146-.883.317-1.762.488-2.641a.428.428,0,0,1,.16-.248,1.353,1.353,0,0,0,.5-1.293,2.852,2.852,0,0,1,.27-.873c.033-.094.1-.177.127-.272q1.071-3.921,2.135-7.844a8.949,8.949,0,0,1,2.175-3.512,6.177,6.177,0,0,1,.682-.749c.34-.276.728-.492,1.1-.734l.141.125c-.309.706-.642,1.4-.923,2.121a17.619,17.619,0,0,0-1.339,5.707,1.735,1.735,0,0,1-.056.5,7.542,7.542,0,0,0-.114,3.469,3.71,3.71,0,0,1-.135,1.073c-.038.2-.167.376-.2.573q-.319,1.99-.61,3.985a19.59,19.59,0,0,0-.277,2.353,2.832,2.832,0,0,0,.351,1.282,5.526,5.526,0,0,0,4.882,3.075c2.364.153,4.737.173,7.105.273.532.022,1.206-.044,1.561.244a5.654,5.654,0,0,1,2.059,2.4A9.389,9.389,0,0,1,43.105,59c-.129,1.534-.11,3.081-.149,4.623-.024.949-.013,1.9-.063,2.846a2.31,2.31,0,0,1-.762,1.618q-.957.877-1.922,1.746a.922.922,0,0,0-.045,1.517,7.016,7.016,0,0,0,1.293.892A7.382,7.382,0,0,1,43.922,74.4a4.167,4.167,0,0,1,.821,2.718c-.036.643.018,1.291-.021,1.934-.035.585-.21,1.167-.2,1.749a20.425,20.425,0,0,0,.228,2.252,8.372,8.372,0,0,1,.193.932c.017,2.174.063,4.349-.017,6.521a9.323,9.323,0,0,1-.558,2.669,2.875,2.875,0,0,1-2.232,1.888,17.771,17.771,0,0,1-5.059.395,19.847,19.847,0,0,1-2.176-.408,1.2,1.2,0,0,0-.389.029,7.748,7.748,0,0,1-1.194.193c-3.989,0-7.978-.024-11.968-.041a1.422,1.422,0,0,1-.5-.021c-.2-.082-.477-.214-.517-.375a1.056,1.056,0,0,1,.117-.781,3.52,3.52,0,0,1,.905-.886A3.563,3.563,0,0,0,22.745,89.8c-.018-1.455-.17-2.908-.26-4.361-.007-.117-.038-.272.022-.347.388-.495.12-1,.06-1.5a3.692,3.692,0,0,1-.014-.911,21.978,21.978,0,0,0-.15-6.834,15.165,15.165,0,0,1-.012-3.34c.082-2.135.062-4.274.07-6.412a4.986,4.986,0,0,1,.484-2.614.8.8,0,0,0-.021-.73,2.542,2.542,0,0,1-.435-1.933,10.427,10.427,0,0,0-.162-3.211,11.366,11.366,0,0,1-.067-1.369c-.126-1.227-1-2.038-1.671-2.967a7.719,7.719,0,0,0-2.435-1.954c-.044-.026-.089-.051-.13-.081-2.9-2.147-5.89-4.192-8.684-6.473a44.857,44.857,0,0,1-7.1-7.484,10.464,10.464,0,0,1-1.956-5,14.812,14.812,0,0,1-.261-3.321,13.27,13.27,0,0,1,.333-2.069A60.4,60.4,0,0,1,1.9,20.832C3.947,15.019,6.1,9.245,8.28,3.479A20.548,20.548,0,0,1,9.979.366c.266-.448.692-.482.95-.116.1.136.03.413-.012.615-.237,1.16-.494,2.315-.734,3.474-.15.727-.261,1.464-.429,2.187-.1.42-.276.821-.409,1.234a1.086,1.086,0,0,0,0,.28c.678-.37.95-1.239,1.9-1.3a3.9,3.9,0,0,1-.016,1.07,17.312,17.312,0,0,1-.857,2.335c-1.174,2.519-2.4,5.015-3.582,7.53a11.606,11.606,0,0,0-1,3.921c-.139,1.517-.316,3.031-.49,4.544a13.547,13.547,0,0,0,.618,5.218,10,10,0,0,0,.854,2.034c.083-.39.179-.777.248-1.17.472-2.7.737-5.451,1.924-7.973q1.2-2.552,2.5-5.058c1.437-2.788,2.928-5.548,4.355-8.34a24.347,24.347,0,0,1,4.612-6.11q1.674-1.672,3.425-3.264a3.653,3.653,0,0,1,1-.453,1.733,1.733,0,0,1-.335,1.8C23.407,4.4,22.285,5.96,21.25,7.573a41.285,41.285,0,0,0-3.261,5.452c-2.009,4.557-3.807,9.207-5.676,13.825a18.493,18.493,0,0,0-1.153,4.774c-.187,1.557-.58,3.092-.711,4.652A5.7,5.7,0,0,0,11.439,40.092ZM38.612,80.876h.027c0-.66-.043-1.324.01-1.98a3.39,3.39,0,0,0-1-2.725c-.585-.614-1.189-1.21-1.8-1.8a.683.683,0,0,0-.475-.219,6.358,6.358,0,0,0-1.55.4c-.808.372-1.558.865-2.351,1.27A4.35,4.35,0,0,0,28.9,78.957a18.26,18.26,0,0,0-.225,5.464,10.852,10.852,0,0,1,.009,3.033,4.748,4.748,0,0,0,.148,2.286.463.463,0,0,0,.315.28,23.526,23.526,0,0,0,2.54.017,10.909,10.909,0,0,0,2.1.019,28.553,28.553,0,0,1,3.316-.29,1.854,1.854,0,0,0,1.717-1.784,10.212,10.212,0,0,0,.085-1.723C38.828,84.463,38.713,82.67,38.612,80.876Zm-10.356-8.97c.267-.073.379-.1.487-.133a9.783,9.783,0,0,0,3.3-1.956A11.96,11.96,0,0,1,33.536,68.6a15.525,15.525,0,0,0,3.272-2.646,1.075,1.075,0,0,0,.267-.658c.018-1.459,0-2.918,0-4.376a1.164,1.164,0,0,1,.083-.438,2.7,2.7,0,0,0-.126-2.35,1.555,1.555,0,0,0-1.045-.761,12.363,12.363,0,0,0-4.139.113.881.881,0,0,1-.521-.038,2.973,2.973,0,0,0-2.315.081,1.426,1.426,0,0,0-.57.781,2.54,2.54,0,0,0-.095.9q-.01,3.385,0,6.769c0,.352.11.7.125,1.054.04.909.1,1.82.068,2.728C28.515,70.447,28.363,71.132,28.256,71.907ZM83.79,28.159a1.308,1.308,0,0,1,1.3.443,11.267,11.267,0,0,1,3.357,5.644c.516,2.037,1.082,4.061,1.639,6.087.084.306.271.584.356.89a2.51,2.51,0,0,1,.111.883.812.812,0,0,0,.3.8.6.6,0,0,1,.258.747c-.053.15.042.358.087.536.16.638.356,1.269.484,1.913a1.172,1.172,0,0,0,1.6.91c.346-.121.759-.06,1.095-.2a27.77,27.77,0,0,0,3.238-1.453,3.349,3.349,0,0,0,1.638-2.931c.088-1.608.18-3.219.384-4.815a7.218,7.218,0,0,0-.852-4.37,9.75,9.75,0,0,1-1.1-5.2.6.6,0,0,1,.569-.641,2.013,2.013,0,0,1,.248.474A7.425,7.425,0,0,0,99.825,30.5c.233.334.439.689.693,1.006a9.616,9.616,0,0,1,1.886,5.9c.033.861.153,1.719.251,2.764.288-.3.574-.463.658-.7a15.835,15.835,0,0,0,.423-1.7,2.836,2.836,0,0,0,.067-.4,11.675,11.675,0,0,0,.081-1.169,8.272,8.272,0,0,0-.116-1.143c-.122-.791-.263-1.579-.393-2.368-.115-.7-.215-1.395-.341-2.089a13.2,13.2,0,0,0-.463-2.271c-.887-2.382-1.858-4.732-2.785-7.1-.562-1.434-1.023-2.915-1.672-4.308-1.044-2.241-2.1-4.49-3.346-6.619-1.4-2.381-3.019-4.629-4.527-6.946a12.855,12.855,0,0,1-.812-1.52,1.869,1.869,0,0,1-.066-.594,1.2,1.2,0,0,1,1.318.395c1.552,1.547,3.065,3.133,4.654,4.641a21.955,21.955,0,0,1,4.017,6.147c2.082,4,4.1,8.031,6.15,12.049a17.69,17.69,0,0,1,1.378,5.085c.176,1,.308,2.005.471,3.007a3.925,3.925,0,0,0,.275.93,12.379,12.379,0,0,0,1.192-3.827c.044-.469.148-.932.213-1.4a4.813,4.813,0,0,0,.108-1.057c-.166-1.873-.365-3.744-.548-5.616a15.586,15.586,0,0,0-1.74-5.272c-.947-1.952-1.831-3.934-2.754-5.9a7.575,7.575,0,0,1-1.014-3.587c.857-.258,1.122.675,1.8,1.011-.054-.412-.072-.747-.144-1.07-.4-1.834-.821-3.666-1.238-5.5a2.244,2.244,0,0,1-.156-.584.939.939,0,0,1,.249-.575c.07-.067.378.008.491.113a6.665,6.665,0,0,1,1.64,2.485c1.03,2.6,2.107,5.182,3.078,7.8.794,2.141,1.443,4.335,2.2,6.491.278.8.733,1.53,1,2.329.521,1.555.938,3.143,1.452,4.7a14.353,14.353,0,0,1,.64,3.775c.047.875.231,1.75.2,2.62-.026.849-.269,1.689-.371,2.539-.383,3.2-2.561,5.332-4.546,7.532a40.394,40.394,0,0,1-6.109,5.754c-1.01.734-2.088,1.374-3.115,2.085-.571.4-1.092.861-1.649,1.277-1.1.822-2.224,1.615-3.313,2.452-.659.506-1.28,1.062-1.9,1.614a2.836,2.836,0,0,0-.969,2.214c0,1.953-.024,3.906,0,5.858,0,.46.242.927.2,1.377-.069.84-.347,1.666-.381,2.5-.043,1.063.059,2.132.118,3.2a6.011,6.011,0,0,1-.109,2.3,4.582,4.582,0,0,0-.045,1.515q.091,2.847.207,5.692c.065,1.537.234,3.074.206,4.608-.024,1.343-.275,2.681-.394,4.024-.1,1.081-.2,2.167-.2,3.251A4.674,4.674,0,0,1,88.5,94.855a8.923,8.923,0,0,1-4.662.487,11.665,11.665,0,0,0-2.481-.108c-.627-.016-1.253-.021-1.88-.032a.532.532,0,0,0-.2,0,3.758,3.758,0,0,1-2.385.031c-1.195-.254-2.362.149-3.547.157-1.2.009-2.409.052-3.614.079-.186,0-.372,0-.7,0a5.536,5.536,0,0,1,.478-.916,12.792,12.792,0,0,1,.925-.944,4.292,4.292,0,0,0,1.223-3.082c.03-1.623.176-3.244.2-4.867.011-.683-.2-1.367-.24-2.055s-.01-1.378,0-2.068c0-.322.021-.643.034-.964.071-1.658.194-3.316.2-4.974.005-1.642-.109-3.284-.168-4.926-.011-.3.008-.61-.009-.914-.02-.368-.087-.735-.091-1.1-.014-1.213-.049-2.427,0-3.638a15.966,15.966,0,0,0,.258-2.947,45.715,45.715,0,0,1-.2-5.471,2.074,2.074,0,0,0-.724-1.408c-.574-.572-1.12-1.174-1.653-1.784a.532.532,0,0,1,.324-.84,7.72,7.72,0,0,1,1.6-.233c1.188-.034,2.378-.014,3.566-.008a2.256,2.256,0,0,1,.6.067,5.782,5.782,0,0,0,2.893-.067,11.329,11.329,0,0,1,2.774-.241,7.392,7.392,0,0,0,4.311-.9c.057-.035.146-.035.184-.081,1.023-1.237,2.4-2.311,2.1-4.194-.165-1.031-.412-2.049-.619-3.074a.332.332,0,0,1,.011-.228c.228-.308.066-.493-.18-.673-.222-.162-.359-.341-.172-.639a1.291,1.291,0,0,0-.133-1.4,1.519,1.519,0,0,1-.3-1.189,9.684,9.684,0,0,0,.053-3.367,24.411,24.411,0,0,0-1.192-5.449,17.238,17.238,0,0,0-.838-1.9C84.126,28.722,83.962,28.466,83.79,28.159Zm2.434,35.378.075,0c-.063-1.269-.089-2.542-.2-3.806a1.719,1.719,0,0,0-.968-1.521,6.877,6.877,0,0,0-3.2-.713c-1.015.062-2.025.19-3.04.263a.976.976,0,0,0-.95.946c-.075.681-.24,1.351-.354,2.028a1.371,1.371,0,0,0-.035.643,3.091,3.091,0,0,1,0,2.271c-.523,1.227-.14,2.393-.026,3.588.076.8.142,1.609.148,2.415.013,1.828-.018,3.656-.024,5.484,0,.894.027,1.789.007,2.682s-.13,1.787-.112,2.679c.022,1.117.124,2.233.209,3.348A14.978,14.978,0,0,0,77.9,86.3a18.548,18.548,0,0,1,.271,3.219.953.953,0,0,0,.982.975,10.466,10.466,0,0,1,1.874.1,2.2,2.2,0,0,0,1.754-.143,1.211,1.211,0,0,1,.687-.151,2.734,2.734,0,0,0,2.689-2.393,13.835,13.835,0,0,0,.295-2.979c.043-1.815.016-3.633.009-5.449,0-.286-.069-.572-.077-.859-.022-.742-.033-1.484-.038-2.227a14.663,14.663,0,0,0,0-1.666,8.133,8.133,0,0,1,.134-3.326,6.092,6.092,0,0,0,.049-3.217,11.943,11.943,0,0,1-.292-2.154C86.187,65.2,86.224,64.368,86.224,63.537ZM122.6,51.844c-.781-.572-.452-1.359-.263-2.137a2.2,2.2,0,0,0,.069-.787c-.13-.98-.328-1.951-.435-2.933a3.543,3.543,0,0,0-1.031-1.934,11.678,11.678,0,0,1-.758-1.142c1.221,0,2.248.01,3.275-.007a4.94,4.94,0,0,0,.78-.138,1.245,1.245,0,0,1,.392-.059c.461.073.923.149,1.375.264a4.748,4.748,0,0,0,2.4-.108,7.452,7.452,0,0,1,1.339.032c.448-.025.89-.144,1.337-.2a1.73,1.73,0,0,1,.737.006,4.987,4.987,0,0,0,2.258.073,24.011,24.011,0,0,1,2.782-.055.93.93,0,0,1,.491.243,4.944,4.944,0,0,1,2.04,5.087,13.554,13.554,0,0,0-.1,1.922c-.01.237.011.476-.005.713-.087,1.248-.131,2.5-.3,3.74a3.268,3.268,0,0,1-.638,1.5,27.494,27.494,0,0,1-1.913,2.027c.572.481,1.125.948,1.681,1.412a3.6,3.6,0,0,0,.409.3c2.179,1.343,2.355,3.456,2.01,5.647a7.016,7.016,0,0,0,.074,3.042,2.638,2.638,0,0,0,.21.451c.142.287.316.551.074.892a1.017,1.017,0,0,0-.07.541,21.238,21.238,0,0,1-.487,6.114,2.012,2.012,0,0,1-1.253,1.4,13.491,13.491,0,0,1-1.762.653,6.255,6.255,0,0,1-3.312.084,15.905,15.905,0,0,0-5.361-.22,24.64,24.64,0,0,1-5.484-.067c-.65-.091-1.325,0-1.982-.061a1.18,1.18,0,0,1-.789-.394c-.208-.3.113-.539.339-.752a6.832,6.832,0,0,0,1-1.015,2.862,2.862,0,0,0,.614-1.348,22.575,22.575,0,0,0-.192-2.773c-.015-.185-.128-.422-.052-.544.493-.789-.094-1.632.158-2.438.087-.278-.091-.627-.077-.94.048-1.088.185-2.175.176-3.261a16.646,16.646,0,0,0-.31-2.251c0-.032-.039-.063-.038-.093.022-.607.065-1.214.069-1.821.006-.96-.01-1.92-.027-2.881,0-.217-.083-.435-.073-.65.055-1.184.1-2.371.209-3.55A10.2,10.2,0,0,1,122.6,51.844Zm5.013,21.8c.472.042.865.071,1.255.116a4.944,4.944,0,0,0,.7.111c1.557-.055,3.115-.1,4.669-.206a1.343,1.343,0,0,0,1.392-1.491c.012-.662.013-1.325-.012-1.987q-.109-2.974-.246-5.947a1.168,1.168,0,0,0-.151-.631c-.682-.877-1.378-1.746-2.109-2.582-.324-.372-.664-.364-1.123-.018a9.619,9.619,0,0,1-2.314,1.324,3.088,3.088,0,0,0-1.4.843,3.721,3.721,0,0,0-.91,2.581c.063,1.694.178,3.387.239,5.082C127.642,71.823,127.614,72.807,127.614,73.647ZM127,58.909a5.511,5.511,0,0,0,3.155-1.872,2.03,2.03,0,0,1,.681-.586A9.871,9.871,0,0,0,134.051,54a.99.99,0,0,0,.231-.627c.018-1.731.012-3.462.009-5.193a1.3,1.3,0,0,0-1.228-1.2c-1.53.061-3.06.142-4.59.216-.886.043-1.179.31-1.308,1.2a4.621,4.621,0,0,0-.038.507c-.025.746-.028,1.493-.076,2.237-.035.54-.187,1.076-.179,1.612a13.952,13.952,0,0,0,.224,1.762,8.787,8.787,0,0,1,.228,1.59C127.284,57,127.124,57.9,127,58.909Zm154.072-8.151c0,1.154.007,2.309-.005,3.463a2.334,2.334,0,0,1-.122.749,8.2,8.2,0,0,0-.171,3.621c.168,1.82.278,3.65.3,5.477.015,1.522-.142,3.045-.209,4.569a2.533,2.533,0,0,0,.115.532,2.021,2.021,0,0,1,.07.539c-.041.432-.14.858-.173,1.29a25.825,25.825,0,0,0,.067,3.042,5.365,5.365,0,0,1-.411,1.754c-.591,1.849-1.289,2.353-3.23,2.366-1.172.008-2.347-.054-3.513.02-.845.053-1.678.286-2.519.419a3.976,3.976,0,0,1-.806.019c-1.507-.075-3.018-.1-4.517-.256A3.053,3.053,0,0,1,263.53,76c-.163-1.343-.21-2.7-.3-4.052-.032-.457-.062-.914-.086-1.371a2.265,2.265,0,0,1,.259-1.512,1.893,1.893,0,0,0,.174-.985c.015-1.713.006-3.426,0-5.138a.644.644,0,0,0-.056-.347,1.022,1.022,0,0,1,0-1.188.729.729,0,0,0,.07-.538,8.392,8.392,0,0,1-.133-3.873,13.283,13.283,0,0,0-.107-4.3c-.07-.271.043-.591-.033-.859a8.085,8.085,0,0,1,.009-3.223c.109-.942.16-1.893.321-2.826a3.166,3.166,0,0,1,1.786-2.357,9.663,9.663,0,0,1,5.1-.779c1.779.039,3.556.2,5.335.229a5.671,5.671,0,0,1,3.594,1.185,4.179,4.179,0,0,1,1.654,3.491c-.009,1.07,0,2.14,0,3.21Zm-5.366,4.474h-.082c0-1.085.022-2.17-.007-3.254-.022-.812-.139-1.622-.158-2.435-.03-1.273-.667-1.925-1.933-1.868-1.237.056-2.471.158-3.708.213-.582.026-.81.163-.882.739-.12.959-.191,1.924-.315,2.882a14.287,14.287,0,0,0,.084,3.342,12.685,12.685,0,0,1-.021,3.394,4.252,4.252,0,0,0,.162,2.17,3.473,3.473,0,0,1-.066,2.194,5.238,5.238,0,0,0-.226,1.591c.014.893.142,1.782.192,2.675.089,1.59.186,3.181.226,4.772.038,1.524,0,1.549,1.434,1.988a6.19,6.19,0,0,0,1.832.319,18.763,18.763,0,0,0,2.316-.287.683.683,0,0,0,.676-.639c.152-1.718.341-3.436.427-5.158.07-1.422.016-2.85.013-4.275a1.152,1.152,0,0,0-.049-.5,1.693,1.693,0,0,1,.216-1.771,1.892,1.892,0,0,0,.145-1.753,3.948,3.948,0,0,1-.264-1.286C275.681,57.269,275.707,56.25,275.707,55.232ZM204.233,78.366a15.9,15.9,0,0,1,5.156-.022,6.815,6.815,0,0,0,1.867.005c.264-.039.532-.388.687-.659.065-.115-.113-.437-.259-.591-.678-.714-1.37-1.416-2.086-2.092a3.429,3.429,0,0,1-.924-1.488,8.8,8.8,0,0,0-2.406-4.123,1.124,1.124,0,0,1-.34-.762,2.417,2.417,0,0,0-.717-1.683,3.764,3.764,0,0,1-.583-.892c-.959-2.038-1.911-4.08-2.834-6.134a1.3,1.3,0,0,1-.043-.881c.459-1.291.955-2.57,1.473-3.84a5.032,5.032,0,0,1,.579-.832c.342-.5.709-.994,1.008-1.523.58-1.024,1.1-2.085,1.683-3.1a15,15,0,0,0,1.61-2.971,4.7,4.7,0,0,1,2.081-2.469,1.14,1.14,0,0,0,.658-.96c0-.278-.036-.5-.387-.537a13.6,13.6,0,0,0-4.552.1,4.3,4.3,0,0,1-1.254-.019c-.3-.023-.6-.133-.9-.143-.464-.015-.931.012-1.4.043a4.053,4.053,0,0,0-.64.173,6.219,6.219,0,0,0,.962.976.959.959,0,0,1,.429,1.3,2.716,2.716,0,0,1-.468.944,9.206,9.206,0,0,0-1.724,3.2,10.59,10.59,0,0,1-1.059,1.7,1.7,1.7,0,0,0-.237.482,7.188,7.188,0,0,1-1.158,2.686,15.692,15.692,0,0,0-1.161,1.944c-.216.4-.324.86-.542,1.259a12.946,12.946,0,0,1-.77,1.131l-.145-.056a3.9,3.9,0,0,1-.216-.877c-.023-1.813-.015-3.627-.017-5.44,0-.033.015-.067.016-.1.053-1.2.124-2.4.144-3.6.006-.344-.255-.712-.194-1.032a6.875,6.875,0,0,1,1.1-3.225,3.935,3.935,0,0,0,.4-.528c.229-.412.074-.922-.292-.941-.586-.031-1.175-.028-1.762-.01-.608.019-1.215.12-1.82.1-1.369-.038-2.737-.129-4.106-.193-.324-.015-.6.05-.716.424a.752.752,0,0,0,.287.892,3.592,3.592,0,0,1,1.525,3.293,8,8,0,0,0,.146,2.374,7.4,7.4,0,0,1,.1,3.751.761.761,0,0,0-.01.3c.061.495.174.988.185,1.483a28.268,28.268,0,0,1-.041,2.846c-.073.924.306,1.791.076,2.773a8.192,8.192,0,0,0,.149,2.975,7.082,7.082,0,0,1-.078,2.621,6.258,6.258,0,0,0-.278,1.6,11.3,11.3,0,0,1,0,2.352,24.742,24.742,0,0,0-.039,4.065,1.832,1.832,0,0,1-.461,1.357c-.493.524-1.029,1.009-1.511,1.542-.149.165-.3.487-.237.643a.859.859,0,0,0,.61.4,11.191,11.191,0,0,0,1.475.013,20.137,20.137,0,0,0,2.49-.064,10.055,10.055,0,0,1,2.985,0,7.981,7.981,0,0,0,1.569.053.6.6,0,0,0,.448-.311.673.673,0,0,0-.088-.587,4.279,4.279,0,0,0-.966-.726,1.947,1.947,0,0,1-1.134-1.889c.009-.255,0-.51,0-.764a5.846,5.846,0,0,0-.4-2.692,1.505,1.505,0,0,1-.051-.792,19.384,19.384,0,0,0,.419-3c-.045-1.736,1.007-2.832,1.925-4.03.458.866.887,1.686,1.325,2.5.313.583.646,1.154.959,1.737a4.848,4.848,0,0,1,.631,1.3,3.355,3.355,0,0,0,.8,1.781,3.707,3.707,0,0,1,.907,1.669,2.556,2.556,0,0,0,.4,1.083,8.647,8.647,0,0,1,1.275,2.3.816.816,0,0,1-.114.983c-.3.383-.592.779-.9,1.188A1.847,1.847,0,0,0,204.233,78.366ZM143.292,43.021c.427.447.845.9,1.283,1.338a2.722,2.722,0,0,1,.9,1.883,21.583,21.583,0,0,1-.022,3.656,17.671,17.671,0,0,0-.143,4.505,26.827,26.827,0,0,1-.039,3.245c-.019,2.582,0,5.163-.009,7.745a4.757,4.757,0,0,1-.189,2.1.777.777,0,0,0-.02.4c.073.58.168,1.158.233,1.739.038.335.025.676.049,1.013a17.887,17.887,0,0,1,.154,2.119,8.793,8.793,0,0,0,.619,4.032,2.48,2.48,0,0,0,2.232,1.586c1.534.121,3.088-.149,4.609.232a.7.7,0,0,0,.2,0c2.166-.119,4.334-.216,6.5-.369a4.29,4.29,0,0,0,3.062-1.42,2.229,2.229,0,0,0,.53-1.065c.086-.6.442-1.216.013-1.823-.008-.012,0-.033,0-.05q.07-2.744.137-5.487a2.25,2.25,0,0,0-.039-.4c-.1-.652-.233-1.3-.311-1.957-.09-.755-.171-1.515-.186-2.274-.008-.422.189-.847.19-1.27.008-4.67-.021-9.341.006-14.011a5.247,5.247,0,0,1,.412-2.015,19.344,19.344,0,0,1,1.382-2.362c.358-.579.285-.991-.309-1.309a2.712,2.712,0,0,0-2.108-.289,4.651,4.651,0,0,1-1.2.158c-1.239.019-2.479.007-3.718.007h-1.149c.222.534.367.93.549,1.308.146.3.431.565.491.877a21.755,21.755,0,0,1,.437,3.06c.071,1.576.023,3.158.017,4.738a4.151,4.151,0,0,0,.378,2.227.642.642,0,0,1,.042.349,21.117,21.117,0,0,1-.186,2.23,6.211,6.211,0,0,0,.358,4.173c.088.168-.074.48-.147.716a3.32,3.32,0,0,0-.236.582,18.721,18.721,0,0,0-.036,3.373c.176,2.022.059,4.071.045,6.109-.009,1.236-.469,1.669-1.711,1.68-.661.006-1.327-.029-1.982.039-.57.059-1.127.416-1.69-.023-.043-.034-.137.006-.2-.014a3.48,3.48,0,0,1-.7-.249,1.4,1.4,0,0,1-.7-1.165c-.055-.658-.157-1.314-.165-1.972-.02-1.579.015-3.159,0-4.738a4.211,4.211,0,0,0-.259-2.147c-.075-.136.038-.383.077-.576a3.909,3.909,0,0,0,.18-.87c-.037-.9-.192-1.793-.182-2.687.022-1.832.158-3.662.182-5.493.034-2.581.01-5.163.007-7.745,0-.46.054-.941.492-1.155a2.781,2.781,0,0,0,1.2-1.459.777.777,0,0,0-.062-.987.928.928,0,0,0-1.038-.17,5.7,5.7,0,0,1-.981.2c-.385.049-.775.059-1.163.087a12.372,12.372,0,0,1-1.417.095c-1.528-.067-3.054-.171-4.58-.261Zm96.746-.111c1.381-.077,2.728-.19,4.076-.213.7-.012,1.409.161,2.116.2a5.276,5.276,0,0,0,1-.136c.232-.033.464-.058.7-.094.328-.052.655-.109.981-.17a1.658,1.658,0,0,1,.289-.079,28.663,28.663,0,0,1,3.959.1,10.242,10.242,0,0,1,4.159,1.35,3.577,3.577,0,0,1,1.677,2.318,17.411,17.411,0,0,1,.279,4.958c-.089,1.207-.324,2.4-.382,3.611-.036.763.163,1.535.2,2.306.019.394-.12.793-.124,1.19-.01,1.044-.011,2.089.034,3.132.026.6.279,1.185-.02,1.786a1.063,1.063,0,0,0-.039.494c.047,1.046.118,2.092.149,3.138a6.077,6.077,0,0,0,.215,2.391,1.473,1.473,0,0,1,.018.754c-.187,1.28-.392,2.558-.591,3.836a1.666,1.666,0,0,0-.064.349c.119,1.679-1,2.58-2.178,3.422a2.768,2.768,0,0,1-.992.329,14.6,14.6,0,0,1-2.02.392,23.8,23.8,0,0,1-2.433,0q-2.136-.045-4.27-.118c-.285-.01-.568-.087-.853-.107a4.38,4.38,0,0,0-.9-.007,11.677,11.677,0,0,1-3.194.335c-.2-.028-.43.121-.64.108a8.161,8.161,0,0,1-1.315-.2,1.106,1.106,0,0,1,.083-.636,8.91,8.91,0,0,1,.92-.949,3.052,3.052,0,0,0,.932-2.085c.067-1.287.181-2.574.189-3.862.006-1-.14-1.994-.181-2.992a4.513,4.513,0,0,1,.152-.922,2.945,2.945,0,0,0,.061-.392c.065-1.845.135-3.691.183-5.537.014-.523-.035-1.049-.059-1.573-.032-.71-.048-1.422-.109-2.129-.038-.451-.207-.9-.207-1.344,0-1.012.089-2.024.112-3.036.032-1.424.036-2.85.053-4.274.007-.61.005-1.22.028-1.83a2.118,2.118,0,0,0-.662-1.647c-.313-.312-.608-.644-.945-.927A1.151,1.151,0,0,1,240.038,42.909ZM247,66.627h-.035c0,.1,0,.2,0,.306.013,1.035-.021,2.073.054,3.1.077,1.056.288,2.1.388,3.156.076.8.269.983,1.051.825.263-.053.575-.182.792-.095,1.054.423,2.075-.032,3.108-.052a.389.389,0,0,0,.218-.114,3.542,3.542,0,0,0,1.337-2.374c.083-1.064.15-2.129.245-3.192.051-.569.149-1.133.22-1.7a1.332,1.332,0,0,0-.01-.3c-.071-.667-.135-1.336-.222-2-.067-.511-.174-1.017-.243-1.528a2.99,2.99,0,0,1-.013-.7c.07-.669.177-1.335.236-2.005a8.214,8.214,0,0,1,.06-1.416,5.692,5.692,0,0,0,.043-2.8c-.149-.663-.574-1.279-.088-1.961.016-.022,0-.067,0-.1-.168-1.768-.328-3.537-.516-5.3a.692.692,0,0,0-.326-.477,5.4,5.4,0,0,0-2.612-.725c-.926.051-1.857.025-2.786.022-.428,0-.668.168-.7.62-.075,1.231-.108,2.469-.263,3.691a23.389,23.389,0,0,0-.037,3.75c.092,2.769.257,5.54.1,8.314C246.957,64.588,247,65.609,247,66.627Zm68.185,7.745c0,.747,0,1.494,0,2.242a1.716,1.716,0,0,0,1.7,1.79c.831-.018,1.66-.081,2.491-.111,1.319-.048,2.645-.179,3.956-.094a11.237,11.237,0,0,0,2.767.176c1.176-.209,2.363-.348,3.539-.557a1.079,1.079,0,0,0,.723-.405,6.248,6.248,0,0,0,.717-1.979c.173-1.689.169-3.395.5-5.07a.409.409,0,0,0-.013-.148c-.141-.769-.285-1.537-.42-2.306a.989.989,0,0,1,.019-.3,9.691,9.691,0,0,0,.2-1.431,6.019,6.019,0,0,1,.164-2.41.682.682,0,0,0,0-.352,4.664,4.664,0,0,0-1.708-2.862c-.049-.04-.142-.1-.168-.081-.329.227-.5-.084-.7-.218-.395-.263-.774-.551-1.147-.845a7.1,7.1,0,0,0-2.465-1.278,4.123,4.123,0,0,1-1.144-.714c-.315-.226-.573-.54-.9-.73-.881-.507-1.795-.956-2.678-1.458a.9.9,0,0,1-.432-.522c-.156-.962.183-1.961-.2-2.914-.016-.039.022-.1.027-.147.052-.534.093-1.069.154-1.6a12.179,12.179,0,0,1,.272-1.992c.315-1.088.363-1.1,1.47-1.067,1.013.031,2.026.113,3.036.205.388.035.574.291.562.709a4.985,4.985,0,0,0,.081,1.163c.108.512.312,1-.06,1.5-.059.079-.026.231-.027.349a1.943,1.943,0,0,0,1.327,1.818c.969.44,1.986.779,3,1.121.153.052.523-.073.547-.175a13.412,13.412,0,0,0,.5-2.685,11.779,11.779,0,0,0-.4-2.328.426.426,0,0,1,.027-.249,7.4,7.4,0,0,0,.35-4.051,1.505,1.505,0,0,0-.455-.974,3.966,3.966,0,0,0-2.663-.917c-1.589.065-3.177.154-4.766.224-.354.016-.712-.032-1.064,0-.565.047-1.125.174-1.689.2-.932.035-1.867,0-2.8.019a2.986,2.986,0,0,0-2.109.875.979.979,0,0,0-.321.593c.009,1.68.061,3.359.09,5.039.015.843.024,1.687.011,2.53-.023,1.455-.1,2.91-.089,4.364a2.4,2.4,0,0,0,1.4,2.3c.819.407,1.631.837,2.408,1.318.539.335,1,.789,1.52,1.164a5.072,5.072,0,0,0,1.31.813,2.371,2.371,0,0,1,.7.392,5.275,5.275,0,0,0,1.682.971,2.287,2.287,0,0,1,1.952,2.178c.043,1.115.071,2.23.1,3.346,0,.134-.038.268-.047.4-.031.454-.053.909-.087,1.362-.041.538-.062,1.08-.147,1.612a1.523,1.523,0,0,1-1.242,1.327c-.806.172-1.629.263-2.445.384a.6.6,0,0,1-.2-.038,7.208,7.208,0,0,0-.834-.171c-.544-.049-.692-.2-.7-.764-.026-1.305-.1-2.611-.075-3.915a6.136,6.136,0,0,0-.9-2.452.555.555,0,0,0-.253-.242c-.842-.437-1.672-.9-2.541-1.281-.817-.355-1.357.04-1.408.933a3.316,3.316,0,0,1-.1.946,2.094,2.094,0,0,0,.08,1.817,1.11,1.11,0,0,1,.006,1.007,3.276,3.276,0,0,0-.24,1.278c.078,1.125.243,2.244.374,3.366Zm-16.605-4.248a.939.939,0,0,0-.454,1,19.557,19.557,0,0,1,.219,2.309c.012.444-.162,1-.616,1.062a4.682,4.682,0,0,1-1.938-.164,3.656,3.656,0,0,0-2.464-.061A1.013,1.013,0,0,1,291.9,73.4c-.092-1.3-.163-2.608-.25-3.911-.012-.181-.084-.359-.1-.54a14.379,14.379,0,0,1-.079-2.011c.016-.209.417-.382.626-.587.106-.1.169-.252.268-.366a2.563,2.563,0,0,1,.587-.62,23.908,23.908,0,0,1,4.871-2.5.958.958,0,0,0,.661-1.381,2.333,2.333,0,0,1-.1-.7c-.012-.866-.043-1.734.009-2.6a1.171,1.171,0,0,0-.653-1.15,5.365,5.365,0,0,0-.447.363,5.968,5.968,0,0,1-2.508,1.482,7.631,7.631,0,0,0-1.6.945c-.41.255-.812.522-1.286.829-.013-.214-.021-.311-.025-.408-.077-1.675-.158-3.351-.228-5.026a3.166,3.166,0,0,1,.058-.7,17.3,17.3,0,0,0,.346-1.755c.121-1.516.188-3.037.262-4.557.031-.634.183-.78.833-.811q2-.1,4-.227c.491-.032.722.121.738.6.026.763,0,1.528.04,2.29.062,1.143.163,2.284.255,3.526.548-.329,1.009-.6,1.468-.883.185-.112.445-.188.532-.354a2.678,2.678,0,0,1,1.3-1.09A2.979,2.979,0,0,0,303,47.911a19.444,19.444,0,0,1-.123-3.142c0-.215.216-.435.205-.646a1.692,1.692,0,0,0-1.329-1.215q-2.572-.016-5.145.013c-.261,0-.6.241-.768.143a3.037,3.037,0,0,0-1.694-.14,38.52,38.52,0,0,0-3.863.1,10.6,10.6,0,0,1-2.877-.082c-.808-.132-1.634-.152-2.448-.254a.573.573,0,0,0-.705.593,1.146,1.146,0,0,0,.221.831c.523.491,1.133.89,1.692,1.345a.758.758,0,0,1,.27.433,19.653,19.653,0,0,0,.24,2.136,12.422,12.422,0,0,1,.068,4.188,18.3,18.3,0,0,0,.042,3.809,31.918,31.918,0,0,1-.265,5.968,4.183,4.183,0,0,0,.051.9,11.792,11.792,0,0,1,.318,1.885c-.039,3-.132,6-.221,9a4.07,4.07,0,0,1-1.729,2.993c-.705.587-.868.727-.63,1.628.76,0,1.538,0,2.315,0a2.059,2.059,0,0,0,.241-.067,6.167,6.167,0,0,1,1.386-.17c.818.075,1.626.265,2.438.4a3.485,3.485,0,0,0,.455.05,15.426,15.426,0,0,0,4.547-.4,2.547,2.547,0,0,1,1.159,0,7.513,7.513,0,0,0,2.929.015,5.784,5.784,0,0,1,1.307,0c.487.03.971.109,1.458.145.358.026.523-.177.535-.527.078-2.389.163-4.778.236-7.167.015-.482-.157-.979.178-1.428.052-.069.014-.239-.031-.34-.192-.431-.4-.853-.665-1.4C301.347,68.411,299.955,69.252,298.584,70.125ZM177.426,46.978c.493,0,.986.021,1.477-.008.323-.019.474.105.509.407.08.705.178,1.41.229,2.117.031.436-.053.881-.008,1.314.054.508.385,1,.033,1.52-.026.038.024.126.034.191a3.69,3.69,0,0,0,.129.827,2.93,2.93,0,0,0,.569.956c.08.082.479-.073.683-.2.447-.274.867-.591,1.291-.9.533-.391,1.036-.827,1.592-1.181a1.622,1.622,0,0,0,.84-1.413,28.826,28.826,0,0,0-.47-5.9,2.5,2.5,0,0,0-2.047-2.008c-.455-.048-.917-.045-1.37-.106-1.219-.165-2.478.054-3.671-.389a.8.8,0,0,0-.547.037,7.855,7.855,0,0,1-3.606.439,4.819,4.819,0,0,0-3.444,1.269,2.627,2.627,0,0,0-.972,1.847c-.115,1.81-.219,3.622-.267,5.435a7.787,7.787,0,0,0,.21,2.218,4.38,4.38,0,0,1-.191,2.831,3.74,3.74,0,0,0-.26,1.275c-.023,2.631.014,5.263-.023,7.893a11.283,11.283,0,0,0,.49,3.559,2.418,2.418,0,0,1,.041,1.131,8.526,8.526,0,0,0-.252,2.768c.124.938.165,1.889.2,2.836a2.212,2.212,0,0,0,1.842,2.3,20.43,20.43,0,0,0,2.788.122c.186.006.375,0,.559.02a29.235,29.235,0,0,0,3.237.413,32.706,32.706,0,0,0,3.9-.244,4.521,4.521,0,0,0,3.459-2.059,8.285,8.285,0,0,0,1.046-3.616,6.626,6.626,0,0,0-.142-1.655,10.164,10.164,0,0,1,.113-2.76,12.389,12.389,0,0,0,0-2.691c-.027-.423-.464-.616-.91-.428a6.967,6.967,0,0,0-1.1.633c-.678.447-1.37.879-2,1.385a3.3,3.3,0,0,0-.927,1.1,5.427,5.427,0,0,0-.305,3.44c.286,1.45-.36,2.227-1.826,2.175a6.842,6.842,0,0,0-3.291.177c-.8.356-1.413-.209-1.538-1.073a8.629,8.629,0,0,1,.005-3.186c.293-1.283-.245-2.54-.02-3.858a32.194,32.194,0,0,0,.218-4.67c.016-.722-.055-1.445-.082-2.168s-.052-1.452-.074-2.178a6.555,6.555,0,0,0-.02-.959,6.84,6.84,0,0,1-.1-3.029,8.446,8.446,0,0,0,.13-3.445,3.143,3.143,0,0,1,.472-2.2,1,1,0,0,1,1.009-.544c.78.118,1.562.228,2.343.342ZM60.828,79.113c.021,1.391.039,2.783.023,4.174a.572.572,0,0,1-.344.424,8.511,8.511,0,0,1-1.851.253,26.089,26.089,0,0,1-3.389-.264,1.342,1.342,0,0,1-.925-.756A11.5,11.5,0,0,1,54,80.464c-.029-.566.143-1.139.147-1.71a3.712,3.712,0,0,1,2.118-3.646c.517-.252,1.048-.475,1.567-.725a8.494,8.494,0,0,0,1.21-.634,2.1,2.1,0,0,0,.978-1.7c.017-.678-.009-1.357-.022-2.036a.555.555,0,0,0-.6-.61,1.226,1.226,0,0,0-1,.318c-1.074,1.014-1.687.975-2.719-.056a1.938,1.938,0,0,1-.318-.328,1.276,1.276,0,0,1-.241-.572c-.019-1.613-.014-3.227-.009-4.84A1.56,1.56,0,0,1,56.4,62.664c.516-.026,1.03-.164,1.544-.156a7.513,7.513,0,0,1,1.46.237c.063.014.113.227.115.349a18.4,18.4,0,0,0,.025,1.934,3.14,3.14,0,0,0,.471,1.348,4.845,4.845,0,0,0,2.611,1.575c.553.2.962-.151.947-.782-.023-1.009-.113-2.016-.173-3.024a.677.677,0,0,1,.017-.2,9.093,9.093,0,0,0-.073-4.217.879.879,0,0,0-.5-.581,7.857,7.857,0,0,0-3.065-.278A11.507,11.507,0,0,1,57.156,59a11.818,11.818,0,0,0-3.035-.1c-.58.111-1.189.083-1.764.212a2.078,2.078,0,0,0-1.034.531,2.3,2.3,0,0,0-.567,1.643q.035,2.368.036,4.736c0,1.137-.019,2.274-.032,3.411a1.93,1.93,0,0,0,1.054,1.824c.621.359,1.193.8,1.809,1.226-.653.551-1.246,1.057-1.848,1.553a1.43,1.43,0,0,1-.438.248,1.573,1.573,0,0,0-.925.946,7.2,7.2,0,0,0-.3,3.1A22.9,22.9,0,0,1,50,80.747c-.056.482-.278.935.061,1.405.084.117.049.328.051.5.007.746-.036,1.495.018,2.237a2.578,2.578,0,0,0,3.514,2.3,1.356,1.356,0,0,1,.449-.057q3.693,0,7.387,0a.916.916,0,0,1,.394.063,2.609,2.609,0,0,0,2.025.023,1.046,1.046,0,0,0,.812-1.178c0-.169.034-.337.041-.506.055-1.3.192-2.6.127-3.891a4.785,4.785,0,0,1,.038-2.321.623.623,0,0,0,.032-.251c-.007-.728-.043-1.457-.012-2.184a1.106,1.106,0,0,1,.305-.676c.385-.381.831-.7,1.241-1.054.106-.092.24-.233.242-.353.014-.968.024-1.936-.024-2.9-.011-.23-.218-.615-.382-.642a1.6,1.6,0,0,0-1.342.218c-1.186.895-2.428,1.716-3.655,2.555a4.5,4.5,0,0,1-.6.276c-.32.155-.628.336-.956.472-1.2.5-1.16,1.624-1.317,2.624a7.243,7.243,0,0,0,.111,1.511c.583.658,1.32.274,2.09-.265A1.777,1.777,0,0,1,60.828,79.113ZM219.966,61.879a2.6,2.6,0,0,1-.711.482c-.741.281-.914.873-1.1,1.571-.318,1.2-.01,2.458-.414,3.642a1.384,1.384,0,0,0,.021.554c.154,1.444.361,2.885.446,4.334a1.862,1.862,0,0,0,.9,1.7,5.77,5.77,0,0,0,1.8.606c.442.069.933-.212,1.387-.171,1.661.152,3.3-.241,4.969-.086a38.258,38.258,0,0,0,4.312-.028.388.388,0,0,0,.287-.214,4.187,4.187,0,0,0,.278-1.151,27.087,27.087,0,0,0-.069-3.66,9.847,9.847,0,0,1,.074-3.774.99.99,0,0,0,.007-.55.992.992,0,0,1,.338-1.121,3.836,3.836,0,0,1,.9-.739c.632-.307.636-.8.549-1.364a12.979,12.979,0,0,1-.223-1.606c-.021-.747-.376-1.087-1.088-.862a3.341,3.341,0,0,0-.8.512c-.457.314-.9.655-1.369.942-.344.209-.739.333-1.095.525a17.483,17.483,0,0,1-1.725.961,2.409,2.409,0,0,0-1.566,2.1c-.009.56,0,1.121,0,1.681,0,.809.168.941.954.731a2.236,2.236,0,0,0,.517-.21c.215-.121.452-.282.617-.006a1.225,1.225,0,0,1,.131.687c-.024.3-.185.586-.2.883-.033.694-.014,1.39-.015,2.085,0,.592-.193.823-.8.832-1.272.02-2.545.028-3.817,0a1.325,1.325,0,0,1-1.408-1.206,13.638,13.638,0,0,1-.118-4.152,3.092,3.092,0,0,1,2.224-2.8,20.782,20.782,0,0,1,1.956-.714c.9-.246,1.1-1.059,1.287-1.72a7.47,7.47,0,0,0,.027-2.279c-.007-.17-.151-.444-.282-.479a1.135,1.135,0,0,0-1.267.2,4.4,4.4,0,0,1-1.012.665.624.624,0,0,1-.89-.166c-.3-.363-.676-.669-.995-1.021a.812.812,0,0,1-.226-.474c-.016-1.46-.021-2.921,0-4.381a1.041,1.041,0,0,1,1.1-1.15c.846-.05,1.7-.027,2.545-.02a.518.518,0,0,1,.555.588c0,.474.026.95,0,1.422a1.755,1.755,0,0,0,.588,1.56,17.168,17.168,0,0,0,1.9,1.242c.335.2.8.386,1.071.022a2.436,2.436,0,0,0,.251-1.132c.019-.172-.11-.356-.132-.539a1.974,1.974,0,0,1,.044-.435c.039-.358.1-.716.108-1.075.007-.318-.07-.637-.065-.955.018-1.1.058-2.2.086-3.3a.793.793,0,0,0-.576-.867,7.657,7.657,0,0,0-2.588-.322,8.7,8.7,0,0,1-3.079.055,17.272,17.272,0,0,0-4.248.137,1.052,1.052,0,0,0-.427.152A3.3,3.3,0,0,0,218.5,51.41a3.443,3.443,0,0,1,.158,1.045c-.05,1.624-.1,3.25-.216,4.871a1.892,1.892,0,0,0,1.123,2.106,6.062,6.062,0,0,1,.836.483c.333.225.649.476.964.71C220.875,61.07,220.429,61.485,219.966,61.879ZM180.545,94.865a4.313,4.313,0,0,1-.55-3.6,3.779,3.779,0,0,0,.021-1.1,8.411,8.411,0,0,0-.225-2.285c-.042-.106.051-.261.071-.4.076-.5.138-1,.222-1.5.112-.662.221-1.326.374-1.979a.992.992,0,0,1,.373-.472c.251-.2.2-.328-.044-.443a1.225,1.225,0,0,0-.437-.131,25.753,25.753,0,0,0-2.739-.075c-.242.014-.514.425-.672.71a6.428,6.428,0,0,0-.343,1.038c-.308.892-.624,1.782-.938,2.672a4,4,0,0,1-.164.424c-.407.835-.831,1.662-1.225,2.5-.266.568-.492,1.154-.771,1.813-.181-.585-.307-1.08-.487-1.553-.847-2.229-1.7-4.458-2.581-6.672a3.124,3.124,0,0,0-.694-.849.356.356,0,0,0-.317-.088,3.514,3.514,0,0,1-1.971.2c-.343-.023-.69.013-1.035.023.07.2.14.283.228.324.5.235.579.607.634,1.162.178,1.787-.25,3.553-.031,5.344a31.522,31.522,0,0,1,.029,3.817,1.072,1.072,0,0,1-.573,1.052c-.155.084-.231.315-.417.586.633,0,1.107,0,1.581,0a4.68,4.68,0,0,1,.816-.01,2.872,2.872,0,0,0,2.036-.234,2.194,2.194,0,0,1-1.165-2.323q0-1.91,0-3.821c0-.158.022-.316.043-.6.168.153.276.208.312.292.269.638.5,1.291.787,1.922a6.289,6.289,0,0,0,1.2,2.427.279.279,0,0,1,.085.179c.019.673.389,1.36-.077,2.017-.031.044-.009.126-.013.219.971,0,1.921,0,2.87-.006a1.257,1.257,0,0,0,.371-.129c-.054-.131-.115-.26-.162-.394-.1-.277-.31-.582-.257-.828a4.939,4.939,0,0,1,.546-1.236c.23-.428.534-.818.746-1.253.36-.739.674-1.5,1.007-2.254.075,1.12.587,2.193.2,3.31-.028.081.027.2.061.291a1.6,1.6,0,0,1-.6,1.893c-.2.167-.413.319-.659.507a3.786,3.786,0,0,0,2.476.221,1.445,1.445,0,0,1,.7-.033,1.085,1.085,0,0,0,1.5-.45C180.654,95.03,180.6,94.944,180.545,94.865Zm61.033-3.312c-.13-.2-.271-.394-.387-.6-.107-.191-.162-.415-.282-.6a65.425,65.425,0,0,1-3.9-6.512,1.238,1.238,0,0,0-1.376-.789c-.77.063-1.549.015-2.466.015a3.733,3.733,0,0,0,.415.457,1.563,1.563,0,0,1,.6,1.456c-.032,2.785-.041,5.571,0,8.356a1.881,1.881,0,0,1-.762,1.793c-.021.014-.02.061-.029.093,1.006.655,3.1.657,3.739-.009a2.77,2.77,0,0,1-.477-.751,11.133,11.133,0,0,1-.23-3.422c.025-.348.013-.7.014-1.047,0-.8,0-1.6,0-2.394a7.473,7.473,0,0,1,.646.979c.658,1,1.339,1.991,2,2.99.788,1.186,1.56,2.384,2.363,3.56.091.134.417.276.5.219.4-.278.725-.086,1.091.057a.7.7,0,0,0,.922-.63,7.6,7.6,0,0,1,.093-3.269,2.067,2.067,0,0,0-.02-.654c-.058-1.145-.172-2.292-.149-3.436.011-.524.276-1.036-.056-1.556a.619.619,0,0,1,0-.4,2.942,2.942,0,0,1,1.036-2.159c.032-.022.037-.085.05-.118-.212-.4-.56-.347-.9-.295a4.257,4.257,0,0,1-2.353-.03.766.766,0,0,0-.98.385,5.558,5.558,0,0,1,.624.519.913.913,0,0,1,.248.5c.063,1,.1,2,.134,3q.082,2.1.157,4.207Zm-46.34-8.483a5.527,5.527,0,0,1,.964-.2c1.714-.017,3.428-.012,5.142,0a4.442,4.442,0,0,1,.647.1,1.265,1.265,0,0,0,.439.055,1.5,1.5,0,0,1,1.889,1.5c0,1.324-.01,2.648.009,3.972a.71.71,0,0,1-.34.669,11.144,11.144,0,0,0-1.166.9.644.644,0,0,0-.192.54,15.237,15.237,0,0,0,1.852,3.815,8.633,8.633,0,0,0,.835.866l-.1.181c-.684,0-1.37-.022-2.053.008-.416.018-.828.142-1.245.164a.848.848,0,0,1-.623-.174c-.106-.127-.033-.414-.02-.629.009-.145.116-.313.07-.427-.2-.512-.439-1.013-.678-1.51q-.305-.635-.649-1.251a.459.459,0,0,0-.272-.229,1.014,1.014,0,0,0-1.028.94,6.112,6.112,0,0,1,.009.763,1.815,1.815,0,0,0,.53,1.67,3.825,3.825,0,0,1,.491.835l-4.428-.214c.134-.188.245-.35.363-.508a2.49,2.49,0,0,0,.469-2.193,2.913,2.913,0,0,1,.07-2.225.5.5,0,0,0,.032-.394,8.07,8.07,0,0,1-.262-3.016c-.04-.623.03-1.252.051-1.879A3.178,3.178,0,0,0,195.237,83.07Zm3.484,6.59a9.8,9.8,0,0,0,1-.334,10.41,10.41,0,0,0,1.336-.71c.223-.146.516-.4.528-.618.051-.929.013-1.864,0-2.8a.483.483,0,0,0-.521-.509c-.594-.015-1.188-.013-1.782,0a.515.515,0,0,0-.557.539C198.714,86.669,198.721,88.108,198.721,89.66Zm22.507-6.694a28.615,28.615,0,0,1,5.644.058c-.89.811-.5,1.645-.2,2.478a40.6,40.6,0,0,1,1.526,4.409c.254,1.083.646,2.124.872,3.216.1.481.581.88.872,1.326.182.28.334.579.558.975h-4.559a4.515,4.515,0,0,1,.581-.59.7.7,0,0,0,.313-.911c-.18-.528-.326-1.068-.509-1.594-.106-.3-.3-.39-.634-.25-1.186.5-2.388.959-3.579,1.443-.618.251-.707.663-.228,1.155a.755.755,0,0,1,.192,1.061l-3.9-.337c.075-.162.1-.346.212-.437a4.048,4.048,0,0,0,1.2-2.248c.658-2.624,1.389-5.227,2.293-7.778a1.121,1.121,0,0,0-.22-1.222A4.836,4.836,0,0,1,221.228,82.967Zm2.814,3.17c-.051.143-.114.3-.164.466-.123.4-.217.813-.363,1.2-.294.79-.641,1.562-.912,2.359a4.588,4.588,0,0,0-.08,1.079c.362-.121.622-.185.863-.292.525-.233,1.03-.515,1.563-.726.424-.168.526-.391.356-.814C224.874,88.344,224.473,87.262,224.042,86.136Zm-60.989,2.509c-.028-.385-.172-.6-.655-.538a16.368,16.368,0,0,1-2.327.094,51.147,51.147,0,0,0-5.484-.156c-2.224.187-4.439.217-6.66.2-4.309-.04-8.618-.148-12.927-.192q-4.732-.049-9.465,0c-1.709.017-3.417.131-5.125.2a1.116,1.116,0,0,0-.223.054c-.182,1.433-.074,1.557,1.335,1.557h.255q12.837-.017,25.673-.033,7.463-.007,14.926,0h.684C163.058,89.389,163.08,89.015,163.053,88.645Zm127.026,1.22h.1c4.091-.011,8.182-.033,12.273-.032q9.091,0,18.182.031,4.839.007,9.678,0c1.269,0,1.4-.148,1.274-1.421a1.079,1.079,0,0,0-.051-.17c-.165-.008-.33-.021-.5-.022-3.565-.007-7.131,0-10.7-.025-.965-.007-1.93-.122-2.9-.148a23.268,23.268,0,0,0-3.8-.007,31.807,31.807,0,0,1-5.985.082c-1.23-.059-2.462-.1-3.692-.1-.486,0-.974.193-1.459.185-3.456-.055-6.912-.162-10.368-.2-1.128-.012-2.258.134-3.4.209C288.611,89.772,288.694,89.864,290.079,89.865Zm22.214-43.589V44.544a1.416,1.416,0,0,0-1.11-1.513,19.7,19.7,0,0,0-3.727-.293,2.294,2.294,0,0,0-2.144,2.474c0,.645.026,1.292-.007,1.936a2.441,2.441,0,0,0,1.008,2.261c.131.1.322.259.312.375a5.245,5.245,0,0,1-.248,1.3,3.17,3.17,0,0,1-1.345,1.612,1.371,1.371,0,0,0-.293,2.106.775.775,0,0,0,.508.236,3.984,3.984,0,0,0,2.874-1.091,1.6,1.6,0,0,1,.622-.417,2.254,2.254,0,0,0,1.484-1.285c.268-.513.466-1.1,1.123-1.3a.51.51,0,0,0,.257-.3,10.53,10.53,0,0,0,.627-1.971,17.555,17.555,0,0,0,.025-2.389ZM277.666,95.469c.814,0,1.629-.036,2.441,0,1.186.049,2.369.192,3.555.206a8.988,8.988,0,0,0,1.893-.279c.164-.034.415-.236.419-.366.033-1.129.019-2.259.019-3.48-.684.239-1.292.434-1.885.664a.83.83,0,0,0-.6.989,3.554,3.554,0,0,1,.006.609H280.9c0-.6.039-1.175-.011-1.745a.967.967,0,0,1,.609-1.057c.583-.266,1.19-.481,1.789-.712.363-.14.692-.318.717-.761a10.384,10.384,0,0,0,.006-1.171c-.03-.527-.49-.7-.956-.451-.691.362-1.42.649-2.235,1.014.1-1.344.167-2.527.292-3.7a.71.71,0,0,1,.452-.5c.647-.06,1.3-.024,1.855-.024.454.754-.293,1.541.293,2.252.639-.4,1.26-.77,1.867-1.166a.458.458,0,0,0,.172-.327c.015-.762.008-1.524.008-2.4-.867,0-1.694.02-2.519,0-1.828-.053-3.656-.135-5.484-.183-.158,0-.457.157-.456.238,0,.237.057.6.214.685a1.245,1.245,0,0,1,.642,1.271q-.005,1.168.054,2.337c.039.757.151,1.511.171,2.269.03,1.137-.031,2.277.023,3.412a1.7,1.7,0,0,1-.624,1.51,5.629,5.629,0,0,0-.662.851C277.407,95.453,277.536,95.469,277.666,95.469Zm-90.018.113c.48.015.962-.051,1.444-.064.142,0,.286.056.43.066a4.948,4.948,0,0,0,1.4.05,1.347,1.347,0,0,1,.956,0,.488.488,0,0,0,.753-.457c.028-1.165.01-2.331.01-3.488a3.024,3.024,0,0,0-2.341.919,1.262,1.262,0,0,0-.156.526c-.056.7-.324.887-1,.744a2.781,2.781,0,0,0-.924-.016c-.574.077-.923-.183-.933-.755a8.828,8.828,0,0,0-.011-1.068.769.769,0,0,1,.542-.9c.813-.336,1.634-.654,2.443-1,.149-.063.358-.212.368-.335a8.662,8.662,0,0,0,0-1.525c-.046-.466-.505-.548-.9-.335-.685.37-1.426.635-2.108.929-.118-.543-.219-.994-.312-1.447a.291.291,0,0,1,.018-.2,3.563,3.563,0,0,0,.4-1.964.533.533,0,0,1,.616-.579c.39.007.781,0,1.171,0,.444,0,.65.209.639.658-.013.521,0,1.043,0,1.6a4.509,4.509,0,0,0,2.162-1.154.244.244,0,0,0,.073-.175c0-.91,0-1.82,0-2.763-.585,0-1.108,0-1.632,0a20.9,20.9,0,0,0-2.743.066,8.611,8.611,0,0,1-3.279-.031c-.3-.072-.627-.076-.734.248-.046.138.129.43.284.539a1.662,1.662,0,0,1,.7,1.558c-.039,2.664-.031,5.329,0,7.994a1.552,1.552,0,0,1-.546,1.328,6.141,6.141,0,0,0-.692.854C185.149,95.472,186.4,95.543,187.649,95.582Zm27.759-9.559a.586.586,0,0,0,.13-.371c.011-.507.022-1.017-.012-1.523a1.126,1.126,0,0,0-.92-1.139,21.2,21.2,0,0,0-2.766-.3c-.706-.027-1.418.1-2.128.143a1.894,1.894,0,0,0-1.724,1.337,4.839,4.839,0,0,0,.07,2.633,1.231,1.231,0,0,1,.018.542,8.722,8.722,0,0,0-.174,1.347c.055,1.21-.227,2.439.194,3.631.03.084-.028.2-.035.3-.041.58-.111,1.161-.107,1.742a.926.926,0,0,0,.7.909c.662.182,1.344.291,2.019.42,1.016.2,2.035-.324,3.055.009a.431.431,0,0,0,.34-.064c.555-.418,1.1-.851,1.64-1.285a.261.261,0,0,0,.069-.184c0-1,0-2-.039-3a.546.546,0,0,0-.426-.32,14.3,14.3,0,0,0-1.386.461.819.819,0,0,0-.664.933c.042.429.008.866.008,1.286H210.3c.1-1.415.177-2.783.3-4.147a3.337,3.337,0,0,0-.185-1.987,1.326,1.326,0,0,1-.015-.73c.049-.361.165-.713.212-1.073a6.854,6.854,0,0,0,.007-.855h2.442v2.4C214.181,87.328,214.786,86.652,215.407,86.023Zm58.607,9.35c.116,0,.316-.076.332-.149a2.876,2.876,0,0,0,.178-1.266,3.026,3.026,0,0,1,.1-1.916.672.672,0,0,0-.011-.352c-.1-.45-.372-.555-.764-.308a7.642,7.642,0,0,1-.689.433c-.765.375-1.329.858-1.1,1.827.006.024-.028.058.006-.007-.5,0-.957-.027-1.406.008-.464.036-.567-.156-.565-.59.011-2.579-.01-5.159-.009-7.738a2.145,2.145,0,0,1,.632-1.61,2.717,2.717,0,0,0,.359-.838h-3.769a.877.877,0,0,0-.3.013c-.181.071-.349.173-.565.285a3.5,3.5,0,0,1,.723,2.678,2.383,2.383,0,0,0,.054,1,2.245,2.245,0,0,1,.005,1.39,1.635,1.635,0,0,0,.008.63,4.716,4.716,0,0,1,.153.718c-.013.533-.095,1.064-.126,1.6-.026.445-.017.892-.031,1.337a5.364,5.364,0,0,1-.062,1,10.4,10.4,0,0,1-.426,1.315,3.527,3.527,0,0,1-.354.547C269.033,95.379,271.524,95.381,274.015,95.373Zm-19.9-.266a4.414,4.414,0,0,1-1.013-3.832c.118-.958.09-1.934.112-2.9,0-.164-.1-.329-.1-.494a1.609,1.609,0,0,1,.063-.731,3.124,3.124,0,0,0,.219-1.985c-.022-.14-.029-.283-.044-.431a2.033,2.033,0,0,1,1.638.34,11.031,11.031,0,0,0,1.4.695c.078-.576.153-1.008.19-1.443a5.532,5.532,0,0,0-.031-.757c-.012-.221.054-.56-.058-.637a1.633,1.633,0,0,0-.8-.184c-.173-.01-.353.128-.529.128-2.342,0-4.684-.014-7.027-.024h-.414c-.1.414-.163.742-.251,1.064a1.5,1.5,0,0,0,.555,1.8c.5-1.09,1.411-1.174,2.465-.977.092.344.344.749.254,1.054-.258.87.119,1.688.064,2.527-.034.524-.155,1.046-.154,1.569a23.211,23.211,0,0,1-.047,2.543c-.114,1.069-.022,2.134-1.09,2.8-.023.014-.026.06-.037.091C250.354,95.97,253.491,95.824,254.113,95.107Zm9.814.122c-.4-.41-.709-.7-.987-1.016a.884.884,0,0,1-.233-.471c-.147-2.152.171-4.309-.184-6.474a6.334,6.334,0,0,1,.113-2.425,2.221,2.221,0,0,1,.773-1.494.86.86,0,0,0,.134-.161c-.235-.436-.583-.339-.968-.292a4.891,4.891,0,0,1-1.641.03,2.462,2.462,0,0,0-1.967.37,5.106,5.106,0,0,1,.517.435c.149.164.4.389.369.539a8.539,8.539,0,0,0,.091,2.636,27.935,27.935,0,0,1,.023,4.017c-.065,1.5.2,3.084-1.019,4.412A7.85,7.85,0,0,0,263.926,95.229Z" transform="translate(0 0)" fill="#fff"></path></svg>