<?xml version="1.0" encoding="UTF-8"?>
<svg width="260px" height="40px" viewBox="0 0 260 40" version="1.1" xmlns="http://www.w3.org/2000/svg" xmlns:xlink="http://www.w3.org/1999/xlink">
    <!-- Generator: Sketch 62 (91390) - https://sketch.com -->
    <title>Untitled</title>
    <desc>Created with Sketch.</desc>
    <g id="Page-1" stroke="none" stroke-width="1" fill="none" fill-rule="evenodd">
        <g id="ee-logo" fill="#ffffff" fill-rule="nonzero">
            <g id="Group">
                <polygon id="Path" points="16.62 7.85 24.7 7.85 26.12 1.02 0.04 0.98 8.19 6.11 1.19 38.98 18.72 38.98 20.15 32.15 11.44 32.15 13.43 22.65 20.94 22.65 22.37 16.16 14.79 16.16"/>
                <polygon id="Path" points="39.77 1.02 31 1.02 22.92 38.98 40.22 38.98 41.7 32.15 33.16 32.15"/>
                <polygon id="Path" points="59.04 7.85 67.13 7.85 68.55 1.02 51.7 1.02 43.62 38.98 61.15 38.98 62.57 32.15 53.86 32.15 55.86 22.65 63.37 22.65 64.79 16.16 57.22 16.16"/>
                <path d="M84.59,0.62 L81.29,0.62 C75.14,0.62 71.9,3.35 70.53,9.84 L65.98,31.3 C65.75,32.1 65.64,33.18 65.64,33.75 C65.64,37.56 68.03,39.39 73.1,39.39 L76.34,39.39 C83.91,39.39 86.76,37.28 88.24,30.62 L89.44,24.98 L80.96,24.98 L79.71,30.96 C79.43,32.1 78.63,32.61 77.09,32.61 C75.72,32.61 74.93,32.15 75.04,31.41 C75.04,31.41 75.1,31.24 75.15,30.95 L79.76,9.09 C80.04,7.95 80.9,7.44 82.44,7.44 C83.75,7.44 84.38,7.84 84.38,8.64 C84.38,8.92 84.38,8.92 84.32,9.1 L83.3,14.05 L91.78,14.05 L93.2,7.1 C93.37,6.47 93.43,5.85 93.43,5.16 C93.41,1.98 90.79,0.62 84.59,0.62 Z" id="Path"/>
                <polygon id="Path" points="117.73 1.02 96.67 1.02 95.19 7.85 101.34 7.85 94.73 38.98 103.5 38.98 110.16 7.85 116.25 7.85"/>
                <path d="M140.28,14.62 L141.25,10.07 C141.53,8.82 141.71,7.45 141.71,6.43 C141.71,2.45 138.92,1.02 131.12,1.02 L120.3,1.02 L112.22,38.99 L120.99,38.99 L123.78,25.9 L125.11,25.9 L127.13,39.05 L135.16,39.05 L132.76,25.78 C133.34,25.78 133.92,25.77 134.48,25.77 C138.55,25.77 139.19,19.69 140.28,14.62 Z M132.42,10.35 L131.22,16.04 C130.65,18.72 129.8,19.34 126.84,19.34 L125.19,19.34 L127.69,7.5 L130.31,7.5 C131.79,7.5 132.53,8.07 132.53,9.26 C132.53,9.67 132.48,9.95 132.42,10.35 Z" id="Shape"/>
                <polygon id="Path" points="146.84 1.02 138.76 38.98 147.53 38.98 155.61 1.02"/>
                <path d="M172.33,0.62 L169.03,0.62 C162.88,0.62 159.64,3.35 158.27,9.84 L153.72,31.3 C153.49,32.1 153.38,33.18 153.38,33.75 C153.38,37.56 155.77,39.39 160.84,39.39 L164.08,39.39 C171.65,39.39 174.5,37.28 175.98,30.62 L177.18,24.98 L168.7,24.98 L167.45,30.96 C167.17,32.1 166.37,32.61 164.83,32.61 C163.46,32.61 162.67,32.15 162.78,31.41 C162.78,31.41 162.84,31.24 162.89,30.95 L167.5,9.09 C167.78,7.95 168.64,7.44 170.18,7.44 C171.49,7.44 172.12,7.84 172.12,8.64 C172.12,8.92 172.12,8.92 172.06,9.1 L171.04,14.05 L179.52,14.05 L180.94,7.1 C181.11,6.47 181.17,5.85 181.17,5.16 C181.15,1.98 178.53,0.62 172.33,0.62 Z" id="Path"/>
                <polygon id="Path" points="189.43 38.98 206.97 38.98 208.39 32.15 199.68 32.15 201.67 22.65 209.19 22.65 210.61 16.16 203.04 16.16 204.86 7.85 212.94 7.85 214.37 1.02 197.52 1.02"/>
                <polygon id="Path" points="232.32 1.02 225.14 18.09 225.03 18.09 225.14 1.02 216.43 1.02 219.05 26.69 216.43 38.98 224.92 38.98 227.53 26.69 241.03 1.02"/>
                <polygon id="Path" points="258.54 7.85 259.96 1.02 243.11 1.02 235.03 38.98 252.56 38.98 253.99 32.15 245.28 32.15 247.27 22.65 254.78 22.65 256.21 16.16 248.63 16.16 250.46 7.85"/>
            </g>
        </g>
    </g>
</svg>