<svg width="497" height="61" viewBox="0 0 497 61" fill="none" xmlns="http://www.w3.org/2000/svg">
<path fill-rule="evenodd" clip-rule="evenodd" d="M9.84908 0.700867L21.735 40.5251V0.700867H30.5519V59.6505H21.0437L8.81575 21.889V59.6505H0V0.700867H9.84908Z" fill="white"/>
<path fill-rule="evenodd" clip-rule="evenodd" d="M54.2058 14.2195L50.926 37.4026H57.4855L54.2058 14.2195ZM49.5089 46.0743L47.3862 59.6505H38.1772L48.161 0.700867H60.346L70.1867 59.6505H60.893L58.8037 46.0743H49.5089Z" fill="white"/>
<path fill-rule="evenodd" clip-rule="evenodd" d="M78.9844 9.63553H69.5573V0.700867H97.1416V9.63553H87.8014V59.6505H78.9844V9.63553Z" fill="white"/>
<path d="M111.954 0.700684H103.139V59.6503H111.954V0.700684Z" fill="white"/>
<path fill-rule="evenodd" clip-rule="evenodd" d="M138.883 14.0006C138.883 12.5943 138.389 11.3983 137.401 10.4127C136.412 9.42728 135.212 8.93454 133.801 8.93454C132.387 8.93454 131.181 9.42728 130.176 10.4127C129.173 11.3983 128.671 12.5943 128.671 14.0006V46.1772C128.671 47.5848 129.173 48.7805 130.176 49.766C131.181 50.7514 132.387 51.2419 133.801 51.2419C135.212 51.2419 136.412 50.7514 137.401 49.766C138.389 48.7805 138.883 47.5847 138.883 46.1772V14.0006ZM134.059 0C137.968 0 141.292 1.38005 144.03 4.13677C146.767 6.8945 148.137 10.2157 148.137 14.1011V46.2501C148.137 50.1679 146.759 53.4984 144.006 56.2383C141.254 58.9819 137.938 60.3512 134.059 60.3512C130.148 60.3512 126.832 58.9733 124.111 56.2144C121.389 53.4589 120.029 50.1367 120.029 46.25V14.1011C120.029 10.1846 121.406 6.85626 124.158 4.11274C126.909 1.3717 130.211 0 134.059 0Z" fill="white"/>
<path fill-rule="evenodd" clip-rule="evenodd" d="M165.945 0.700867L177.832 40.5251V0.700867H186.648V59.6505H177.141L164.913 21.889V59.6505H156.096V0.700867H165.945Z" fill="white"/>
<path fill-rule="evenodd" clip-rule="evenodd" d="M210.303 14.2195L207.021 37.4026H213.582L210.303 14.2195ZM205.604 46.0743L203.483 59.6505H194.274L204.258 0.700867H216.443L226.283 59.6505H216.99L214.9 46.0743H205.604Z" fill="white"/>
<path fill-rule="evenodd" clip-rule="evenodd" d="M258.089 59.6505H233.952V0.700867H242.767V50.7168H258.089V59.6505Z" fill="white"/>
<path fill-rule="evenodd" clip-rule="evenodd" d="M295.52 14.9538C295.52 11.5264 293.835 9.81141 290.467 9.81141H285.132V28.731H290.467C291.87 28.731 293.063 28.2286 294.045 27.2205C295.028 26.2148 295.52 25.0045 295.52 23.5873V14.9538ZM290.262 0.700867C295.19 0.700867 298.811 2.06534 301.12 4.79441C303.147 7.1791 304.162 10.5038 304.162 14.7684V23.3301C304.162 27.5026 302.597 31.0318 299.468 33.9175L306.029 59.6505H296.479L291.097 37.4864C290.843 37.4887 290.576 37.4899 290.292 37.4899H285.133V59.6505H276.317V0.700867H290.262Z" fill="white"/>
<path fill-rule="evenodd" clip-rule="evenodd" d="M329.782 14.0006C329.782 12.5943 329.288 11.3983 328.301 10.4127C327.312 9.42728 326.111 8.93454 324.699 8.93454C323.287 8.93454 322.08 9.42728 321.075 10.4127C320.071 11.3983 319.57 12.5943 319.57 14.0006V46.1772C319.57 47.5848 320.071 48.7805 321.075 49.766C322.08 50.7514 323.287 51.2419 324.699 51.2419C326.111 51.2419 327.312 50.7514 328.301 49.766C329.288 48.7805 329.782 47.5847 329.782 46.1772V14.0006ZM324.958 0C328.867 0 332.191 1.38005 334.929 4.13677C337.666 6.8945 339.035 10.2157 339.035 14.1011V46.2501C339.035 50.1679 337.658 53.4984 334.906 56.2383C332.153 58.9819 328.837 60.3512 324.958 60.3512C321.047 60.3512 317.732 58.9733 315.01 56.2144C312.288 53.4589 310.928 50.1367 310.928 46.25V14.1011C310.928 10.1846 312.304 6.85626 315.056 4.11274C317.808 1.3717 321.108 0 324.958 0Z" fill="white"/>
<path fill-rule="evenodd" clip-rule="evenodd" d="M365.711 14.0006C365.711 12.5943 365.213 11.3983 364.227 10.4127C363.239 9.42728 362.039 8.93454 360.626 8.93454C359.213 8.93454 358.007 9.42728 357.002 10.4127C355.999 11.3983 355.497 12.5943 355.497 14.0006V46.1772C355.497 47.5848 355.999 48.7805 357.002 49.766C358.007 50.7514 359.213 51.2419 360.626 51.2419C362.039 51.2419 363.239 50.7514 364.227 49.766C365.213 48.7805 365.711 47.5847 365.711 46.1772V14.0006ZM360.885 0C364.794 0 368.119 1.38005 370.855 4.13677C373.594 6.8945 374.964 10.2157 374.964 14.1011V46.2501C374.964 50.1679 373.586 53.4984 370.833 56.2383C368.082 58.9819 364.764 60.3512 360.885 60.3512C356.973 60.3512 353.658 58.9733 350.937 56.2144C348.215 53.4589 346.855 50.1367 346.855 46.25V14.1011C346.855 10.1846 348.23 6.85626 350.983 4.11274C353.735 1.3717 357.037 0 360.885 0Z" fill="white"/>
<path fill-rule="evenodd" clip-rule="evenodd" d="M390.545 59.6505H381.73V0.700867H406.944V9.63541H390.545V25.6646H402.504V34.5994H390.545V59.6505Z" fill="white"/>
<path d="M421.851 0.700684H413.035V59.6503H421.851V0.700684Z" fill="white"/>
<path fill-rule="evenodd" clip-rule="evenodd" d="M439.868 0.700867L451.755 40.5251V0.700867H460.571V59.6505H451.064L438.836 21.889V59.6505H430.019V0.700867H439.868Z" fill="white"/>
<path fill-rule="evenodd" clip-rule="evenodd" d="M482.648 60.4397C478.738 60.4397 475.414 59.0597 472.676 56.3017C469.939 53.5415 468.572 50.2312 468.572 46.3756V14.2003C468.572 10.28 469.947 6.94938 472.7 4.20486C475.452 1.46133 478.77 0.0883789 482.648 0.0883789C486.56 0.0883789 489.874 1.46618 492.597 4.22154C495.318 6.97814 496.679 10.2969 496.679 14.1802V20.8964H487.514V13.979C487.514 12.5655 487.013 11.3588 486.008 10.3543C485.004 9.34976 483.796 8.84718 482.385 8.84718C480.97 8.84718 479.77 9.34963 478.783 10.353C477.794 11.3575 477.301 12.5643 477.301 13.9755V46.2488C477.301 47.6612 477.794 48.8594 478.783 49.8474C479.77 50.8353 480.97 51.329 482.385 51.329C483.796 51.329 485.004 50.8375 486.008 49.8521C487.013 48.869 487.514 47.6744 487.514 46.2667V34.6864H482.539V25.753H496.679V46.3672C496.679 50.2886 495.301 53.6157 492.55 56.3448C489.798 59.0751 486.497 60.4397 482.648 60.4397Z" fill="white"/>
</svg>
