<?xml version="1.0" encoding="UTF-8"?>
<!-- Generator: Adobe Illustrator 16.0.3, SVG Export Plug-In . SVG Version: 6.00 Build 0)  -->
<!DOCTYPE svg PUBLIC "-//W3C//DTD SVG 1.1//EN" "http://www.w3.org/Graphics/SVG/1.1/DTD/svg11.dtd">
<svg version="1.1" id="Layer_1" xmlns="http://www.w3.org/2000/svg" xmlns:xlink="http://www.w3.org/1999/xlink" x="0px" y="0px" width="220.199px" height="53.333px" viewBox="0 0 220.199 53.333" enable-background="new 0 0 220.199 53.333" xml:space="preserve">
<rect display="none" width="220.199" height="53.333"/>
<path fill="#FFFFFF" d="M71.045,25.375c-3.223-1.32-4.695-2.599-4.695-4.479c0-1.28,1.233-2.8,3.501-2.8c2.189,0,5.213,2,5.531,2.2  c0.478,0.32,1.074,0,1.393-0.48l1.512-2.28c0.278-0.399,0.159-1.079-0.239-1.319c-0.796-0.6-3.899-2.68-7.958-2.68  c-6.327,0-8.953,4.119-8.953,7.679c0,4.719,3.74,7.119,7.481,8.639c3.342,1.359,5.053,2.76,5.053,4.799  c0,1.72-1.552,3.079-3.621,3.079c-2.586,0-5.809-2.358-6.008-2.479c-0.358-0.28-1.035-0.28-1.353,0.28l-1.433,2.479  c-0.358,0.64-0.159,0.84,0.199,1.2c0.796,0.76,3.741,3.12,8.754,3.12c5.611,0,9.152-3.8,9.152-7.919  C79.361,29.254,74.904,26.934,71.045,25.375 M107.058,13.937h-3.661c-0.437,0-0.756,0.36-0.756,0.76v10.598H89.67V14.696  c0-0.4-0.319-0.76-0.756-0.76h-3.701c-0.398,0-0.756,0.36-0.756,0.76v26.476c0,0.4,0.358,0.76,0.756,0.76h3.701  c0.437,0,0.756-0.359,0.756-0.76V30.133h12.971v11.039c0,0.4,0.319,0.76,0.756,0.76h3.661c0.398,0,0.756-0.359,0.756-0.76V14.696  C107.814,14.296,107.456,13.937,107.058,13.937 M127.356,13.536c-7.958,0-14.285,6.439-14.285,14.438  c0,7.998,6.327,14.358,14.285,14.358s14.325-6.36,14.325-14.358C141.681,19.975,135.314,13.536,127.356,13.536 M127.356,37.132  c-5.014,0-9.112-4.119-9.112-9.158s4.099-9.239,9.112-9.239s9.152,4.2,9.152,9.239S132.37,37.132,127.356,37.132 M159.193,13.536  c-7.958,0-14.285,6.439-14.285,14.438c0,7.998,6.327,14.358,14.285,14.358s14.324-6.36,14.324-14.358  C173.517,19.975,167.151,13.536,159.193,13.536 M159.193,37.132c-5.014,0-9.112-4.119-9.112-9.158s4.099-9.239,9.112-9.239  c5.013,0,9.152,4.2,9.152,9.239S164.206,37.132,159.193,37.132 M194.054,37.132h-10.147V14.696c0-0.4-0.358-0.76-0.756-0.76h-3.66  c-0.438,0-0.756,0.36-0.756,0.76v26.476c0,0.4,0.318,0.76,0.756,0.76h14.563c0.437,0,0.756-0.359,0.756-0.76v-3.28  C194.81,37.493,194.491,37.132,194.054,37.132 M219.443,13.937h-3.78c-0.438,0-0.756,0.36-0.756,0.76v16.397  c0,3.36-2.348,6.039-5.81,6.039c-3.461,0-5.77-2.679-5.77-6.079V14.696c0-0.4-0.317-0.76-0.756-0.76h-3.78  c-0.397,0-0.756,0.36-0.756,0.76v16.637c0,6.079,4.814,10.999,11.062,10.999c6.287,0,11.102-4.92,11.102-10.999V14.696  C220.199,14.296,219.84,13.937,219.443,13.937"/>

<path fill="#fff" d="M26.809,14.229c-0.006-0.014-0.013-0.025-0.021-0.035c-0.105,0.077-0.336,0.099-0.417,0.096  c-0.082-0.004-0.205-0.014-0.185,0.105c0.007,0.046,0.029,0.086,0.048,0.124c0.091,0.005,0.185,0.015,0.269,0.033  C26.73,14.526,26.906,14.444,26.809,14.229 M27.505,20.462c0.016,0.009,0.033,0.016,0.051,0.022  c0.251,0.084,0.416-0.152,0.648-0.189c0.112-0.019,0.409,0.109,0.331-0.25c-0.029-0.135,0.078-0.192,0.195-0.213  c-0.126-0.063-0.27-0.084-0.399-0.039c-0.346,0.121-0.697-0.118-0.7,0.147c-0.002,0.155,0.273,0.148,0.256,0.326  c-0.098,0.059-0.312-0.007-0.377,0.097C27.486,20.404,27.49,20.435,27.505,20.462 M23.837,29.443  c0.533,0.578,1.13,1.102,1.763,1.527c-0.204-0.137,0.119-1.961,0.056-2.492c-0.052-0.436-0.234-0.637-0.487-0.734  c-0.088,0.043-0.2,0.039-0.292,0.068c-0.159,0.051-0.16,0.219-0.3,0.254c-0.458,0.111-0.026,0.414,0.074,0.455  c0.096,0.037,0.237,0.18,0.196,0.295c-0.052,0.148-0.272,0.088-0.392,0.121c-0.242,0.064-0.027,0.184-0.107,0.34  C24.27,29.429,24.066,29.46,23.837,29.443 M26.082,16.647c-0.144,0.019-0.37,0.204-0.526,0.171c-0.045-0.009-0.091-0.022-0.137-0.04  c-0.015,0.023-0.029,0.045-0.044,0.067c0.147,0.108,0.584,0.104,0.61,0.331c0.014,0.134-0.567,0.138-0.284,0.294  c0.004,0.002,0.009,0.004,0.013,0.006c0.062-0.039,0.126-0.072,0.194-0.067c0.142,0.01,0.219,0.096,0.351,0.011  c0.104-0.066,0.183-0.168,0.266-0.257c0.166-0.178,0.715-0.012,0.849-0.132c0.167-0.152-0.07-0.23-0.201-0.24  c-0.127-0.01-0.234,0.1-0.349,0.138c-0.138,0.044-0.565,0.036-0.515-0.178C26.337,16.63,26.182,16.635,26.082,16.647 M26.581,41.888  c0.843-0.199,0.803-3.414,0.903-4.568c0.163-1.879,0.033-3.221-1.567-4.402c-0.57-0.422-1.844-0.654-2.866-0.939  c0.033,0.129,0.252,0.184,0.287,0.299c0.043,0.139-0.166,0.18-0.283,0.207c-0.047,0.012-0.094,0.02-0.141,0.025  c0.131,0.031,0.27,0.102,0.292,0.318c0.009,0.086,0.387-0.102,0.468-0.072c0.504,0.184,0.214,0.607,0.386,0.664  c0.228,0.076,0.617-0.051,0.671,0.285c0.047,0.295-0.378,0.166-0.516,0.318c-0.16,0.174,0.138,0.217,0.256,0.236  c0.213,0.039,0.499,0.145,0.64,0.318c0.24,0.291-0.111,0.344-0.388,0.318c-0.145-0.014-0.799-0.189-0.536,0.223  c0.18,0.281,0.626,0.049,0.783,0.313c0.073,0.125,0.073,0.217,0.221,0.275c0.139,0.059,0.204-0.445,0.582-0.377  c0.613,0.111-0.161,0.658,0.476,0.904c0.087,0.035,0.367-0.107,0.548,0.014c0.219,0.146-0.11,0.52-0.651,0.49  c-0.071-0.004-0.23-0.061-0.206,0.072c0.012,0.07,0.667,0.197,0.827,0.336c0.352,0.305-0.208,0.283-0.472,0.27  c-0.149-0.008-0.387,0.441-0.739,0.1c-0.098-0.094-0.307-0.408-0.466-0.42c-0.198-0.014-0.109,0.375-0.213,0.445  c-0.098,0.068-0.291,0.029-0.403,0.035c-0.014,0.131,0.255,0.193,0.043,0.293c-0.357,0.168-0.683-0.098-0.784-0.201  c-0.106-0.111-0.08-0.217-0.12-0.348c-0.076-0.256-0.561-0.213-0.558-0.48c0-0.105,0.164-0.188,0.152-0.299  c-0.012-0.121-0.593-0.1-0.493-0.441c0.042-0.139,0.148-0.156,0.228-0.23c0.172-0.156,0.087-0.301-0.082-0.404  c-0.074-0.045-0.233-0.129-0.399-0.193c0.13,0.279,0.096,0.492,0.072,0.801c-0.03,0.389,0.653,1.127,0.774,2.443  C23.491,40.529,25.95,42.039,26.581,41.888 M22.222,36.39c-0.384-0.285-0.694-0.586-0.963-0.885  c-0.059,0.016-0.117,0.027-0.177,0.035c-0.148,0.018-0.211-0.057-0.346-0.09c-0.106-0.025-0.358-0.031-0.423,0.072  c-0.092,0.145,0.113,0.197,0.212,0.266c0.172,0.117,0.09,0.139,0.026,0.287c-0.076,0.176,0.04,0.197,0.184,0.27  c0.093,0.049,0.296,0.129,0.284,0.254c-0.013,0.125-0.189,0.166-0.283,0.182c-0.133,0.02-0.824-0.09-0.617,0.316  c0.057,0.113-0.25,0.053-0.337,0.098c-0.21,0.109-0.019,0.184,0.016,0.291c0.057,0.176-0.172,0.145-0.28,0.191  c-0.042,0.02-0.083,0.031-0.122,0.039c-0.026,0.297,0.029,0.498,0.375,0.5c2.109,0.01,3.212,1.178,3.214,1.178  C23.073,37.966,22.422,36.541,22.222,36.39 M38.492,22.858c0.027-0.025,0.178-0.148,0.222-0.187  C38.286,22.665,38.484,22.84,38.492,22.858 M40.368,24.452c-0.812,0.276-1.754,0.093-2.022-0.007  c-0.04-0.015-0.078-0.029-0.115-0.043c-0.204,0.074-0.556,0.084-0.443,0.246c0.106,0.154,0.466,0.081,0.624,0.165  c0.072,0.038,0.202,0.111,0.298,0.199c0.524-0.151,0.971,0.004,1.519,0.085c0.173,0.025,0.358,0.023,0.541,0.016  c-0.061-0.103-0.037-0.2,0.094-0.279C40.984,24.651,40.628,24.534,40.368,24.452 M38.107,23.716  c-0.035,0.086-0.093,0.193-0.126,0.295c0.217,0.027,0.423,0.099,0.38,0.286c-0.001,0.005-0.003,0.011-0.006,0.017  c0.164,0.048,0.328,0.085,0.389,0.071c0.271-0.06,0.026-0.778,1.162-1.155c-0.238-0.089-0.489,0.029-0.634-0.18  c-0.106-0.153,0.146-0.195,0.019-0.339c-0.042-0.048-0.227-0.069-0.409-0.06c-0.126,0.144-0.225,0.221-0.318,0.309  c0.088,0.089,0.207,0.174,0.12,0.332c-0.094,0.171-0.277,0.144-0.412,0.065C38.223,23.452,38.168,23.568,38.107,23.716   M32.136,23.544c0.161-0.23-0.252-0.795-0.505-0.789c-0.307,0.008-0.127,0.386-0.505,0.361c-0.054-0.003-0.107-0.042-0.165-0.09  c-0.212,0.137-0.488,0.309-0.745,0.46c0.181-0.002,0.361,0.027,0.554,0.142c0.344,0.206,0.499,0.562-0.003,0.628  c-0.832,0.109-0.42,0.429-0.541,0.668c-0.074,0.147-0.191,0.136-0.26,0.251c-0.065,0.107,0.048,0.226,0.158,0.27  c0.222,0.089,0.547,0.039,0.49,0.359c-0.02,0.116-0.094,0.142,0.082,0.179c0.253,0.055,0.668,0.031,0.865,0.223  c0.024,0.024,0.043,0.046,0.059,0.066c-0.066-0.116-0.127-0.243-0.175-0.388c-0.154-0.027-0.49-0.071-0.353-0.272  c0.024-0.035,0.189-0.209-0.1-0.239c-0.184-0.019-0.818-0.222-0.549-0.563c0.155-0.195,0.642-0.133,0.672-0.172  c0.097-0.197-0.126-0.384,0.057-0.602c0.159-0.19,0.581,0.029,0.681,0.11c0.112,0.09,0.316,0.077,0.417-0.05  c0.128-0.159-0.223-0.209-0.299-0.276C31.782,23.652,32.065,23.644,32.136,23.544 M30.095,17.248  c-0.076-0.012-0.145-0.007-0.208,0.009c-0.043,0.405-0.055,0.757-0.183,1.021c-0.004,0.008-0.01,0.027-0.017,0.052  c0.199,0.027,0.466-0.042,0.361,0.245c0.047,0.152,0.795,0.046,0.803,0.327c0.005,0.155-0.246,0.159-0.33,0.239  c-0.146,0.14,0.103,0.257,0.262,0.298c0.019,0.004,0.042-0.001,0.07-0.012c-0.01-0.027-0.011-0.057-0.002-0.094  c0.05-0.206,0.329-0.144,0.472-0.204c0.082-0.035,0.17-0.117,0.126-0.213c-0.035-0.076-0.299-0.058-0.208-0.297  c0.05-0.132-0.421-0.072-0.513-0.102c-0.512-0.164-0.138-0.366-0.107-0.519c0.042-0.217-0.301-0.038-0.304-0.259  C30.313,17.623,30.521,17.315,30.095,17.248 M16.955,26.013c0.334,0.054,0.669,0.067,1,0.059c-0.056-0.071-0.036-0.159,0.145-0.238  c0.119-0.053,0.249-0.14,0.382-0.194c-0.058-0.068-0.115-0.128-0.172-0.176c-0.173-0.145-0.369-0.293-0.579-0.434  c-0.234,0.135-0.542,0.222-0.673,0.254C16.49,25.418,17.049,25.721,16.955,26.013 M17.625,37.875  c-0.255,0.012-0.276,0.24-0.43,0.377c0.222,0.031,0.452,0.023,0.688-0.035c0.01,0.012-0.019-0.109-0.075-0.318  C17.748,37.882,17.688,37.873,17.625,37.875 M20.841,20.119c-0.067,0.023-0.138,0.024-0.21,0.021  c-0.011,0.161-0.182,0.267-0.193,0.468c0.197-0.025,0.001,0.174,0.177,0.128c0.083-0.104,0.202-0.272,0.361-0.274  c0.138-0.002,0.176,0.12,0.264,0.131c0.127-0.223-0.417-0.326,0.013-0.687c0.142-0.118,0.456,0.076,0.526-0.098  c0.114-0.276,0.408-0.219,0.561-0.217c-0.087-0.081-0.151-0.179-0.293-0.175c-0.187,0.006-0.181,0.173-0.387,0.195  c-0.262,0.029-0.389-0.069-0.605-0.143c-0.097-0.033-0.315-0.054-0.371,0.05C20.773,19.683,21.263,19.974,20.841,20.119   M22.101,35.175c-0.111-0.002-0.183,0.037-0.17,0.156c0.018,0.156-0.222,0.111-0.36,0.115c0.189,0.172,0.39,0.336,0.609,0.502  C22.337,35.74,22.272,35.468,22.101,35.175 M14.907,38.562c-0.114-0.07-0.241-0.088-0.369-0.098  c-0.057,0.025-0.112,0.039-0.145,0.051c-0.037,0.014-0.07,0.029-0.101,0.049c0.082,0.102,0.183,0.18,0.313,0.191  c0.321,0.029,0.676-0.055,0.99-0.068c-0.001-0.102-0.142-0.197-0.291-0.275C15.272,38.582,15.046,38.648,14.907,38.562   M20.293,38.695c-1.237-0.381-2.675,0.191-3.837-0.357c-0.256-0.123-0.487-0.25-0.714-0.375c-0.061,0.014-0.123,0.027-0.19,0.016  c-0.127-0.025-0.296-0.123-0.422-0.02c-0.137,0.115,0.03,0.201,0.123,0.303c1.116,0.553,2.072,1.406,2.591,1.455  C18.569,39.787,19.68,39.039,20.293,38.695 M20.168,29.636c-0.04-0.059-0.081-0.117-0.122-0.178  c-0.174,0.146-0.474-0.025-0.547-0.119c-0.078-0.098-0.094-0.209-0.241-0.225c-0.116-0.012-0.23,0.076-0.346,0.043  c-0.279-0.08-0.701-0.17-0.69,0.178c0.005,0.188,0.692,0.035,0.462,0.43c-0.161,0.277-0.634-0.012-0.669,0.328  c-0.032,0.307,0.287,0.285,0.476,0.324c0.041,0.01,0.087,0.021,0.133,0.035c0.221-0.016,0.376-0.029,0.454,0.039  c0.27,0.24,0.153,0.293,0.167,0.387c0.125,0.008,0.253-0.006,0.374,0.02c0.219,0.043,0.365,0.254,0.584,0.098  c0.179-0.129,0.251-0.313,0.506-0.271c0.281,0.043,0.317,0.408,0.337,0.604c0.046-0.004,0.094-0.004,0.143-0.006  c0.086-0.021,0.177-0.043,0.273-0.072c-0.266-0.242-0.498-0.514-0.715-0.799c-0.029-0.002-0.059-0.002-0.088-0.002  c-0.148-0.002-0.247-0.035-0.376-0.117c-0.152-0.098-0.119-0.123-0.108-0.285c-0.127-0.018-0.321-0.063-0.258-0.213  C19.955,29.746,20.091,29.707,20.168,29.636 M21.757,30.837c-0.089-0.199-0.395-0.307-0.706-0.355  c0.184,0.207,0.402,0.41,0.691,0.604C21.787,31.019,21.801,30.935,21.757,30.837 M16.336,26.552  c-0.006,0.012-0.014,0.025-0.022,0.037c0.24,0.136,0.055,0.374,0.209,0.545c0.301,0.334,0.819-0.268,1.176-0.146  c0.06,0.021,0.1,0.065,0.136,0.11c0.006-0.03,0.008-0.066,0.003-0.108c-0.02-0.169,0.25-0.332,0.483-0.321  c-0.209-0.103-0.553-0.004-0.443-0.34c0.004-0.01,0.009-0.02,0.015-0.03c-0.337-0.017-0.67-0.076-0.984-0.204  c-0.087,0.106-0.209,0.095-0.332,0.143C16.401,26.305,16.412,26.401,16.336,26.552 M38.585,35.25  c0.327-0.037,0.631-0.029,0.92-0.191c0.178-0.1,0.238-0.25,0.186-0.408c-0.002-0.006-0.006-0.012-0.009-0.018  c-0.212,0.063-0.432,0.117-0.669,0.152c-1.748,0.258-2.852-0.52-3.897,0.08c1.045,0.039,1.105,0.758,2.009,1.016  c0.024,0.008,0.05,0.016,0.076,0.021c0.001-0.012,0.001-0.025-0.003-0.039c-0.013-0.043-0.134-0.205,0.081-0.254  c0.213-0.049,0.499-0.023,0.716-0.012c0.108,0.006,0.426,0.033,0.483-0.105C38.505,35.425,38.291,35.283,38.585,35.25   M18.933,24.321c0.266,0.159,0.473-0.25,0.482-0.34c0.019-0.193-0.186-0.256-0.365-0.278c-0.261-0.033-0.517,0.215-0.756,0.122  c-0.142-0.056-0.483-0.195-0.406,0.181c0.061,0.295-0.667,0.08-0.417,0.399c0.072,0.091,0.372-0.05,0.453,0.038  c0.169,0.182,0.117,0.34-0.025,0.468c0.3,0.206,0.546,0.441,0.772,0.682c0.053-0.003,0.106,0.004,0.158,0.025  c0.166,0.066,0.436,0.182,0.557-0.055c0.139-0.271-0.395-0.163-0.537-0.182c-0.765-0.098,0.054-0.432-0.137-0.604  C17.893,24.779,18.626,24.137,18.933,24.321 M18.254,38.013c-0.038,0-0.076-0.006-0.113-0.014c0.021,0.035,0.042,0.068,0.063,0.098  c0.194,0.285,0.662,0.141,0.843,0.08c-0.001-0.004,0.092-0.16,0.169-0.451c-0.182-0.02-0.32-0.107-0.417-0.066  C18.507,37.787,18.617,38.025,18.254,38.013 M36.832,26.441c-0.033,0.084-0.061,0.17-0.085,0.258  c0.321,0.038,0.661,0.139,0.741,0.175c0.083,0.036,0.167,0.046,0.255,0.043c0.07-0.033,0.124-0.079,0.147-0.145  c0.097-0.284-0.356-0.422-0.368-0.677c-0.005-0.103,0.02-0.202,0.068-0.295c-0.177,0.039-0.385,0.189-0.211,0.331  C37.638,26.341,37.315,26.6,36.832,26.441 M35.519,26.73c-0.009,0.318-0.228,0.317-0.343,0.305  c-0.185,0.193-0.392,0.375-0.609,0.554c0.024,0.074-0.041,0.146,0.031,0.164c0.271,0.068,0.406,0.162,0.472,0.258  c0.11-0.004,0.225,0.02,0.322,0.068c0.092,0.045,0.322,0.049,0.473-0.002c-0.03-0.076,0.001-0.162,0.095-0.25  c-0.011-0.014-0.023-0.029-0.039-0.045c-0.231-0.234,0.115-0.381,0.256-0.404c0.183-0.027,0.247-0.146,0.072-0.235  c-0.138-0.071-0.288-0.103-0.087-0.353c0.06-0.075,0.186-0.104,0.339-0.106c0.03-0.108,0.064-0.217,0.105-0.33  c0.009-0.027,0.019-0.051,0.028-0.076c-0.032-0.04-0.066-0.081-0.11-0.115c-0.373-0.291-0.716-0.091-0.714,0.008  c0.003,0.157,0.319,0.318,0.173,0.45C35.872,26.721,35.523,26.525,35.519,26.73 M28.463,17.776c0.048,0.074,0.149,0.084,0.239,0.112  c0.029-0.002,0.059-0.002,0.088-0.004c-0.093-0.095-0.185-0.2-0.273-0.31C28.459,17.63,28.417,17.705,28.463,17.776 M27.351,23.284  c-0.091-0.039-0.208-0.091-0.349-0.082c-0.218,0.013-0.06,0.228-0.196,0.3c-0.06,0.033-0.124,0.057-0.187,0.076  c0.014,0.161,0.037,0.3,0.084,0.404c0.108,0.241,0.316,0.418,0.564,0.555c0.111-0.087,0.309-0.098,0.443-0.062  c0.377,0.099,0.341-0.179,0.494-0.18c0.129,0,0.355,0.137,0.442,0c-0.08-0.215-0.415-0.209-0.474-0.441  c-0.008-0.03-0.009-0.06-0.005-0.089c-0.595-0.012-0.479-0.252-0.622-0.288C27.456,23.455,27.35,23.38,27.351,23.284 M32.948,25.826  c-0.101,0.136,0.1,0.335-0.474,0.386c-0.117,0.01-0.213-0.104-0.34-0.071c-0.089,0.023-0.16,0.071-0.261,0.071  c-0.155-0.001-0.183-0.098-0.23-0.187c0.203,0.421,0.466,0.654,0.662,1.01c0.459-0.055,0.835-0.285,1.339-1.164  c-0.107-0.075-0.248-0.13-0.445-0.149C33.07,25.709,33.017,25.731,32.948,25.826 M38.897,34.523  c0.156-0.021,0.303-0.049,0.443-0.082C39.179,34.402,39,34.408,38.897,34.523 M28.976,17.473c-0.111-0.01-0.234-0.021-0.34,0.022  c0.129,0.152,0.259,0.286,0.38,0.389c0.18,0.011,0.346,0.057,0.456,0.212c0.14-0.026,0.228-0.195,0.228-0.575  c0-0.06,0.002-0.121,0.005-0.182c-0.023,0.013-0.045,0.028-0.066,0.044C29.434,17.534,29.216,17.496,28.976,17.473 M28.84,31.99  c-0.431-1.197-0.507-2.654-0.49-3.891c-0.233-0.094-0.285-0.361-0.996,0.066c-0.152,0.092-0.555,0.229-0.695,0.068  c-0.121-0.141,0.002-0.287,0.118-0.342c0.089-0.043,0.297-0.055,0.283-0.182c-0.082-0.068-0.223-0.066-0.225-0.223  c-0.003-0.188,0.293-0.215,0.216-0.411c-0.116-0.293-0.822-0.159-1.056-0.19c-0.066-0.009-0.15-0.026-0.241-0.041  c0.019,0.057,0.037,0.115,0.053,0.174c0.432,1.624-0.239,3.046,0.382,4.61c0.473,1.191,1.582,2.025,2.32,3.314  C28.765,34.345,28.956,32.312,28.84,31.99 M25.142,23.974c0.062,0.074,0.148,0.123,0.156,0.214c0.021-0.002,0.042-0.002,0.062,0  c0.065,0.008,0.132,0.037,0.193,0.08c0.151-0.014,0.288-0.081,0.459-0.063c0.287,0.031,0.247,0.303,0.25,0.392  c0.014,0.479,0.574,0.419,0.817,0.229c-0.682-0.385-0.714-0.724-0.796-1.203c-0.17-0.005-0.315-0.054-0.385-0.132  c-0.039-0.044-0.061-0.085-0.087-0.122c-0.019,0.088-0.075,0.166-0.167,0.208C25.479,23.652,24.916,23.701,25.142,23.974   M27.182,2.889c-13.539,0-24.515,10.843-24.515,24.218c0,13.377,10.976,24.219,24.515,24.219c0.206,0,0.409-0.01,0.613-0.014  c-1.588-2.533-0.335-5.34-1.174-7.287c-0.691-1.602-2.429-2.381-3.335-3.693c-0.42-0.607-1.271-1.262-1.963-1.486  c-0.923-0.299-0.88,0.189-1.923,0.689c-0.845,0.404-1.706,0.615-2.51,0.037c-0.279-0.201-0.53-0.469-0.84-0.625  c-0.244-0.121-0.507-0.039-0.768-0.027c-0.25,0.014-0.533,0.063-0.769-0.047c-0.118-0.055-0.214-0.152-0.289-0.266  c-0.058,0.039-0.113,0.084-0.177,0.131c-0.188,0.135-0.801,0.299-0.652-0.09c0.083-0.219,0.025-0.33-0.229-0.33  c-0.307,0.002-0.396,0.268-0.596,0.453c-0.173,0.162-0.386,0.313-0.636,0.279c-0.257-0.031-0.473-0.211-0.618-0.402  c-0.27-0.359-0.631-0.021-0.96-0.145c-0.415-0.154,0.215-0.266-0.003-0.426c-0.078-0.057-0.268,0.008-0.369-0.037  c-0.199-0.088-0.339-0.143-0.264-0.348c0.083-0.23,0.259-0.338,0.43-0.496c0.147-0.137,0.175-0.248,0.383-0.316  c0.075-0.023,0.282-0.102,0.26-0.207c-0.039-0.184-0.533,0.027-0.629-0.195c-0.12-0.277,0.314-0.342,0.444-0.42  c0.159-0.098,0.162-0.4,0.906-0.414c0.196-0.004,0.607-0.191,0.372-0.445c-0.173-0.186-0.62,0.01-0.553-0.338  c0.062-0.316,0.577-0.277,0.792-0.334c0.183-0.049,0.358-0.23,0.546-0.328c-0.022-0.084-0.076-0.174-0.203-0.262  c-0.3-0.213,0.032-0.48,0.405-0.463c0.11,0.006,0.298-0.029,0.357-0.152c0.06-0.125-0.102-0.199,0.019-0.33  c0.106-0.115,0.788-0.213,0.75,0.244c-0.029,0.338,0.366,0.166,0.589,0.316c0.134-0.066,0.486,0.031,0.487-0.145  c0-0.143-0.079-0.467,0.467-0.666c0.193-0.07,0.68-0.219,1.022-0.234c-0.007-0.031-0.025-0.063-0.06-0.098  c-0.156-0.156-0.369-0.025-0.5,0.066c-0.491,0.342-0.977,0.094-1.125,0.07c-0.145-0.02-0.403,0.031-0.502-0.094  c0.045-0.111,0.229-0.258-0.029-0.238c-0.151,0.01-0.643,0.324-0.874,0.016c-0.093-0.125,0.041-0.24,0.152-0.305  c0.081-0.047,0.431,0.004,0.324-0.307c-0.093-0.273,0.435-0.264,0.644-0.258c0.078,0.002,0.252,0.045,0.312-0.016  c0.057-0.053-0.032-0.236,0.029-0.4c-0.011-0.041,0.002-0.098,0.052-0.184c0.158-0.268,0.457-0.146,0.683-0.244  c-0.053-0.406-0.677,0.082-0.836-0.258c-0.087-0.186,0.197-0.156,0.066-0.34c-0.095-0.133-0.295-0.121-0.422-0.047  c-0.222,0.129-0.325,0.709-0.658,0.578c-0.033-0.014,0.012-0.252-0.157-0.301c-0.146-0.043-0.875,0.627-1.183,0.127  c-0.166-0.271,0.55-0.264,0.43-0.48c-0.123-0.225-0.588-0.01-0.628-0.238c-0.073-0.42,0.806-0.314,0.951-0.566  c0.044-0.076-0.001-0.184,0.033-0.266c0.069-0.168,0.259-0.178,0.4-0.205c0.065-0.014,0.75,0.152,0.713-0.303  c-0.011-0.131-0.152-0.186-0.152-0.314c0-0.123,0.168-0.25,0.272-0.289c0.138-0.051,0.35,0,0.48-0.082  c0.152-0.096-0.074-0.168-0.076-0.305c0.07-0.298,0.409-0.052,0.602-0.082c0.017-0.076,0.018-0.16,0.028-0.239  c-0.139-0.023-0.275-0.135-0.162-0.288c-0.138-0.097-0.292-0.167-0.47-0.139c-0.75,0.122-0.439,0.82-0.742,1.307  c-0.363,0.586-0.931,0.455-1.088,0.438c-0.29-0.031-0.485,0.521-0.651,0.168c-0.231,0.225-0.367,0.121-0.535,0.148  c-0.163,0.029-0.289,0.221-0.425,0.303c-0.104,0.064-0.393,0.189-0.451,0.012c-0.031-0.098,0.173-0.266,0.191-0.367  c-0.383,0.031-0.608,0.381-1.067,0.297c-0.797-0.15,0.212-0.309,0.33-0.469c-0.338-0.422,0.967-0.16,0.931-0.477  c-0.049-0.42,0.487-0.344,0.6-0.479c0.189-0.225,0.019-0.503-0.28-0.479c-0.262,0.021-0.5,0.295-0.736,0.4  c-0.209,0.092-0.491,0.307-0.728,0.198c-0.21-0.096,0.123-0.193-0.001-0.253c-0.305-0.147-0.532,0.14-0.676,0.167  c-0.13,0.023-0.288,0.012-0.393-0.078c-0.09-0.077-0.076-0.235-0.153-0.294c-0.093-0.07-0.271,0.021-0.373,0.028  c-0.136,0.008-0.35-0.02-0.449-0.12c-0.18-0.182,0.049-0.3,0.199-0.378c0.099-0.052,0.381-0.232,0.142-0.338  c-0.218-0.095-1.011-0.282-0.84-0.515c0.351-0.479,1.152,0.212,1.275,0.041c0.092-0.128-0.391-0.499-0.146-0.66  c0.387-0.253,0.443,0.13,0.578,0.091c0.167-0.05,0.041-0.607,0.352-0.719c0.22-0.08,0.344,0.281,0.401,0.19  c0.181-0.29,0.567-0.017,0.854,0c0.62,0.036,0.359-0.596,0.532-0.829c0.201-0.269,0.471,0.011,0.834,0.32  c0.351,0.299,1.141,0.196,0.944,0.03c-0.392-0.329-0.292-0.749,0.03-0.749c0.436,0,0.838-0.749,0.401-0.555  c-0.351,0.156-0.914-0.201-0.728-0.473c0.12-0.177,0.368-0.232,0.164-0.397c-0.107-0.086-0.293-0.301-0.098-0.461  c0.582-0.479,0.733,0.249,1.064-0.277c0.087-0.139-0.444-0.465-0.19-0.696c0.196-0.179,0.574-0.054,0.794,0.075  c0.305,0.179,0.396,0.395,0.602-0.107c0.08-0.193,0.211-0.229,0.351-0.148c0.181,0.105,0.084,0.328,0.181,0.329  c0.281,0.005,0.376-0.269,0.632,0.076c0.22,0.295-0.03,0.553,0.366,0.091c0.064-0.073,0.256-0.117,0.358-0.091  c0.301,0.075,0.054,0.414,0.12,0.468c0.145,0.117,0.368-0.079,0.512,0.053c0.112,0.103-0.117,0.221-0.124,0.352  c-0.009,0.15,0.134,0.271,0.279,0.252c0.143-0.019,0.238-0.218,0.396-0.152c0.111,0.046,0.082,0.153,0.247,0.149  c0.164-0.004,0.293-0.14,0.236-0.296c-0.412-0.404,0.412-0.577,0.398-0.754c-0.007-0.079-0.437-0.11-0.528-0.327  c-0.094-0.226,0.022-0.304,0.274-0.282c0.224,0.019-0.24-0.409,0.06-0.564c0.147-0.077,0.712-0.325,0.344-0.564  c-0.183-0.118-0.598,0.013-0.705-0.194c-0.073-0.139,0.067-0.156-0.094-0.239c-0.51-0.262,0.368-0.415,0.581-0.469  c0.137-0.035,0.354-0.078,0.267-0.247c-0.07-0.138-0.3-0.13-0.405-0.248c-0.051-0.056-0.107-0.123-0.135-0.189  c-0.002,0.004-0.006,0.008-0.008,0.013c-0.067,0.136,0.044,0.23,0.024,0.366c-0.033,0.225-0.388,0.109-0.491,0.169  c-0.114,0.069-0.119,0.161-0.13,0.281c-0.045,0.499-0.66,0.374-0.763,0.388c-0.107,0.016-0.186,0.085-0.301,0.08  c-0.212-0.008-0.164-0.109-0.088-0.257c0.029-0.056,0.086-0.099,0.005-0.149c-0.076-0.047-0.288,0.094-0.355,0.142  c-0.116,0.083-0.221,0.185-0.363,0.082c-0.195-0.144-0.055-0.356,0.069-0.487c0.065-0.069,0.395-0.219,0.287-0.471  c-0.078-0.183-0.445,0.043-0.574,0.085c-0.125,0.041-0.443,0.121-0.477-0.043c-0.015-0.075,0.148-0.089,0.107-0.181  c-0.053-0.116-0.685,0.042-0.356-0.424c0.092-0.131,0.339-0.209,0.475-0.282c0.222-0.119,0.524-0.041,0.739-0.172  c0.274-0.167,0.019-0.429,0.174-0.656c0.144-0.213,0.429,0.161,0.589,0.067c0.23-0.139-0.108-0.339-0.13-0.471  c-0.059-0.359,0.736-0.361,0.931-0.313c0.15,0.036,0.362,0.21,0.514,0.175c0.138-0.032,0.203-0.145,0.058-0.229  c-0.074-0.043-0.354-0.099-0.229-0.238c0.036-0.042,0.117-0.032,0.14-0.099c0.028-0.08-0.072-0.205-0.141-0.229  c-0.083-0.029-0.223-0.167-0.194-0.273c0.105-0.39,0.492,0.104,0.602,0.06c0.175-0.07-0.067-0.334,0-0.509  c0.076-0.195,0.648,0.449,0.573-0.225c-0.027-0.243-0.764-0.068-0.93-0.304c-0.141-0.2,0.01-0.28,0.179-0.368  c0.097-0.052,0.487-0.198,0.232-0.321c-0.581-0.279-0.102-0.487-0.008-0.504c0.256-0.045,0.339,0.398,0.447,0.285  c0.074-0.079,0.11-0.366,0.222-0.419c0.34-0.16,0.253,0.243,0.34,0.279c0.278,0.113,0.637-0.368,0.828-0.077  c0.136,0.206-0.47,0.392-0.323,0.529c0.101,0.094,0.264-0.07,0.384,0.017c0.165,0.12-0.064,0.317,0.045,0.344  c0.301,0.075,0.286-0.161,0.306-0.255c0.049-0.226,0.338-0.245,0.327-0.337c-0.011-0.091-0.155-0.106-0.179-0.198  c-0.049-0.187,0.277-0.208,0.118-0.427c-0.116-0.159-0.31-0.183-0.073-0.38c0.117-0.097,0.329-0.136,0.474-0.095  c0.258,0.075,0.157,0.472,0.443,0.32c0.311-0.165,0.645,0.095,0.575-0.205c-0.093-0.399,0.397-0.95,0.495-0.623  c0.175,0.588,0.477-0.28,0.778,0.199c0.111,0.176,0.024,0.284,0.105,0.343c0.11,0.081,0.471-0.142,0.602,0.126  c0.07,0.143-0.156,0.158-0.171,0.188c-0.055,0.109,0.387,0.07,0.352,0.294c-0.049,0.314,0.266-0.038,0.387-0.003  c0.196,0.057-0.002,0.381,0.259,0.371c0.202-0.007,0.213-0.266,0.407-0.323c0.159-0.047,0.317,0.053,0.285,0.223  c-0.034,0.184-0.318,0.237-0.38,0.398c-0.078,0.202,0.119,0.206,0.277,0.27c0.166,0.067,0.318-0.14,0.538-0.101  c0.283,0.052,0.021,0.432-0.046,0.526c-0.069,0.094,0.167,0.034,0.131,0.221c0.066,0.481,0.275-0.113,0.287-0.118  c0.281-0.119,0.231,0.35,0.546,0.125c0.164-0.116-0.194-0.283-0.094-0.444c0.13-0.209,0.552-0.18,0.695,0.044  c0.198,0.313,0.268,0.278,0.654,0.334c0.107,0.016,0.301-0.077,0.323-0.195c0.019-0.108-0.159-0.193-0.035-0.263  c0.071-0.04,0.292,0.005,0.207-0.099c-0.044-0.055-0.17-0.076-0.233-0.087c-0.168-0.03-0.373-0.155-0.111-0.26  c0.108-0.044,0.48,0.07,0.526-0.024c0.043-0.088-0.074-0.159-0.074-0.235c-0.002-0.248,0.376-0.041,0.525-0.06  c0.212-0.028,0.151-0.157,0.58-0.073c0.215,0.043,0.174,0.34,0.439,0.316c0.215-0.019,0.34-0.295,0.521-0.107  c0.247,0.257-0.211,0.398-0.179,0.465c0.133,0.276,0.437,0.115,0.64,0.076c0.289-0.057,0.218,0.185,0.493,0.258  c0.093,0.024,0.452-0.36,0.653-0.13c0.07,0.08-0.141,0.293-0.239,0.334c-0.018,0.167,0.228,0.102,0.154,0.277  c-0.069,0.16-0.302,0.089-0.414,0.083c-0.122-0.005-0.358,0.02-0.327,0.16c0.046,0.208,0.595-0.162,0.595,0.124  c0,0.419,0.131,0.299,0.187,0.35c0.111,0.101-0.095,0.271,0.128,0.272c0.266,0.001,0.445-0.265,0.731-0.167  c0.069,0.023,0.215,0.101,0.135,0.182c-0.158,0.159-0.067,0.184,0.034,0.232c0.135,0.066,0.038,0.254,0.141,0.318  c0.331,0.21,0.938-0.106,1.323,0.119c0.121,0.071,0.321,0.28,0.26,0.434c-0.055,0.137-0.481,0.151-0.35,0.383  c0.093,0.164,0.389,0.037,0.436,0.263c0.032,0.157,0.213,0.022,0.335,0.193c0.052,0.073,0.039,0.188-0.041,0.2  c-0.182,0.029-0.095,0.123-0.099,0.186c-0.014,0.204-0.344,0.163-0.484,0.124c-0.054-0.015-0.182-0.099-0.209-0.043  c-0.078,0.16,0.128,0.23-0.113,0.325c-0.158,0.062-0.388-0.064-0.521-0.164c-0.092-0.069-0.35-0.307-0.38-0.138  c-0.038,0.212-0.328,0.161-0.424,0.137c-0.131-0.032-0.311-0.114-0.452-0.069c-0.087,0.026-0.285,0.171-0.154,0.256  c0.085,0.054,0.412-0.042,0.435,0.126c0.017,0.129-0.622,0.138-0.226,0.325c0.131,0.062,0.318-0.008,0.46,0.009  c0.108,0.013,0.388,0.062,0.228,0.346c-0.175,0.311,0.612,0.135,0.868-0.106c0.141-0.133,0.295-0.186,0.499-0.143  c0.274,0.058,0.26,0.207,0.068,0.37c0.22,0.252,0.713-0.111,1,0.112c0.56,0.437-0.373,0.361-0.416,0.689  c-0.021,0.165,0.514,0.245,0.408,0.441c-0.103,0.189-0.554,0.123-0.725,0.112c-0.114-0.007-0.77-0.05-0.506,0.231  c0.065,0.069,0.421,0.06,0.284,0.243c0.352,0.087,0.582,0.336,0.535,0.691c-0.025,0.183-0.238,0.263,0.047,0.347  c0.11,0.032,0.257-0.074,0.369-0.078c0.09-0.004,0.49,0.068,0.466-0.105c-0.011-0.083-0.183-0.076-0.226-0.149  c-0.116-0.197,0.924-0.105,0.611-0.509c-0.108-0.139-0.272-0.302-0.022-0.483c0.105-0.076,0.392,0.072,0.512,0.056  c0.258-0.034,0.362-0.32,0.586-0.367c0.265-0.056,0.341,0.486,0.529,0.387c0.321-0.17,0.609,0.197,0.347,0.309  c-0.404,0.173-0.117,0.456-0.026,0.504c0.203,0.108,0.629-0.112,0.749,0.147c0.088,0.189-0.209,0.156-0.299,0.27  c0.438,0.397,1.232-0.086,1.657,0.478c-0.11,0.184-0.389,0.112-0.487,0.24c-0.152,0.199,0.274,0.219,0.377,0.27  c0.307,0.15-0.045,0.28,0.239,0.326c0.254,0.041,0.758,0.234,0.445,0.453c-0.058,0.04-0.819-0.001-0.869,0.119  c-0.081,0.194,0.395,0.177,0.556,0.277c0.133,0.082,0.027,0.253,0.277,0.294c0.199,0.031,0.703-0.237,0.817,0.04  c0.052,0.125-0.055,0.077-0.076,0.167c-0.06,0.256,0.369,0.203,0.481,0.305c0.305,0.276-0.1,0.201-0.067,0.423  c0.034,0.226,0.742,0.219,0.889,0.356c0.253,0.237,0.006,0.525-0.29,0.358c-0.432,0.496-0.881-0.536-1.274-0.239  c-0.255,0.194,0.349,0.39,0.329,0.595c-0.03,0.301-0.447,0.067-0.591,0.067c-0.074-0.001-0.131,0.033-0.19,0.059  c0.004,0.021,0.013,0.041,0.031,0.062c0.044,0.05,0.762,0.033,0.806,0.402c0.034,0.287-0.691,0.353-0.715,0.486  c-0.036,0.196,0.258,0.258,0.393,0.27c0.15,0.014,0.418-0.11,0.512,0.053c0.081,0.138-0.169,0.271-0.297,0.312  c-0.155,0.482,2.265,0.215,2.55,0.721c0.124,0.221-0.111,0.477-0.35,0.506c0.296,0.254-0.394,0.584-0.667,0.527  c-0.448-0.09-0.692,0.014-0.965,0.336c-0.592,0.693,1.028,0.201,0.777,0.75c-0.184,0.402,0.599,0.369,0.214,0.777  c0.154,0.404,1.234,0.004,1.457,0.039c0.374,0.061,0.226,0.203,0.291,0.293c0.048,0.066,0.121,0.076,0.198,0.084  c0.348,0.031,0.958-0.184,0.973,0.309c0.012,0.393-0.736,0.477-0.901,0.682c0.429,0.418-0.287,0.402-0.568,0.42  c-0.142,0.008-0.519,0.08-0.401,0.242c0.114,0.156,0.677,0.217,0.147,0.568c-0.036,0.248,0.405,0.199,0.545,0.25  c0.231,0.08,0.697,0.293,0.313,0.496c-0.348,0.186-0.71-0.016-1.122,0.031c-0.13,0.016-0.24-0.094-0.382-0.088  c-0.346,0.018-0.376,0.387-0.746,0.402c-0.166,0.006-0.472-0.068-0.513,0.115c-0.061,0.277-0.265,0.24-0.299,0.316  c-0.073,0.166,0.555,0.057,0.6,0.291c0.049,0.25-0.446,0.291-0.611,0.322c-0.315,0.061-0.724,0.082-0.989,0.281  c-0.484,0.363,0.681,0.287,0.441,0.693c-0.055,0.092-0.106,0.113-0.208,0.154c-0.122,0.049-0.196,0.098-0.3,0.16  c-0.198,0.119-0.231,0.004-0.407-0.057c-0.184-0.064-0.204,0.021-0.29,0.146c-0.273,0.4-0.738,0.076-0.915,0.076  c-0.169-0.002-0.145,0.129-0.21,0.23c-0.132,0.213-0.727,0.234-0.904,0.193c-0.195-0.045-0.329-0.141-0.544-0.086  c-0.222,0.059-0.306,0.123-0.544,0.064c-0.194-0.047-0.421-0.148-0.317-0.387c0.043-0.094-0.447-0.055-0.467-0.051  c-0.194,0.025-0.866-0.006-0.705-0.281c0.093-0.158,0.357-0.119,0.249-0.371c-0.078-0.182-0.232-0.125-0.396-0.094  c-0.258,0.051-0.604,0.184-0.848,0.018c-0.224-0.152-0.057-0.398,0.132-0.484c0.089-0.041,0.264-0.066,0.413-0.104  c-0.999-0.373-1.373-1.223-2.292-0.814c-0.699,0.309-1.205,1.037-2.356,1.592c-0.95,0.459-1.3,0.303-1.681,1.104  c-0.795,1.66-1.896,3.688-1.888,5.588c0.018,4.477,0.53,5.668,2.51,7.463c11.608-1.91,20.458-11.873,20.458-23.883  C51.698,13.732,40.722,2.889,27.182,2.889 M22.96,29.281c-0.22,0.012-0.705,0.197-0.388,0.438c0.121,0.092,0.375,0.023,0.438,0.16  c0.185,0.404-0.442,0.352-0.465,0.463c-0.029,0.146,0.169,0.174,0.264,0.199c0.114,0.031,0.372,0.107,0.397,0.25  c0.024,0.135-0.17,0.215-0.043,0.361c0.065,0.074,0.675,0.068,0.599,0.43c-0.012,0.063-0.084,0.094-0.177,0.117  c0.92,0.197,1.937,0.391,2.289,0.607c-0.304-0.99-0.986-1.332-1.906-2.223c-0.178-0.172-0.379-0.438-0.586-0.719  C23.189,29.322,23.026,29.277,22.96,29.281 M25.296,27.554c0.109,0.049,0.221,0.109,0.339,0.193c0.026-0.287-0.045-0.61-0.174-0.929  c-0.194,0.005-0.361,0.073-0.393,0.309C25.047,27.286,25.293,27.398,25.296,27.554 M34.244,26.733  c-0.227-0.158-0.261-0.484-0.455-0.725c-0.077,0.143-0.167,0.284-0.276,0.426c-0.271,0.351-0.692,0.608-1.133,0.848  c0,0-0.001,0.011-0.005,0.031c0.087,0.03,0.174,0.058,0.257,0.052c0.154-0.012,0.154-0.067,0.239-0.169  c0.173-0.208,0.422-0.227,0.67-0.201c0.083,0.008,0.289-0.013,0.303,0.111c0.01,0.085-0.127,0.126-0.171,0.184  c0.143,0.238,0.448,0.128,0.683,0.179c0.024,0.006,0.045,0.012,0.065,0.018c0.189-0.163,0.374-0.33,0.548-0.505  c-0.16-0.078-0.286-0.213-0.467-0.183C34.382,26.817,34.35,26.807,34.244,26.733 M28.77,39.654c0.904-0.979,1.024-2.076,1.466-2.494  c0.314-0.299,0.824-0.439,1.145-0.76c1.02-1.014,1.609-2.66,1.547-3.232c-0.087-0.799-0.313-1.418-0.487-1.953  c-0.133,0.063-0.249,0.119-0.406,0.088c-0.087-0.018-0.282-0.096-0.27-0.211c0.011-0.117,0.351-0.199,0.179-0.334  c-0.148-0.115-0.53,0.094-0.615-0.125c-0.067-0.172,0.245-0.25,0.358-0.293c0.064-0.025,0.244-0.025,0.276-0.098  c0.063-0.143-0.289-0.189-0.065-0.367c0.067-0.055,0.335-0.07,0.329-0.205c-0.004-0.082-0.391-0.279-0.446-0.242  c-0.113,0.078,0.132,0.229-0.094,0.271c-0.131,0.025-0.276-0.055-0.419-0.025c-0.297,0.059-0.054,0.119,0.044,0.201  c0.126,0.109,0.051,0.207-0.11,0.248c-0.14,0.033-0.302-0.035-0.445-0.049c-0.033-0.004-0.065-0.006-0.097-0.008  c-0.289,0.748-0.534,1.539-1.147,2.033c0,0,0.1,1.467-0.181,2.465c-0.316,1.125-0.502,1.836-0.522,2.635  C28.787,38.091,28.683,38.759,28.77,39.654 M30.715,22.852c-0.057-0.023-0.12-0.035-0.192-0.026  c-0.069,0.009-0.195-0.01-0.227-0.088c-0.039-0.093,0.115-0.161,0.082-0.259c-0.041-0.12-0.265-0.213-0.36-0.159  c-0.17,0.095-0.323,0.114-0.453,0.111c0.016,0.354,0.013,0.677-0.047,0.936C30.056,23.254,30.433,23.082,30.715,22.852   M28.773,28.839c0.029,0.5,0.008,2.041,0.437,2.396c0.495,0.41,0.93-0.605,1.199-1.318c-0.006-0.004-0.011-0.006-0.017-0.01  c-0.134-0.059-0.34,0.027-0.364-0.18c-0.019-0.152,0.124-0.201-0.104-0.271c-0.152-0.047-0.321,0.014-0.454-0.08  c-0.136-0.098-0.131-0.24,0.002-0.34c0.419-0.313-0.26-0.125-0.286-0.416c-0.023-0.248,0.486-0.395,0.674-0.389  c0.137,0.006,0.284,0.055,0.418,0.006c0.163-0.063,0.121-0.17,0.213-0.271c0.148-0.164,0.433,0.004,0.292-0.275  c-0.211-0.418,0.805-0.102,0.895-0.096c0.256,0.02,0.1-0.23,0.289-0.322c0.038-0.019,0.076-0.027,0.116-0.029  c0.045-0.292-0.195-0.535-0.413-0.886c0.06,0.178-0.302,0.172-0.377,0.318c-0.087,0.17,0.152,0.205,0.004,0.374  c-0.092,0.105-0.317,0.082-0.443,0.078c-0.301-0.011-0.608-0.184-0.889,0.037c0.265,0.172,0.166,0.319-0.096,0.393  c-0.176,0.051-0.658-0.078-0.764,0.203c-0.039,0.105,0.009,0.193-0.098,0.27c-0.062,0.043-0.15,0.068-0.241,0.084  C28.76,28.384,28.762,28.63,28.773,28.839 M29.135,23.301c0.053-0.301,0.085-0.604,0.086-0.896  c-0.032,0.003-0.061,0.012-0.084,0.031c-0.199,0.16,0.085,0.193,0.026,0.441c-0.016,0.066-0.149,0.117-0.155,0.172  C28.991,23.201,29.062,23.224,29.135,23.301 M40.184,32.574c-0.008-0.072-0.04-0.119-0.083-0.154  c-0.107-0.041-0.212-0.086-0.314-0.133c-0.007-0.004-0.013-0.006-0.019-0.01c-0.734-0.346-1.32-0.848-1.236-1.424  c-3.194-0.061-2.434,0.557-3.556,1.936c-0.763,0.938-1.325,0.418-2.65,3.559c1.967-0.904,2.269-2.361,4.468-1.932  c0.287,0.055,0.549,0.094,0.79,0.119c-0.076-0.061-0.13-0.133-0.052-0.215c0.076-0.08,0.291-0.047,0.365-0.16  c0.193-0.293-0.658-0.236-0.79-0.311c-0.309-0.174-0.028-0.387,0.162-0.508c0.101-0.064,0.218-0.16,0.334-0.189  c0.122-0.031,0.664,0.105,0.729-0.031c0.046-0.098-0.302-0.174-0.304-0.307c-0.003-0.4,1.135-0.102,1.264-0.133  c0.231-0.057,0.332,0.127,0.545,0.162C40.005,32.871,40.208,32.763,40.184,32.574 M34.098,31.226  c-0.182-0.002-0.467,0.299-1.157,0.016c-0.055-0.023-0.108-0.043-0.162-0.059c0.191,0.688,0.493,1.422,0.53,2.264  c1.656-0.654,2.439-2.391,2.607-3.039c-0.025-0.107-0.073-0.176-0.179-0.234c-0.239-0.133-0.542-0.014-0.747-0.232  c-0.085-0.092-0.116-0.188-0.061-0.303c0.015-0.029,0.051-0.078,0.083-0.135c-0.151-0.035-0.301-0.07-0.45-0.035  c-0.155,0.037-0.458,0.342-0.347,0.5c0.105,0.152,0.457,0.164,0.625,0.18c0.172,0.016,0.464-0.057,0.508,0.135  c0.08,0.354-0.533,0.236-0.538,0.438c-0.004,0.162,0.057,0.117,0.111,0.256C35.037,31.279,34.27,31.226,34.098,31.226   M40.503,31.529c0.032,0.004,0.069,0.008,0.107,0.012c-0.075-0.172-0.148-0.348-0.345-0.402c-0.093-0.023-0.529-0.088-0.551,0.059  c-0.012,0.076,0.157,0.084,0.139,0.18c-0.019,0.092-0.19,0.086-0.258,0.09c-0.201,0.012-0.423,0.006-0.598-0.104  c0.159,0.221,0.403,0.412,0.686,0.578c0.03-0.021,0.065-0.041,0.104-0.057c0.187-0.072,0.157-0.102,0.26-0.242  C40.162,31.488,40.335,31.513,40.503,31.529 M41.632,23.936c-0.033-0.092-0.098-0.229-0.158-0.292  c-0.192-0.198-0.643-0.493-0.733-0.215c-0.07,0.217-0.392,0.257-0.607-0.024c-0.061-0.08-0.127-0.13-0.194-0.161  c-0.834,0.366-1.032,1.041-0.976,1.168c0.059,0.132,0.683,0.085,1.263-0.007c-0.022-0.007-0.041-0.015-0.057-0.021  c-0.137-0.06-0.311,0.021-0.447-0.035c-0.35-0.146-0.096-0.588,0.151-0.486c0.325,0.133,0.75-0.036,0.917,0.143  C41.062,24.295,41.725,24.196,41.632,23.936 M37.566,23.147c0-0.379-1.687-0.419-1.8-0.169c-0.128,0.281,0.71,0.292,0.997,0.352  c0.11,0.024,0.474-0.005,0.453,0.187c-0.016,0.15-0.3,0.055-0.397,0.209c0.228,0.246,0.455,0.269,0.757,0.269  c0.043,0,0.117-0.001,0.203,0.002c0.097-0.118,0.177-0.242,0.239-0.389c0.048-0.114,0.096-0.222,0.151-0.325  C38.032,23.194,37.566,23.312,37.566,23.147 M36.499,30.673c0.458,0.014,1.188-0.064,1.934-0.129  c-0.119-0.096-0.267-0.184-0.355-0.154c-0.069,0.023-0.159,0.223-0.455,0.088c-0.146-0.066-0.249-0.146-0.422-0.164  c-0.264-0.027-0.266,0.17-0.468,0.256C36.672,30.595,36.59,30.638,36.499,30.673"/>
</svg>