<svg fill="none" height="88" viewBox="0 0 529 88" width="529" xmlns="http://www.w3.org/2000/svg" xmlns:xlink="http://www.w3.org/1999/xlink"><clipPath id="a"><path d="m0 0h528.223v88h-528.223z"/></clipPath><g clip-path="url(#a)"><g fill="#000"><path d="m313.341 86.0707 7.327-39.0631c.918-4.9012 1.604-9.25 2.063-12.6141h3.135l-1.145 7.4143h.151c3.289-4.9681 7.876-8.1784 12.768-8.1784 6.958 0 9.555 5.9617 9.555 11.9257 0 12.3846-8.486 26.2886-20.182 26.2886-3.593 0-5.964-.8399-7.338-1.6041h-.154l-2.896 15.8178zm6.879-19.1884c1.682 1.2988 4.129 2.063 7.11 2.063 9.709 0 16.437-13.7592 16.437-23.1697 0-4.3576-1.682-9.1743-7.109-9.1743-5.2 0-12.004 6.5744-14.067 17.6602z"/><path d="m372.5 71.0862c-.078-2.2167.381-5.6565.916-9.8604h-.147c-4.206 8.1027-8.869 10.6246-13.686 10.6246-5.569 0-8.944-4.5871-8.944-11.1615 0-12.4604 8.944-27.0617 23.169-27.0617 2.6 0 5.505.4589 7.414 1.0694l-3.898 19.8011c-1.299 6.8038-1.758 12.6987-1.604 16.5885zm4.902-33.9435c-.843-.3052-2.141-.5346-4.436-.5346-10.549 0-18.805 11.7741-18.881 23.3166-.078 4.7409 1.299 9.0206 6.267 9.0206 5.964 0 12.699-8.9426 14.45-18.4243z"/><path d="m384.348 71.0862 4.665-24.6934c.916-4.6629 1.453-8.7911 1.758-12.0015h3.057c-.306 2.3705-.611 4.8167-1.07 7.9512h.154c2.292-4.9012 5.886-8.7153 10.471-8.7153.463.0045.924.0552 1.377.1515l-.613 3.442c-.425-.0989-.862-.1504-1.299-.1537-4.816 0-10.168 7.2628-11.698 15.3721l-3.44 18.6538z"/><path d="m418.673 26.2885-1.604 8.1049h8.637l-.61 2.8293h-8.64l-4.052 21.8641c-.457 2.4507-.764 4.3577-.764 6.345 0 2.1409.993 3.4398 3.288 3.4398 1.223 0 1.987-.0758 2.673-.3053l.223 2.6735c-1.165.3493-2.377.5293-3.593.5347-4.358 0-6.04-2.8963-6.04-5.9618 0-1.9894.223-3.9009.842-6.7281l4.128-21.8641h-5.275l.534-2.8294h5.347l1.223-6.5743z"/><path d="m424.864 71.0862 4.902-25.9165c.741-3.5619 1.303-7.1594 1.682-10.7784h3.056l-1 7.4923h.154c3.21-5.3468 7.797-8.2564 12.765-8.2564 3.594 0 8.181 2.2925 8.181 9.25 0 1.8335-.305 3.6693-.689 5.6565l-4.204 22.5525h-3.288l4.282-22.5525c.341-1.7624.519-3.5521.535-5.3468 0-3.823-1.529-6.5744-6.04-6.5744-4.901 0-11.772 6.1155-13.367 14.9845l-3.594 19.4937z"/><path d="m481.513 69.0232c-1.911 1.2231-5.429 2.7514-10.014 2.7514-8.564 0-11.544-6.7281-11.544-13.7614 0-10.5488 7.338-24.386 17.889-24.386 6.04 0 8.562 3.9745 8.562 8.0202 0 9.3258-10.694 11.9257-22.706 11.85-.381 1.682-.446 6.4986.307 9.0963 1.299 4.2062 4.128 6.1934 8.02 6.1934 4.05 0 6.804-1.4526 8.486-2.4506zm-4.281-32.4151c-5.657 0-10.779 6.1154-12.995 13.9908 9.555.0758 18.729-1.5305 18.729-8.7933 0-3.4398-2.295-5.1975-5.734-5.1975z"/><path d="m488.24 71.0862 4.665-24.6934c.918-4.6629 1.452-8.7911 1.758-12.0015h3.058c-.307 2.3705-.612 4.8167-1.071 7.9512h.154c2.292-4.9012 5.886-8.7153 10.47-8.7153.464.0045.925.0552 1.377.1515l-.612 3.442c-.426-.0989-.863-.1504-1.299-.1537-4.817 0-10.168 7.2628-11.696 15.3721l-3.442 18.6538z"/><path d="m507.124 66.8063c1.933 1.2679 4.188 1.9572 6.498 1.9873 4.817 0 8.02-3.4398 8.02-7.5747 0-3.6715-1.528-5.8882-4.968-8.1049-3.593-2.3704-5.583-5.6565-5.583-9.0206 0-5.7344 4.588-10.4708 11.01-10.4708 2.522 0 5.047.8399 6.116 1.682l-1.225 2.8316c-1.148-.6884-3.135-1.5283-5.276-1.5283-4.433 0-7.338 3.0588-7.338 6.8796 0 3.442 1.911 5.3468 4.97 7.3519 3.515 2.3704 5.656 5.7322 5.656 9.4037 0 7.4143-5.427 11.5425-11.696 11.5425-3.288 0-6.193-1.2231-7.416-2.2167z"/></g><path d="m66.428 16.5217c-.0287-.1847-.1185-.3544-.2551-.482-.1365-.1277-.3119-.2058-.4979-.222-.3119-.0246-6.4206-.1181-6.4206-.1181s-5.1085-4.957-5.612-5.4516c-.5035-.49455-1.4904-.34974-1.8736-.2383l-2.5665.7953c-.3166-1.04148-.7274-2.05192-1.2275-3.01874-1.8202-3.46876-4.4824-5.30674-7.6995-5.31119h-.0111c-.2228 0-.4456.02228-.6684.04233-.0935-.11362-.1893-.22279-.2918-.3364-1.3991-1.49934-3.1992-2.2278476-5.3468-2.1654679-4.1639.1069369-8.301 3.1033879-11.6584 8.4502179-2.366 3.74275-4.1483 8.46585-4.6674 12.10395l-8.18507 2.5352c-2.4083.7553-2.48404.831-2.8004 3.1012-.23838 1.7177-6.54095 50.4608-6.54095 50.4608l52.82672 9.1341 22.8956-5.6899s-9.3324-63.155-9.3993-63.5894zm-19.8724-4.9013-4.0992 1.2676c-.0312-2.1031-.2807-5.03268-1.2632-7.56351 3.1546.5926 4.7075 4.15939 5.3624 6.28921zm-6.8617 2.1231-8.8201 2.7247c.8533-3.2638 2.4685-6.51425 4.4557-8.64184.8335-.92953 1.8538-1.67271 2.9942-2.18106 1.1474 2.39716 1.3969 5.7969 1.3702 8.0915zm-5.6632-10.97436c.8809-.0462 1.7544.18271 2.4996.65499-1.2124.64817-2.3049 1.49885-3.2303 2.51524-2.64 2.8316-4.6629 7.22933-5.4694 11.47123l-7.2294 2.2434c1.4169-6.6791 7.0133-16.69994 13.4295-16.88486z" fill="#95bf47"/><path d="m65.6751 15.8176c-.3119-.0245-6.4206-.118-6.4206-.118s-5.1085-4.957-5.612-5.4516c-.1953-.1818-.4435-.29657-.7084-.32747v75.88047l22.8933-5.6899s-9.3324-63.155-9.3992-63.5895c-.0288-.1846-.1186-.3543-.2551-.4819-.1366-.1277-.3119-.2058-.498-.2221z" fill="#5e8e3e"/><path d="m40.2444 27.5963-2.66 9.9474c-2.0514-.8497-4.2652-1.2354-6.4831-1.1296-5.153.3253-5.2109 3.578-5.153 4.3933.2807 4.4557 11.9859 5.4204 12.6431 15.8423.5191 8.1984-4.3488 13.8126-11.3621 14.2582-8.4145.5302-13.0462-4.4334-13.0462-4.4334l1.7823-7.5747s4.6584 3.4977 8.39 3.2571c2.4373-.1537 3.3106-2.1365 3.2215-3.5378-.3676-5.7924-9.8983-5.4627-10.4998-14.9979-.5057-8.0202 4.7631-16.1563 16.3924-16.8915 4.4802-.2785 6.7749.8666 6.7749.8666z" fill="#fff"/><path d="m106.847 48.8232c-2.653-1.4392-4.01-2.6533-4.01-4.322 0-2.1231 1.896-3.4866 4.855-3.4866 3.444 0 6.521 1.4392 6.521 1.4392l2.408-7.4299s-2.228-1.7444-8.796-1.7444c-9.1337 0-15.4697 5.231-15.4697 12.5874 0 4.1705 2.9586 7.3519 6.9064 9.6287 3.1833 1.8202 4.3223 3.119 4.3223 5.006 0 1.9717-1.593 3.5646-4.5496 3.5646-4.4067 0-8.5683-2.2747-8.5683-2.2747l-2.5843 7.4299s3.8453 2.5776 10.3127 2.5776c9.4035 0 16.1515-4.625 16.1515-12.966.009-4.4736-3.404-7.6594-7.499-10.0098z" fill="#000"/><path d="m144.307 33.1949c-4.625 0-8.265 2.1989-11.07 5.534l-.154-.0735 4.01-21.0042h-10.446l-10.161 53.4684h10.471l3.486-18.2684c1.366-6.9063 4.931-11.1392 8.266-11.1392 2.35 0 3.261 1.5929 3.261 3.8675 0 1.5529-.154 3.1021-.457 4.6251l-3.949 20.9128h10.47l4.093-21.6102c.453-2.2488.707-4.533.76-6.8261-.011-5.9216-3.122-9.4862-8.58-9.4862z" fill="#000"/><path d="m176.533 33.1949c-12.587 0-20.924 11.3821-20.924 24.0452 0 8.1138 5.004 14.6347 14.408 14.6347 12.36 0 20.699-11.0701 20.699-24.0362-.005-7.5145-4.402-14.6437-14.183-14.6437zm-5.155 30.633c-3.564 0-5.082-3.0321-5.082-6.8239 0-5.9907 3.119-15.771 8.796-15.771 3.716 0 4.928 3.1836 4.928 6.2937 0 6.4541-3.108 16.3101-8.642 16.3101z" fill="#000"/><path d="m217.478 33.1949c-7.064 0-11.074 6.238-11.074 6.238h-.152l.606-5.6119h-9.246c-.445 3.7873-1.289 9.5552-2.123 13.8772l-7.278 38.2789h10.471l2.88-15.4679h.223s2.148 1.3656 6.142 1.3656c12.285 0 20.321-12.5873 20.321-25.3261-.011-7.0512-3.11-13.3538-10.77-13.3538zm-10.007 30.7934c-1.575.0231-3.107-.5138-4.322-1.515l1.744-9.7825c1.212-6.5209 4.625-10.8429 8.263-10.8429 3.186 0 4.171 2.9564 4.171 5.7635-.007 6.7481-4.017 16.3769-9.856 16.3769z" fill="#000"/><path d="m243.183 18.1902c-.793-.0025-1.579.1534-2.312.4583-.733.305-1.397.753-1.956 1.3178-.557.5649-.996 1.2353-1.293 1.9719-.294.7367-.441 1.5249-.427 2.3184 0 3.119 1.971 5.231 4.928 5.231h.151c3.262 0 6.067-2.1989 6.142-6.0664 0-3.0321-2.047-5.231-5.233-5.231z" fill="#000"/><path d="m228.551 71.1173h10.464l7.127-37.0803h-10.54z" fill="#000"/><path d="m272.755 33.9612h-7.278l.379-1.7422c.606-3.5645 2.729-6.7503 6.218-6.7503 1.134.0017 2.263.1815 3.341.5324l2.041-8.1784s-1.82-.9112-5.688-.9112c-3.713 0-7.43 1.0627-10.234 3.4888-3.565 3.0321-5.234 7.4299-6.067 11.8299l-.303 1.7422h-4.852l-1.517 7.8865h4.852l-5.536 29.2695h10.471l5.523-29.2806h7.202z" fill="#000"/><path d="m297.93 34.037s-6.541 16.4861-9.479 25.4777h-.149c-.203-2.8962-2.58-25.4777-2.58-25.4777h-10.995l6.294 34.046c.152.7574.076 1.2141-.223 1.7444-1.214 2.3503-3.261 4.625-5.688 6.2936-1.971 1.4415-4.17 2.3504-5.912 2.9564l2.88 8.8735c2.124-.4456 6.521-2.2011 10.249-5.6877 4.776-4.4735 9.174-11.3754 13.723-20.7769l12.815-27.4493z" fill="#000"/></g></svg>