<svg width="125" height="125" viewBox="0 0 125 125" fill="none" xmlns="http://www.w3.org/2000/svg">
<circle cx="63" cy="62" r="58" fill="black"/>
<path d="M17.3483 62.227C17.3483 80.3875 27.9022 96.0817 43.2061 103.519L21.3205 43.5549C18.7748 49.261 17.3483 55.5755 17.3483 62.227Z" fill="white"/>
<path d="M94.2016 59.9117C94.2016 54.2415 92.1648 50.3147 90.4179 47.2583C88.0922 43.479 85.9123 40.2785 85.9123 36.4992C85.9123 32.2817 89.111 28.3557 93.6167 28.3557C93.8201 28.3557 94.013 28.381 94.2112 28.3924C86.0485 20.9141 75.1733 16.3483 63.2287 16.3483C47.2002 16.3483 33.0983 24.5721 24.8946 37.0283C25.971 37.0606 26.9855 37.0833 27.8471 37.0833C32.6461 37.0833 40.0746 36.501 40.0746 36.501C42.5479 36.3552 42.8394 39.9878 40.3688 40.2802C40.3688 40.2802 37.8833 40.5727 35.1176 40.7176L51.8254 90.414L61.866 60.3011L54.7177 40.7159C52.2471 40.571 49.9065 40.2785 49.9065 40.2785C47.4341 40.1336 47.724 36.3534 50.1964 36.4992C50.1964 36.4992 57.7733 37.0815 62.2815 37.0815C67.0796 37.0815 74.509 36.4992 74.509 36.4992C76.984 36.3534 77.2747 39.986 74.8032 40.2785C74.8032 40.2785 72.3125 40.571 69.552 40.7159L86.1323 90.036L90.7087 74.7434C92.6921 68.3975 94.2016 63.8394 94.2016 59.9117Z" fill="white"/>
<path d="M64.0337 66.2402L50.2679 106.241C54.3781 107.449 58.7248 108.11 63.2287 108.11C68.5716 108.11 73.6953 107.186 78.4646 105.509C78.3415 105.313 78.2298 105.104 78.1381 104.877L64.0337 66.2402Z" fill="white"/>
<path d="M103.487 40.2148C103.684 41.6762 103.796 43.245 103.796 44.9325C103.796 49.5883 102.927 54.8221 100.307 61.3662L86.2929 101.885C99.9329 93.9314 109.107 79.1539 109.107 62.2279C109.108 54.2511 107.071 46.7502 103.487 40.2148Z" fill="white"/>
<path d="M63.2287 8.74603C33.7391 8.74603 9.74603 32.7374 9.74603 62.227C9.74603 91.7201 33.7391 115.711 63.2287 115.711C92.7175 115.711 116.714 91.7201 116.714 62.227C116.713 32.7374 92.7175 8.74603 63.2287 8.74603ZM63.2287 113.259C35.0914 113.259 12.1983 90.366 12.1983 62.227C12.1983 34.0897 35.0906 11.1983 63.2287 11.1983C91.3652 11.1983 114.257 34.0897 114.257 62.227C114.257 90.366 91.3652 113.259 63.2287 113.259Z" fill="white"/>
</svg>
