<?xml version="1.0" encoding="UTF-8"?>
<svg width="191px" height="25px" viewBox="0 0 191 25" version="1.1" xmlns="http://www.w3.org/2000/svg" xmlns:xlink="http://www.w3.org/1999/xlink">
    <!-- Generator: Sketch 54.1 (76490) - https://sketchapp.com -->
    <title>WZ_Logo</title>
    <desc>Created with Sketch.</desc>
    <g id="Page-1" stroke="none" stroke-width="1" fill="none" fill-rule="evenodd">
        <g id="WY_HP_" transform="translate(-75.000000, -37.000000)" fill-rule="nonzero">
            <g id="Navigation" transform="translate(75.000000, 30.250000)">
                <g id="WZ_Logo" transform="translate(0.000000, 7.000000)">
                    <g id="Logos/WY_mainLogo">
                        <path d="M62.4280034,5.87626127 L65.3370437,5.87626127 L61.671653,17.861507 L58.4135279,17.861507 L56.3771997,9.83255599 L54.2826908,17.861507 L51.0245657,17.861507 L47.359175,5.87626127 L50.4427577,5.87626127 L52.6536282,14.9524668 L54.8644988,5.87626127 L58.0644431,5.87626127 L60.2171329,14.9524668 L62.4280034,5.87626127 Z M70.8642201,18.0360495 C69.118796,18.0360495 67.7224567,17.4542414 66.6170214,16.3488061 C65.5115861,15.2433708 64.9879588,13.7306699 64.9879588,11.8688842 C64.9879588,10.0070984 65.5115861,8.55257829 66.6170214,7.3889622 C67.7224567,6.28352691 69.118796,5.70171886 70.9224009,5.70171886 C72.7260059,5.70171886 74.1223452,6.2253461 75.2277805,7.33078139 C76.3332158,8.43621668 76.9150238,9.8907368 76.9150238,11.6943417 C76.9150238,12.1016074 76.9150238,12.508873 76.856843,12.8579578 L68.1297223,12.8579578 C68.1879031,13.6143083 68.4788071,14.2542971 69.0024344,14.7197436 C69.5260616,15.18519 70.1660505,15.4179132 70.9224009,15.4179132 C71.9696554,15.4179132 72.7260059,15.0106476 73.2496331,14.1379355 L76.5077582,14.1379355 C76.1586733,15.3015516 75.5186845,16.2324445 74.47143,16.9306142 C73.4823563,17.6287838 72.2605594,18.0360495 70.8642201,18.0360495 Z M72.9005483,8.95984392 C72.376921,8.49439749 71.7369322,8.26167427 70.9224009,8.26167427 C70.1660505,8.26167427 69.5260616,8.49439749 69.0024344,8.95984392 C68.4788071,9.42529036 68.1879031,10.0652792 68.0715415,10.8798105 L73.7150795,10.8798105 C73.7150795,10.12346 73.4241755,9.48347117 72.9005483,8.95984392 Z M81.5694882,2.85085943 C81.5694882,3.37448667 81.3949458,3.78175231 81.0458609,4.18901794 C80.6967761,4.59628357 80.2313297,4.71264518 79.7658832,4.71264518 C79.242256,4.71264518 78.8349904,4.53810277 78.4859055,4.18901794 C78.1368207,3.83993311 77.9622783,3.37448667 77.9622783,2.85085943 C77.9622783,2.32723219 78.1368207,1.91996655 78.4859055,1.51270092 C78.8349904,1.16361609 79.3004368,0.98907368 79.7658832,0.98907368 C80.2895105,0.98907368 80.6967761,1.16361609 81.0458609,1.51270092 C81.336765,1.86178575 81.5694882,2.32723219 81.5694882,2.85085943 Z M78.1950015,17.861507 L78.1950015,5.87626127 L81.2204034,5.87626127 L81.2204034,17.861507 L78.1950015,17.861507 Z M91.2856826,5.87626127 L91.2856826,8.37803588 L86.2821334,15.3597324 L91.2856826,15.3597324 L91.2856826,17.861507 L82.7331043,17.861507 L82.7331043,15.3597324 L87.7948343,8.37803588 L82.7331043,8.37803588 L82.7331043,5.87626127 L91.2856826,5.87626127 Z M97.7437519,18.0360495 C95.9983277,18.0360495 94.6019884,17.4542414 93.4965531,16.3488061 C92.3911179,15.2433708 91.8674906,13.7306699 91.8674906,11.8688842 C91.8674906,10.0070984 92.3911179,8.55257829 93.4965531,7.3889622 C94.6019884,6.28352691 95.9983277,5.70171886 97.7437519,5.70171886 C99.489176,5.70171886 100.943696,6.2253461 102.049131,7.33078139 C103.154567,8.43621668 103.736375,9.8907368 103.736375,11.6943417 C103.736375,12.1016074 103.678194,12.508873 103.678194,12.8579578 L94.9510733,12.8579578 C95.0092541,13.6143083 95.3001581,14.2542971 95.8237853,14.7197436 C96.3474126,15.18519 96.9874014,15.4179132 97.7437519,15.4179132 C98.7910064,15.4179132 99.5473568,15.0106476 100.070984,14.1379355 L103.329109,14.1379355 C102.980024,15.3015516 102.340035,16.2324445 101.292781,16.9306142 C100.303707,17.6287838 99.1400912,18.0360495 97.7437519,18.0360495 Z M99.7218992,8.95984392 C99.198272,8.49439749 98.5582832,8.26167427 97.7437519,8.26167427 C96.9874014,8.26167427 96.3474126,8.49439749 95.8237853,8.95984392 C95.3001581,9.42529036 95.0092541,10.0652792 94.8928925,10.8798105 L100.536431,10.8798105 C100.536431,10.12346 100.245526,9.48347117 99.7218992,8.95984392 Z M108.099935,5.87626127 L108.099935,7.67986622 C108.856286,6.34170771 110.078082,5.70171886 111.823507,5.70171886 C113.219846,5.70171886 114.325281,6.1671653 115.197993,7.03987737 C116.070705,7.91258944 116.477971,9.19256714 116.477971,10.7634489 L116.477971,17.8033262 L113.452569,17.8033262 L113.452569,11.2288953 C113.452569,10.2980024 113.219846,9.59983277 112.754399,9.07620553 C112.288953,8.55257829 111.648964,8.31985507 110.834433,8.31985507 C110.019902,8.31985507 109.379913,8.55257829 108.856286,9.07620553 C108.390839,9.59983277 108.158116,10.2980024 108.158116,11.2288953 L108.158116,17.861507 L105.132714,17.861507 L105.132714,5.87626127 L108.099935,5.87626127 Z M125.845081,17.6287838 L121.132435,5.87626127 L124.565103,5.87626127 L127.590505,14.3706588 L130.790449,5.87626127 L133.990393,5.87626127 L126.54325,23.5050451 L123.343306,23.5050451 L125.845081,17.6287838 Z M135.095828,16.2906253 C133.932212,15.1270092 133.350404,13.6724891 133.350404,11.8107034 C133.350404,9.9489176 133.932212,8.49439749 135.095828,7.3889622 C136.259445,6.28352691 137.713965,5.70171886 139.51757,5.70171886 C141.321175,5.70171886 142.717514,6.28352691 143.939311,7.3889622 C145.102927,8.49439749 145.684735,10.0070984 145.684735,11.8107034 C145.684735,13.6724891 145.102927,15.1270092 143.88113,16.2906253 C142.717514,17.4542414 141.204813,17.9778687 139.459389,17.9778687 C137.713965,17.9778687 136.259445,17.4542414 135.095828,16.2906253 Z M139.51757,15.4179132 C140.390282,15.4179132 141.088451,15.1270092 141.72844,14.4870204 C142.368429,13.8470315 142.659333,12.9743194 142.659333,11.8107034 C142.659333,10.6470873 142.368429,9.77437519 141.72844,9.19256714 C141.146632,8.55257829 140.390282,8.26167427 139.51757,8.26167427 C138.644858,8.26167427 137.946688,8.55257829 137.36488,9.19256714 C136.783072,9.83255599 136.492168,10.7052681 136.492168,11.8688842 C136.492168,13.0325003 136.783072,13.9052123 137.36488,14.5452012 C137.946688,15.1270092 138.644858,15.4179132 139.51757,15.4179132 Z M155.226387,5.87626127 L158.251789,5.87626127 L158.251789,17.861507 L155.226387,17.861507 L155.226387,16.0579021 C154.470036,17.3960606 153.190059,18.0360495 151.502815,18.0360495 C150.164657,18.0360495 149.059222,17.570603 148.18651,16.6978909 C147.313797,15.8251789 146.906532,14.5452012 146.906532,12.9743194 L146.906532,5.87626127 L149.931934,5.87626127 L149.931934,12.4506922 C149.931934,13.3815851 150.164657,14.0797547 150.630103,14.603382 C151.09555,15.1270092 151.735539,15.3597324 152.55007,15.3597324 C153.364601,15.3597324 154.00459,15.1270092 154.528217,14.603382 C154.993664,14.0797547 155.226387,13.3815851 155.226387,12.4506922 L155.226387,5.87626127 Z M163.3717,5.87626127 L163.3717,7.67986622 C164.12805,6.34170771 165.349847,5.70171886 167.095271,5.70171886 C168.49161,5.70171886 169.597046,6.1671653 170.469758,7.03987737 C171.34247,7.91258944 171.749735,9.19256714 171.749735,10.7634489 L171.749735,17.8033262 L168.724334,17.8033262 L168.724334,11.2288953 C168.724334,10.2980024 168.49161,9.59983277 168.026164,9.07620553 C167.560718,8.55257829 166.920729,8.31985507 166.106197,8.31985507 C165.291666,8.31985507 164.651677,8.55257829 164.12805,9.07620553 C163.662604,9.59983277 163.42988,10.2980024 163.42988,11.2288953 L163.42988,17.861507 L160.404479,17.861507 L160.404479,5.87626127 L163.3717,5.87626127 Z M174.542414,16.2906253 C173.49516,15.1270092 172.913352,13.6724891 172.913352,11.8688842 C172.913352,10.0652792 173.436979,8.61075909 174.484233,7.447143 C175.531488,6.28352691 176.927827,5.70171886 178.55689,5.70171886 C180.185952,5.70171886 181.46593,6.39988852 182.338642,7.73804702 L182.338642,5.87626127 L185.364044,5.87626127 L185.364044,17.9196878 C185.364044,19.6069312 184.840417,21.0614513 183.851343,22.1087058 C182.862269,23.2141411 181.407749,23.7377683 179.604144,23.7377683 C177.800539,23.7377683 176.346019,23.3886835 175.240584,22.632333 C174.193329,21.8759826 173.55334,20.8287281 173.436979,19.4323888 L176.4042,19.4323888 C176.578742,19.956016 176.927827,20.3632816 177.509635,20.7123665 C178.033262,21.0032705 178.731432,21.1778129 179.545963,21.1778129 C180.360495,21.1778129 181.000483,20.8869089 181.582291,20.3632816 C182.105919,19.8396544 182.396823,19.0251231 182.396823,17.9778687 L182.396823,15.8833597 C181.46593,17.3378798 180.244133,18.0360495 178.61507,18.0360495 C176.986008,18.0360495 175.647849,17.4542414 174.542414,16.2906253 Z M181.407749,14.4288396 C182.047738,13.7888507 182.338642,12.9161386 182.338642,11.8688842 C182.338642,10.7634489 182.047738,9.8907368 181.407749,9.30892875 C180.76776,8.6689399 180.01141,8.37803588 179.196878,8.37803588 C178.382347,8.37803588 177.625997,8.6689399 176.986008,9.30892875 C176.346019,9.9489176 176.055115,10.7634489 176.055115,11.8688842 C176.055115,12.9743194 176.346019,13.8470315 176.986008,14.4870204 C177.625997,15.1270092 178.382347,15.4179132 179.196878,15.4179132 C180.069591,15.3597324 180.76776,15.0688284 181.407749,14.4288396 Z M190.483955,16.1160829 C190.483955,16.5815293 190.309412,16.988795 189.960327,17.3378798 C189.611242,17.6869646 189.203977,17.861507 188.73853,17.861507 C188.273084,17.861507 187.865818,17.6869646 187.516734,17.3378798 C187.167649,16.988795 186.993106,16.5815293 186.993106,16.1160829 C186.993106,15.6506365 187.167649,15.2433708 187.516734,14.894286 C187.865818,14.5452012 188.273084,14.3706588 188.73853,14.3706588 C189.203977,14.3706588 189.611242,14.5452012 189.960327,14.894286 C190.309412,15.18519 190.483955,15.6506365 190.483955,16.1160829 Z" id="Shape" fill="#ffffff"/>
                        <path d="M34.4430364,-1.0658141e-14 L23.3886835,21.8178018 L20.24692,21.8178018 L23.8541299,14.6615628 L16.4069869,-1.0658141e-14 L13.3234043,-1.0658141e-14 L13.3234043,-1.0658141e-14 L2.4435938,-1.0658141e-14 L2.4435938,-1.0658141e-14 L0.349084828,-1.0658141e-14 L9.54165197,18.2105919 L12.799777,11.8688842 L15.8251789,17.861507 L17.4542414,14.7197436 L17.3960606,14.6615628 L11.4034377,2.85085943 L14.603382,2.85085943 L20.5960049,14.6615628 L15.5342749,24.6686612 L25.1341076,24.6686612 L37.6429806,-1.0658141e-14 L34.4430364,-1.0658141e-14 Z M11.1707145,8.7271207 L9.59983277,11.8688842 L5.06173001,2.85085943 L8.26167427,2.85085943 L11.1707145,8.7271207 Z M22.2250674,5.29445323 L20.6541857,2.15268977 L21.759621,-7.10542736e-15 L24.9595652,-7.10542736e-15 L24.9595652,-7.10542736e-15 L31.3012729,-7.10542736e-15 L25.4831925,11.5197993 L23.9123107,8.37803588 L26.7049894,2.85085943 L23.5632259,2.85085943 L22.2250674,5.29445323 Z" id="Shape" fill="#ffffff"/>
                    </g>
                </g>
            </g>
        </g>
    </g>
</svg>