<?xml version="1.0" encoding="utf-8"?>
<!-- Generator: Adobe Illustrator 16.0.0, SVG Export Plug-In . SVG Version: 6.00 Build 0)  -->
<!DOCTYPE svg PUBLIC "-//W3C//DTD SVG 1.1//EN" "http://www.w3.org/Graphics/SVG/1.1/DTD/svg11.dtd">
<svg version="1.1" id="Layer_1" xmlns="http://www.w3.org/2000/svg" xmlns:xlink="http://www.w3.org/1999/xlink" x="0px" y="0px"
	 width="1280px" height="1280px" viewBox="0 0 1280 1280" enable-background="new 0 0 1280 1280" xml:space="preserve">
<path fill="#ffffff" d="M650,535h126v313h123V535h126V432H650V535z M549.81,605.018c-23.3-12.367-61.871-24.595-115.719-36.683
	c-21.757-4.718-35.538-9.817-41.338-15.296c-5.983-5.285-8.975-11.233-8.975-17.845c0-9.064,3.624-16.757,10.878-23.086
	c7.251-6.325,18.039-9.489,32.363-9.489c17.405,0,31.047,4.249,40.93,12.747c9.88,8.498,16.36,22.094,19.445,40.789l116.127-7.081
	c-5.078-43.056-20.988-74.449-47.729-94.185c-26.746-19.731-65.59-29.601-116.535-29.601c-41.521,0-74.201,5.431-98.041,16.288
	c-23.844,10.861-41.703,25.777-53.576,44.755c-11.877,18.979-17.813,39.139-17.813,60.477c0,32.482,11.602,59.201,34.811,80.163
	c23.023,20.961,61.551,37.771,115.582,50.42c32.996,7.555,54.027,15.579,63.094,24.077c9.064,8.497,13.599,18.128,13.599,28.892
	c0,11.331-4.759,21.294-14.278,29.885c-9.518,8.596-23.072,12.889-40.656,12.889c-23.572,0-41.703-8.4-54.393-25.211
	c-7.799-10.383-12.965-25.493-15.502-45.321l-117.214,7.647c3.442,41.923,18.221,76.48,44.329,103.674
	c26.108,27.192,73.064,40.789,140.875,40.789c38.617,0,70.616-5.807,96.001-17.42c25.382-11.613,45.145-28.653,59.286-51.129
	c14.143-22.471,21.213-47.021,21.213-73.647c0-22.66-5.302-43.148-15.908-61.468C590.06,632.732,573.104,617.388,549.81,605.018z
	 M1143.688,427.199c-27.535-65.102-66.946-123.56-117.137-173.75s-108.648-89.601-173.75-117.137
	C785.377,107.793,713.78,93.333,640,93.333c-73.779,0-145.377,14.46-212.801,42.979c-65.103,27.536-123.561,66.946-173.751,117.137
	s-89.601,108.648-117.137,173.75C107.793,494.624,93.333,566.22,93.333,640c0,73.78,14.46,145.377,42.979,212.802
	c27.536,65.102,66.946,123.56,117.137,173.75s108.648,89.602,173.751,117.137c67.424,28.519,139.021,42.979,212.801,42.979
	c73.78,0,145.377-14.46,212.802-42.979c65.102-27.535,123.56-66.946,173.75-117.137s89.602-108.648,117.137-173.75
	c28.519-67.425,42.979-139.021,42.979-212.802C1186.667,566.22,1172.207,494.624,1143.688,427.199z M405.891,216.341
	c1.603-0.84,3.579-1.875,5.902-3.092c1.167-0.598,2.403-1.291,3.759-1.938c1.355-0.651,2.795-1.343,4.316-2.074
	c3.047-1.458,6.417-3.094,10.134-4.767c3.722-1.659,7.778-3.383,12.106-5.266c4.354-1.806,9.04-3.595,13.964-5.558
	c4.952-1.875,10.215-3.687,15.691-5.666c2.766-0.896,5.59-1.811,8.469-2.743c2.886-0.911,5.809-1.917,8.828-2.767
	c6.026-1.75,12.259-3.591,18.738-5.205c12.918-3.414,26.729-6.293,41.102-8.836c3.601-0.586,7.229-1.207,10.894-1.768
	c3.661-0.591,7.373-1,11.095-1.512c7.441-1.078,15.023-1.723,22.658-2.464c7.653-0.536,15.332-1.233,23.178-1.442
	c3.901-0.152,7.858-0.353,11.651-0.373c3.872-0.06,7.748-0.121,11.624-0.181c15.583,0.127,31.166,0.708,46.452,2.01
	c7.635,0.739,15.214,1.403,22.656,2.471c3.723,0.513,7.434,0.921,11.095,1.511c3.658,0.596,7.291,1.188,10.893,1.774
	c14.373,2.542,28.183,5.424,41.1,8.84c6.479,1.613,12.714,3.447,18.737,5.204c3.02,0.85,5.942,1.854,8.829,2.764
	c2.878,0.933,5.702,1.848,8.469,2.744c5.475,1.978,10.74,3.784,15.69,5.663c4.924,1.961,9.611,3.746,13.965,5.554
	c4.329,1.878,8.385,3.604,12.107,5.261c3.72,1.671,7.101,3.312,10.149,4.768c1.523,0.73,2.964,1.422,4.32,2.073
	c1.356,0.648,2.584,1.335,3.75,1.932c2.32,1.214,4.293,2.247,5.894,3.084c3.188,1.705,3.188,1.705,3.188,1.705
	c0.936,0.5,0.867,0.666-0.15,0.368c0,0,0,0-3.47-1.014c-3.456-1.027-8.53-2.627-14.99-4.427c-3.237-0.894-6.768-1.99-10.661-3.052
	c-3.911-1.023-8.11-2.196-12.603-3.415c-4.508-1.143-9.306-2.359-14.363-3.642c-5.067-1.192-10.396-2.446-15.957-3.753
	c-11.162-2.402-23.229-4.979-36.082-7.158c-12.816-2.347-26.421-4.22-40.482-5.999c-3.521-0.392-7.073-0.787-10.65-1.185
	c-3.571-0.437-7.189-0.692-10.815-1.05c-1.814-0.167-3.635-0.335-5.46-0.504c-1.824-0.167-3.662-0.257-5.499-0.391
	c-3.674-0.267-7.366-0.536-11.073-0.805c-3.712-0.185-7.438-0.371-11.176-0.557c-1.868-0.096-3.739-0.198-5.616-0.226
	c-1.874-0.061-3.752-0.122-5.631-0.183c-7.513-0.333-15.066-0.281-22.614-0.371c-3.794,0.034-7.588,0.068-11.379,0.102
	c-3.872-0.008-7.563,0.16-11.298,0.277c-7.432,0.191-14.938,0.604-22.359,0.973c-3.707,0.272-7.398,0.543-11.072,0.813
	c-1.837,0.133-3.675,0.223-5.5,0.39c-1.825,0.168-3.645,0.336-5.459,0.503c-3.626,0.358-7.245,0.612-10.815,1.049
	c-3.571,0.433-7.126,0.799-10.65,1.191c-14.061,1.777-27.665,3.653-40.479,6.002c-12.852,2.176-24.919,4.753-36.081,7.154
	c-5.561,1.307-10.889,2.559-15.958,3.75c-5.058,1.281-9.855,2.496-14.364,3.638c-4.492,1.215-8.691,2.39-12.603,3.411
	c-3.897,1.061-7.438,2.161-10.678,3.054c-6.474,1.802-11.515,3.386-14.977,4.413c-3.472,1.013-3.472,1.013-3.472,1.013
	c-1.019,0.297-1.087,0.131-0.152-0.37C402.706,218.047,402.706,218.047,405.891,216.341z M874.109,1063.659
	c-1.603,0.839-3.578,1.875-5.901,3.092c-1.168,0.598-2.403,1.29-3.759,1.938c-1.355,0.651-2.795,1.343-4.316,2.073
	c-3.047,1.458-6.418,3.094-10.134,4.768c-3.722,1.659-7.778,3.383-12.106,5.266c-4.354,1.806-9.041,3.595-13.965,5.558
	c-4.951,1.875-10.215,3.687-15.69,5.666c-2.767,0.896-5.591,1.812-8.469,2.743c-2.886,0.91-5.809,1.916-8.828,2.767
	c-6.026,1.75-12.259,3.592-18.738,5.205c-12.919,3.413-26.729,6.294-41.103,8.836c-3.601,0.587-7.229,1.207-10.894,1.769
	c-3.661,0.591-7.372,0.999-11.096,1.512c-7.441,1.078-15.022,1.723-22.657,2.464c-15.194,1.304-31.166,1.876-46.33,1.995
	c-3.937-0.063-7.873-0.124-11.806-0.187c-3.893-0.021-7.777-0.223-11.655-0.374c-7.76-0.21-15.466-0.92-23.115-1.449
	c-7.634-0.738-15.214-1.402-22.656-2.471c-3.723-0.513-7.434-0.92-11.095-1.511c-3.659-0.596-7.291-1.188-10.893-1.774
	c-14.372-2.541-28.182-5.424-41.1-8.84c-6.479-1.613-12.713-3.447-18.737-5.203c-3.02-0.85-5.942-1.855-8.829-2.765
	c-2.878-0.933-5.702-1.847-8.468-2.743c-5.475-1.979-10.741-3.785-15.691-5.663c-4.924-1.962-9.611-3.745-13.964-5.554
	c-4.33-1.879-8.385-3.604-12.108-5.262c-3.72-1.671-7.101-3.312-10.149-4.768c-1.523-0.73-2.964-1.422-4.32-2.073
	c-1.357-0.648-2.584-1.335-3.75-1.932c-2.32-1.214-4.293-2.247-5.893-3.085c-3.188-1.704-3.188-1.704-3.188-1.704
	c-0.935-0.5-0.867-0.666,0.15-0.368c0,0,0,0,3.47,1.014c3.456,1.028,8.53,2.627,14.99,4.428c3.237,0.895,6.768,1.99,10.662,3.053
	c3.911,1.023,8.11,2.196,12.602,3.415c4.508,1.143,9.306,2.359,14.364,3.642c5.068,1.192,10.396,2.445,15.957,3.754
	c11.162,2.401,23.229,4.979,36.082,7.157c12.816,2.348,26.42,4.221,40.482,5.999c3.522,0.392,7.074,0.787,10.651,1.185
	c3.571,0.438,7.189,0.691,10.815,1.05c1.814,0.168,3.634,0.336,5.459,0.504c1.825,0.168,3.662,0.258,5.499,0.391
	c3.674,0.268,7.366,0.536,11.073,0.806c3.712,0.185,7.438,0.371,11.176,0.558c1.868,0.096,3.739,0.197,5.616,0.225
	c1.875,0.062,3.752,0.122,5.631,0.184c3.758,0.117,7.521,0.285,11.294,0.275c3.73,0.031,7.464,0.063,11.197,0.096
	c15.52-0.021,30.223-0.531,45.159-1.352c3.706-0.272,7.398-0.544,11.072-0.813c1.837-0.134,3.674-0.224,5.499-0.391
	c1.825-0.168,3.645-0.336,5.459-0.503c3.626-0.358,7.245-0.612,10.815-1.049c3.571-0.433,7.126-0.799,10.649-1.19
	c14.062-1.777,27.665-3.653,40.48-6.003c12.852-2.176,24.919-4.753,36.08-7.154c5.561-1.307,10.89-2.559,15.958-3.75
	c5.058-1.281,9.855-2.496,14.364-3.638c4.492-1.216,8.69-2.39,12.603-3.411c3.897-1.061,7.438-2.16,10.678-3.054
	c6.474-1.802,11.515-3.386,14.977-4.413c3.472-1.013,3.472-1.013,3.472-1.013c1.019-0.297,1.087-0.131,0.152,0.37
	C877.295,1061.953,877.295,1061.953,874.109,1063.659z M1016.808,955.295c-9.817,25.688-40.35,46.705-67.85,46.705H331.041
	c-27.5,0-58.032-21.018-67.85-46.705c0,0-79.858-208.958-79.858-315.295c0-105.882,79.169-314.26,79.169-314.26
	C272.269,300.033,302.76,279,330.26,279h619.479c27.5,0,57.991,21.033,67.758,46.74c0,0,79.17,208.378,79.17,314.26
	C1096.667,746.337,1016.808,955.295,1016.808,955.295z M1143.688,427.199c-27.535-65.102-66.946-123.56-117.137-173.75
	s-108.648-89.601-173.75-117.137C785.377,107.793,713.78,93.333,640,93.333c-73.779,0-145.377,14.46-212.801,42.979
	c-65.103,27.536-123.561,66.946-173.751,117.137s-89.601,108.648-117.137,173.75C107.793,494.624,93.333,566.22,93.333,640
	c0,73.78,14.46,145.377,42.979,212.802c27.536,65.102,66.946,123.56,117.137,173.75s108.648,89.602,173.751,117.137
	c67.424,28.519,139.021,42.979,212.801,42.979c73.78,0,145.377-14.46,212.802-42.979c65.102-27.535,123.56-66.946,173.75-117.137
	s89.602-108.648,117.137-173.75c28.519-67.425,42.979-139.021,42.979-212.802C1186.667,566.22,1172.207,494.624,1143.688,427.199z
	 M405.891,216.341c1.603-0.84,3.579-1.875,5.902-3.092c1.167-0.598,2.403-1.291,3.759-1.938c1.355-0.651,2.795-1.343,4.316-2.074
	c3.047-1.458,6.417-3.094,10.134-4.767c3.722-1.659,7.778-3.383,12.106-5.266c4.354-1.806,9.04-3.595,13.964-5.558
	c4.952-1.875,10.215-3.687,15.691-5.666c2.766-0.896,5.59-1.811,8.469-2.743c2.886-0.911,5.809-1.917,8.828-2.767
	c6.026-1.75,12.259-3.591,18.738-5.205c12.918-3.414,26.729-6.293,41.102-8.836c3.601-0.586,7.229-1.207,10.894-1.768
	c3.661-0.591,7.373-1,11.095-1.512c7.441-1.078,15.023-1.723,22.658-2.464c7.653-0.536,15.332-1.233,23.178-1.442
	c3.901-0.152,7.858-0.353,11.651-0.373c3.872-0.06,7.748-0.121,11.624-0.181c15.583,0.127,31.166,0.708,46.452,2.01
	c7.635,0.739,15.214,1.403,22.656,2.471c3.723,0.513,7.434,0.921,11.095,1.511c3.658,0.596,7.291,1.188,10.893,1.774
	c14.373,2.542,28.183,5.424,41.1,8.84c6.479,1.613,12.714,3.447,18.737,5.204c3.02,0.85,5.942,1.854,8.829,2.764
	c2.878,0.933,5.702,1.848,8.469,2.744c5.475,1.978,10.74,3.784,15.69,5.663c4.924,1.961,9.611,3.746,13.965,5.554
	c4.329,1.878,8.385,3.604,12.107,5.261c3.72,1.671,7.101,3.312,10.149,4.768c1.523,0.73,2.964,1.422,4.32,2.073
	c1.356,0.648,2.584,1.335,3.75,1.932c2.32,1.214,4.293,2.247,5.894,3.084c3.188,1.705,3.188,1.705,3.188,1.705
	c0.936,0.5,0.867,0.666-0.15,0.368c0,0,0,0-3.47-1.014c-3.456-1.027-8.53-2.627-14.99-4.427c-3.237-0.894-6.768-1.99-10.661-3.052
	c-3.911-1.023-8.11-2.196-12.603-3.415c-4.508-1.143-9.306-2.359-14.363-3.642c-5.067-1.192-10.396-2.446-15.957-3.753
	c-11.162-2.402-23.229-4.979-36.082-7.158c-12.816-2.347-26.421-4.22-40.482-5.999c-3.521-0.392-7.073-0.787-10.65-1.185
	c-3.571-0.437-7.189-0.692-10.815-1.05c-1.814-0.167-3.635-0.335-5.46-0.504c-1.824-0.167-3.662-0.257-5.499-0.391
	c-3.674-0.267-7.366-0.536-11.073-0.805c-3.712-0.185-7.438-0.371-11.176-0.557c-1.868-0.096-3.739-0.198-5.616-0.226
	c-1.874-0.061-3.752-0.122-5.631-0.183c-7.513-0.333-15.066-0.281-22.614-0.371c-3.794,0.034-7.588,0.068-11.379,0.102
	c-3.872-0.008-7.563,0.16-11.298,0.277c-7.432,0.191-14.938,0.604-22.359,0.973c-3.707,0.272-7.398,0.543-11.072,0.813
	c-1.837,0.133-3.675,0.223-5.5,0.39c-1.825,0.168-3.645,0.336-5.459,0.503c-3.626,0.358-7.245,0.612-10.815,1.049
	c-3.571,0.433-7.126,0.799-10.65,1.191c-14.061,1.777-27.665,3.653-40.479,6.002c-12.852,2.176-24.919,4.753-36.081,7.154
	c-5.561,1.307-10.889,2.559-15.958,3.75c-5.058,1.281-9.855,2.496-14.364,3.638c-4.492,1.215-8.691,2.39-12.603,3.411
	c-3.897,1.061-7.438,2.161-10.678,3.054c-6.474,1.802-11.515,3.386-14.977,4.413c-3.472,1.013-3.472,1.013-3.472,1.013
	c-1.019,0.297-1.087,0.131-0.152-0.37C402.706,218.047,402.706,218.047,405.891,216.341z M874.109,1063.659
	c-1.603,0.839-3.578,1.875-5.901,3.092c-1.168,0.598-2.403,1.29-3.759,1.938c-1.355,0.651-2.795,1.343-4.316,2.073
	c-3.047,1.458-6.418,3.094-10.134,4.768c-3.722,1.659-7.778,3.383-12.106,5.266c-4.354,1.806-9.041,3.595-13.965,5.558
	c-4.951,1.875-10.215,3.687-15.69,5.666c-2.767,0.896-5.591,1.812-8.469,2.743c-2.886,0.91-5.809,1.916-8.828,2.767
	c-6.026,1.75-12.259,3.592-18.738,5.205c-12.919,3.413-26.729,6.294-41.103,8.836c-3.601,0.587-7.229,1.207-10.894,1.769
	c-3.661,0.591-7.372,0.999-11.096,1.512c-7.441,1.078-15.022,1.723-22.657,2.464c-15.194,1.304-31.166,1.876-46.33,1.995
	c-3.937-0.063-7.873-0.124-11.806-0.187c-3.893-0.021-7.777-0.223-11.655-0.374c-7.76-0.21-15.466-0.92-23.115-1.449
	c-7.634-0.738-15.214-1.402-22.656-2.471c-3.723-0.513-7.434-0.92-11.095-1.511c-3.659-0.596-7.291-1.188-10.893-1.774
	c-14.372-2.541-28.182-5.424-41.1-8.84c-6.479-1.613-12.713-3.447-18.737-5.203c-3.02-0.85-5.942-1.855-8.829-2.765
	c-2.878-0.933-5.702-1.847-8.468-2.743c-5.475-1.979-10.741-3.785-15.691-5.663c-4.924-1.962-9.611-3.745-13.964-5.554
	c-4.33-1.879-8.385-3.604-12.108-5.262c-3.72-1.671-7.101-3.312-10.149-4.768c-1.523-0.73-2.964-1.422-4.32-2.073
	c-1.357-0.648-2.584-1.335-3.75-1.932c-2.32-1.214-4.293-2.247-5.893-3.085c-3.188-1.704-3.188-1.704-3.188-1.704
	c-0.935-0.5-0.867-0.666,0.15-0.368c0,0,0,0,3.47,1.014c3.456,1.028,8.53,2.627,14.99,4.428c3.237,0.895,6.768,1.99,10.662,3.053
	c3.911,1.023,8.11,2.196,12.602,3.415c4.508,1.143,9.306,2.359,14.364,3.642c5.068,1.192,10.396,2.445,15.957,3.754
	c11.162,2.401,23.229,4.979,36.082,7.157c12.816,2.348,26.42,4.221,40.482,5.999c3.522,0.392,7.074,0.787,10.651,1.185
	c3.571,0.438,7.189,0.691,10.815,1.05c1.814,0.168,3.634,0.336,5.459,0.504c1.825,0.168,3.662,0.258,5.499,0.391
	c3.674,0.268,7.366,0.536,11.073,0.806c3.712,0.185,7.438,0.371,11.176,0.558c1.868,0.096,3.739,0.197,5.616,0.225
	c1.875,0.062,3.752,0.122,5.631,0.184c3.758,0.117,7.521,0.285,11.294,0.275c3.73,0.031,7.464,0.063,11.197,0.096
	c15.52-0.021,30.223-0.531,45.159-1.352c3.706-0.272,7.398-0.544,11.072-0.813c1.837-0.134,3.674-0.224,5.499-0.391
	c1.825-0.168,3.645-0.336,5.459-0.503c3.626-0.358,7.245-0.612,10.815-1.049c3.571-0.433,7.126-0.799,10.649-1.19
	c14.062-1.777,27.665-3.653,40.48-6.003c12.852-2.176,24.919-4.753,36.08-7.154c5.561-1.307,10.89-2.559,15.958-3.75
	c5.058-1.281,9.855-2.496,14.364-3.638c4.492-1.216,8.69-2.39,12.603-3.411c3.897-1.061,7.438-2.16,10.678-3.054
	c6.474-1.802,11.515-3.386,14.977-4.413c3.472-1.013,3.472-1.013,3.472-1.013c1.019-0.297,1.087-0.131,0.152,0.37
	C877.295,1061.953,877.295,1061.953,874.109,1063.659z M1016.808,955.295c-9.817,25.688-40.35,46.705-67.85,46.705H331.041
	c-27.5,0-58.032-21.018-67.85-46.705c0,0-79.858-208.958-79.858-315.295c0-105.882,79.169-314.26,79.169-314.26
	C272.269,300.033,302.76,279,330.26,279h619.479c27.5,0,57.991,21.033,67.758,46.74c0,0,79.17,208.378,79.17,314.26
	C1096.667,746.337,1016.808,955.295,1016.808,955.295z"/>
</svg>
