<?xml version="1.0" encoding="utf-8"?>
<!-- Generator: Adobe Illustrator 16.0.3, SVG Export Plug-In . SVG Version: 6.00 Build 0)  -->
<!DOCTYPE svg PUBLIC "-//W3C//DTD SVG 1.1//EN" "http://www.w3.org/Graphics/SVG/1.1/DTD/svg11.dtd">
<svg version="1.1" id="Layer_1" xmlns="http://www.w3.org/2000/svg" xmlns:xlink="http://www.w3.org/1999/xlink" x="0px" y="0px"
	 width="1113.263px" height="407px" viewBox="131.5 1332.5 1113.263 407" enable-background="new 131.5 1332.5 1113.263 407"
	 xml:space="preserve">
<g>
	<g>
		<g>
			<path fill="rgba(255,255,255,0.1)" d="M276.683,1517.531c-25.781-6.914-41.13-33.512-34.216-59.291c6.913-25.779,33.511-41.129,59.292-34.215
				c25.779,6.914,41.129,33.512,34.213,59.291C329.06,1509.096,302.46,1524.447,276.683,1517.531z"/>
		</g>
		<g>
			
				<image overflow="visible" opacity="0.4" width="250" height="407" xlink:href="8F5301D6.png"  transform="matrix(1 0 0 1 125.5 1332.5)">
			</image>
			<g>
				<path fill="#fff" id="ship" d="M180.115,1583.359l-0.883-0.236l-41.313,61.395l62.753,16.83
					C185.9,1645.109,181.126,1618.203,180.115,1583.359z M333.026,1696.842l-5.049-73.828l-1.287-0.346
					c-18.383,29.307-35.965,50.064-56.359,57.008 M323.636,1341.918c-0.586,2.191-98.507,54.412-123.455,147.432
					c-8.648,32.252-12.26,62.639-11.492,89.063c1.013,34.844,8.096,68.58,22.866,84.816l48.413,12.631
					c20.395-6.941,43.389-32.459,61.773-61.766c14.082-22.445,26.367-50.504,35.018-82.754
					C381.705,1438.32,323.636,1341.918,323.636,1341.918z M274.544,1525.508c-30.225-8.107-48.155-39.182-40.05-69.406
					c8.104-30.225,39.177-48.156,69.401-40.051c30.227,8.105,48.158,39.18,40.053,69.404S304.769,1533.611,274.544,1525.508z
					 M209.254,1671.93l49.261,13.211c0,0-9.047,30.24-36.725,38.488C201.509,1705.701,209.254,1671.93,209.254,1671.93z"/>
			</g>
		</g>
		<g>
			
				<image overflow="visible" opacity="0.4" width="116" height="116" xlink:href="8F5301DA.png"  transform="matrix(1 0 0 1 231.5 1413.5)">
			</image>
			<g>
				<path fill="#fff" d="M300.981,1426.922c24.221,6.496,38.59,31.396,32.094,55.619c-6.494,24.219-31.395,38.588-55.615,32.092
					c-24.221-6.494-38.589-31.395-32.096-55.615C251.86,1434.797,276.763,1420.428,300.981,1426.922 M302.536,1421.127
					c-27.379-7.34-55.625,8.961-62.966,36.336c-7.344,27.379,8.958,55.625,36.335,62.967s55.623-8.959,62.965-36.336
					C346.214,1456.717,329.911,1428.469,302.536,1421.127L302.536,1421.127z"/>
			</g>
		</g>
		<g>
			<path fill="rgba(255,255,255,0.4)" d="M278.798,1509.644c-21.432-5.748-34.191-27.858-28.443-49.288c5.747-21.431,27.857-34.19,49.289-28.442
				c21.43,5.747,34.189,27.857,28.44,49.288C322.338,1502.631,300.227,1515.393,278.798,1509.644z"/>
			<path fill="none" id="dashedRing" stroke="#fff" stroke-miterlimit="10" stroke-dasharray="3.9484,3.9484" d="M278.798,1509.644
				c-21.432-5.748-34.191-27.858-28.443-49.288c5.747-21.431,27.857-34.19,49.289-28.442c21.43,5.747,34.189,27.857,28.44,49.288
				C322.338,1502.631,300.227,1515.393,278.798,1509.644z"/>
		</g>
	</g>
	<g>
		
			<image overflow="visible" opacity="0.4" width="841" height="166" xlink:href="8F5301DD.png"  transform="matrix(1 0 0 1 407.5 1386.5)">
		</image>
		<g>
			<g>
				<g>
					<path fill="#FFFFFF" d="M534.847,1397.345h31.516l-33.738,140.004h-31.516l14.344-59.598h-49.699l-14.343,59.598h-31.313
						l33.536-140.004h31.516l-12.93,53.74h49.697L534.847,1397.345z"/>
				</g>
				<g>
					<path fill="#FFFFFF" d="M656.664,1537.349c-0.271-5.254-0.575-10.406-0.908-15.456c-0.339-5.05-0.707-10.065-1.111-15.05
						h-52.527c-2.695,4.984-5.524,10-8.485,15.05c-2.964,5.05-5.792,10.202-8.484,15.456h-32.929
						c8.752-15.082,16.935-29.024,24.545-41.82c7.607-12.794,14.949-24.85,22.021-36.162c7.07-11.313,13.971-22.052,20.708-32.222
						c6.732-10.168,13.601-20.102,20.606-29.8h28.082c2.151,9.698,4.206,20.439,6.161,32.222c1.949,11.788,3.769,23.84,5.453,36.164
						c1.684,12.322,3.233,24.648,4.647,36.97c1.415,12.324,2.727,23.875,3.94,34.648H656.664z M647.37,1428.053
						c-5.656,9.026-11.212,17.979-16.666,26.87c-5.454,8.888-10.742,17.979-15.858,27.271h37.777
						c-0.676-8.214-1.383-16.97-2.121-26.262C649.76,1446.639,648.715,1437.347,647.37,1428.053z"/>
				</g>
				<g>
					<path fill="#FFFFFF" d="M779.897,1395.729c9.021,0,16.901,1.08,23.637,3.234c6.733,2.153,12.324,5.05,16.769,8.686
						s7.744,7.914,9.898,12.828c2.154,4.918,3.233,10.07,3.233,15.456c0,4.444-0.506,8.822-1.515,13.132
						c-1.012,4.311-2.899,8.418-5.658,12.322c-2.763,3.908-6.463,7.51-11.11,10.808c-4.647,3.303-10.607,6.097-17.879,8.384
						c3.768,7.007,7.641,15.49,11.616,25.457c3.971,9.968,7.707,20.403,11.212,31.313h-33.738
						c-3.099-9.294-6.231-18.486-9.394-27.578c-3.166-9.09-6.702-16.934-10.607-23.534h-15.757l-12.323,51.112h-31.314
						l32.931-137.984c7.272-1.344,14.343-2.288,21.212-2.828C767.979,1396.001,774.241,1395.729,779.897,1395.729z
						 M778.889,1422.396c-2.293,0-4.647,0.068-7.071,0.202c-2.425,0.134-4.445,0.272-6.062,0.404l-9.091,38.384h10.707
						c6.466,0,11.919-0.606,16.364-1.818c4.444-1.212,8.012-2.828,10.707-4.848c2.693-2.021,4.612-4.344,5.758-6.97
						c1.143-2.626,1.716-5.286,1.716-7.98c0-2.288-0.337-4.476-1.009-6.565c-0.675-2.086-1.888-3.94-3.636-5.557
						c-1.753-1.616-4.111-2.896-7.072-3.838C787.236,1422.871,783.465,1422.396,778.889,1422.396z"/>
				</g>
				<g>
					<path fill="#FFFFFF" d="M934.039,1537.349c-5.656-15.892-11.954-31.786-18.89-47.678c-6.938-15.89-14.444-30.91-22.524-45.053
						l-22.224,92.73h-30.909l33.536-140.004h24.04c3.098,4.716,6.431,10.271,10.002,16.668c3.565,6.397,7.236,13.302,11.01,20.708
						c3.768,7.408,7.541,15.118,11.313,23.13c3.77,8.014,7.339,15.931,10.708,23.738l20.001-84.244h31.313l-33.738,140.004H934.039z
						"/>
				</g>
				<g>
					<path fill="#FFFFFF" d="M989.393,1537.349l33.535-140.004h91.518l-6.465,25.86h-60l-6.465,28.283h52.929l-6.262,25.454h-52.932
						l-8.081,34.345h64.649l-6.465,26.062H989.393z"/>
				</g>
				<g>
					<path fill="#FFFFFF" d="M1182.324,1395.729c9.023,0,16.902,1.08,23.637,3.234c6.734,2.153,12.325,5.05,16.769,8.686
						c4.444,3.636,7.745,7.914,9.898,12.828c2.154,4.918,3.233,10.07,3.233,15.456c0,4.444-0.505,8.822-1.515,13.132
						c-1.011,4.311-2.898,8.418-5.657,12.322c-2.762,3.908-6.464,7.51-11.111,10.808c-4.646,3.303-10.605,6.097-17.879,8.384
						c3.769,7.007,7.642,15.49,11.616,25.457c3.972,9.968,7.708,20.403,11.212,31.313h-33.738
						c-3.099-9.294-6.23-18.486-9.394-27.578c-3.165-9.09-6.701-16.934-10.606-23.534h-15.757l-12.324,51.112h-31.313
						l32.931-137.984c7.272-1.344,14.343-2.288,21.211-2.828C1170.405,1396.001,1176.668,1395.729,1182.324,1395.729z
						 M1181.315,1422.396c-2.291,0-4.647,0.068-7.07,0.202c-2.425,0.134-4.444,0.272-6.062,0.404l-9.09,38.384h10.707
						c6.464,0,11.919-0.606,16.363-1.818s8.012-2.828,10.707-4.848c2.692-2.021,4.612-4.344,5.757-6.97
						c1.144-2.626,1.718-5.286,1.718-7.98c0-2.288-0.338-4.476-1.01-6.565c-0.676-2.086-1.888-3.94-3.637-5.557
						c-1.752-1.616-4.111-2.896-7.071-3.838C1189.664,1422.871,1185.893,1422.396,1181.315,1422.396z"/>
				</g>
			</g>
		</g>
	</g>
	<g>
		<g>
			<path fill="#FFFFFF" d="M414.369,1564.741c4.932-1.106,9.411-1.863,13.442-2.266c4.03-0.401,8.01-0.608,11.938-0.608
				c15.41,0,26.842,3.732,34.298,11.189c7.453,7.461,11.182,18.043,11.182,31.75c0,9.272-1.513,17.818-4.533,25.627
				c-3.024,7.813-7.482,14.54-13.378,20.182c-5.895,5.647-13.221,10.032-21.984,13.155c-8.766,3.125-18.888,4.688-30.375,4.688
				c-2.016,0-4.152-0.077-6.422-0.231c-2.269-0.149-4.484-0.327-6.651-0.529c-2.165-0.2-4.255-0.474-6.269-0.829
				c-2.017-0.352-3.775-0.778-5.289-1.285L414.369,1564.741z M402.279,1658.479c2.518,0.401,4.935,0.678,7.253,0.831
				c2.314,0.149,4.633,0.225,6.947,0.225c9.47,0,17.802-1.384,25.004-4.155c7.2-2.771,13.219-6.579,18.054-11.416
				c4.833-4.838,8.484-10.556,10.952-17.158c2.468-6.601,3.703-13.783,3.703-21.545c0-11.59-2.896-20.259-8.687-26.003
				c-5.79-5.747-14.827-8.619-27.111-8.619c-2.517,0-5.06,0.102-7.624,0.304c-2.571,0.2-5.161,0.505-7.778,0.905L402.279,1658.479z"
				/>
		</g>
		<g>
			<path fill="#FFFFFF" d="M556.844,1562.776h58.469l-1.965,8.921h-48.515l-8.806,36.438h43.11l-1.968,8.768h-42.951l-10.4,41.725
				h51.992l-1.814,8.922h-62.248L556.844,1562.776z"/>
		</g>
		<g>
			<path fill="#FFFFFF" d="M667.124,1653.489c2.921,2.218,6.474,4.007,10.659,5.368c4.18,1.358,8.54,2.042,13.077,2.042
				c3.628,0,7.129-0.431,10.509-1.287c3.375-0.855,6.396-2.216,9.071-4.081c2.668-1.863,4.811-4.234,6.424-7.108
				c1.61-2.87,2.415-6.322,2.415-10.354c0-4.032-0.957-7.311-2.869-9.826c-1.916-2.519-4.309-4.688-7.182-6.504
				c-2.87-1.813-5.996-3.502-9.376-5.063c-3.375-1.562-6.498-3.453-9.371-5.672c-2.872-2.215-5.269-4.911-7.181-8.09
				c-1.917-3.172-2.873-7.329-2.873-12.47c0-3.63,0.756-7.232,2.267-10.809c1.514-3.576,3.856-6.779,7.032-9.603
				c3.176-2.821,7.155-5.115,11.944-6.88c4.787-1.762,10.454-2.646,17.009-2.646c4.332,0,8.438,0.433,12.32,1.286
				c3.879,0.859,8.088,2.396,12.626,4.609l-5.295,8.618c-3.527-2.115-7.029-3.602-10.507-4.459
				c-3.477-0.854-7.133-1.285-10.96-1.285c-3.327,0-6.529,0.379-9.602,1.132c-3.077,0.759-5.82,1.918-8.239,3.48
				c-2.419,1.562-4.36,3.628-5.822,6.195c-1.46,2.572-2.191,5.671-2.191,9.301c0,4.032,0.956,7.307,2.874,9.827
				c1.914,2.52,4.332,4.685,7.257,6.502c2.923,1.812,6.048,3.501,9.373,5.062c3.324,1.564,6.45,3.429,9.375,5.597
				c2.923,2.167,5.34,4.91,7.256,8.238c1.913,3.326,2.875,7.66,2.875,13c0,3.934-0.785,7.841-2.346,11.718
				c-1.564,3.882-4.032,7.334-7.407,10.356c-3.378,3.024-7.661,5.47-12.852,7.333c-5.192,1.863-11.413,2.8-18.672,2.8
				c-4.839,0-9.551-0.658-14.134-1.967c-4.59-1.31-8.845-3.125-12.777-5.446L667.124,1653.489z"/>
		</g>
		<g>
			<path fill="#FFFFFF" d="M815.24,1562.776h10.263l-24.945,104.773h-10.415L815.24,1562.776z"/>
		</g>
		<g>
			<path fill="#FFFFFF" d="M940.825,1618.567h10.258l-10.887,45.504c-4.536,1.815-9.22,3.229-14.061,4.234
				c-4.839,1.006-9.521,1.514-14.056,1.514c-6.954,0-12.975-0.962-18.066-2.875c-5.086-1.912-9.244-4.688-12.471-8.316
				c-3.225-3.626-5.614-7.986-7.18-13.075c-1.563-5.09-2.342-10.813-2.342-17.158c0-8.871,1.411-17.39,4.234-25.553
				c2.818-8.165,6.852-15.367,12.093-21.621c5.236-6.246,11.614-11.262,19.12-15.041c7.51-3.78,15.898-5.671,25.17-5.671
				c4.537,0,8.416,0.254,11.645,0.758c3.224,0.505,5.968,1.108,8.238,1.813c2.263,0.705,4.104,1.463,5.517,2.267
				c1.409,0.808,2.668,1.464,3.779,1.967l-4.688,9.374c-0.303-0.302-1.161-0.833-2.569-1.59c-1.412-0.754-3.25-1.534-5.518-2.342
				c-2.269-0.806-4.89-1.514-7.86-2.117c-2.975-0.604-6.226-0.907-9.748-0.907c-7.462,0-14.19,1.612-20.184,4.838
				c-5.999,3.225-11.087,7.512-15.27,12.852c-4.183,5.344-7.405,11.517-9.674,18.52c-2.269,7.007-3.4,14.339-3.4,21.998
				c0,10.486,2.267,18.546,6.806,24.191c4.536,5.644,11.846,8.465,21.929,8.465c3.225,0,6.526-0.276,9.903-0.832
				c3.376-0.553,6.831-1.436,10.359-2.646L940.825,1618.567z"/>
		</g>
		<g>
			<path fill="#FFFFFF" d="M1033.432,1562.776h10.102c3.73,6.452,7.435,13.659,11.113,21.62c3.68,7.964,7.154,16.005,10.434,24.114
				c3.277,8.117,6.148,15.9,8.618,23.358c2.468,7.46,4.358,13.859,5.672,19.2l20.559-88.293h10.102l-24.794,104.773h-10.104
				c-1.813-6.147-4.08-13.328-6.801-21.546c-2.723-8.211-5.671-16.554-8.849-25.02c-3.173-8.469-6.423-16.605-9.749-24.417
				c-3.325-7.81-6.501-14.438-9.524-19.88l-21.771,90.862h-10.104L1033.432,1562.776z"/>
		</g>
		<g>
			<path fill="#FFFFFF" d="M1161.842,1653.489c2.922,2.218,6.475,4.007,10.658,5.368c4.184,1.358,8.543,2.042,13.077,2.042
				c3.629,0,7.13-0.431,10.508-1.287c3.376-0.855,6.398-2.216,9.071-4.081c2.67-1.863,4.813-4.234,6.426-7.108
				c1.611-2.87,2.418-6.322,2.418-10.354c0-4.032-0.957-7.311-2.872-9.826c-1.915-2.519-4.31-4.688-7.182-6.504
				c-2.871-1.813-5.997-3.502-9.372-5.063c-3.38-1.562-6.506-3.453-9.374-5.672c-2.873-2.215-5.269-4.911-7.183-8.09
				c-1.914-3.172-2.871-7.329-2.871-12.47c0-3.63,0.756-7.232,2.268-10.809c1.513-3.576,3.854-6.779,7.03-9.603
				c3.175-2.821,7.156-5.115,11.943-6.88c4.787-1.762,10.455-2.646,17.007-2.646c4.334,0,8.442,0.433,12.321,1.286
				c3.882,0.859,8.089,2.396,12.627,4.609l-5.295,8.618c-3.526-2.115-7.028-3.602-10.505-4.459
				c-3.477-0.854-7.133-1.285-10.961-1.285c-3.326,0-6.527,0.379-9.602,1.132c-3.075,0.759-5.821,1.918-8.24,3.48
				c-2.418,1.562-4.358,3.628-5.821,6.195c-1.459,2.572-2.189,5.671-2.189,9.301c0,4.032,0.956,7.307,2.869,9.827
				c1.917,2.52,4.334,4.685,7.26,6.502c2.923,1.812,6.047,3.501,9.371,5.062c3.327,1.564,6.452,3.429,9.376,5.597
				c2.922,2.167,5.343,4.91,7.256,8.238c1.914,3.326,2.873,7.66,2.873,13c0,3.934-0.781,7.841-2.343,11.718
				c-1.563,3.882-4.032,7.334-7.406,10.356c-3.38,3.024-7.662,5.47-12.854,7.333c-5.19,1.863-11.412,2.8-18.669,2.8
				c-4.84,0-9.553-0.658-14.139-1.967c-4.586-1.31-8.843-3.125-12.771-5.446L1161.842,1653.489z"/>
		</g>
	</g>
</g>
</svg>

