<svg xmlns="http://www.w3.org/2000/svg" viewBox="0 0 522.248 345.555">
	<g fill="#FFF">
		<path d="M439.248 0v137h-122V0h-83v242.195c-1 18.32-6.088 34.872-14.834 49.649-10.055 16.995-24.095 29.97-42.101 39.323S139.225 345 117.09 345h200.159V201h122v144h83V0h-83.001z"/>
		<path d="M0 238.445h82.261c0 15 2.689 26.584 8.067 33.6 5.379 7.016 14.382 10.367 27.01 10.367 11.379 0 19.954-4.324 26.114-12.823 6.156-8.495 9.044-20.457 9.044-35.738V.445L0 .555v345l114.338-.109c-37.105 0-62.92-9.242-83.499-27.949C10.33 298.853.068 272.445 0 238.445z"/>
	</g>
</svg>