<svg xmlns="http://www.w3.org/2000/svg" viewBox="0 0 1484.37 423.5">
	<g fill="#FFF">
		<path d="M535.393 0v167h-148V0h-102v295.394c-1 22.329-7.361 42.503-18.021 60.514-12.255 20.716-29.338 36.682-51.284 48.081-21.947 11.4-46.395 17.011-73.374 17.011h244.678V245h148v176h101V0H535.393z"/>
		<path d="M0 290.823h100.263c0 18.281 3.278 32.401 9.833 40.952 6.556 8.55 17.529 12.636 32.92 12.636 13.869 0 24.321-5.271 31.83-15.63 7.503-10.354 11.023-24.934 11.023-43.559V.738L0 .872v420.5l139.36-.134c-45.226 0-76.689-11.264-101.772-34.065C12.591 364.449.083 332.264 0 290.823z"/>
	</g>
	<g fill="#FFF">
		<path d="M761.855 10.543h45.556V140.57c0 12.063-2.798 22.823-8.396 32.279-5.596 9.459-13.405 16.79-23.429 21.996-10.021 5.207-21.195 7.81-33.516 7.81-20.652 0-36.704-5.207-48.157-15.619-11.455-10.413-17.182-25.163-17.182-44.254h45.815c0 8.678 1.496 14.968 4.491 18.873 2.992 3.905 8.005 5.857 15.032 5.857 6.333 0 11.215-2.363 14.645-7.093 3.426-4.729 5.14-11.345 5.14-19.85V10.543zM913.49 200.052c-1.563-2.863-2.953-7.071-4.166-12.625-8.069 10.152-19.352 15.229-33.841 15.229-13.276 0-24.558-4.013-33.841-12.04-9.286-8.025-13.928-18.113-13.928-30.262 0-15.271 5.64-26.813 16.921-34.622 11.278-7.809 27.679-11.714 49.199-11.714h13.538v-7.456c0-12.991-5.598-19.487-16.791-19.487-10.413 0-15.619 5.146-15.619 15.434H831.1c0-13.605 5.791-24.656 17.376-33.149 11.583-8.493 26.356-12.741 44.317-12.741 17.963 0 32.15 4.383 42.563 13.146 10.412 8.765 15.75 20.783 16.01 36.054v62.345c.172 12.931 2.167 22.822 5.987 29.676v2.213H913.49zm-27.464-28.635c5.467 0 9.999-1.171 13.601-3.514 3.6-2.343 6.184-4.988 7.746-7.939v-22.518h-12.757c-15.273 0-22.907 6.856-22.907 20.565 0 3.993 1.344 7.224 4.034 9.697 2.688 2.473 6.117 3.709 10.283 3.709zM1035.187 168.814c6.16 0 10.935-1.669 14.317-5.011 3.384-3.339 5.032-8.005 4.945-13.992h41.131c0 15.447-5.532 28.114-16.595 38.006-11.064 9.892-25.315 14.838-42.757 14.838-20.48 0-36.621-6.42-48.419-19.264-11.802-12.841-17.702-30.629-17.702-53.364v-1.822c0-14.229 2.624-26.79 7.876-37.681 5.248-10.888 12.819-19.263 22.712-25.12 9.893-5.857 21.605-8.786 35.143-8.786 18.307 0 32.842 5.077 43.604 15.228 10.758 10.153 16.139 23.907 16.139 41.26h-41.131c0-7.289-1.778-12.885-5.336-16.79-3.559-3.905-8.329-5.857-14.316-5.857-11.37 0-18.007 7.246-19.916 21.737-.606 4.6-.91 10.933-.91 19.003 0 14.145 1.693 23.949 5.076 29.416 3.384 5.467 8.763 8.199 16.139 8.199zM1170.682 147.599l-12.366 12.366v40.088h-43.862V0h43.862v106.209l4.426-5.857 33.061-41.13h52.584l-49.33 57.92 52.583 82.91h-50.24l-30.718-52.453z"/>
		<g>
			<path d="M841.108 420.928h-44.899v-78.221h-66.514v78.221h-45.156V233.609h45.156v74.361h66.514v-74.361h44.899v187.319zM946.089 420.928c-1.544-2.831-2.917-6.99-4.117-12.479-7.976 10.034-19.127 15.052-33.449 15.052-13.123 0-24.273-3.966-33.449-11.9-9.18-7.932-13.766-17.901-13.766-29.911 0-15.095 5.573-26.502 16.724-34.222 11.148-7.719 27.359-11.579 48.632-11.579h13.379v-7.369c0-12.841-5.532-19.262-16.596-19.262-10.293 0-15.438 5.086-15.438 15.256h-43.357c0-13.449 5.725-24.372 17.177-32.766 11.447-8.396 26.052-12.595 43.805-12.595 17.755 0 31.777 4.332 42.07 12.994 10.291 8.664 15.566 20.542 15.823 35.637v61.624c.172 12.781 2.143 22.56 5.918 29.334v2.187h-43.356zm-27.147-28.304c5.404 0 9.886-1.158 13.444-3.475 3.559-2.315 6.112-4.931 7.655-7.848v-22.257h-12.607c-15.097 0-22.644 6.777-22.644 20.328 0 3.945 1.328 7.14 3.989 9.584 2.657 2.445 6.048 3.668 10.163 3.668zM1091.723 320.965l-14.28-1.029c-13.637 0-22.386 4.29-26.244 12.865v88.127h-43.356V281.726h40.654l1.416 17.882c7.287-13.637 17.451-20.455 30.49-20.455 4.632 0 8.661.515 12.093 1.544l-.773 40.268zM1147.173 281.726l1.415 16.339c9.604-12.608 22.854-18.912 39.753-18.912 14.493 0 25.323 4.332 32.485 12.994 7.16 8.664 10.87 21.699 11.128 39.11v89.671h-43.484v-87.87c0-7.031-1.415-12.2-4.246-15.502-2.829-3.301-7.976-4.953-15.438-4.953-8.491 0-14.795 3.345-18.912 10.034v98.291h-43.355V281.726h40.654zM1323.298 423.5c-21.356 0-38.641-6.367-51.848-19.105-13.209-12.735-19.812-29.31-19.812-49.723v-3.603c0-14.236 2.637-26.802 7.913-37.695 5.272-10.892 12.97-19.318 23.092-25.28 10.118-5.961 22.128-8.941 36.022-8.941 19.555 0 34.993 6.068 46.314 18.203 11.322 12.139 16.982 29.057 16.982 50.755v16.853h-86.197c1.545 7.806 4.931 13.939 10.164 18.398 5.229 4.46 12.006 6.689 20.326 6.689 13.722 0 24.444-4.803 32.164-14.409l19.813 23.415c-5.404 7.461-13.06 13.401-22.964 17.819-9.907 4.416-20.564 6.624-31.969 6.624zm-4.89-110.897c-12.694 0-20.242 8.406-22.643 25.216h43.741v-3.346c.172-6.947-1.587-12.329-5.273-16.145-3.689-3.816-8.964-5.725-15.825-5.725zM1483.599 320.965l-14.281-1.029c-13.637 0-22.385 4.29-26.245 12.865v88.127h-43.355V281.726h40.654l1.415 17.882c7.289-13.637 17.452-20.455 30.491-20.455 4.631 0 8.661.515 12.093 1.544l-.772 40.268z"/>
		</g>
	</g>
</svg>