<svg xmlns="http://www.w3.org/2000/svg" viewBox="0 0 764 764">
	<path d="M64.124 171.223h636v422h-636z"/>
	<g fill="#FFF">
		<path d="M599.124 171.223v167h-148v-167h-102v295.394c-1 22.329-7.361 42.503-18.021 60.514-12.255 20.716-29.338 36.682-51.284 48.081-21.946 11.4-46.394 17.012-73.373 17.012h244.678v-176h148v176h101v-421h-101z"/>
		<path d="M63.731 462.046h100.263c0 18.281 3.278 32.401 9.833 40.952 6.556 8.55 17.529 12.636 32.92 12.636 13.869 0 24.321-5.271 31.83-15.63 7.503-10.354 11.023-24.934 11.023-43.559V171.961l-185.869.133v420.5l139.36-.134c-45.226 0-76.689-11.264-101.772-34.065-24.997-22.723-37.504-54.909-37.588-96.349z"/>
	</g>
</svg>