<?xml version="1.0" encoding="utf-8"?>
<!-- Generator: Adobe Illustrator 16.0.3, SVG Export Plug-In . SVG Version: 6.00 Build 0)  -->
<!DOCTYPE svg PUBLIC "-//W3C//DTD SVG 1.1//EN" "http://www.w3.org/Graphics/SVG/1.1/DTD/svg11.dtd">
<svg version="1.1" id="Layer_1" xmlns="http://www.w3.org/2000/svg" xmlns:xlink="http://www.w3.org/1999/xlink" x="0px" y="0px"
	 width="500.095px" height="499.708px" viewBox="-0.095 0.292 500.095 499.708"
	 enable-background="new -0.095 0.292 500.095 499.708" xml:space="preserve">
<g>
	<path d="M0.214,100.292c0-55,45-100,100-100H400c55,0,100,45,100,100V400c0,55-45,100-100,100H100.214c-55,0-100-45-100-100
		V100.292z"/>
</g>
<g>
	<path fill="#FFFFFF" d="M420.631,84.336v131.233H304.329V84.336h-80.154v232.127c-0.786,17.547-5.785,33.4-14.162,47.554
		c-9.63,16.281-23.055,28.828-40.3,37.784c-17.246,8.958-36.458,13.368-57.658,13.368h192.274V276.865h116.302V415.17H500V84.337
		L420.631,84.336L420.631,84.336z"/>
	<path fill="#FFFFFF" d="M-0.095,312.874h78.79c0,14.364,2.576,25.461,7.727,32.181c5.152,6.719,13.775,9.93,25.87,9.93
		c10.898,0,19.112-4.142,25.013-12.283c5.896-8.137,8.662-19.593,8.662-34.229V84.917L-0.095,85.021v330.44l109.513-0.105
		c-35.54,0-60.265-8.852-79.976-26.77C9.799,370.729-0.029,345.437-0.095,312.874L-0.095,312.874z"/>
</g>
</svg>
