<svg xmlns="http://www.w3.org/2000/svg" preserveAspectRatio="none" viewBox="0 0 1440 320"><path fill="#fff" fill-opacity="1" d="M0,160L6.2,154.7C12.3,149,25,139,37,165.3C49.2,192,62,256,74,282.7C86.2,309,98,299,111,245.3C123.1,192,135,96,148,64C160,32,172,64,185,80C196.9,96,209,96,222,128C233.8,160,246,224,258,250.7C270.8,277,283,267,295,218.7C307.7,171,320,85,332,74.7C344.6,64,357,128,369,149.3C381.5,171,394,149,406,154.7C418.5,160,431,192,443,176C455.4,160,468,96,480,74.7C492.3,53,505,75,517,112C529.2,149,542,203,554,234.7C566.2,267,578,277,591,250.7C603.1,224,615,160,628,144C640,128,652,160,665,149.3C676.9,139,689,85,702,90.7C713.8,96,726,160,738,192C750.8,224,763,224,775,208C787.7,192,800,160,812,138.7C824.6,117,837,107,849,101.3C861.5,96,874,96,886,112C898.5,128,911,160,923,192C935.4,224,948,256,960,261.3C972.3,267,985,245,997,218.7C1009.2,192,1022,160,1034,138.7C1046.2,117,1058,107,1071,106.7C1083.1,107,1095,117,1108,128C1120,139,1132,149,1145,138.7C1156.9,128,1169,96,1182,74.7C1193.8,53,1206,43,1218,74.7C1230.8,107,1243,181,1255,192C1267.7,203,1280,149,1292,122.7C1304.6,96,1317,96,1329,90.7C1341.5,85,1354,75,1366,96C1378.5,117,1391,171,1403,202.7C1415.4,235,1428,245,1434,250.7L1440,256L1440,320L1433.8,320C1427.7,320,1415,320,1403,320C1390.8,320,1378,320,1366,320C1353.8,320,1342,320,1329,320C1316.9,320,1305,320,1292,320C1280,320,1268,320,1255,320C1243.1,320,1231,320,1218,320C1206.2,320,1194,320,1182,320C1169.2,320,1157,320,1145,320C1132.3,320,1120,320,1108,320C1095.4,320,1083,320,1071,320C1058.5,320,1046,320,1034,320C1021.5,320,1009,320,997,320C984.6,320,972,320,960,320C947.7,320,935,320,923,320C910.8,320,898,320,886,320C873.8,320,862,320,849,320C836.9,320,825,320,812,320C800,320,788,320,775,320C763.1,320,751,320,738,320C726.2,320,714,320,702,320C689.2,320,677,320,665,320C652.3,320,640,320,628,320C615.4,320,603,320,591,320C578.5,320,566,320,554,320C541.5,320,529,320,517,320C504.6,320,492,320,480,320C467.7,320,455,320,443,320C430.8,320,418,320,406,320C393.8,320,382,320,369,320C356.9,320,345,320,332,320C320,320,308,320,295,320C283.1,320,271,320,258,320C246.2,320,234,320,222,320C209.2,320,197,320,185,320C172.3,320,160,320,148,320C135.4,320,123,320,111,320C98.5,320,86,320,74,320C61.5,320,49,320,37,320C24.6,320,12,320,6,320L0,320Z"></path></svg>