<svg xmlns="http://www.w3.org/2000/svg" viewBox="0 0 1440 320" className="bgSVG">
<path fill="#000" fill-opacity="1" d="M0,256L0,288L40,288L40,192L80,192L80,192L120,192L120,224L160,224L160,192L200,192L200,256L240,256L240,128L280,128L280,192L320,192L320,192L360,192L360,0L400,0L400,160L440,160L440,224L480,224L480,256L520,256L520,128L560,128L560,32L600,32L600,64L640,64L640,128L680,128L680,288L720,288L720,96L760,96L760,192L800,192L800,192L840,192L840,224L880,224L880,64L920,64L920,288L960,288L960,32L1000,32L1000,32L1040,32L1040,128L1080,128L1080,96L1120,96L1120,0L1160,0L1160,0L1200,0L1200,192L1240,192L1240,192L1280,192L1280,64L1320,64L1320,224L1360,224L1360,32L1400,32L1400,160L1440,160L1440,320L1400,320L1400,320L1360,320L1360,320L1320,320L1320,320L1280,320L1280,320L1240,320L1240,320L1200,320L1200,320L1160,320L1160,320L1120,320L1120,320L1080,320L1080,320L1040,320L1040,320L1000,320L1000,320L960,320L960,320L920,320L920,320L880,320L880,320L840,320L840,320L800,320L800,320L760,320L760,320L720,320L720,320L680,320L680,320L640,320L640,320L600,320L600,320L560,320L560,320L520,320L520,320L480,320L480,320L440,320L440,320L400,320L400,320L360,320L360,320L320,320L320,320L280,320L280,320L240,320L240,320L200,320L200,320L160,320L160,320L120,320L120,320L80,320L80,320L40,320L40,320L0,320L0,320Z"></path>
</svg>