<svg xmlns="http://www.w3.org/2000/svg" preserveAspectRatio="none" viewBox="0 0 1440 320"><path fill="#fff" fill-opacity="1" d="M0,0L6.2,42.7C12.3,85,25,171,37,218.7C49.2,267,62,277,74,256C86.2,235,98,181,111,181.3C123.1,181,135,235,148,234.7C160,235,172,181,185,176C196.9,171,209,213,222,213.3C233.8,213,246,171,258,154.7C270.8,139,283,149,295,165.3C307.7,181,320,203,332,224C344.6,245,357,267,369,261.3C381.5,256,394,224,406,218.7C418.5,213,431,235,443,250.7C455.4,267,468,277,480,250.7C492.3,224,505,160,517,144C529.2,128,542,160,554,181.3C566.2,203,578,213,591,229.3C603.1,245,615,267,628,229.3C640,192,652,96,665,90.7C676.9,85,689,171,702,218.7C713.8,267,726,277,738,250.7C750.8,224,763,160,775,165.3C787.7,171,800,245,812,245.3C824.6,245,837,171,849,133.3C861.5,96,874,96,886,112C898.5,128,911,160,923,181.3C935.4,203,948,213,960,197.3C972.3,181,985,139,997,144C1009.2,149,1022,203,1034,186.7C1046.2,171,1058,85,1071,90.7C1083.1,96,1095,192,1108,240C1120,288,1132,288,1145,277.3C1156.9,267,1169,245,1182,234.7C1193.8,224,1206,224,1218,202.7C1230.8,181,1243,139,1255,112C1267.7,85,1280,75,1292,106.7C1304.6,139,1317,213,1329,218.7C1341.5,224,1354,160,1366,154.7C1378.5,149,1391,203,1403,229.3C1415.4,256,1428,256,1434,256L1440,256L1440,320L1433.8,320C1427.7,320,1415,320,1403,320C1390.8,320,1378,320,1366,320C1353.8,320,1342,320,1329,320C1316.9,320,1305,320,1292,320C1280,320,1268,320,1255,320C1243.1,320,1231,320,1218,320C1206.2,320,1194,320,1182,320C1169.2,320,1157,320,1145,320C1132.3,320,1120,320,1108,320C1095.4,320,1083,320,1071,320C1058.5,320,1046,320,1034,320C1021.5,320,1009,320,997,320C984.6,320,972,320,960,320C947.7,320,935,320,923,320C910.8,320,898,320,886,320C873.8,320,862,320,849,320C836.9,320,825,320,812,320C800,320,788,320,775,320C763.1,320,751,320,738,320C726.2,320,714,320,702,320C689.2,320,677,320,665,320C652.3,320,640,320,628,320C615.4,320,603,320,591,320C578.5,320,566,320,554,320C541.5,320,529,320,517,320C504.6,320,492,320,480,320C467.7,320,455,320,443,320C430.8,320,418,320,406,320C393.8,320,382,320,369,320C356.9,320,345,320,332,320C320,320,308,320,295,320C283.1,320,271,320,258,320C246.2,320,234,320,222,320C209.2,320,197,320,185,320C172.3,320,160,320,148,320C135.4,320,123,320,111,320C98.5,320,86,320,74,320C61.5,320,49,320,37,320C24.6,320,12,320,6,320L0,320Z"></path></svg>