<svg xmlns="http://www.w3.org/2000/svg" preserveAspectRatio="none"  viewBox="0 0 1440 320"><path fill="#000" fill-opacity="1" d="M0,64L6.2,106.7C12.3,149,25,235,37,266.7C49.2,299,62,277,74,250.7C86.2,224,98,192,111,192C123.1,192,135,224,148,197.3C160,171,172,85,185,85.3C196.9,85,209,171,222,181.3C233.8,192,246,128,258,122.7C270.8,117,283,171,295,186.7C307.7,203,320,181,332,154.7C344.6,128,357,96,369,90.7C381.5,85,394,107,406,128C418.5,149,431,171,443,186.7C455.4,203,468,213,480,224C492.3,235,505,245,517,234.7C529.2,224,542,192,554,160C566.2,128,578,96,591,117.3C603.1,139,615,213,628,234.7C640,256,652,224,665,186.7C676.9,149,689,107,702,117.3C713.8,128,726,192,738,181.3C750.8,171,763,85,775,96C787.7,107,800,213,812,224C824.6,235,837,149,849,149.3C861.5,149,874,235,886,272C898.5,309,911,299,923,250.7C935.4,203,948,117,960,117.3C972.3,117,985,203,997,218.7C1009.2,235,1022,181,1034,154.7C1046.2,128,1058,128,1071,144C1083.1,160,1095,192,1108,218.7C1120,245,1132,267,1145,256C1156.9,245,1169,203,1182,202.7C1193.8,203,1206,245,1218,272C1230.8,299,1243,309,1255,293.3C1267.7,277,1280,235,1292,197.3C1304.6,160,1317,128,1329,128C1341.5,128,1354,160,1366,160C1378.5,160,1391,128,1403,144C1415.4,160,1428,224,1434,256L1440,288L1440,320L1433.8,320C1427.7,320,1415,320,1403,320C1390.8,320,1378,320,1366,320C1353.8,320,1342,320,1329,320C1316.9,320,1305,320,1292,320C1280,320,1268,320,1255,320C1243.1,320,1231,320,1218,320C1206.2,320,1194,320,1182,320C1169.2,320,1157,320,1145,320C1132.3,320,1120,320,1108,320C1095.4,320,1083,320,1071,320C1058.5,320,1046,320,1034,320C1021.5,320,1009,320,997,320C984.6,320,972,320,960,320C947.7,320,935,320,923,320C910.8,320,898,320,886,320C873.8,320,862,320,849,320C836.9,320,825,320,812,320C800,320,788,320,775,320C763.1,320,751,320,738,320C726.2,320,714,320,702,320C689.2,320,677,320,665,320C652.3,320,640,320,628,320C615.4,320,603,320,591,320C578.5,320,566,320,554,320C541.5,320,529,320,517,320C504.6,320,492,320,480,320C467.7,320,455,320,443,320C430.8,320,418,320,406,320C393.8,320,382,320,369,320C356.9,320,345,320,332,320C320,320,308,320,295,320C283.1,320,271,320,258,320C246.2,320,234,320,222,320C209.2,320,197,320,185,320C172.3,320,160,320,148,320C135.4,320,123,320,111,320C98.5,320,86,320,74,320C61.5,320,49,320,37,320C24.6,320,12,320,6,320L0,320Z"></path></svg>