<svg xmlns="http://www.w3.org/2000/svg" preserveAspectRatio="none" viewBox="0 0 1440 320"><path fill="#fff" fill-opacity="1" d="M0,128L6.2,154.7C12.3,181,25,235,37,240C49.2,245,62,203,74,197.3C86.2,192,98,224,111,234.7C123.1,245,135,235,148,224C160,213,172,203,185,170.7C196.9,139,209,85,222,85.3C233.8,85,246,139,258,181.3C270.8,224,283,256,295,261.3C307.7,267,320,245,332,224C344.6,203,357,181,369,149.3C381.5,117,394,75,406,90.7C418.5,107,431,181,443,213.3C455.4,245,468,235,480,213.3C492.3,192,505,160,517,154.7C529.2,149,542,171,554,154.7C566.2,139,578,85,591,58.7C603.1,32,615,32,628,53.3C640,75,652,117,665,112C676.9,107,689,53,702,37.3C713.8,21,726,43,738,74.7C750.8,107,763,149,775,170.7C787.7,192,800,192,812,181.3C824.6,171,837,149,849,160C861.5,171,874,213,886,229.3C898.5,245,911,235,923,213.3C935.4,192,948,160,960,160C972.3,160,985,192,997,202.7C1009.2,213,1022,203,1034,197.3C1046.2,192,1058,192,1071,165.3C1083.1,139,1095,85,1108,53.3C1120,21,1132,11,1145,37.3C1156.9,64,1169,128,1182,176C1193.8,224,1206,256,1218,229.3C1230.8,203,1243,117,1255,101.3C1267.7,85,1280,139,1292,176C1304.6,213,1317,235,1329,218.7C1341.5,203,1354,149,1366,144C1378.5,139,1391,181,1403,176C1415.4,171,1428,117,1434,90.7L1440,64L1440,320L1433.8,320C1427.7,320,1415,320,1403,320C1390.8,320,1378,320,1366,320C1353.8,320,1342,320,1329,320C1316.9,320,1305,320,1292,320C1280,320,1268,320,1255,320C1243.1,320,1231,320,1218,320C1206.2,320,1194,320,1182,320C1169.2,320,1157,320,1145,320C1132.3,320,1120,320,1108,320C1095.4,320,1083,320,1071,320C1058.5,320,1046,320,1034,320C1021.5,320,1009,320,997,320C984.6,320,972,320,960,320C947.7,320,935,320,923,320C910.8,320,898,320,886,320C873.8,320,862,320,849,320C836.9,320,825,320,812,320C800,320,788,320,775,320C763.1,320,751,320,738,320C726.2,320,714,320,702,320C689.2,320,677,320,665,320C652.3,320,640,320,628,320C615.4,320,603,320,591,320C578.5,320,566,320,554,320C541.5,320,529,320,517,320C504.6,320,492,320,480,320C467.7,320,455,320,443,320C430.8,320,418,320,406,320C393.8,320,382,320,369,320C356.9,320,345,320,332,320C320,320,308,320,295,320C283.1,320,271,320,258,320C246.2,320,234,320,222,320C209.2,320,197,320,185,320C172.3,320,160,320,148,320C135.4,320,123,320,111,320C98.5,320,86,320,74,320C61.5,320,49,320,37,320C24.6,320,12,320,6,320L0,320Z"></path></svg>