<svg xmlns="http://www.w3.org/2000/svg" preserveAspectRatio="none" viewBox="0 0 1440 320"><path fill="var(--color)" fill-opacity="1" d="M0,64L6.2,85.3C12.3,107,25,149,37,170.7C49.2,192,62,192,74,181.3C86.2,171,98,149,111,149.3C123.1,149,135,171,148,165.3C160,160,172,128,185,138.7C196.9,149,209,203,222,213.3C233.8,224,246,192,258,149.3C270.8,107,283,53,295,48C307.7,43,320,85,332,138.7C344.6,192,357,256,369,250.7C381.5,245,394,171,406,138.7C418.5,107,431,117,443,128C455.4,139,468,149,480,176C492.3,203,505,245,517,250.7C529.2,256,542,224,554,202.7C566.2,181,578,171,591,160C603.1,149,615,139,628,138.7C640,139,652,149,665,144C676.9,139,689,117,702,133.3C713.8,149,726,203,738,224C750.8,245,763,235,775,197.3C787.7,160,800,96,812,90.7C824.6,85,837,139,849,170.7C861.5,203,874,213,886,224C898.5,235,911,245,923,245.3C935.4,245,948,235,960,208C972.3,181,985,139,997,122.7C1009.2,107,1022,117,1034,133.3C1046.2,149,1058,171,1071,186.7C1083.1,203,1095,213,1108,229.3C1120,245,1132,267,1145,282.7C1156.9,299,1169,309,1182,277.3C1193.8,245,1206,171,1218,165.3C1230.8,160,1243,224,1255,213.3C1267.7,203,1280,117,1292,90.7C1304.6,64,1317,96,1329,90.7C1341.5,85,1354,43,1366,69.3C1378.5,96,1391,192,1403,224C1415.4,256,1428,224,1434,208L1440,192L1440,320L1433.8,320C1427.7,320,1415,320,1403,320C1390.8,320,1378,320,1366,320C1353.8,320,1342,320,1329,320C1316.9,320,1305,320,1292,320C1280,320,1268,320,1255,320C1243.1,320,1231,320,1218,320C1206.2,320,1194,320,1182,320C1169.2,320,1157,320,1145,320C1132.3,320,1120,320,1108,320C1095.4,320,1083,320,1071,320C1058.5,320,1046,320,1034,320C1021.5,320,1009,320,997,320C984.6,320,972,320,960,320C947.7,320,935,320,923,320C910.8,320,898,320,886,320C873.8,320,862,320,849,320C836.9,320,825,320,812,320C800,320,788,320,775,320C763.1,320,751,320,738,320C726.2,320,714,320,702,320C689.2,320,677,320,665,320C652.3,320,640,320,628,320C615.4,320,603,320,591,320C578.5,320,566,320,554,320C541.5,320,529,320,517,320C504.6,320,492,320,480,320C467.7,320,455,320,443,320C430.8,320,418,320,406,320C393.8,320,382,320,369,320C356.9,320,345,320,332,320C320,320,308,320,295,320C283.1,320,271,320,258,320C246.2,320,234,320,222,320C209.2,320,197,320,185,320C172.3,320,160,320,148,320C135.4,320,123,320,111,320C98.5,320,86,320,74,320C61.5,320,49,320,37,320C24.6,320,12,320,6,320L0,320Z"></path></svg>