<?xml version="1.0" encoding="utf-8"?>
<!-- Generator: Adobe Illustrator 16.0.3, SVG Export Plug-In . SVG Version: 6.00 Build 0)  -->
<!DOCTYPE svg PUBLIC "-//W3C//DTD SVG 1.1//EN" "http://www.w3.org/Graphics/SVG/1.1/DTD/svg11.dtd">
<svg version="1.1" id="Layer_1" xmlns="http://www.w3.org/2000/svg" xmlns:xlink="http://www.w3.org/1999/xlink" x="0px" y="0px"
	 width="2282.81px" height="1093.336px" viewBox="93.333 93.332 2282.81 1093.336"
	 enable-background="new 93.333 93.332 2282.81 1093.336" xml:space="preserve">
<path fill="#FFFFFF" d="M650,534.999h126V848h123V534.999h126v-103H650V534.999z M549.81,605.017
	c-23.3-12.366-61.87-24.595-115.719-36.683c-21.757-4.718-35.538-9.817-41.338-15.296c-5.983-5.285-8.975-11.233-8.975-17.845
	c0-9.064,3.624-16.757,10.878-23.086c7.251-6.325,18.039-9.489,32.362-9.489c17.405,0,31.048,4.249,40.931,12.747
	c9.88,8.498,16.359,22.094,19.444,40.789l116.128-7.081c-5.078-43.057-20.988-74.449-47.729-94.186
	c-26.746-19.73-65.59-29.601-116.535-29.601c-41.521,0-74.201,5.431-98.041,16.288c-23.844,10.861-41.703,25.777-53.576,44.755
	c-11.877,18.979-17.813,39.139-17.813,60.477c0,32.482,11.602,59.201,34.811,80.163c23.023,20.962,61.551,37.772,115.582,50.421
	c32.996,7.555,54.027,15.578,63.095,24.076c9.063,8.498,13.599,18.129,13.599,28.893c0,11.332-4.759,21.295-14.278,29.885
	c-9.518,8.596-23.072,12.889-40.656,12.889c-23.571,0-41.702-8.398-54.393-25.211c-7.799-10.383-12.965-25.492-15.502-45.32
	l-117.214,7.646c3.442,41.924,18.221,76.48,44.329,103.674c26.107,27.193,73.063,40.789,140.875,40.789
	c38.617,0,70.616-5.807,96.001-17.42c25.382-11.613,45.145-28.652,59.286-51.129c14.143-22.471,21.213-47.02,21.213-73.646
	c0-22.66-5.302-43.148-15.908-61.469C590.06,632.731,573.104,617.387,549.81,605.017z M1143.688,427.198
	c-27.534-65.102-66.945-123.56-117.137-173.75c-50.19-50.19-108.647-89.601-173.75-117.137
	C785.377,107.792,713.78,93.332,640,93.332c-73.779,0-145.377,14.46-212.801,42.979c-65.104,27.536-123.561,66.945-173.751,117.137
	c-50.19,50.191-89.601,108.648-117.137,173.75c-28.518,67.425-42.978,139.021-42.978,212.801s14.46,145.378,42.979,212.802
	c27.536,65.104,66.946,123.561,117.137,173.75c50.191,50.191,108.647,89.604,173.751,117.139
	c67.424,28.518,139.021,42.979,212.801,42.979s145.377-14.461,212.802-42.979c65.103-27.535,123.561-66.947,173.75-117.139
	c50.19-50.189,89.603-108.646,117.137-173.75c28.52-67.424,42.979-139.02,42.979-212.802
	C1186.667,566.219,1172.207,494.623,1143.688,427.198z M405.891,216.34c1.604-0.84,3.579-1.875,5.902-3.092
	c1.167-0.598,2.403-1.291,3.759-1.938c1.355-0.651,2.795-1.344,4.316-2.074c3.047-1.458,6.417-3.094,10.134-4.768
	c3.722-1.658,7.778-3.383,12.106-5.266c4.354-1.806,9.04-3.595,13.964-5.558c4.952-1.875,10.215-3.688,15.69-5.666
	c2.767-0.896,5.591-1.812,8.47-2.743c2.886-0.911,5.809-1.917,8.827-2.768c6.026-1.75,12.26-3.591,18.738-5.204
	c12.918-3.414,26.729-6.293,41.103-8.836c3.601-0.587,7.229-1.207,10.894-1.769c3.661-0.591,7.373-1,11.095-1.512
	c7.441-1.078,15.023-1.724,22.658-2.464c7.653-0.536,15.332-1.233,23.178-1.442c3.901-0.152,7.858-0.353,11.651-0.373
	c3.872-0.06,7.748-0.121,11.624-0.181c15.583,0.127,31.166,0.708,46.452,2.01c7.635,0.739,15.214,1.403,22.656,2.471
	c3.723,0.514,7.434,0.921,11.095,1.512c3.658,0.596,7.291,1.188,10.893,1.773c14.373,2.542,28.184,5.424,41.101,8.84
	c6.479,1.613,12.714,3.447,18.736,5.204c3.021,0.851,5.942,1.854,8.829,2.764c2.878,0.934,5.702,1.849,8.469,2.744
	c5.476,1.979,10.74,3.784,15.69,5.663c4.924,1.961,9.611,3.746,13.965,5.555c4.329,1.878,8.386,3.604,12.107,5.261
	c3.72,1.671,7.101,3.312,10.148,4.768c1.523,0.73,2.964,1.422,4.32,2.073c1.356,0.648,2.584,1.335,3.75,1.932
	c2.32,1.215,4.293,2.247,5.894,3.084c3.188,1.705,3.188,1.705,3.188,1.705c0.937,0.5,0.867,0.666-0.15,0.368c0,0,0,0-3.47-1.014
	c-3.456-1.027-8.53-2.627-14.99-4.427c-3.236-0.895-6.768-1.99-10.66-3.053c-3.911-1.022-8.11-2.195-12.604-3.415
	c-4.508-1.143-9.306-2.358-14.363-3.642c-5.066-1.192-10.396-2.446-15.957-3.753c-11.162-2.402-23.229-4.979-36.082-7.158
	c-12.815-2.347-26.421-4.22-40.481-5.999c-3.521-0.392-7.073-0.787-10.65-1.185c-3.571-0.438-7.188-0.692-10.814-1.051
	c-1.814-0.167-3.636-0.335-5.46-0.504c-1.824-0.167-3.662-0.257-5.499-0.391c-3.675-0.267-7.366-0.536-11.073-0.805
	c-3.712-0.186-7.438-0.371-11.176-0.558c-1.868-0.096-3.739-0.197-5.616-0.226c-1.874-0.062-3.752-0.122-5.631-0.184
	c-7.514-0.333-15.066-0.28-22.614-0.37c-3.794,0.033-7.588,0.067-11.379,0.102c-3.872-0.008-7.563,0.16-11.298,0.277
	c-7.433,0.19-14.938,0.604-22.359,0.973c-3.707,0.272-7.398,0.543-11.072,0.813c-1.837,0.133-3.675,0.223-5.5,0.39
	c-1.825,0.168-3.645,0.336-5.459,0.503c-3.626,0.358-7.245,0.612-10.814,1.049c-3.571,0.434-7.126,0.799-10.65,1.191
	c-14.061,1.776-27.665,3.652-40.479,6.002c-12.853,2.176-24.919,4.753-36.081,7.153c-5.562,1.308-10.89,2.56-15.958,3.75
	c-5.059,1.281-9.855,2.496-14.364,3.639c-4.492,1.215-8.691,2.39-12.604,3.411c-3.896,1.061-7.438,2.161-10.678,3.054
	c-6.474,1.802-11.515,3.386-14.977,4.413c-3.473,1.013-3.473,1.013-3.473,1.013c-1.019,0.297-1.087,0.131-0.151-0.37
	C402.706,218.046,402.706,218.046,405.891,216.34z M874.109,1063.658c-1.604,0.84-3.578,1.875-5.901,3.092
	c-1.168,0.6-2.403,1.291-3.759,1.939c-1.355,0.65-2.795,1.342-4.316,2.072c-3.047,1.457-6.418,3.094-10.134,4.768
	c-3.722,1.66-7.778,3.383-12.106,5.266c-4.354,1.807-9.041,3.596-13.965,5.559c-4.951,1.875-10.215,3.688-15.689,5.666
	c-2.768,0.896-5.592,1.813-8.469,2.742c-2.887,0.91-5.81,1.916-8.828,2.768c-6.026,1.75-12.26,3.592-18.738,5.205
	c-12.919,3.414-26.729,6.295-41.104,8.836c-3.601,0.588-7.229,1.207-10.894,1.77c-3.661,0.59-7.372,0.998-11.096,1.512
	c-7.441,1.078-15.022,1.723-22.657,2.465c-15.194,1.303-31.166,1.875-46.33,1.994c-3.938-0.063-7.873-0.123-11.806-0.188
	c-3.894-0.02-7.777-0.223-11.655-0.373c-7.76-0.211-15.466-0.92-23.115-1.449c-7.634-0.738-15.214-1.402-22.656-2.471
	c-3.723-0.514-7.434-0.92-11.095-1.512c-3.659-0.596-7.291-1.188-10.893-1.773c-14.372-2.541-28.183-5.424-41.101-8.84
	c-6.479-1.613-12.713-3.447-18.736-5.203c-3.021-0.85-5.942-1.855-8.829-2.766c-2.878-0.934-5.702-1.848-8.468-2.742
	c-5.476-1.98-10.741-3.785-15.691-5.664c-4.924-1.961-9.611-3.744-13.964-5.553c-4.33-1.879-8.386-3.605-12.108-5.262
	c-3.72-1.672-7.101-3.313-10.148-4.77c-1.523-0.729-2.965-1.422-4.32-2.072c-1.357-0.648-2.584-1.336-3.75-1.932
	c-2.32-1.215-4.293-2.248-5.893-3.086c-3.188-1.703-3.188-1.703-3.188-1.703c-0.935-0.5-0.867-0.666,0.15-0.369c0,0,0,0,3.47,1.016
	c3.456,1.027,8.53,2.627,14.99,4.428c3.236,0.895,6.768,1.99,10.662,3.053c3.91,1.023,8.109,2.195,12.602,3.414
	c4.508,1.145,9.306,2.359,14.364,3.643c5.067,1.191,10.396,2.445,15.957,3.754c11.161,2.4,23.229,4.979,36.082,7.156
	c12.815,2.35,26.42,4.223,40.481,6c3.522,0.393,7.074,0.787,10.651,1.186c3.571,0.438,7.188,0.691,10.814,1.049
	c1.814,0.168,3.635,0.336,5.459,0.504c1.825,0.168,3.662,0.26,5.499,0.393c3.675,0.268,7.366,0.535,11.073,0.805
	c3.712,0.186,7.438,0.371,11.176,0.559c1.868,0.096,3.739,0.197,5.616,0.225c1.875,0.063,3.752,0.123,5.631,0.184
	c3.758,0.117,7.521,0.285,11.294,0.275c3.73,0.031,7.464,0.063,11.197,0.096c15.521-0.02,30.224-0.531,45.159-1.352
	c3.706-0.271,7.398-0.543,11.072-0.813c1.837-0.135,3.674-0.225,5.499-0.391c1.825-0.168,3.645-0.336,5.459-0.504
	c3.626-0.357,7.245-0.611,10.814-1.049c3.571-0.434,7.126-0.799,10.649-1.189c14.062-1.777,27.665-3.654,40.479-6.004
	c12.853-2.176,24.919-4.752,36.08-7.154c5.562-1.307,10.891-2.559,15.958-3.75c5.059-1.281,9.855-2.496,14.364-3.637
	c4.492-1.217,8.69-2.391,12.603-3.412c3.897-1.061,7.438-2.16,10.679-3.053c6.474-1.803,11.515-3.387,14.977-4.414
	c3.472-1.012,3.472-1.012,3.472-1.012c1.02-0.299,1.088-0.133,0.152,0.369C877.295,1061.953,877.295,1061.953,874.109,1063.658z
	 M1016.808,955.295c-9.816,25.688-40.35,46.705-67.85,46.705H331.041c-27.5,0-58.032-21.018-67.85-46.705
	c0,0-79.858-208.959-79.858-315.296c0-105.882,79.169-314.26,79.169-314.26c9.767-25.707,40.258-46.74,67.758-46.74h619.479
	c27.5,0,57.991,21.033,67.758,46.74c0,0,79.17,208.378,79.17,314.26C1096.667,746.336,1016.808,955.295,1016.808,955.295z
	 M1143.688,427.198c-27.534-65.102-66.945-123.56-117.137-173.75c-50.19-50.19-108.647-89.601-173.75-117.137
	C785.377,107.792,713.78,93.332,640,93.332c-73.779,0-145.377,14.46-212.801,42.979c-65.104,27.536-123.561,66.945-173.751,117.137
	c-50.19,50.191-89.601,108.648-117.137,173.75c-28.518,67.425-42.978,139.021-42.978,212.801s14.46,145.378,42.979,212.802
	c27.536,65.104,66.946,123.561,117.137,173.75c50.191,50.191,108.647,89.604,173.751,117.139
	c67.424,28.518,139.021,42.979,212.801,42.979s145.377-14.461,212.802-42.979c65.103-27.535,123.561-66.947,173.75-117.139
	c50.19-50.189,89.603-108.646,117.137-173.75c28.52-67.424,42.979-139.02,42.979-212.802
	C1186.667,566.219,1172.207,494.623,1143.688,427.198z M405.891,216.34c1.604-0.84,3.579-1.875,5.902-3.092
	c1.167-0.598,2.403-1.291,3.759-1.938c1.355-0.651,2.795-1.344,4.316-2.074c3.047-1.458,6.417-3.094,10.134-4.768
	c3.722-1.658,7.778-3.383,12.106-5.266c4.354-1.806,9.04-3.595,13.964-5.558c4.952-1.875,10.215-3.688,15.69-5.666
	c2.767-0.896,5.591-1.812,8.47-2.743c2.886-0.911,5.809-1.917,8.827-2.768c6.026-1.75,12.26-3.591,18.738-5.204
	c12.918-3.414,26.729-6.293,41.103-8.836c3.601-0.587,7.229-1.207,10.894-1.769c3.661-0.591,7.373-1,11.095-1.512
	c7.441-1.078,15.023-1.724,22.658-2.464c7.653-0.536,15.332-1.233,23.178-1.442c3.901-0.152,7.858-0.353,11.651-0.373
	c3.872-0.06,7.748-0.121,11.624-0.181c15.583,0.127,31.166,0.708,46.452,2.01c7.635,0.739,15.214,1.403,22.656,2.471
	c3.723,0.514,7.434,0.921,11.095,1.512c3.658,0.596,7.291,1.188,10.893,1.773c14.373,2.542,28.184,5.424,41.101,8.84
	c6.479,1.613,12.714,3.447,18.736,5.204c3.021,0.851,5.942,1.854,8.829,2.764c2.878,0.934,5.702,1.849,8.469,2.744
	c5.476,1.979,10.74,3.784,15.69,5.663c4.924,1.961,9.611,3.746,13.965,5.555c4.329,1.878,8.386,3.604,12.107,5.261
	c3.72,1.671,7.101,3.312,10.148,4.768c1.523,0.73,2.964,1.422,4.32,2.073c1.356,0.648,2.584,1.335,3.75,1.932
	c2.32,1.215,4.293,2.247,5.894,3.084c3.188,1.705,3.188,1.705,3.188,1.705c0.937,0.5,0.867,0.666-0.15,0.368c0,0,0,0-3.47-1.014
	c-3.456-1.027-8.53-2.627-14.99-4.427c-3.236-0.895-6.768-1.99-10.66-3.053c-3.911-1.022-8.11-2.195-12.604-3.415
	c-4.508-1.143-9.306-2.358-14.363-3.642c-5.066-1.192-10.396-2.446-15.957-3.753c-11.162-2.402-23.229-4.979-36.082-7.158
	c-12.815-2.347-26.421-4.22-40.481-5.999c-3.521-0.392-7.073-0.787-10.65-1.185c-3.571-0.438-7.188-0.692-10.814-1.051
	c-1.814-0.167-3.636-0.335-5.46-0.504c-1.824-0.167-3.662-0.257-5.499-0.391c-3.675-0.267-7.366-0.536-11.073-0.805
	c-3.712-0.186-7.438-0.371-11.176-0.558c-1.868-0.096-3.739-0.197-5.616-0.226c-1.874-0.062-3.752-0.122-5.631-0.184
	c-7.514-0.333-15.066-0.28-22.614-0.37c-3.794,0.033-7.588,0.067-11.379,0.102c-3.872-0.008-7.563,0.16-11.298,0.277
	c-7.433,0.19-14.938,0.604-22.359,0.973c-3.707,0.272-7.398,0.543-11.072,0.813c-1.837,0.133-3.675,0.223-5.5,0.39
	c-1.825,0.168-3.645,0.336-5.459,0.503c-3.626,0.358-7.245,0.612-10.814,1.049c-3.571,0.434-7.126,0.799-10.65,1.191
	c-14.061,1.776-27.665,3.652-40.479,6.002c-12.853,2.176-24.919,4.753-36.081,7.153c-5.562,1.308-10.89,2.56-15.958,3.75
	c-5.059,1.281-9.855,2.496-14.364,3.639c-4.492,1.215-8.691,2.39-12.604,3.411c-3.896,1.061-7.438,2.161-10.678,3.054
	c-6.474,1.802-11.515,3.386-14.977,4.413c-3.473,1.013-3.473,1.013-3.473,1.013c-1.019,0.297-1.087,0.131-0.151-0.37
	C402.706,218.046,402.706,218.046,405.891,216.34z M874.109,1063.658c-1.604,0.84-3.578,1.875-5.901,3.092
	c-1.168,0.6-2.403,1.291-3.759,1.939c-1.355,0.65-2.795,1.342-4.316,2.072c-3.047,1.457-6.418,3.094-10.134,4.768
	c-3.722,1.66-7.778,3.383-12.106,5.266c-4.354,1.807-9.041,3.596-13.965,5.559c-4.951,1.875-10.215,3.688-15.689,5.666
	c-2.768,0.896-5.592,1.813-8.469,2.742c-2.887,0.91-5.81,1.916-8.828,2.768c-6.026,1.75-12.26,3.592-18.738,5.205
	c-12.919,3.414-26.729,6.295-41.104,8.836c-3.601,0.588-7.229,1.207-10.894,1.77c-3.661,0.59-7.372,0.998-11.096,1.512
	c-7.441,1.078-15.022,1.723-22.657,2.465c-15.194,1.303-31.166,1.875-46.33,1.994c-3.938-0.063-7.873-0.123-11.806-0.188
	c-3.894-0.02-7.777-0.223-11.655-0.373c-7.76-0.211-15.466-0.92-23.115-1.449c-7.634-0.738-15.214-1.402-22.656-2.471
	c-3.723-0.514-7.434-0.92-11.095-1.512c-3.659-0.596-7.291-1.188-10.893-1.773c-14.372-2.541-28.183-5.424-41.101-8.84
	c-6.479-1.613-12.713-3.447-18.736-5.203c-3.021-0.85-5.942-1.855-8.829-2.766c-2.878-0.934-5.702-1.848-8.468-2.742
	c-5.476-1.98-10.741-3.785-15.691-5.664c-4.924-1.961-9.611-3.744-13.964-5.553c-4.33-1.879-8.386-3.605-12.108-5.262
	c-3.72-1.672-7.101-3.313-10.148-4.77c-1.523-0.729-2.965-1.422-4.32-2.072c-1.357-0.648-2.584-1.336-3.75-1.932
	c-2.32-1.215-4.293-2.248-5.893-3.086c-3.188-1.703-3.188-1.703-3.188-1.703c-0.935-0.5-0.867-0.666,0.15-0.369c0,0,0,0,3.47,1.016
	c3.456,1.027,8.53,2.627,14.99,4.428c3.236,0.895,6.768,1.99,10.662,3.053c3.91,1.023,8.109,2.195,12.602,3.414
	c4.508,1.145,9.306,2.359,14.364,3.643c5.067,1.191,10.396,2.445,15.957,3.754c11.161,2.4,23.229,4.979,36.082,7.156
	c12.815,2.35,26.42,4.223,40.481,6c3.522,0.393,7.074,0.787,10.651,1.186c3.571,0.438,7.188,0.691,10.814,1.049
	c1.814,0.168,3.635,0.336,5.459,0.504c1.825,0.168,3.662,0.26,5.499,0.393c3.675,0.268,7.366,0.535,11.073,0.805
	c3.712,0.186,7.438,0.371,11.176,0.559c1.868,0.096,3.739,0.197,5.616,0.225c1.875,0.063,3.752,0.123,5.631,0.184
	c3.758,0.117,7.521,0.285,11.294,0.275c3.73,0.031,7.464,0.063,11.197,0.096c15.521-0.02,30.224-0.531,45.159-1.352
	c3.706-0.271,7.398-0.543,11.072-0.813c1.837-0.135,3.674-0.225,5.499-0.391c1.825-0.168,3.645-0.336,5.459-0.504
	c3.626-0.357,7.245-0.611,10.814-1.049c3.571-0.434,7.126-0.799,10.649-1.189c14.062-1.777,27.665-3.654,40.479-6.004
	c12.853-2.176,24.919-4.752,36.08-7.154c5.562-1.307,10.891-2.559,15.958-3.75c5.059-1.281,9.855-2.496,14.364-3.637
	c4.492-1.217,8.69-2.391,12.603-3.412c3.897-1.061,7.438-2.16,10.679-3.053c6.474-1.803,11.515-3.387,14.977-4.414
	c3.472-1.012,3.472-1.012,3.472-1.012c1.02-0.299,1.088-0.133,0.152,0.369C877.295,1061.953,877.295,1061.953,874.109,1063.658z
	 M1016.808,955.295c-9.816,25.688-40.35,46.705-67.85,46.705H331.041c-27.5,0-58.032-21.018-67.85-46.705
	c0,0-79.858-208.959-79.858-315.296c0-105.882,79.169-314.26,79.169-314.26c9.767-25.707,40.258-46.74,67.758-46.74h619.479
	c27.5,0,57.991,21.033,67.758,46.74c0,0,79.17,208.378,79.17,314.26C1096.667,746.336,1016.808,955.295,1016.808,955.295z"/>
<g>
	<g>
		<path fill="#FFFFFF" d="M1444.6,721.188h-61.381v166.446h-49.303V721.188h-60.258v-38.065H1444.6V721.188z"/>
		<path fill="#FFFFFF" d="M1625.937,811.364l23.457-128.241h48.88l-43.402,204.512h-51.128l-27.39-116.583l-26.828,116.583h-50.987
			l-43.544-204.512h49.021l23.457,128.241l28.092-128.241h41.858L1625.937,811.364z"/>
		<path fill="#FFFFFF" d="M1844.354,800.83h-77.534v48.881h91.581v37.924h-140.883V683.123h141.164v38.065h-91.862v43.121h77.534
			V800.83z"/>
		<path fill="#FFFFFF" d="M2005.322,800.83h-77.535v48.881h91.582v37.924h-140.883V683.123h141.164v38.065h-91.863v43.121h77.535
			V800.83z"/>
		<path fill="#FFFFFF" d="M2202.813,721.188h-61.382v166.446h-49.303V721.188h-60.258v-38.065h170.942V721.188z"/>
		<path fill="#FFFFFF" d="M2326.84,833.276c0-7.209-2.552-12.828-7.655-16.855c-5.104-4.024-14.07-8.192-26.897-12.501
			c-12.831-4.306-23.317-8.474-31.464-12.501c-26.501-13.015-39.751-30.901-39.751-53.656c0-11.329,3.301-21.326,9.902-29.988
			c6.603-8.661,15.943-15.403,28.022-20.227c12.08-4.822,25.656-7.234,40.733-7.234c14.701,0,27.882,2.623,39.541,7.866
			c11.657,5.245,20.717,12.712,27.179,22.403c6.461,9.692,9.692,20.767,9.692,33.22h-49.162c0-8.334-2.553-14.795-7.655-19.384
			c-5.104-4.587-12.009-6.883-20.718-6.883c-8.803,0-15.756,1.944-20.858,5.829c-5.105,3.887-7.655,8.827-7.655,14.818
			c0,5.246,2.809,9.997,8.428,14.258c5.618,4.262,15.496,8.662,29.637,13.203c14.139,4.543,25.751,9.435,34.835,14.678
			c22.099,12.736,33.149,30.294,33.149,52.674c0,17.887-6.742,31.933-20.227,42.138c-13.484,10.208-31.979,15.311-55.482,15.311
			c-16.574,0-31.582-2.972-45.019-8.92c-13.438-5.944-23.551-14.092-30.34-24.439c-6.79-10.346-10.183-22.264-10.183-35.748h49.442
			c0,10.956,2.831,19.033,8.497,24.229c5.665,5.197,14.865,7.796,27.602,7.796c8.146,0,14.584-1.756,19.313-5.268
			C2324.475,844.584,2326.84,839.646,2326.84,833.276z"/>
	</g>
	<g>
		<path fill="#FFFFFF" d="M1420.913,568.501c0-12.909-4.538-23.128-13.604-30.651c-9.071-7.521-25.665-14.67-49.778-21.448
			c-24.118-6.774-41.724-14.164-52.821-22.168c-15.793-11.309-23.688-26.142-23.688-44.496c0-17.819,7.334-32.304,22.008-43.456
			c14.669-11.148,33.425-16.726,56.261-16.726c15.47,0,29.315,2.988,41.534,8.963c12.219,5.978,21.688,14.3,28.412,24.97
			c6.722,10.671,10.084,22.567,10.084,35.692h-19.848c0-15.945-5.443-28.763-16.326-38.449c-10.885-9.686-25.505-14.53-43.856-14.53
			c-17.822,0-32.011,3.981-42.575,11.944s-15.848,18.354-15.848,31.18c0,11.864,4.747,21.538,14.246,29.018
			c9.496,7.483,24.703,14.083,45.616,19.8c20.914,5.718,36.76,11.646,47.538,17.779c10.777,6.138,18.889,13.473,24.328,22.008
			c5.443,8.538,8.164,18.622,8.164,30.252c0,18.354-7.338,33.079-22.008,44.176c-14.674,11.1-34.014,16.646-58.022,16.646
			c-16.433,0-31.506-2.936-45.216-8.804c-13.713-5.868-24.116-14.085-31.212-24.648c-7.098-10.564-10.644-22.674-10.644-36.334
			h19.688c0,16.434,6.135,29.398,18.405,38.895c12.271,9.499,28.596,14.245,48.979,14.245c18.14,0,32.705-4.002,43.696-12.004
			C1415.416,592.35,1420.913,581.733,1420.913,568.501z"/>
		<path fill="#FFFFFF" d="M1507.185,625.803h-19.687V392.757h19.687V625.803z"/>
		<path fill="#FFFFFF" d="M1596.496,392.757l85.952,205.676l86.273-205.676h26.248v233.046h-19.687V524.325l1.601-104.039
			l-86.752,205.517h-15.206l-86.433-204.716l1.602,102.598v102.118h-19.688V392.757H1596.496z"/>
		<path fill="#FFFFFF" d="M1873.72,530.888v94.915h-19.688V392.757h79.39c24.222,0,43.348,6.189,57.38,18.566
			c14.031,12.38,21.048,29.398,21.048,51.059c0,21.876-6.75,38.763-20.246,50.659c-13.5,11.899-33.054,17.847-58.662,17.847H1873.72
			z M1873.72,514.241h59.702c19.101,0,33.664-4.542,43.695-13.624c10.029-9.084,15.047-21.749,15.047-37.995
			c0-16.136-4.991-28.985-14.967-38.552c-9.979-9.563-24.145-14.453-42.496-14.667h-60.981V514.241z"/>
		<path fill="#FFFFFF" d="M2075.715,609.156h115.083v16.646h-134.933V392.757h19.85V609.156z"/>
		<path fill="#FFFFFF" d="M2357.257,514.081h-108.999v95.075h125.326v16.646H2228.57V392.757h144.213v16.646h-124.525v88.032
			h108.999V514.081z"/>
	</g>
</g>
</svg>
