<svg width="557" height="537" viewBox="0 0 557 537" fill="none" xmlns="http://www.w3.org/2000/svg">
<g filter="url(#filter0_f_1_2)">
<path d="M87.7496 371.957C69.0958 361.188 69.0959 343.728 87.7496 332.959L244.443 242.499C263.097 231.73 293.34 231.73 311.994 242.499L468.688 332.959C487.341 343.728 487.341 361.188 468.688 371.957L311.994 462.417C293.34 473.186 263.097 473.186 244.443 462.417L87.7496 371.957Z" fill="black" fill-opacity="0.5"/>
</g>
<path d="M87.7496 331.957C69.0959 321.188 69.0959 303.728 87.7496 292.959L244.443 202.499C263.097 191.73 293.34 191.73 311.994 202.499L468.688 292.959C487.341 303.728 487.341 321.188 468.688 331.957L311.994 422.417C293.34 433.186 263.097 433.186 244.443 422.417L87.7496 331.957Z" fill="white"/>
<path d="M87.7496 331.957C69.0959 321.188 69.0959 303.728 87.7496 292.959L244.443 202.499C263.097 191.73 293.34 191.73 311.994 202.499L338.258 217.661L120.433 338.423C116.332 340.696 114.014 343.837 114.014 347.119V347.119L87.7496 331.957Z" fill="#FF0000"/>
<path d="M87.7496 331.957C69.0959 321.188 69.0959 303.728 87.7496 292.959L244.443 202.499C263.097 191.73 293.34 191.73 311.994 202.499L468.688 292.959C487.341 303.728 487.341 321.188 468.688 331.957L311.994 422.417C293.34 433.186 263.097 433.186 244.443 422.417L87.7496 331.957Z" fill="black" fill-opacity="0.2"/>
<path d="M87.7496 326.957C69.0959 316.188 69.0959 298.728 87.7496 287.959L244.443 197.499C263.097 186.73 293.34 186.73 311.994 197.499L468.688 287.959C487.341 298.728 487.341 316.188 468.688 326.957L311.994 417.417C293.34 428.186 263.097 428.186 244.443 417.417L87.7496 326.957Z" fill="white"/>
<path d="M87.7496 326.957C69.0959 316.188 69.0959 298.728 87.7496 287.959L244.443 197.499C263.097 186.73 293.34 186.73 311.994 197.499L338.258 212.661L114.014 342.119L87.7496 326.957Z" fill="#FF0000"/>
<path d="M133.545 342.537L158.863 327.921L184.181 342.537L158.863 357.153L133.545 342.537Z" fill="#D9D9D9"/>
<path d="M168.99 363L194.308 348.384L219.626 363L194.308 377.616L168.99 363Z" fill="#D9D9D9"/>
<path d="M204.435 383.463L229.753 368.846L255.071 383.463L229.753 398.079L204.435 383.463Z" fill="#D9D9D9"/>
<path d="M239.88 403.925L265.198 389.309L290.516 403.925L265.198 418.542L239.88 403.925Z" fill="#D9D9D9"/>
<path d="M163.926 324.998L188.521 310.799L213.839 325.415L189.244 339.614L163.926 324.998Z" fill="#D9D9D9"/>
<path d="M199.371 345.46L223.966 331.262L249.284 345.878L224.689 360.077L199.371 345.46Z" fill="#D9D9D9"/>
<path d="M234.816 365.923L259.411 351.724L284.729 366.341L260.134 380.539L234.816 365.923Z" fill="#D9D9D9"/>
<path d="M270.262 386.386L294.856 372.187L320.174 386.803L295.579 401.002L270.262 386.386Z" fill="#D9D9D9"/>
<path d="M193.584 307.876L218.902 293.259L244.22 307.876L218.902 322.492L193.584 307.876Z" fill="#D9D9D9"/>
<path d="M229.029 328.338L254.347 313.722L279.665 328.338L254.347 342.955L229.029 328.338Z" fill="#D9D9D9"/>
<path d="M264.475 348.801L289.793 334.185L315.11 348.801L289.793 363.417L264.475 348.801Z" fill="#D9D9D9"/>
<path d="M299.92 369.264L325.238 354.648L350.556 369.264L325.238 383.88L299.92 369.264Z" fill="#D9D9D9"/>
<path d="M223.966 290.336L248.56 276.138L273.878 290.754L249.284 304.952L223.966 290.336Z" fill="#D9D9D9"/>
<path d="M259.411 310.799L284.006 296.6L309.323 311.217L284.729 325.415L259.411 310.799Z" fill="#D9D9D9"/>
<path d="M294.856 331.262L319.451 317.063L344.769 331.679L320.174 345.878L294.856 331.262Z" fill="#D9D9D9"/>
<path d="M330.301 351.724L354.896 337.526L380.214 352.142L355.619 366.341L330.301 351.724Z" fill="#D9D9D9"/>
<path d="M253.624 273.214L278.942 258.598L304.26 273.214L278.942 287.831L253.624 273.214Z" fill="#D9D9D9"/>
<path d="M289.069 293.677L314.387 279.061L339.705 293.677L314.387 308.293L289.069 293.677Z" fill="#D9D9D9"/>
<path d="M324.514 314.14L349.832 299.524L375.15 314.14L349.832 328.756L324.514 314.14Z" fill="#D9D9D9"/>
<path d="M359.959 334.603L385.277 319.986L410.595 334.603L385.277 349.219L359.959 334.603Z" fill="#D9D9D9"/>
<path d="M284.006 255.675L308.6 241.476L333.918 256.092L309.324 270.291L284.006 255.675Z" fill="#D9D9D9"/>
<path d="M319.451 276.138L344.045 261.939L369.363 276.555L344.769 290.754L319.451 276.138Z" fill="#D9D9D9"/>
<path d="M354.896 296.6L379.49 282.402L404.808 297.018L380.214 311.217L354.896 296.6Z" fill="#D9D9D9"/>
<path d="M390.341 317.063L414.935 302.864L440.253 317.481L415.659 331.679L390.341 317.063Z" fill="#D9D9D9"/>
<path d="M313.664 238.553L338.982 223.937L364.3 238.553L338.982 253.169L313.664 238.553Z" fill="#D9D9D9"/>
<path d="M349.109 259.016L374.427 244.399L399.745 259.016L374.427 273.632L349.109 259.016Z" fill="#D9D9D9"/>
<path d="M384.554 279.478L409.872 264.862L435.19 279.478L409.872 294.095L384.554 279.478Z" fill="#D9D9D9"/>
<path d="M419.999 299.941L445.317 285.325L470.635 299.941L445.317 314.557L419.999 299.941Z" fill="#D9D9D9"/>
<g filter="url(#filter1_f_1_2)">
<path d="M88.0434 287.663L278 178L477.281 293.046L287.324 402.71L88.0434 287.663Z" fill="black" fill-opacity="0.2"/>
</g>
<path d="M60.6602 187.855L287.324 57L513.988 187.855L287.324 318.71L60.6602 187.855Z" fill="#FDFFA4"/>
<path d="M60.6602 187.855L287.324 57L513.988 187.855L287.324 318.71L60.6602 187.855Z" fill="black" fill-opacity="0.07"/>
<path d="M60.6602 185.855L287.324 55L513.988 185.855L287.324 316.71L60.6602 185.855Z" fill="#FDFFA4"/>
<path d="M60.6602 185.855L287.324 55L328.165 78.5775L101.501 209.432L60.6602 185.855Z" fill="black" fill-opacity="0.07"/>
<path fill-rule="evenodd" clip-rule="evenodd" d="M176.115 190.314L154.58 204.767C153.498 205.493 153.567 206.551 154.734 207.13L177.962 218.666C179.129 219.245 180.951 219.126 182.032 218.4L203.568 203.948C204.649 203.222 204.58 202.164 203.414 201.585L180.185 190.049C179.019 189.47 177.196 189.589 176.115 190.314ZM150.356 202.669C147.112 204.846 147.318 208.02 150.818 209.758L174.046 221.294C177.546 223.031 183.012 222.675 186.256 220.498L207.792 206.045C211.036 203.868 210.829 200.695 207.33 198.957L184.101 187.421C180.602 185.683 175.135 186.04 171.891 188.217L150.356 202.669Z" fill="#FF0000"/>
<path fill-rule="evenodd" clip-rule="evenodd" d="M226.595 219.615L203.579 231.569C202.423 232.169 202.375 233.226 203.471 233.929L225.298 247.936C226.394 248.64 228.22 248.723 229.375 248.123L252.392 236.169C253.547 235.569 253.596 234.512 252.5 233.809L230.672 219.802C229.576 219.098 227.751 219.015 226.595 219.615ZM199.609 229.021C196.142 230.822 195.997 233.993 199.285 236.103L221.113 250.11C224.401 252.22 229.877 252.471 233.345 250.67L256.361 238.716C259.828 236.915 259.973 233.745 256.685 231.635L234.858 217.628C231.569 215.518 226.093 215.267 222.626 217.068L199.609 229.021Z" fill="#FF0000"/>
<path fill-rule="evenodd" clip-rule="evenodd" d="M273.913 246.774L252.378 261.226C251.296 261.952 251.365 263.01 252.531 263.589L275.76 275.125C276.926 275.704 278.749 275.585 279.83 274.86L301.365 260.407C302.447 259.681 302.378 258.624 301.211 258.044L277.983 246.509C276.816 245.929 274.994 246.048 273.913 246.774ZM248.153 259.129C244.909 261.306 245.116 264.48 248.615 266.217L271.844 277.753C275.343 279.491 280.81 279.135 284.054 276.957L305.589 262.505C308.833 260.328 308.627 257.154 305.127 255.416L281.899 243.881C278.399 242.143 272.933 242.499 269.689 244.676L248.153 259.129Z" fill="#FF0000"/>
<path d="M325.868 117.039C326.116 117.039 326.372 117.054 326.638 117.085C326.886 117.105 327.124 117.141 327.355 117.192C327.832 117.305 328.24 117.458 328.576 117.652C328.912 117.826 329.178 118.122 329.372 118.541C329.567 119.001 329.594 119.466 329.452 119.936C329.328 120.396 329.036 120.809 328.576 121.177C328.257 121.443 327.868 121.668 327.408 121.852C326.93 122.025 326.381 122.138 325.762 122.189C325.744 122.301 325.788 122.429 325.894 122.572C326.001 122.695 326.133 122.792 326.293 122.863C326.576 122.986 326.939 123.093 327.381 123.185C327.824 123.257 328.186 123.272 328.47 123.231C328.894 123.129 329.319 122.894 329.744 122.526C330.186 122.148 330.602 121.724 330.992 121.254C331.381 120.763 331.735 120.273 332.054 119.782C332.372 119.272 332.647 118.837 332.877 118.48C332.983 118.541 333.027 118.597 333.009 118.648C333.009 118.689 333.018 118.756 333.036 118.848C333.036 118.95 333.045 119.067 333.063 119.2C333.08 119.333 333.063 119.466 333.009 119.599C332.939 119.762 332.948 119.92 333.036 120.074C333.107 120.217 333.089 120.401 332.983 120.625C332.824 120.922 332.664 121.228 332.505 121.545C332.346 121.841 332.178 122.133 332.001 122.419C331.806 122.695 331.576 122.96 331.31 123.216C331.045 123.451 330.726 123.655 330.355 123.829C330.089 123.941 329.832 124.018 329.585 124.059C329.355 124.089 329.045 124.115 328.655 124.135C328.461 124.145 328.248 124.166 328.018 124.197C327.788 124.227 327.594 124.237 327.434 124.227C326.691 124.145 326.018 123.992 325.417 123.767C324.797 123.532 324.266 123.257 323.824 122.94C323.381 122.603 323.018 122.24 322.735 121.852C322.434 121.453 322.24 121.044 322.151 120.625C322.098 120.39 322.08 120.135 322.098 119.859C322.116 119.563 322.186 119.277 322.31 119.001C322.434 118.704 322.611 118.429 322.841 118.173C323.089 117.907 323.399 117.678 323.77 117.483C323.93 117.412 324.098 117.366 324.275 117.345C324.452 117.305 324.647 117.264 324.859 117.223C324.983 117.192 325.142 117.162 325.337 117.131C325.532 117.08 325.709 117.049 325.868 117.039ZM326.664 118.388C326.47 118.316 326.231 118.291 325.947 118.311C325.664 118.332 325.39 118.377 325.124 118.449C324.841 118.51 324.594 118.592 324.381 118.694C324.169 118.796 324.036 118.883 323.983 118.955C323.894 119.067 323.824 119.22 323.77 119.415C323.717 119.588 323.691 119.777 323.691 119.982C323.709 120.176 323.744 120.38 323.797 120.595C323.85 120.789 323.93 120.958 324.036 121.101C324.054 121.152 324.107 121.223 324.195 121.315C324.284 121.387 324.372 121.428 324.461 121.438C324.939 121.468 325.39 121.361 325.815 121.116C326.222 120.881 326.558 120.574 326.824 120.196C327.107 119.808 327.24 119.496 327.222 119.261C327.204 119.231 327.178 119.174 327.142 119.093C327.124 119.001 327.089 118.909 327.036 118.817C326.983 118.725 326.921 118.638 326.85 118.556C326.797 118.464 326.735 118.408 326.664 118.388Z" fill="#FF0000"/>
<path d="M320.713 122.682C320.784 122.682 320.828 122.677 320.846 122.666C320.864 122.656 320.89 122.661 320.926 122.682C320.943 122.712 320.943 122.763 320.926 122.835C320.908 122.886 320.828 122.963 320.687 123.065C320.651 123.106 320.616 123.167 320.581 123.249C320.527 123.32 320.483 123.376 320.448 123.417C320.076 123.754 319.607 124.138 319.041 124.567C318.492 124.986 317.908 125.415 317.288 125.854C317.873 126.232 318.43 126.575 318.961 126.881C319.51 127.177 319.996 127.428 320.421 127.632C320.757 127.785 321.05 127.791 321.297 127.648C321.527 127.494 321.731 127.315 321.908 127.111C321.961 127.06 322.067 126.907 322.227 126.651C322.386 126.375 322.572 126.064 322.784 125.716C322.996 125.348 323.218 124.965 323.448 124.567C323.66 124.158 323.855 123.79 324.032 123.463C324.28 123.606 324.386 123.821 324.35 124.107C324.333 124.26 324.288 124.419 324.218 124.582C324.165 124.735 324.111 124.899 324.058 125.073C323.988 125.257 323.988 125.41 324.058 125.532C324.129 125.655 324.12 125.834 324.032 126.069C323.873 126.508 323.651 126.953 323.368 127.402C323.085 127.852 322.784 128.23 322.465 128.536C322.359 128.639 322.227 128.736 322.067 128.828C321.926 128.909 321.811 129.006 321.722 129.119C321.598 129.293 321.412 129.379 321.165 129.379C320.934 129.369 320.687 129.308 320.421 129.196C319.696 128.858 318.943 128.485 318.165 128.077C317.403 127.658 316.651 127.223 315.908 126.774C315.412 127.101 314.934 127.397 314.474 127.663C314.014 127.908 313.616 128.097 313.28 128.23C312.979 128.363 312.678 128.475 312.377 128.567C312.076 128.639 311.749 128.674 311.395 128.674C311.235 128.766 311.111 128.756 311.023 128.644C310.934 128.511 310.855 128.404 310.784 128.322C311.138 128.097 311.66 127.775 312.35 127.356C313.041 126.917 313.784 126.447 314.58 125.946C313.182 125.057 311.943 124.199 310.864 123.371C309.784 122.544 309.058 121.88 308.687 121.379C308.527 121.287 308.483 121.19 308.554 121.088C308.625 120.965 308.687 120.837 308.74 120.704C308.775 120.643 308.802 120.577 308.819 120.505C308.837 120.413 308.917 120.326 309.058 120.245C309.306 120.204 309.501 120.183 309.642 120.183C309.766 120.173 309.872 120.194 309.961 120.245C310.049 120.296 310.129 120.372 310.2 120.475C310.271 120.577 310.368 120.704 310.492 120.858C310.51 120.909 310.678 121.067 310.996 121.333C311.315 121.599 311.731 121.931 312.244 122.329C312.757 122.707 313.35 123.141 314.023 123.632C314.678 124.112 315.359 124.587 316.067 125.057C316.651 124.72 317.218 124.403 317.766 124.107C318.297 123.8 318.784 123.54 319.227 123.325L320.713 122.682Z" fill="#FF0000"/>
<path d="M306.14 127.784C306.423 127.784 306.591 127.82 306.644 127.892C306.715 127.953 306.697 128.004 306.591 128.045C306.361 128.178 306.131 128.341 305.901 128.535C305.671 128.709 305.414 128.898 305.131 129.103C304.848 129.287 304.529 129.47 304.175 129.654C303.821 129.838 303.423 129.997 302.98 130.129C302.697 130.129 302.573 130.058 302.609 129.915C302.644 129.751 302.591 129.578 302.449 129.394C302.343 129.271 302.308 129.169 302.343 129.087C302.379 128.985 302.44 128.898 302.529 128.827C302.724 128.714 303.007 128.602 303.379 128.49C303.75 128.357 304.042 128.239 304.255 128.137C304.591 127.984 304.892 127.871 305.157 127.8C305.405 127.718 305.733 127.713 306.14 127.784ZM309.193 130.191C309.706 130.364 310.157 130.533 310.547 130.697C310.954 130.85 311.325 131.013 311.662 131.187C311.998 131.34 312.325 131.509 312.644 131.693C312.98 131.867 313.334 132.061 313.706 132.275C313.777 132.316 313.812 132.388 313.812 132.49C313.812 132.572 313.839 132.648 313.892 132.72C313.98 132.853 314.016 132.945 313.998 132.996C313.998 133.036 313.972 133.103 313.918 133.195C313.777 133.399 313.706 133.614 313.706 133.839C313.14 133.777 312.591 133.644 312.06 133.44C311.547 133.225 311.033 132.99 310.52 132.735C310.025 132.469 309.52 132.209 309.007 131.953C308.494 131.677 307.954 131.437 307.387 131.233C307.087 131.121 306.936 131.013 306.936 130.911C306.936 130.809 306.971 130.717 307.042 130.635C307.131 130.543 307.29 130.482 307.52 130.451C307.768 130.41 308.007 130.375 308.237 130.344C308.432 130.313 308.591 130.273 308.715 130.221C308.839 130.15 308.998 130.14 309.193 130.191Z" fill="#FF0000"/>
<path d="M301.869 132.028C302.046 132.232 302.179 132.39 302.268 132.503C302.356 132.615 302.294 132.671 302.082 132.671C301.586 132.671 301.02 132.692 300.383 132.733C299.746 132.774 299.135 132.922 298.551 133.177C298.179 133.351 297.861 133.586 297.595 133.882C297.33 134.158 297.285 134.459 297.462 134.786C297.604 135.073 297.958 135.308 298.524 135.491C299.091 135.696 299.657 135.757 300.223 135.675C300.79 135.573 301.356 135.43 301.923 135.246C302.489 135.042 303.046 134.832 303.595 134.618C304.161 134.393 304.728 134.25 305.294 134.189C305.454 134.158 305.622 134.163 305.799 134.204C305.976 134.224 306.144 134.24 306.303 134.25C306.498 134.26 306.666 134.265 306.807 134.265C306.967 134.255 307.153 134.27 307.365 134.311C307.524 134.342 307.719 134.383 307.949 134.434C308.161 134.475 308.338 134.557 308.48 134.679C308.657 134.843 308.684 135.113 308.56 135.491C308.259 136.299 307.799 137.065 307.179 137.791C306.577 138.526 305.648 139.134 304.392 139.614C304.232 139.665 303.967 139.676 303.595 139.645C303.241 139.625 302.976 139.625 302.799 139.645C302.356 139.717 301.958 139.711 301.604 139.63C301.002 139.446 300.427 139.195 299.878 138.879C299.701 138.777 299.648 138.715 299.719 138.695C299.79 138.654 299.852 138.618 299.905 138.587C300.011 138.526 300.197 138.501 300.462 138.511C300.746 138.511 301.055 138.526 301.392 138.557C301.728 138.567 302.038 138.582 302.321 138.603C302.604 138.603 302.79 138.577 302.878 138.526C303.321 138.434 303.763 138.271 304.206 138.036C304.648 137.801 305.038 137.535 305.374 137.239C305.71 136.922 305.958 136.595 306.117 136.258C306.277 135.9 306.303 135.558 306.197 135.231C306.108 135.18 305.896 135.18 305.56 135.231C305.241 135.272 304.852 135.343 304.392 135.445C303.914 135.537 303.4 135.65 302.852 135.783C302.321 135.905 301.79 136.018 301.259 136.12C300.746 136.212 300.259 136.278 299.799 136.319C299.356 136.35 298.993 136.334 298.71 136.273C298.515 136.222 298.312 136.176 298.099 136.135C297.869 136.084 297.71 136.043 297.622 136.013C297.144 135.839 296.754 135.635 296.453 135.4C296.135 135.154 295.914 134.904 295.79 134.649C295.666 134.393 295.648 134.138 295.737 133.882C295.807 133.616 295.984 133.371 296.268 133.146C296.728 132.799 297.294 132.472 297.967 132.166C298.639 131.839 299.392 131.639 300.223 131.568C300.489 131.558 300.701 131.568 300.861 131.598C301.038 131.619 301.215 131.66 301.392 131.721C301.498 131.762 301.604 131.803 301.71 131.844C301.799 131.874 301.852 131.936 301.869 132.028Z" fill="#FF0000"/>
<path d="M282.208 136.542C282.279 136.542 282.332 136.542 282.367 136.542C282.421 136.532 282.474 136.542 282.527 136.573C283.075 136.89 283.677 137.207 284.332 137.523C284.987 137.84 285.651 138.162 286.323 138.489C286.978 138.806 287.624 139.128 288.261 139.455C288.916 139.771 289.509 140.083 290.04 140.389C289.987 140.216 289.925 140.017 289.854 139.792C289.801 139.557 289.792 139.317 289.828 139.071C289.863 138.826 289.952 138.591 290.093 138.366C290.235 138.121 290.465 137.896 290.783 137.692C290.783 137.549 290.837 137.447 290.943 137.385C291.102 137.273 291.332 137.212 291.633 137.201C291.916 137.181 292.235 137.171 292.589 137.171C293.049 137.171 293.518 137.217 293.996 137.309C294.474 137.401 294.907 137.528 295.297 137.692C295.686 137.855 296.005 138.05 296.252 138.274C296.518 138.489 296.651 138.729 296.651 138.995C297.093 139.516 297.341 140.027 297.394 140.527C297.429 141.018 297.332 141.462 297.102 141.861L296.306 143.24C296.252 143.332 296.217 143.434 296.199 143.547C296.182 143.639 296.146 143.731 296.093 143.823C296.04 143.894 295.952 143.925 295.828 143.915C295.739 143.904 295.633 143.915 295.509 143.945C295.208 144.017 294.943 144.017 294.713 143.945C294.5 143.884 294.332 143.828 294.208 143.777C294.084 143.726 293.907 143.654 293.677 143.562C292.615 143.174 291.518 142.704 290.385 142.152C289.27 141.59 288.191 141.018 287.146 140.435C286.102 139.833 285.111 139.25 284.173 138.688C283.235 138.106 282.429 137.6 281.757 137.171C281.527 137.038 281.385 136.946 281.332 136.895C281.297 136.834 281.306 136.767 281.359 136.696C281.376 136.665 281.403 136.629 281.438 136.588C281.474 136.548 281.553 136.512 281.677 136.481C281.748 136.461 281.828 136.466 281.916 136.496C282.005 136.507 282.102 136.522 282.208 136.542ZM294.606 138.336C294.5 138.274 294.314 138.228 294.049 138.198C293.783 138.147 293.5 138.116 293.199 138.106C292.916 138.085 292.633 138.085 292.35 138.106C292.067 138.126 291.845 138.162 291.686 138.213C291.545 138.356 291.429 138.576 291.341 138.872C291.235 139.158 291.208 139.429 291.261 139.684C291.368 140.338 291.748 140.875 292.403 141.294C293.058 141.713 293.837 142.05 294.739 142.305C294.845 142.183 294.96 142.014 295.084 141.8C295.226 141.575 295.359 141.335 295.483 141.079C295.606 140.824 295.722 140.573 295.828 140.328C295.916 140.073 295.978 139.853 296.014 139.669C295.978 139.424 295.854 139.209 295.642 139.025C295.412 138.831 295.067 138.601 294.606 138.336Z" fill="#FF0000"/>
<path d="M283.374 141.571C283.622 141.571 283.879 141.586 284.144 141.617C284.392 141.637 284.631 141.673 284.861 141.724C285.339 141.837 285.746 141.99 286.082 142.184C286.418 142.358 286.684 142.654 286.879 143.073C287.073 143.533 287.1 143.998 286.958 144.468C286.834 144.927 286.542 145.341 286.082 145.709C285.764 145.975 285.374 146.2 284.914 146.383C284.436 146.557 283.888 146.67 283.268 146.721C283.25 146.833 283.295 146.961 283.401 147.104C283.507 147.226 283.64 147.324 283.799 147.395C284.082 147.518 284.445 147.625 284.888 147.717C285.33 147.788 285.693 147.804 285.976 147.763C286.401 147.661 286.826 147.426 287.25 147.058C287.693 146.68 288.109 146.256 288.498 145.786C288.888 145.295 289.242 144.805 289.56 144.314C289.879 143.803 290.153 143.369 290.383 143.012C290.489 143.073 290.534 143.129 290.516 143.18C290.516 143.221 290.525 143.287 290.542 143.379C290.542 143.482 290.551 143.599 290.569 143.732C290.587 143.865 290.569 143.998 290.516 144.13C290.445 144.294 290.454 144.452 290.542 144.606C290.613 144.749 290.596 144.933 290.489 145.157C290.33 145.454 290.171 145.76 290.011 146.077C289.852 146.373 289.684 146.664 289.507 146.951C289.312 147.226 289.082 147.492 288.817 147.748C288.551 147.983 288.233 148.187 287.861 148.361C287.595 148.473 287.339 148.55 287.091 148.591C286.861 148.621 286.551 148.647 286.162 148.667C285.967 148.677 285.755 148.698 285.525 148.728C285.295 148.759 285.1 148.769 284.941 148.759C284.197 148.677 283.525 148.524 282.923 148.299C282.303 148.064 281.772 147.788 281.33 147.472C280.888 147.134 280.525 146.772 280.241 146.383C279.941 145.985 279.746 145.576 279.657 145.157C279.604 144.922 279.587 144.667 279.604 144.391C279.622 144.095 279.693 143.809 279.817 143.533C279.941 143.236 280.118 142.96 280.348 142.705C280.595 142.439 280.905 142.209 281.277 142.015C281.436 141.944 281.604 141.898 281.781 141.877C281.958 141.837 282.153 141.796 282.365 141.755C282.489 141.724 282.649 141.693 282.843 141.663C283.038 141.612 283.215 141.581 283.374 141.571ZM284.171 142.92C283.976 142.848 283.737 142.823 283.454 142.843C283.171 142.863 282.896 142.909 282.631 142.981C282.348 143.042 282.1 143.124 281.888 143.226C281.675 143.328 281.542 143.415 281.489 143.487C281.401 143.599 281.33 143.752 281.277 143.946C281.224 144.12 281.197 144.309 281.197 144.514C281.215 144.708 281.25 144.912 281.303 145.127C281.357 145.321 281.436 145.489 281.542 145.632C281.56 145.684 281.613 145.755 281.702 145.847C281.79 145.919 281.879 145.959 281.967 145.97C282.445 146 282.896 145.893 283.321 145.648C283.728 145.413 284.065 145.106 284.33 144.728C284.613 144.34 284.746 144.028 284.728 143.793C284.711 143.763 284.684 143.706 284.649 143.625C284.631 143.533 284.595 143.441 284.542 143.349C284.489 143.257 284.427 143.17 284.357 143.088C284.303 142.996 284.241 142.94 284.171 142.92Z" fill="#FF0000"/>
<path d="M279.961 153.688C279.943 153.78 279.943 153.872 279.961 153.964C279.996 154.066 280.014 154.158 280.014 154.24C280.014 154.321 279.979 154.383 279.908 154.423C279.872 154.464 279.775 154.48 279.616 154.469L279.138 154.439C278.111 154.377 277.164 154.219 276.297 153.964C275.448 153.698 274.607 153.407 273.775 153.09C272.925 152.763 272.049 152.431 271.147 152.094C270.262 151.746 269.297 151.455 268.253 151.22C268.43 151.711 268.713 152.242 269.102 152.814C269.474 153.376 269.881 153.938 270.324 154.5C270.784 155.052 271.253 155.588 271.731 156.109C272.209 156.61 272.633 157.039 273.005 157.397C273.147 157.54 273.209 157.657 273.191 157.749C273.209 157.841 273.244 157.933 273.297 158.025C273.333 158.087 273.386 158.179 273.456 158.301C273.545 158.434 273.545 158.526 273.456 158.577C273.368 158.628 273.279 158.649 273.191 158.638C273.102 158.628 272.979 158.618 272.819 158.608C270.554 158.342 268.43 157.923 266.448 157.351C264.465 156.758 262.678 156.135 261.085 155.481C260.111 155.471 259.412 155.404 258.987 155.282C258.563 155.159 258.262 155.088 258.085 155.067C257.766 155.026 257.571 154.924 257.501 154.761C257.43 154.597 257.474 154.449 257.633 154.316C257.74 154.255 257.846 154.183 257.952 154.102C258.058 154.02 258.2 153.959 258.377 153.918C258.695 153.856 259.155 153.877 259.757 153.979C260.359 154.061 261.253 154.301 262.439 154.699C263.005 154.904 263.616 155.113 264.271 155.328C264.943 155.532 265.616 155.736 266.288 155.941C266.943 156.135 267.58 156.319 268.2 156.493C268.819 156.666 269.35 156.82 269.793 156.952C269.651 156.605 269.403 156.145 269.049 155.573C268.695 155.001 268.332 154.393 267.961 153.749C267.571 153.095 267.2 152.441 266.846 151.787C266.474 151.123 266.209 150.53 266.049 150.009C266.014 149.907 266.014 149.825 266.049 149.764C266.085 149.703 266.111 149.636 266.129 149.565C266.147 149.514 266.147 149.463 266.129 149.412C266.111 149.34 266.12 149.294 266.155 149.274C266.262 149.171 266.377 149.156 266.501 149.228C266.943 149.36 267.518 149.529 268.226 149.733C268.952 149.928 269.74 150.157 270.589 150.423C271.439 150.689 272.315 150.99 273.217 151.327C274.12 151.644 274.97 151.981 275.766 152.339C275.501 151.941 275.182 151.491 274.81 150.99C274.421 150.479 274.023 149.943 273.616 149.381C273.226 148.809 272.846 148.221 272.474 147.618C272.12 147.005 271.828 146.397 271.598 145.794C271.527 145.611 271.51 145.416 271.545 145.212C271.563 144.997 271.563 144.793 271.545 144.599C271.545 144.435 271.527 144.292 271.492 144.17C271.456 144.047 271.448 143.909 271.465 143.756C271.571 143.736 271.731 143.848 271.943 144.093C272.049 144.257 272.173 144.451 272.315 144.676C272.439 144.89 272.563 145.074 272.686 145.227C273.766 146.525 274.846 147.833 275.925 149.151C277.005 150.449 278.226 151.757 279.589 153.075C279.66 153.136 279.74 153.233 279.828 153.366C279.934 153.509 279.979 153.616 279.961 153.688Z" fill="#FF0000"/>
<path d="M248.996 161.418C249.243 161.418 249.5 161.433 249.766 161.464C250.013 161.484 250.252 161.52 250.482 161.571C250.96 161.684 251.367 161.837 251.704 162.031C252.04 162.205 252.305 162.501 252.5 162.92C252.695 163.38 252.721 163.845 252.58 164.315C252.456 164.774 252.164 165.188 251.704 165.556C251.385 165.822 250.996 166.047 250.535 166.23C250.058 166.404 249.509 166.517 248.889 166.568C248.872 166.68 248.916 166.808 249.022 166.951C249.128 167.073 249.261 167.171 249.42 167.242C249.704 167.365 250.066 167.472 250.509 167.564C250.951 167.635 251.314 167.651 251.597 167.61C252.022 167.508 252.447 167.273 252.872 166.905C253.314 166.527 253.73 166.103 254.12 165.633C254.509 165.142 254.863 164.652 255.182 164.161C255.5 163.65 255.774 163.216 256.005 162.859C256.111 162.92 256.155 162.976 256.137 163.027C256.137 163.068 256.146 163.134 256.164 163.226C256.164 163.329 256.173 163.446 256.19 163.579C256.208 163.712 256.19 163.845 256.137 163.977C256.066 164.141 256.075 164.299 256.164 164.453C256.235 164.596 256.217 164.78 256.111 165.004C255.951 165.301 255.792 165.607 255.633 165.924C255.474 166.22 255.305 166.511 255.128 166.798C254.934 167.073 254.704 167.339 254.438 167.595C254.173 167.83 253.854 168.034 253.482 168.208C253.217 168.32 252.96 168.397 252.712 168.438C252.482 168.468 252.173 168.494 251.783 168.514C251.589 168.524 251.376 168.545 251.146 168.575C250.916 168.606 250.721 168.616 250.562 168.606C249.819 168.524 249.146 168.371 248.544 168.146C247.925 167.911 247.394 167.635 246.951 167.319C246.509 166.981 246.146 166.619 245.863 166.23C245.562 165.832 245.367 165.423 245.279 165.004C245.226 164.769 245.208 164.514 245.226 164.238C245.243 163.942 245.314 163.656 245.438 163.38C245.562 163.083 245.739 162.807 245.969 162.552C246.217 162.286 246.527 162.056 246.898 161.862C247.058 161.791 247.226 161.745 247.403 161.724C247.58 161.684 247.774 161.643 247.987 161.602C248.111 161.571 248.27 161.54 248.465 161.51C248.659 161.459 248.836 161.428 248.996 161.418ZM249.792 162.767C249.597 162.695 249.358 162.67 249.075 162.69C248.792 162.71 248.518 162.756 248.252 162.828C247.969 162.889 247.721 162.971 247.509 163.073C247.297 163.175 247.164 163.262 247.111 163.334C247.022 163.446 246.951 163.599 246.898 163.794C246.845 163.967 246.819 164.156 246.819 164.361C246.836 164.555 246.872 164.759 246.925 164.974C246.978 165.168 247.058 165.336 247.164 165.479C247.181 165.531 247.235 165.602 247.323 165.694C247.412 165.766 247.5 165.806 247.589 165.817C248.066 165.847 248.518 165.74 248.943 165.495C249.35 165.26 249.686 164.953 249.951 164.575C250.235 164.187 250.367 163.875 250.35 163.64C250.332 163.61 250.305 163.553 250.27 163.472C250.252 163.38 250.217 163.288 250.164 163.196C250.111 163.104 250.049 163.017 249.978 162.935C249.925 162.843 249.863 162.787 249.792 162.767Z" fill="#FF0000"/>
<path d="M229.797 168.823C230.416 168.915 230.974 169.053 231.469 169.237C231.983 169.411 232.514 169.625 233.062 169.881C233.629 170.126 234.257 170.407 234.947 170.724C235.637 171.02 236.478 171.342 237.469 171.689C237.222 171.301 236.965 170.826 236.699 170.264C236.452 169.692 236.301 169.125 236.248 168.563C236.213 168.358 236.248 168.154 236.354 167.949C236.478 167.735 236.593 167.536 236.699 167.352C236.753 167.239 236.788 167.137 236.806 167.045C236.841 166.943 236.912 166.841 237.018 166.739C237.107 166.892 237.177 167.035 237.23 167.168C237.283 167.28 237.337 167.403 237.39 167.536C237.46 167.822 237.549 168.149 237.655 168.517C237.779 168.874 237.921 169.242 238.08 169.62C238.239 169.978 238.399 170.325 238.558 170.662C238.717 170.979 238.876 171.245 239.036 171.459L239.275 170.647C239.399 170.31 239.664 170.044 240.071 169.85C240.319 169.727 240.62 169.635 240.974 169.574C241.328 169.492 241.691 169.436 242.062 169.406C242.434 169.375 242.814 169.36 243.204 169.36C243.576 169.349 243.921 169.344 244.239 169.344C244.77 169.242 245.399 169.196 246.124 169.206C246.85 169.217 247.505 169.227 248.089 169.237C248.266 169.237 248.381 169.262 248.434 169.314C248.487 169.365 248.611 169.416 248.806 169.467C248.93 169.498 249.053 169.559 249.177 169.651C249.301 169.743 249.39 169.835 249.443 169.927C249.514 170.049 249.593 170.146 249.682 170.218C249.77 170.269 249.806 170.31 249.788 170.34C248.992 170.371 248.124 170.412 247.186 170.463C246.266 170.504 245.363 170.565 244.478 170.647C243.593 170.708 242.77 170.785 242.009 170.877C241.266 170.959 240.655 171.056 240.177 171.168C239.841 171.219 239.655 171.408 239.62 171.735C239.584 172.062 239.77 172.394 240.177 172.731C240.337 172.823 240.522 172.931 240.735 173.053C240.947 173.156 241.124 173.299 241.266 173.482C241.319 173.554 241.425 173.646 241.584 173.758C241.744 173.85 241.788 173.958 241.717 174.08L241.823 174.663C240.584 174.336 239.354 173.963 238.133 173.544C236.93 173.115 235.744 172.665 234.576 172.195C233.407 171.725 232.266 171.25 231.151 170.77C230.053 170.279 229 169.804 227.991 169.344L227.407 169.068C227.283 168.997 227.213 168.956 227.195 168.946C227.177 168.915 227.257 168.838 227.434 168.716C227.522 168.706 227.664 168.695 227.859 168.685C228.053 168.655 228.222 168.649 228.363 168.67C228.575 168.69 228.779 168.695 228.974 168.685C229.168 168.675 229.443 168.721 229.797 168.823Z" fill="#FF0000"/>
<path d="M229.522 173.059C230.318 173.253 231.141 173.483 231.991 173.748C232.858 174.004 233.655 174.3 234.38 174.637C235.106 174.954 235.725 175.312 236.239 175.71C236.77 176.099 237.088 176.517 237.195 176.967C237.23 177.151 237.133 177.289 236.902 177.381C236.814 177.412 236.708 177.422 236.584 177.412C236.46 177.401 236.327 177.406 236.186 177.427C236.062 177.437 235.938 177.458 235.814 177.488C235.708 177.509 235.566 177.509 235.389 177.488C235.212 177.693 235.079 177.922 234.991 178.178C234.902 178.413 234.814 178.658 234.725 178.914C234.637 179.169 234.531 179.424 234.407 179.68C234.301 179.946 234.133 180.186 233.902 180.4C233.672 180.635 233.416 180.763 233.133 180.783C232.885 180.804 232.602 180.824 232.283 180.845C232.053 180.855 231.902 180.86 231.832 180.86C231.779 180.87 231.637 180.829 231.407 180.737C230.964 180.543 230.54 180.308 230.133 180.032C229.725 179.736 229.371 179.409 229.071 179.051C228.168 178.019 228.168 176.977 229.071 175.925C229.177 175.802 229.327 175.705 229.522 175.634C229.717 175.542 229.929 175.47 230.159 175.419C230.389 175.368 230.628 175.332 230.876 175.312C231.141 175.281 231.389 175.261 231.619 175.25L232.389 175.204C232.177 174.98 231.849 174.801 231.407 174.668C230.964 174.515 230.495 174.407 230 174.346C229.487 174.275 228.982 174.239 228.487 174.239C227.991 174.239 227.584 174.28 227.265 174.361C226.363 174.883 225.761 175.475 225.46 176.139C225.159 176.783 225.009 177.493 225.009 178.27C225.009 178.311 224.991 178.352 224.956 178.392C224.938 178.423 224.92 178.454 224.902 178.484C224.885 178.535 224.832 178.576 224.743 178.607C224.672 178.627 224.61 178.602 224.557 178.53C224.097 178.142 223.805 177.728 223.681 177.289C223.54 176.839 223.513 176.395 223.602 175.955C223.69 175.516 223.858 175.092 224.106 174.683C224.354 174.275 224.655 173.907 225.009 173.58C225.044 173.519 225.088 173.473 225.141 173.442C225.194 173.391 225.265 173.34 225.354 173.289C225.478 173.217 225.628 173.171 225.805 173.151C225.982 173.13 226.186 173.105 226.416 173.074C226.681 173.023 226.964 172.982 227.265 172.951C227.548 172.911 227.84 172.895 228.141 172.905C228.407 172.916 228.655 172.936 228.885 172.967C229.115 172.997 229.327 173.028 229.522 173.059ZM233.345 176.308C233.009 176.236 232.628 176.211 232.203 176.231C231.796 176.242 231.407 176.303 231.035 176.415C230.646 176.517 230.31 176.681 230.026 176.906C229.761 177.12 229.593 177.401 229.522 177.749C229.646 177.943 229.796 178.152 229.973 178.377C230.133 178.592 230.327 178.796 230.557 178.99C230.77 179.174 231.017 179.348 231.301 179.511C231.584 179.654 231.894 179.762 232.23 179.833C232.672 179.312 233.062 178.781 233.398 178.239C233.734 177.698 234.018 177.228 234.248 176.829C234.248 176.706 234.221 176.62 234.168 176.569C234.115 176.517 234.044 176.487 233.956 176.477C233.885 176.456 233.787 176.441 233.664 176.431C233.557 176.41 233.451 176.369 233.345 176.308Z" fill="#FF0000"/>
<path d="M229.248 183.302C229.036 183.302 228.85 183.276 228.691 183.225C228.549 183.184 228.328 183.138 228.027 183.087C227.708 183.046 227.452 182.96 227.257 182.827C227.045 182.684 226.761 182.551 226.407 182.428C226.213 182.357 225.974 182.3 225.691 182.26C225.407 182.219 225.195 182.157 225.053 182.076C223.885 181.442 222.761 180.834 221.682 180.252C220.584 179.659 219.354 179.021 217.991 178.336C217.991 178.642 218.018 178.985 218.071 179.363C218.124 179.72 218.204 180.083 218.31 180.451C218.416 180.819 218.54 181.177 218.682 181.524C218.806 181.861 218.947 182.168 219.106 182.444C219.213 182.627 219.257 182.806 219.239 182.98C219.222 183.133 219.195 183.281 219.16 183.424C219.142 183.516 219.142 183.598 219.16 183.67C219.195 183.731 219.151 183.777 219.027 183.808C218.283 184.032 217.452 184.135 216.531 184.114C215.611 184.094 214.699 184.058 213.797 184.007C212.894 183.956 212.036 183.94 211.221 183.961C210.39 183.971 209.699 184.114 209.151 184.39C209.646 184.697 210.204 185.029 210.823 185.386C211.46 185.734 212.115 186.091 212.788 186.459C213.46 186.827 214.133 187.195 214.806 187.563C215.46 187.92 216.08 188.247 216.664 188.544L217.965 189.295C217.54 189.274 217.195 189.228 216.929 189.157C216.646 189.075 216.319 188.988 215.947 188.896C215.735 188.855 215.469 188.814 215.151 188.773C214.814 188.722 214.549 188.661 214.354 188.59C213.522 188.314 212.682 187.971 211.832 187.563C210.965 187.144 210.151 186.715 209.39 186.275C208.611 185.826 207.894 185.391 207.239 184.972C206.584 184.554 206.044 184.201 205.62 183.915C205.549 183.854 205.505 183.797 205.487 183.746C205.469 183.675 205.505 183.613 205.593 183.562C205.664 183.522 205.699 183.481 205.699 183.44C205.699 183.399 205.726 183.353 205.779 183.302C205.903 183.23 206.053 183.225 206.23 183.286C206.425 183.338 206.717 183.394 207.106 183.455C207.39 183.516 207.567 183.557 207.637 183.578C207.708 183.598 207.841 183.644 208.036 183.716C208.567 183.45 209.204 183.266 209.947 183.164C210.708 183.051 211.487 183 212.283 183.011C213.098 183.011 213.885 183.046 214.646 183.118C215.425 183.179 216.08 183.241 216.611 183.302C216.416 182.822 216.257 182.331 216.133 181.83C216.027 181.32 215.956 180.819 215.921 180.328C215.868 179.828 215.85 179.358 215.868 178.918C215.885 178.459 215.903 178.05 215.921 177.692L216.053 177.37C215.983 177.329 215.974 177.222 216.027 177.048C216.027 177.008 215.965 176.992 215.841 177.002C215.735 177.002 215.691 176.987 215.708 176.957C215.761 176.905 215.832 176.865 215.921 176.834C215.991 176.793 216.071 176.778 216.16 176.788C216.921 176.88 217.62 177.018 218.257 177.202C218.876 177.375 219.478 177.58 220.062 177.815C221.283 178.438 222.452 179.061 223.567 179.685C224.699 180.298 225.761 180.921 226.753 181.555C227.195 181.851 227.629 182.142 228.053 182.428C228.478 182.714 228.876 183.006 229.248 183.302Z" fill="#FF0000"/>
<path d="M280.162 199.833C281.419 200.211 282.33 200.697 282.897 201.289C283.463 201.882 283.879 202.52 284.144 203.205C284.428 203.879 284.658 204.574 284.835 205.289C285.012 206.005 285.339 206.674 285.817 207.297C286.065 207.318 286.286 207.323 286.481 207.313C286.675 207.282 286.835 207.251 286.959 207.221C287.118 207.19 287.251 207.144 287.357 207.083C287.587 207.256 287.791 207.425 287.967 207.588C288.127 207.742 288.074 207.885 287.808 208.018C287.631 208.099 287.534 208.186 287.516 208.278C287.516 208.36 287.472 208.426 287.383 208.477C287.348 208.498 287.268 208.523 287.144 208.554C287.021 208.564 286.897 208.554 286.773 208.523C285.941 208.268 285.286 207.951 284.808 207.573C284.33 207.195 283.959 206.786 283.693 206.347C283.41 205.897 283.189 205.432 283.029 204.952C282.87 204.472 282.684 203.997 282.472 203.527C282.242 203.047 281.95 202.592 281.596 202.163C281.242 201.734 280.737 201.35 280.083 201.013C279.976 200.993 279.888 200.962 279.817 200.921C279.746 200.88 279.667 200.855 279.578 200.845C279.436 200.824 279.251 200.819 279.021 200.829C278.79 200.84 278.613 200.86 278.49 200.891C278.383 200.911 278.295 200.932 278.224 200.952C278.136 200.962 278.047 200.993 277.959 201.044C277.605 201.248 277.295 201.509 277.029 201.826C276.764 202.142 276.578 202.474 276.472 202.822C276.348 203.159 276.321 203.501 276.392 203.849C276.463 204.196 276.658 204.503 276.976 204.768C277.047 204.83 277.118 204.901 277.189 204.983C277.259 205.044 277.313 205.116 277.348 205.197C277.366 205.269 277.357 205.335 277.321 205.397C277.304 205.448 277.215 205.478 277.056 205.489C276.79 205.622 276.569 205.688 276.392 205.688C276.215 205.668 276.003 205.576 275.755 205.412C275.649 205.33 275.516 205.274 275.357 205.243C275.198 205.192 275.038 205.151 274.879 205.121C274.737 205.08 274.605 205.034 274.481 204.983C274.339 204.922 274.233 204.84 274.162 204.738C274.109 204.666 274.038 204.584 273.95 204.492C273.844 204.39 273.782 204.293 273.764 204.201C273.622 203.384 273.711 202.617 274.029 201.902C274.348 201.187 274.985 200.584 275.941 200.094C276.118 200.012 276.348 199.94 276.631 199.879C276.914 199.818 277.18 199.767 277.428 199.726C278.065 199.583 278.605 199.547 279.047 199.619C279.49 199.69 279.861 199.762 280.162 199.833ZM292.401 208.615C292.543 208.697 292.667 208.799 292.773 208.922C292.897 209.055 293.056 209.167 293.251 209.259C293.428 209.341 293.543 209.428 293.596 209.52C293.684 209.612 293.596 209.724 293.33 209.857C293.224 210.02 293.074 210.138 292.879 210.209C292.72 210.281 292.534 210.327 292.321 210.347C291.968 210.368 291.543 210.337 291.047 210.255C290.569 210.163 290.144 210.051 289.773 209.918C289.649 209.887 289.525 209.806 289.401 209.673C289.295 209.55 289.242 209.438 289.242 209.336C289.224 209.244 289.295 209.172 289.454 209.121C289.631 209.08 289.835 208.993 290.065 208.861C290.189 208.789 290.321 208.712 290.463 208.631C290.622 208.539 290.826 208.483 291.074 208.462C291.321 208.442 291.569 208.442 291.817 208.462C292.065 208.483 292.26 208.534 292.401 208.615Z" fill="#FF0000"/>
<path d="M285.387 215.853C285.493 215.914 285.653 215.955 285.865 215.975C286.077 215.996 286.281 216.031 286.476 216.083C286.67 216.134 286.83 216.215 286.953 216.328C287.113 216.44 287.192 216.629 287.192 216.895C287.228 216.977 287.21 217.048 287.139 217.109C287.086 217.16 287.086 217.222 287.139 217.293C287.245 217.416 287.414 217.544 287.644 217.677C287.431 217.677 287.166 217.697 286.847 217.738C286.546 217.789 286.245 217.84 285.945 217.891C285.661 217.932 285.387 217.957 285.122 217.968C284.892 217.978 284.732 217.937 284.644 217.845C284.573 217.763 284.476 217.697 284.352 217.646C284.245 217.605 284.166 217.549 284.113 217.477C283.953 217.201 283.874 216.941 283.874 216.696C283.892 216.461 283.945 216.266 284.033 216.113C284.157 216.042 284.272 215.996 284.378 215.975C284.484 215.955 284.599 215.929 284.723 215.899C284.847 215.868 284.953 215.837 285.042 215.807C285.166 215.776 285.281 215.791 285.387 215.853Z" fill="#FF0000"/>
<path d="M280.072 218.921C280.178 218.982 280.338 219.023 280.55 219.044C280.762 219.064 280.966 219.1 281.161 219.151C281.355 219.202 281.515 219.284 281.639 219.396C281.798 219.508 281.877 219.698 281.877 219.963C281.913 220.045 281.895 220.116 281.824 220.178C281.771 220.229 281.771 220.29 281.824 220.362C281.931 220.484 282.099 220.612 282.329 220.745C282.116 220.745 281.851 220.765 281.532 220.806C281.231 220.857 280.931 220.908 280.63 220.959C280.346 221 280.072 221.026 279.807 221.036C279.577 221.046 279.417 221.005 279.329 220.913C279.258 220.832 279.161 220.765 279.037 220.714C278.931 220.673 278.851 220.617 278.798 220.546C278.639 220.27 278.559 220.009 278.559 219.764C278.577 219.529 278.63 219.335 278.718 219.182C278.842 219.11 278.957 219.064 279.063 219.044C279.169 219.023 279.285 218.998 279.408 218.967C279.532 218.936 279.639 218.906 279.727 218.875C279.851 218.844 279.966 218.86 280.072 218.921Z" fill="#FF0000"/>
<path d="M274.757 221.989C274.863 222.051 275.023 222.092 275.235 222.112C275.447 222.132 275.651 222.168 275.846 222.219C276.04 222.27 276.2 222.352 276.324 222.464C276.483 222.577 276.563 222.766 276.563 223.032C276.598 223.113 276.58 223.185 276.509 223.246C276.456 223.297 276.456 223.359 276.509 223.43C276.616 223.553 276.784 223.68 277.014 223.813C276.801 223.813 276.536 223.834 276.217 223.875C275.916 223.926 275.616 223.977 275.315 224.028C275.032 224.069 274.757 224.094 274.492 224.104C274.262 224.115 274.102 224.074 274.014 223.982C273.943 223.9 273.846 223.834 273.722 223.783C273.616 223.742 273.536 223.685 273.483 223.614C273.324 223.338 273.244 223.078 273.244 222.832C273.262 222.597 273.315 222.403 273.403 222.25C273.527 222.178 273.642 222.132 273.748 222.112C273.855 222.091 273.97 222.066 274.093 222.035C274.217 222.005 274.324 221.974 274.412 221.943C274.536 221.913 274.651 221.928 274.757 221.989Z" fill="#FF0000"/>
<path d="M364.395 214.565C364.466 214.565 364.51 214.56 364.528 214.55C364.545 214.54 364.572 214.545 364.607 214.565C364.625 214.596 364.625 214.647 364.607 214.718C364.59 214.77 364.51 214.846 364.368 214.948C364.333 214.989 364.298 215.051 364.262 215.132C364.209 215.204 364.165 215.26 364.13 215.301C363.758 215.638 363.289 216.021 362.722 216.45C362.174 216.869 361.59 217.298 360.97 217.738C361.554 218.116 362.112 218.458 362.643 218.765C363.191 219.061 363.678 219.311 364.103 219.516C364.439 219.669 364.731 219.674 364.979 219.531C365.209 219.378 365.413 219.199 365.59 218.995C365.643 218.944 365.749 218.79 365.908 218.535C366.068 218.259 366.253 217.947 366.466 217.6C366.678 217.232 366.899 216.849 367.13 216.45C367.342 216.042 367.537 215.674 367.714 215.347C367.961 215.49 368.068 215.704 368.032 215.991C368.015 216.144 367.97 216.302 367.899 216.466C367.846 216.619 367.793 216.782 367.74 216.956C367.669 217.14 367.669 217.293 367.74 217.416C367.811 217.539 367.802 217.717 367.714 217.952C367.554 218.392 367.333 218.836 367.05 219.286C366.767 219.735 366.466 220.113 366.147 220.42C366.041 220.522 365.908 220.619 365.749 220.711C365.607 220.793 365.492 220.89 365.404 221.002C365.28 221.176 365.094 221.263 364.846 221.263C364.616 221.253 364.368 221.191 364.103 221.079C363.377 220.742 362.625 220.369 361.846 219.96C361.085 219.541 360.333 219.107 359.59 218.657C359.094 218.984 358.616 219.281 358.156 219.546C357.696 219.792 357.298 219.981 356.961 220.113C356.66 220.246 356.36 220.359 356.059 220.451C355.758 220.522 355.43 220.558 355.076 220.558C354.917 220.65 354.793 220.64 354.705 220.527C354.616 220.394 354.537 220.287 354.466 220.205C354.82 219.981 355.342 219.659 356.032 219.24C356.722 218.8 357.466 218.33 358.262 217.83C356.864 216.941 355.625 216.083 354.545 215.255C353.466 214.427 352.74 213.763 352.368 213.262C352.209 213.17 352.165 213.073 352.236 212.971C352.306 212.849 352.368 212.721 352.422 212.588C352.457 212.527 352.483 212.46 352.501 212.389C352.519 212.297 352.599 212.21 352.74 212.128C352.988 212.087 353.183 212.067 353.324 212.067C353.448 212.057 353.554 212.077 353.643 212.128C353.731 212.179 353.811 212.256 353.882 212.358C353.953 212.46 354.05 212.588 354.174 212.741C354.191 212.792 354.36 212.951 354.678 213.216C354.997 213.482 355.413 213.814 355.926 214.213C356.439 214.591 357.032 215.025 357.705 215.515C358.36 215.996 359.041 216.471 359.749 216.941C360.333 216.604 360.899 216.287 361.448 215.991C361.979 215.684 362.466 215.423 362.908 215.209L364.395 214.565Z" fill="#FF0000"/>
<path d="M349.821 219.668C350.105 219.668 350.273 219.704 350.326 219.775C350.397 219.837 350.379 219.888 350.273 219.929C350.043 220.061 349.813 220.225 349.582 220.419C349.352 220.593 349.096 220.782 348.813 220.986C348.529 221.17 348.211 221.354 347.857 221.538C347.503 221.722 347.105 221.88 346.662 222.013C346.379 222.013 346.255 221.942 346.29 221.798C346.326 221.635 346.273 221.461 346.131 221.277C346.025 221.155 345.99 221.053 346.025 220.971C346.06 220.869 346.122 220.782 346.211 220.71C346.405 220.598 346.689 220.485 347.06 220.373C347.432 220.24 347.724 220.123 347.936 220.021C348.273 219.867 348.574 219.755 348.839 219.683C349.087 219.602 349.414 219.597 349.821 219.668ZM352.875 222.074C353.388 222.248 353.839 222.417 354.229 222.58C354.636 222.733 355.007 222.897 355.344 223.071C355.68 223.224 356.007 223.392 356.326 223.576C356.662 223.75 357.016 223.944 357.388 224.159C357.459 224.2 357.494 224.271 357.494 224.373C357.494 224.455 357.521 224.532 357.574 224.603C357.662 224.736 357.698 224.828 357.68 224.879C357.68 224.92 357.653 224.986 357.6 225.078C357.459 225.283 357.388 225.497 357.388 225.722C356.821 225.661 356.273 225.528 355.742 225.324C355.229 225.109 354.715 224.874 354.202 224.619C353.706 224.353 353.202 224.092 352.689 223.837C352.175 223.561 351.636 223.321 351.069 223.117C350.768 223.004 350.618 222.897 350.618 222.795C350.618 222.693 350.653 222.601 350.724 222.519C350.813 222.427 350.972 222.366 351.202 222.335C351.45 222.294 351.689 222.258 351.919 222.228C352.113 222.197 352.273 222.156 352.397 222.105C352.521 222.033 352.68 222.023 352.875 222.074Z" fill="#FF0000"/>
<path d="M346.427 225.95C346.233 226.062 346.056 226.174 345.896 226.287C345.719 226.389 345.542 226.501 345.365 226.624C345.861 226.849 346.365 227.099 346.879 227.375C347.41 227.641 347.914 227.932 348.392 228.249C348.852 228.555 349.277 228.882 349.666 229.23C350.056 229.557 350.365 229.889 350.595 230.226C350.631 230.287 350.675 230.323 350.728 230.333C350.817 230.343 350.879 230.379 350.914 230.44C350.896 230.491 350.879 230.532 350.861 230.563C350.861 230.583 350.861 230.614 350.861 230.655C350.772 230.87 350.657 231.018 350.516 231.099C350.48 231.12 350.418 231.115 350.33 231.084C350.259 231.043 350.206 230.992 350.171 230.931C349.604 230.379 348.772 229.848 347.675 229.337C346.578 228.806 345.197 228.254 343.534 227.682C342.932 228.029 342.259 228.346 341.516 228.632C341.498 228.642 341.445 228.673 341.357 228.724C341.286 228.765 341.206 228.811 341.118 228.862C341.011 228.903 340.914 228.938 340.826 228.969C340.719 228.989 340.64 228.984 340.587 228.954C340.498 228.882 340.401 228.857 340.295 228.877C340.188 228.877 340.118 228.867 340.082 228.846C339.941 228.785 339.879 228.739 339.896 228.708C339.914 228.657 339.958 228.601 340.029 228.54C340.259 228.325 340.525 228.101 340.826 227.865C341.144 227.62 341.489 227.37 341.861 227.114C341.719 227.074 341.631 227.043 341.595 227.023C340.764 226.788 339.932 226.491 339.1 226.134C338.268 225.776 337.498 225.383 336.79 224.953C336.1 224.514 335.507 224.059 335.011 223.589C334.516 223.099 334.188 222.614 334.029 222.133C333.976 221.96 334.011 221.796 334.135 221.643C334.188 221.571 334.241 221.5 334.295 221.428C334.365 221.346 334.454 221.285 334.56 221.244C334.985 221.081 335.427 220.968 335.887 220.907C336.33 220.836 336.79 220.805 337.268 220.815C337.746 220.805 338.241 220.825 338.755 220.876C339.25 220.917 339.746 220.968 340.241 221.03C340.595 221.05 340.746 221.137 340.693 221.29C340.64 221.444 340.595 221.581 340.56 221.704C340.525 221.847 340.418 221.97 340.241 222.072C340.082 222.123 339.879 222.149 339.631 222.149C339.383 222.149 339.126 222.174 338.861 222.225C338.684 222.225 338.463 222.23 338.197 222.241C337.914 222.241 337.64 222.256 337.374 222.287C337.109 222.317 336.87 222.353 336.657 222.394C336.445 222.435 336.312 222.491 336.259 222.562C336.241 222.614 336.268 222.721 336.339 222.884C336.427 223.038 336.516 223.17 336.604 223.283C336.87 223.579 337.215 223.799 337.64 223.942C338.702 224.31 339.746 224.667 340.772 225.015C341.781 225.352 342.71 225.643 343.56 225.888C343.613 225.919 343.666 225.939 343.719 225.95C344.41 225.551 345.135 225.194 345.896 224.877C346.657 224.54 347.418 224.274 348.18 224.08C348.303 224.049 348.321 224.151 348.233 224.386C348.18 224.519 348.091 224.621 347.967 224.693C347.843 224.744 347.737 224.826 347.649 224.938C347.489 225.132 347.303 225.311 347.091 225.475C346.879 225.638 346.657 225.796 346.427 225.95Z" fill="#FF0000"/>
<path d="M334.32 229.843L334.32 230.364C334.444 230.272 334.621 230.129 334.851 229.935C335.081 229.721 335.338 229.532 335.621 229.368C335.869 229.266 336.117 229.205 336.364 229.184C336.612 229.164 336.904 229.23 337.24 229.383C337.736 229.588 338.276 229.777 338.86 229.951C339.444 230.104 339.984 230.283 340.479 230.487C340.993 230.681 341.4 230.916 341.701 231.192C341.984 231.458 342.081 231.79 341.993 232.188C342.205 232.781 342.276 233.343 342.205 233.874C342.134 234.385 341.869 234.814 341.409 235.162C341.108 235.397 340.665 235.591 340.081 235.744C339.515 235.908 338.948 235.938 338.382 235.836C338.364 235.887 338.329 235.918 338.276 235.928C338.205 235.928 338.134 235.928 338.063 235.928C337.993 235.928 337.948 235.943 337.931 235.974C337.931 235.994 337.904 236 337.851 235.989C337.78 235.969 337.701 235.933 337.612 235.882L337.559 235.851L337.506 235.821C336.904 235.453 336.338 235.065 335.807 234.656C335.276 234.227 334.816 233.787 334.426 233.338C334.037 232.868 333.745 232.393 333.55 231.912C333.355 231.412 333.311 230.896 333.417 230.364C333.488 230.201 333.647 230.068 333.895 229.966C333.931 229.945 333.975 229.92 334.028 229.889C334.081 229.859 334.178 229.843 334.32 229.843ZM335.223 231.407C335.099 231.458 335.001 231.473 334.931 231.453C334.86 231.432 334.798 231.396 334.745 231.345C334.692 231.274 334.63 231.197 334.559 231.115C334.506 231.023 334.426 230.947 334.32 230.885C334.285 231.294 334.4 231.698 334.665 232.096C334.948 232.485 335.302 232.852 335.727 233.2C336.134 233.537 336.577 233.844 337.055 234.119C337.55 234.385 337.993 234.61 338.382 234.794C338.718 234.947 339.028 235.054 339.311 235.116C339.577 235.167 339.816 235.151 340.028 235.07C340.276 234.988 340.479 234.809 340.639 234.533C340.869 234.135 340.922 233.736 340.798 233.338C340.674 232.939 340.471 232.556 340.187 232.188C340.01 232.004 339.771 231.805 339.47 231.591C339.17 231.355 338.833 231.172 338.462 231.039C337.966 230.855 337.444 230.819 336.895 230.931C336.347 231.023 335.789 231.182 335.223 231.407Z" fill="#FF0000"/>
<path d="M328.629 232.086C328.789 232.178 329.019 232.28 329.32 232.393C329.603 232.495 329.771 232.613 329.824 232.745C329.824 232.786 329.877 232.837 329.983 232.899C330.072 232.95 330.107 233.001 330.089 233.052L329.532 233.129C329.107 233.21 328.727 233.358 328.39 233.573C328.072 233.777 327.806 234.023 327.594 234.309C327.452 234.513 327.355 234.743 327.302 234.998C327.249 235.233 327.231 235.479 327.249 235.734C327.266 235.99 327.311 236.24 327.381 236.485C327.452 236.73 327.541 236.955 327.647 237.16C327.877 237.619 328.355 238.059 329.081 238.478C329.824 238.886 331.028 239.275 332.691 239.642C332.815 239.714 332.877 239.852 332.877 240.056C332.877 240.097 332.886 240.153 332.904 240.225C332.921 240.296 332.93 240.353 332.93 240.393C332.912 240.547 332.93 240.659 332.983 240.731C333.054 240.792 333.063 240.858 333.01 240.93C332.921 241.042 332.665 241.047 332.24 240.945C331.408 240.812 330.47 240.608 329.426 240.332C328.381 240.036 327.328 239.724 326.266 239.397C325.222 239.06 324.231 238.733 323.293 238.416C322.355 238.079 321.576 237.793 320.957 237.558C320.762 237.507 320.62 237.435 320.532 237.343C320.426 237.241 320.364 237.144 320.346 237.052C320.328 236.981 320.373 236.935 320.479 236.914C320.603 236.884 320.691 236.853 320.744 236.822C320.974 236.69 321.16 236.633 321.302 236.654C321.443 236.674 321.647 236.69 321.912 236.7C322.443 236.72 323.019 236.827 323.638 237.022C324.258 237.216 325.001 237.441 325.868 237.696C325.673 237.257 325.576 236.781 325.576 236.271C325.594 235.749 325.691 235.233 325.868 234.723C326.027 234.201 326.275 233.711 326.612 233.251C326.948 232.791 327.355 232.393 327.833 232.056C327.921 231.984 328.045 231.954 328.204 231.964C328.364 231.954 328.505 231.994 328.629 232.086Z" fill="#FF0000"/>
<path d="M316.412 237.055C317.774 237.576 318.89 238.22 319.757 238.986C320.606 239.743 321.146 240.575 321.376 241.485C321.606 241.883 321.589 242.231 321.323 242.527C321.058 242.823 320.695 243.104 320.235 243.37C320.128 243.431 319.987 243.523 319.81 243.646C319.615 243.758 319.429 243.886 319.252 244.029C319.075 244.152 318.907 244.279 318.748 244.412C318.589 244.525 318.474 244.622 318.403 244.703L320.421 245.746C320.597 245.848 320.766 245.965 320.925 246.098C321.084 246.231 321.226 246.354 321.35 246.466C321.527 246.609 321.695 246.716 321.854 246.788C322.031 246.87 322.208 246.982 322.385 247.125C322.562 247.268 322.748 247.416 322.943 247.569C323.155 247.712 323.385 247.856 323.633 247.999C323.049 247.927 322.359 247.764 321.562 247.508C320.783 247.263 319.951 246.967 319.067 246.619C318.182 246.251 317.288 245.858 316.385 245.439C315.482 245.02 314.615 244.611 313.783 244.213C312.969 243.804 312.226 243.426 311.553 243.079C310.881 242.711 310.341 242.42 309.934 242.205C309.739 242.481 309.58 242.777 309.456 243.094C309.332 243.411 309.217 243.712 309.111 243.998C309.093 244.09 309.005 244.152 308.845 244.182C308.704 244.203 308.615 244.254 308.58 244.335C308.58 244.417 308.544 244.479 308.474 244.519C308.42 244.55 308.35 244.57 308.261 244.581C308.173 244.591 308.093 244.596 308.022 244.596C307.934 244.586 307.872 244.591 307.836 244.611C307.695 244.57 307.615 244.535 307.597 244.504C307.562 244.463 307.509 244.422 307.438 244.381C307.35 244.31 307.27 244.244 307.199 244.182C307.093 244.121 307.049 244.044 307.066 243.952C307.279 242.849 307.642 241.904 308.155 241.117C308.651 240.32 309.199 239.635 309.801 239.063C310.42 238.44 311.128 237.96 311.925 237.622C312.704 237.275 313.739 237.086 315.031 237.055C315.279 236.973 315.518 236.928 315.748 236.917C315.978 236.887 316.199 236.933 316.412 237.055ZM315.642 238.113C315.182 238.072 314.73 238.118 314.288 238.251C313.845 238.384 313.42 238.578 313.013 238.833C312.606 239.089 312.235 239.385 311.898 239.722C311.562 240.039 311.279 240.366 311.049 240.703C311.367 240.887 311.766 241.117 312.243 241.393C312.704 241.658 313.199 241.944 313.73 242.251C314.261 242.537 314.801 242.828 315.35 243.125C315.898 243.401 316.412 243.656 316.89 243.891C317.067 243.687 317.288 243.467 317.553 243.232C317.819 242.977 318.067 242.721 318.297 242.466C318.527 242.19 318.704 241.914 318.828 241.638C318.969 241.352 318.978 241.061 318.854 240.764C318.73 240.57 318.562 240.34 318.35 240.075C318.137 239.789 317.89 239.513 317.606 239.247C317.305 238.971 316.987 238.736 316.651 238.542C316.314 238.327 315.978 238.184 315.642 238.113Z" fill="#FF0000"/>
<defs>
<filter id="filter0_f_1_2" x="30.7593" y="191.422" width="494.919" height="322.072" filterUnits="userSpaceOnUse" color-interpolation-filters="sRGB">
<feFlood flood-opacity="0" result="BackgroundImageFix"/>
<feBlend mode="normal" in="SourceGraphic" in2="BackgroundImageFix" result="shape"/>
<feGaussianBlur stdDeviation="21.5" result="effect1_foregroundBlur_1_2"/>
</filter>
<filter id="filter1_f_1_2" x="69.0434" y="159" width="427.237" height="262.71" filterUnits="userSpaceOnUse" color-interpolation-filters="sRGB">
<feFlood flood-opacity="0" result="BackgroundImageFix"/>
<feBlend mode="normal" in="SourceGraphic" in2="BackgroundImageFix" result="shape"/>
<feGaussianBlur stdDeviation="9.5" result="effect1_foregroundBlur_1_2"/>
</filter>
</defs>
</svg>
