<svg width="333" height="463" viewBox="0 0 333 463" fill="none" xmlns="http://www.w3.org/2000/svg">
<path fill-rule="evenodd" clip-rule="evenodd" d="M78.0014 143C78.2705 94.3529 117.79 55 166.5 55C215.21 55 254.729 94.3529 254.999 143H255L275 374C263.062 374 251.529 360.934 240.434 348.366C230.153 336.719 220.249 325.5 210.75 325.5C200.646 325.5 194.01 329.557 187.528 333.52C181.339 337.303 175.291 341 166.5 341C157.976 341 152.592 337.076 146.923 332.944C140.62 328.351 133.964 323.5 122.25 323.5C100 323.5 70.5 348.5 58 374L78 143H78.0014Z" fill="white" fill-opacity="0.44"/>
<path fill-rule="evenodd" clip-rule="evenodd" d="M78.2002 137.5C81.2851 91.4209 119.639 55 166.5 55C213.361 55 251.715 91.4209 254.8 137.5H255L275 374C275 403.792 251.504 396.888 231.081 390.887C223.398 388.63 216.149 386.5 210.75 386.5C200.646 386.5 192.57 391.996 184.682 397.365C177.151 402.491 169.791 407.5 161 407.5C152.476 407.5 148.325 402.791 143.955 397.833C139.095 392.321 133.964 386.5 122.25 386.5C116.63 386.5 109.749 387.489 102.604 388.516C81.4617 391.555 58 394.927 58 374L78 137.5H78.2002Z" fill="white" fill-opacity="0.44"/>
<path fill-rule="evenodd" clip-rule="evenodd" d="M90.5 127C106 92 106.267 92 147.518 63.96C139.443 67.9216 92 81 90.5 127Z" fill="white" fill-opacity="0.53"/>
<rect x="174" y="120" width="20" height="42" rx="10" fill="black" fill-opacity="0.67"/>
<rect x="203" y="120" width="20" height="42" rx="10" fill="black" fill-opacity="0.67"/>
<ellipse cx="198.5" cy="186" rx="10.5" ry="12" fill="black" fill-opacity="0.67"/>
</svg>
