<?xml version="1.0" encoding="UTF-8" standalone="no"?>
<!-- Generator: Adobe Illustrator 25.2.0, SVG Export Plug-In . SVG Version: 6.00 Build 0)  -->

<svg
   xmlns:dc="http://purl.org/dc/elements/1.1/"
   xmlns:cc="http://creativecommons.org/ns#"
   xmlns:rdf="http://www.w3.org/1999/02/22-rdf-syntax-ns#"
   xmlns:svg="http://www.w3.org/2000/svg"
   xmlns="http://www.w3.org/2000/svg"
   xmlns:sodipodi="http://sodipodi.sourceforge.net/DTD/sodipodi-0.dtd"
   xmlns:inkscape="http://www.inkscape.org/namespaces/inkscape"
   version="1.1"
   id="Layer_1"
   x="0px"
   y="0px"
   viewBox="0 0 981.15057 449.6145"
   xml:space="preserve"
   sodipodi:docname="HRVSTLogoLeaf-outline.svg"
   width="981.15057"
   height="449.6145"
   inkscape:version="0.92.3 (2405546, 2018-03-11)"><metadata
   id="metadata123"><rdf:RDF><cc:Work
       rdf:about=""><dc:format>image/svg+xml</dc:format><dc:type
         rdf:resource="http://purl.org/dc/dcmitype/StillImage" /><dc:title></dc:title></cc:Work></rdf:RDF></metadata><defs
   id="defs121" /><sodipodi:namedview
   pagecolor="#ffffff"
   bordercolor="#666666"
   borderopacity="1"
   objecttolerance="10"
   gridtolerance="10"
   guidetolerance="10"
   inkscape:pageopacity="0"
   inkscape:pageshadow="2"
   inkscape:window-width="1920"
   inkscape:window-height="1052"
   id="namedview119"
   showgrid="false"
   inkscape:zoom="0.944"
   inkscape:cx="500.63904"
   inkscape:cy="287.84675"
   inkscape:window-x="1080"
   inkscape:window-y="398"
   inkscape:window-maximized="1"
   inkscape:current-layer="Layer_1"
   fit-margin-top="0"
   fit-margin-left="0"
   fit-margin-right="0"
   fit-margin-bottom="0"
   showguides="true"
   inkscape:guide-bbox="true"><sodipodi:guide
     position="485.16949,224.57627"
     orientation="0,1"
     id="guide4638"
     inkscape:locked="false" /></sodipodi:namedview>
<style
   type="text/css"
   id="style2">
	.st0{fill:#194B47;stroke:#000000;stroke-width:3;stroke-miterlimit:10;}
	.st1{fill:#736B52;stroke:#000000;stroke-width:3;stroke-miterlimit:10;}
	.st2{fill:#9C9738;stroke:#000000;stroke-width:3;stroke-miterlimit:10;}
	.st3{fill:#F36F64;stroke:#000000;stroke-width:3;stroke-miterlimit:10;}
	.st4{display:none;}
	.st5{display:inline;}
	.st6{fill:#194B47;}
	.st7{display:inline;fill:#194B47;}
	.st8{fill:#9C9738;}
</style>
<g
   id="g116"
   transform="translate(-6.7764046,-296.08681)">
	<g
   id="g52">
		<g
   id="g14">
			<path
   class="st0"
   d="m 207.5,502.4 h 35.7 c 6.3,0 11.5,5.2 11.5,11.5 v 160.3 c 0,6.6 -5.2,11.8 -11.5,11.8 h -35.7 c -6.6,0 -11.8,-5.2 -11.8,-11.8 V 620 h -52.5 v 54.3 c 0,6.6 -5.2,11.8 -11.8,11.8 H 96 c -6.6,0 -11.8,-5.2 -11.8,-11.8 V 513.9 c 0,-6.3 5.2,-11.5 11.8,-11.5 h 35.4 c 6.6,0 11.8,5.2 11.8,11.5 v 52.7 h 52.5 v -52.7 c 0,-6.3 5.3,-11.5 11.8,-11.5 z"
   id="path4"
   inkscape:connector-curvature="0"
   style="fill:#194b47;stroke:#000000;stroke-width:3;stroke-miterlimit:10" />
			<path
   class="st0"
   d="M 378,679.5 352.5,629.1 H 336 v 45.1 c 0,6.6 -5.2,11.8 -11.5,11.8 H 288.8 C 282.2,686 277,680.8 277,674.2 V 513.9 c 0,-6.3 5.2,-11.5 11.8,-11.5 h 65.9 c 50.9,0 77.7,23.4 77.7,65.9 0,23.4 -9.4,39.4 -26,49.3 l 33.1,58 c 2.6,4.7 -0.8,10.5 -6,10.5 h -44.9 c -4.6,0 -8.8,-2.6 -10.6,-6.6 z m -42,-97.3 h 18.6 c 12.3,0 18.1,-4.5 18.1,-13.9 0,-9.7 -5.8,-14.2 -18.1,-14.2 H 336 Z"
   id="path6"
   inkscape:connector-curvature="0"
   style="fill:#194b47;stroke:#000000;stroke-width:3;stroke-miterlimit:10" />
			<path
   class="st0"
   d="m 568,502.4 h 41.5 c 6.6,0 11,6.3 8.9,12.3 l -54.1,161.6 c -1.8,5.8 -7.3,9.7 -13.4,9.7 h -51.4 c -6,0 -11.5,-3.9 -13.4,-9.7 L 432,514.7 c -2.1,-6 2.4,-12.3 8.9,-12.3 h 41.5 c 5.2,0 10,3.4 11.3,8.7 L 525.2,625 556.7,511.1 c 1.3,-5.3 6,-8.7 11.3,-8.7 z"
   id="path8"
   inkscape:connector-curvature="0"
   style="fill:#194b47;stroke:#000000;stroke-width:3;stroke-miterlimit:10" />
			<path
   class="st0"
   d="m 764.3,627.6 c 0,32.8 -23.9,61.7 -74,61.7 -31.2,0 -64,-10 -75.6,-39.1 -2.1,-5.2 0.5,-10.8 5.8,-12.6 l 32,-9.7 c 3.9,-1.3 8.1,0.3 10.5,3.7 4.2,6 13.9,10.2 24.4,10.2 10.2,0 18.1,-4.2 18.1,-11 0,-9.2 -11.3,-9.7 -29.9,-14.2 -33.6,-8.1 -58,-19.9 -58,-57.7 0,-35.9 31.5,-59.8 72.2,-59.8 28.6,0 54.8,12.9 64.8,38 2.1,5.5 -0.8,11.3 -6.3,12.6 l -32,7.9 c -3.4,0.8 -7.3,-0.3 -9.4,-3.4 -3.4,-4.5 -9.2,-7.3 -16.8,-7.3 -10.5,0 -16,4.5 -16,10.8 0,8.7 13.6,9.7 27.8,13.6 44.8,12.2 62.4,25.3 62.4,56.3 z"
   id="path10"
   inkscape:connector-curvature="0"
   style="fill:#194b47;stroke:#000000;stroke-width:3;stroke-miterlimit:10" />
			<path
   class="st0"
   d="m 916.7,513.9 v 30.7 c 0,6.6 -5.2,11.8 -11.5,11.8 H 874 v 117.8 c 0,6.6 -5.2,11.8 -11.8,11.8 H 826.5 C 820.2,686 815,680.8 815,674.2 V 556.5 h -31.2 c -6.6,0 -11.8,-5.2 -11.8,-11.8 V 514 c 0,-6.3 5.2,-11.5 11.8,-11.5 h 121.5 c 6.2,-0.1 11.4,5.1 11.4,11.4 z"
   id="path12"
   inkscape:connector-curvature="0"
   style="fill:#194b47;stroke:#000000;stroke-width:3;stroke-miterlimit:10" />
		</g>
		<g
   id="g26">
			<path
   class="st1"
   d="m 184.2,479.1 h 35.7 c 6.3,0 11.5,5.2 11.5,11.5 V 651 c 0,6.6 -5.2,11.8 -11.5,11.8 h -35.7 c -6.6,0 -11.8,-5.2 -11.8,-11.8 V 596.7 H 119.9 V 651 c 0,6.6 -5.2,11.8 -11.8,11.8 H 72.7 c -6.6,0 -11.8,-5.2 -11.8,-11.8 V 490.6 c 0,-6.3 5.2,-11.5 11.8,-11.5 h 35.4 c 6.6,0 11.8,5.2 11.8,11.5 v 52.7 h 52.5 v -52.7 c 0,-6.3 5.3,-11.5 11.8,-11.5 z"
   id="path16"
   inkscape:connector-curvature="0"
   style="fill:#736b52;stroke:#000000;stroke-width:3;stroke-miterlimit:10" />
			<path
   class="st1"
   d="M 354.7,656.2 329.2,605.8 H 312.7 V 651 c 0,6.6 -5.2,11.8 -11.5,11.8 h -35.7 c -6.6,0 -11.8,-5.2 -11.8,-11.8 V 490.6 c 0,-6.3 5.2,-11.5 11.8,-11.5 h 65.9 c 50.9,0 77.7,23.4 77.7,65.9 0,23.4 -9.4,39.4 -26,49.3 l 33.1,58 c 2.6,4.7 -0.8,10.5 -6,10.5 h -44.9 c -4.6,0 -8.8,-2.7 -10.6,-6.6 z m -42,-97.3 h 18.6 c 12.3,0 18.1,-4.5 18.1,-13.9 0,-9.7 -5.8,-14.2 -18.1,-14.2 h -18.6 z"
   id="path18"
   inkscape:connector-curvature="0"
   style="fill:#736b52;stroke:#000000;stroke-width:3;stroke-miterlimit:10" />
			<path
   class="st1"
   d="m 544.6,479.1 h 41.5 c 6.6,0 11,6.3 8.9,12.3 l -54,161.7 c -1.8,5.8 -7.3,9.7 -13.4,9.7 h -51.4 c -6,0 -11.5,-3.9 -13.4,-9.7 L 408.7,491.5 c -2.1,-6 2.4,-12.3 8.9,-12.3 h 41.5 c 5.2,0 10,3.4 11.3,8.7 l 31.5,113.9 31.5,-113.9 c 1.3,-5.4 6,-8.8 11.2,-8.8 z"
   id="path20"
   inkscape:connector-curvature="0"
   style="fill:#736b52;stroke:#000000;stroke-width:3;stroke-miterlimit:10" />
			<path
   class="st1"
   d="m 740.9,604.2 c 0,32.8 -23.9,61.7 -74,61.7 -31.2,0 -64,-10 -75.6,-39.1 -2.1,-5.2 0.5,-10.8 5.8,-12.6 l 32,-9.7 c 3.9,-1.3 8.1,0.3 10.5,3.7 4.2,6 13.9,10.2 24.4,10.2 10.2,0 18.1,-4.2 18.1,-11 0,-9.2 -11.3,-9.7 -29.9,-14.2 -33.6,-8.1 -58,-19.9 -58,-57.7 0,-35.9 31.5,-59.8 72.2,-59.8 28.6,0 54.8,12.9 64.8,38 2.1,5.5 -0.8,11.3 -6.3,12.6 l -32,7.9 c -3.4,0.8 -7.3,-0.3 -9.4,-3.4 -3.4,-4.5 -9.2,-7.3 -16.8,-7.3 -10.5,0 -16,4.5 -16,10.8 0,8.7 13.6,9.7 27.8,13.6 44.9,12.3 62.4,25.4 62.4,56.3 z"
   id="path22"
   inkscape:connector-curvature="0"
   style="fill:#736b52;stroke:#000000;stroke-width:3;stroke-miterlimit:10" />
			<path
   class="st1"
   d="m 893.4,490.6 v 30.7 c 0,6.6 -5.2,11.8 -11.5,11.8 H 850.7 V 651 c 0,6.6 -5.2,11.8 -11.8,11.8 h -35.7 c -6.3,0 -11.5,-5.2 -11.5,-11.8 V 533.1 h -31.2 c -6.6,0 -11.8,-5.2 -11.8,-11.8 v -30.7 c 0,-6.3 5.2,-11.5 11.8,-11.5 H 882 c 6.2,0 11.4,5.2 11.4,11.5 z"
   id="path24"
   inkscape:connector-curvature="0"
   style="fill:#736b52;stroke:#000000;stroke-width:3;stroke-miterlimit:10" />
		</g>
		<g
   id="g38">
			<path
   class="st2"
   d="m 160.9,455.8 h 35.7 c 6.3,0 11.5,5.2 11.5,11.5 v 160.3 c 0,6.6 -5.2,11.8 -11.5,11.8 h -35.7 c -6.6,0 -11.8,-5.2 -11.8,-11.8 V 573.3 H 96.6 v 54.3 c 0,6.6 -5.2,11.8 -11.8,11.8 H 49.4 c -6.6,0 -11.8,-5.2 -11.8,-11.8 V 467.3 c 0,-6.3 5.2,-11.5 11.8,-11.5 h 35.4 c 6.6,0 11.8,5.2 11.8,11.5 V 520 h 52.5 v -52.7 c 0,-6.3 5.2,-11.5 11.8,-11.5 z"
   id="path28"
   inkscape:connector-curvature="0"
   style="fill:#9c9738;stroke:#000000;stroke-width:3;stroke-miterlimit:10" />
			<path
   class="st2"
   d="m 331.4,632.9 -25.5,-50.4 h -16.5 v 45.1 c 0,6.6 -5.2,11.8 -11.5,11.8 h -35.7 c -6.6,0 -11.8,-5.2 -11.8,-11.8 V 467.3 c 0,-6.3 5.2,-11.5 11.8,-11.5 H 308 c 50.9,0 77.7,23.4 77.7,65.9 0,23.4 -9.4,39.4 -26,49.3 l 33.1,58 c 2.6,4.7 -0.8,10.5 -6,10.5 h -44.9 c -4.5,-0.1 -8.7,-2.7 -10.5,-6.6 z m -42,-97.4 H 308 c 12.3,0 18.1,-4.5 18.1,-13.9 0,-9.7 -5.8,-14.2 -18.1,-14.2 h -18.6 z"
   id="path30"
   inkscape:connector-curvature="0"
   style="fill:#9c9738;stroke:#000000;stroke-width:3;stroke-miterlimit:10" />
			<path
   class="st2"
   d="m 521.3,455.8 h 41.5 c 6.6,0 11,6.3 8.9,12.3 l -54.1,161.6 c -1.8,5.8 -7.3,9.7 -13.4,9.7 h -51.4 c -6,0 -11.5,-3.9 -13.4,-9.7 L 385.3,468.1 c -2.1,-6 2.4,-12.3 8.9,-12.3 h 41.5 c 5.2,0 10,3.4 11.3,8.7 l 31.5,113.9 31.5,-114 c 1.3,-5.2 6.1,-8.6 11.3,-8.6 z"
   id="path32"
   inkscape:connector-curvature="0"
   style="fill:#9c9738;stroke:#000000;stroke-width:3;stroke-miterlimit:10" />
			<path
   class="st2"
   d="m 717.6,580.9 c 0,32.8 -23.9,61.7 -74,61.7 -31.2,0 -64,-10 -75.6,-39.1 -2.1,-5.2 0.5,-10.8 5.8,-12.6 l 32,-9.7 c 3.9,-1.3 8.1,0.3 10.5,3.7 4.2,6 13.9,10.2 24.4,10.2 10.2,0 18.1,-4.2 18.1,-11 0,-9.2 -11.3,-9.7 -29.9,-14.2 -33.6,-8.1 -58,-19.9 -58,-57.7 0,-35.9 31.5,-59.8 72.2,-59.8 28.6,0 54.8,12.9 64.8,38 2.1,5.5 -0.8,11.3 -6.3,12.6 l -32,7.9 c -3.4,0.8 -7.3,-0.3 -9.4,-3.4 -3.4,-4.5 -9.2,-7.3 -16.8,-7.3 -10.5,0 -16,4.5 -16,10.8 0,8.7 13.6,9.7 27.8,13.6 44.8,12.2 62.4,25.4 62.4,56.3 z"
   id="path34"
   inkscape:connector-curvature="0"
   style="fill:#9c9738;stroke:#000000;stroke-width:3;stroke-miterlimit:10" />
			<path
   class="st2"
   d="M 870.1,467.3 V 498 c 0,6.6 -5.2,11.8 -11.5,11.8 h -31.2 v 117.8 c 0,6.6 -5.2,11.8 -11.8,11.8 h -35.7 c -6.3,0 -11.5,-5.2 -11.5,-11.8 V 509.8 H 737 c -6.6,0 -11.8,-5.2 -11.8,-11.8 v -30.7 c 0,-6.3 5.2,-11.5 11.8,-11.5 h 121.5 c 6.3,0 11.6,5.2 11.6,11.5 z"
   id="path36"
   inkscape:connector-curvature="0"
   style="fill:#9c9738;stroke:#000000;stroke-width:3;stroke-miterlimit:10" />
		</g>
		<g
   id="g50">
			<path
   class="st3"
   d="m 137.6,432.4 h 35.7 c 6.3,0 11.5,5.2 11.5,11.5 v 160.3 c 0,6.6 -5.2,11.8 -11.5,11.8 h -35.7 c -6.6,0 -11.8,-5.2 -11.8,-11.8 V 550 H 73.3 v 54.3 c 0,6.6 -5.2,11.8 -11.8,11.8 H 26.1 c -6.6,0 -11.8,-5.2 -11.8,-11.8 V 444 c 0,-6.3 5.2,-11.5 11.8,-11.5 h 35.4 c 6.6,0 11.8,5.2 11.8,11.5 v 52.7 h 52.5 V 444 c 0,-6.3 5.2,-11.6 11.8,-11.6 z"
   id="path40"
   inkscape:connector-curvature="0"
   style="fill:#f36f64;stroke:#000000;stroke-width:3;stroke-miterlimit:10" />
			<path
   class="st3"
   d="m 308.1,609.6 -25.5,-50.4 h -16.5 v 45.1 c 0,6.6 -5.2,11.8 -11.5,11.8 h -35.7 c -6.6,0 -11.8,-5.2 -11.8,-11.8 V 444 c 0,-6.3 5.2,-11.5 11.8,-11.5 h 65.9 c 50.9,0 77.7,23.4 77.7,65.9 0,23.4 -9.4,39.4 -26,49.3 l 33.1,58 c 2.6,4.7 -0.8,10.5 -6,10.5 h -44.9 c -4.6,-0.1 -8.8,-2.7 -10.6,-6.6 z m -42,-97.4 h 18.6 c 12.3,0 18.1,-4.5 18.1,-13.9 0,-9.7 -5.8,-14.2 -18.1,-14.2 h -18.6 z"
   id="path42"
   inkscape:connector-curvature="0"
   style="fill:#f36f64;stroke:#000000;stroke-width:3;stroke-miterlimit:10" />
			<path
   class="st3"
   d="m 498,432.4 h 41.5 c 6.6,0 11,6.3 8.9,12.3 l -54.1,161.6 c -1.8,5.8 -7.3,9.7 -13.4,9.7 h -51.4 c -6,0 -11.5,-3.9 -13.4,-9.7 L 362,444.7 c -2.1,-6 2.4,-12.3 8.9,-12.3 h 41.5 c 5.2,0 10,3.4 11.3,8.7 L 455.2,555 486.7,441.1 c 1.3,-5.3 6,-8.7 11.3,-8.7 z"
   id="path44"
   inkscape:connector-curvature="0"
   style="fill:#f36f64;stroke:#000000;stroke-width:3;stroke-miterlimit:10" />
			<path
   class="st3"
   d="m 694.3,557.6 c 0,32.8 -23.9,61.7 -74,61.7 -31.2,0 -64,-10 -75.6,-39.1 -2.1,-5.2 0.5,-10.8 5.8,-12.6 l 32,-9.7 c 3.9,-1.3 8.1,0.3 10.5,3.7 4.2,6 13.9,10.2 24.4,10.2 10.2,0 18.1,-4.2 18.1,-11 0,-9.2 -11.3,-9.7 -29.9,-14.2 -33.6,-8.1 -58,-19.9 -58,-57.7 0,-35.9 31.5,-59.8 72.2,-59.8 28.6,0 54.8,12.9 64.8,38 2.1,5.5 -0.8,11.3 -6.3,12.6 l -32,7.9 c -3.4,0.8 -7.3,-0.3 -9.4,-3.4 -3.4,-4.5 -9.2,-7.3 -16.8,-7.3 -10.5,0 -16,4.5 -16,10.8 0,8.7 13.6,9.7 27.8,13.6 44.8,12.2 62.4,25.3 62.4,56.3 z"
   id="path46"
   inkscape:connector-curvature="0"
   style="fill:#f36f64;stroke:#000000;stroke-width:3;stroke-miterlimit:10" />
			<path
   class="st3"
   d="m 846.8,444 v 30.7 c 0,6.6 -5.2,11.8 -11.5,11.8 H 804 v 117.8 c 0,6.6 -5.2,11.8 -11.8,11.8 h -35.7 c -6.3,0 -11.5,-5.2 -11.5,-11.8 V 486.5 h -31.2 c -6.6,0 -11.8,-5.2 -11.8,-11.8 V 444 c 0,-6.3 5.2,-11.5 11.8,-11.5 h 121.5 c 6.2,-0.1 11.5,5.2 11.5,11.5 z"
   id="path48"
   inkscape:connector-curvature="0"
   style="fill:#f36f64;stroke:#000000;stroke-width:3;stroke-miterlimit:10" />
		</g>
	</g>
	<g
   class="st4"
   id="g108"
   style="display:none">
		<g
   class="st5"
   id="g56"
   style="display:inline">
			
				<rect
   x="826.5"
   y="482.70001"
   transform="matrix(0.3285,-0.9445,0.9445,0.3285,118.7829,1136.0248)"
   class="st6"
   width="63.599998"
   height="3.5"
   id="rect54"
   style="fill:#194b47" />
		</g>
		
			<rect
   x="863.20001"
   y="466.20001"
   transform="matrix(0.8756,-0.4831,0.4831,0.8756,-117.7337,477.5768)"
   class="st7"
   width="10"
   height="2.2"
   id="rect58"
   style="display:inline;fill:#194b47" />
		
			<rect
   x="868.40002"
   y="464.10001"
   transform="matrix(0.2974,-0.9548,0.9548,0.2974,161.0559,1161.282)"
   class="st7"
   width="2.2"
   height="14.3"
   id="rect60"
   style="display:inline;fill:#194b47" />
		
			<rect
   x="864.59998"
   y="467.60001"
   transform="matrix(0.8317,-0.5553,0.5553,0.8317,-116.5913,560.2433)"
   class="st7"
   width="2.2"
   height="9.6999998"
   id="rect62"
   style="display:inline;fill:#194b47" />
		
			<rect
   x="860.29999"
   y="459.89999"
   transform="matrix(0.9221,-0.387,0.387,0.9221,-112.8047,369.5815)"
   class="st7"
   width="2.2"
   height="10"
   id="rect64"
   style="display:inline;fill:#194b47" />
		
			<rect
   x="856.79999"
   y="460.10001"
   transform="matrix(0.3594,-0.9332,0.9332,0.3594,113.5902,1099.9347)"
   class="st7"
   width="2.2"
   height="14.3"
   id="rect66"
   style="display:inline;fill:#194b47" />
		
			<rect
   x="855.29999"
   y="469.5"
   transform="matrix(0.9516,-0.3073,0.3073,0.9516,-102.9851,287.1009)"
   class="st7"
   width="9.6999998"
   height="2.2"
   id="rect68"
   style="display:inline;fill:#194b47" />
		<g
   class="st5"
   id="g72"
   style="display:inline">
			<path
   class="st6"
   d="m 915.5,321.6 c 0,0 3.3,104.7 -48.8,138.6 -19.6,-58.3 47.3,-136.9 48.8,-138.6 z"
   id="path70"
   inkscape:connector-curvature="0"
   style="fill:#194b47" />
		</g>
		<g
   class="st5"
   id="g106"
   style="display:inline">
			<g
   id="g88">
				<g
   id="g86">
					<g
   id="g76">
						<path
   class="st6"
   d="m 986.8,408.3 c 0,0 -63,69.1 -117.5,58.4 23.7,-49.5 115.4,-58.2 117.5,-58.4 z"
   id="path74"
   inkscape:connector-curvature="0"
   style="fill:#194b47" />
					</g>
					<g
   id="g80">
						<path
   class="st6"
   d="m 964.9,496.6 c 0,0 -67.6,7.7 -92.3,-24.2 36.7,-15.8 91.1,23.3 92.3,24.2 z"
   id="path78"
   inkscape:connector-curvature="0"
   style="fill:#194b47" />
					</g>
					<g
   id="g84">
						<path
   class="st6"
   d="m 893.3,520.5 c 0,0 -31.6,-21.7 -25.6,-45.2 22.9,6.6 25.5,44.3 25.6,45.2 z"
   id="path82"
   inkscape:connector-curvature="0"
   style="fill:#194b47" />
					</g>
				</g>
			</g>
			<g
   id="g104">
				<g
   id="g102">
					<g
   id="g92">
						<path
   class="st6"
   d="m 805,345.1 c 0,0 6.5,93.3 55.9,118.7 C 873,410.3 806.5,346.6 805,345.1 Z"
   id="path90"
   inkscape:connector-curvature="0"
   style="fill:#194b47" />
					</g>
					<g
   id="g96">
						<path
   class="st6"
   d="m 767.4,427.8 c 0,0 48.2,48 87.4,38.3 -19,-35.1 -85.9,-38.2 -87.4,-38.3 z"
   id="path94"
   inkscape:connector-curvature="0"
   style="fill:#194b47" />
					</g>
					<g
   id="g100">
						<path
   class="st6"
   d="m 808.7,491.1 c 0,0 38.3,2.5 48.2,-19.5 -22.2,-9.1 -47.6,18.8 -48.2,19.5 z"
   id="path98"
   inkscape:connector-curvature="0"
   style="fill:#194b47" />
					</g>
				</g>
			</g>
		</g>
	</g>
	<g
   id="g114">
		<path
   class="st8"
   d="m 887.5,510.1 c -1.3,-0.9 -30.4,-21.2 -26.7,-44.5 l -1,-1.4 -14.3,41.2 -6.1,-2.1 14.3,-41.1 -1.4,0.5 c -9.3,16.6 -34.5,18.4 -45,18.4 -2.2,0 -3.5,-0.1 -3.6,-0.1 l -3.3,-0.2 2.3,-2.3 0.1,-0.1 c 4.2,-4.5 18,-17.9 33.5,-21 -36.1,-1.7 -73.3,-38.4 -74.9,-40 l -2.8,-2.8 4.2,0.3 c 5.4,0.3 44.5,3.1 70.4,20.2 -12.6,-15.5 -20.5,-35.5 -25.3,-52 -7.6,-26 -9.2,-49.1 -9.2,-49.3 l -0.3,-3.8 2.8,2.6 c 0.6,0.5 45.3,42.8 55.7,88.2 2.7,-50.7 46.7,-104.6 52.5,-111.6 l 2.6,-3.1 0.1,3.9 c 0,0.3 0.7,25.8 -4.6,55.4 -3.7,20.5 -11,46.1 -25.3,65.6 35.4,-29.1 96.4,-35.3 99.5,-35.6 l 3.9,-0.4 -2.6,2.9 c -2,2.2 -44.1,47.8 -89.5,58 33.1,2.9 67.1,27.7 67.4,28 l 3,2.3 -3.7,0.4 c -0.1,0 -7.4,0.8 -17.8,0.8 -17.3,0 -46.6,-2.3 -65.8,-16.1 10.5,12.4 12.9,32.5 13.4,37.3 v 0.2 l 0.4,3.2 z M 865.3,463 c 1.4,0.5 2.7,1.2 3.9,1.9 -0.5,-0.5 -0.9,-1 -1.4,-1.5 l -2.9,-0.9 z m 4.1,-4.5 c 0.8,-0.3 1.6,-0.6 2.4,-0.8 -1.8,-0.1 -3.7,-0.3 -5.5,-0.6 l -0.5,0.3 z m -23.6,-1.6 c 1.5,0.2 3,0.5 4.4,0.9 l 0.6,-0.2 -2.9,-1.1 c -0.7,0.2 -1.4,0.3 -2.1,0.4 z m 7.7,-3.8 -0.2,-0.6 c -1.7,-0.9 -3.2,-1.9 -4.8,-3 0.5,0.7 1,1.4 1.4,2.2 z m 10.4,-0.6 0.1,-0.1 c 1.2,-2.3 2.6,-4.5 4.1,-6.7 -0.8,0.7 -1.7,1.3 -2.6,2 z m -5.2,-8.9 c -0.2,2.1 -0.4,4.3 -0.8,6.4 l 1.4,-4 c -0.2,-0.9 -0.4,-1.6 -0.6,-2.4 z"
   id="path110"
   inkscape:connector-curvature="0"
   style="fill:#9c9738" />
		<path
   d="m 910.5,310 c 0,0 3.2,101.2 -46.2,136.8 l -3.1,8.9 4,-2.2 c 24.9,-48 114.6,-56.5 116.7,-56.7 0,0 -54.3,59.5 -105.6,59.5 -3.4,0 -6.7,-0.3 -10,-0.8 l -4.1,2.2 7.4,2.3 c 5.6,-2.1 11.6,-3 17.8,-3 33.8,0 71.7,27.2 72.7,28 0,0 -7.2,0.8 -17.7,0.8 -21.3,0 -56.5,-3.4 -73.6,-23.7 l -7.3,-2.3 2.9,4.4 c 21.4,7.9 23.9,43.9 24,44.7 0,0 -30.1,-20.7 -25.9,-43.6 l -3,-4.5 -14.8,42.7 -3.3,-1.1 14.8,-42.5 -4.9,1.6 c -8.8,16.6 -34.6,18.2 -44,18.2 -2.2,0 -3.5,-0.1 -3.5,-0.1 0.5,-0.5 19.4,-21.3 38.8,-21.3 2.6,0 5.2,0.4 7.7,1.2 l 5,-1.6 -7.3,-2.9 c -3,0.6 -6.1,0.9 -9.2,0.9 -36.7,0 -76.4,-39.6 -76.4,-39.6 1.5,0.1 66.3,3.1 86.5,36.6 l 7.4,2.8 -1.8,-4.3 C 806.4,425 800,333.6 800,333.6 c 1.5,1.4 66.4,63.5 56.3,116.7 l 1.7,4 2.9,-8.3 C 844.1,387.9 909,311.8 910.5,310 m 2.7,-8 -5.1,6.1 -0.1,0.1 c -5.5,6.6 -45.6,55.7 -52.1,104.4 -0.4,-1.2 -0.8,-2.5 -1.2,-3.7 -4.2,-12.1 -10.9,-24.8 -19.8,-38 -15.6,-23.1 -32.7,-39.3 -32.9,-39.4 l -5.6,-5.2 0.5,7.6 c 0.1,0.9 1.7,23.5 9.3,49.6 4.5,15.4 10.1,28.9 16.8,40 1.3,2.2 2.6,4.2 4,6.2 -7.5,-4 -16.3,-7.4 -26.5,-10.1 -17.5,-4.7 -33.4,-5.9 -37.8,-6.2 h -0.1 l -8,-0.5 5.7,5.6 c 1.5,1.5 34.3,33.8 68.5,39.6 -12.8,5 -23.4,15.4 -27.1,19.3 l -0.1,0.1 -4.7,4.7 6.6,0.4 c 0.1,0 1.4,0.1 3.7,0.1 9.6,0 31.2,-1.5 42.7,-14.1 l -11.5,32.9 -1,2.8 2.8,1 3.3,1.1 2.8,1 1,-2.8 11.6,-33.4 c 1,21.7 26.4,39.4 27.6,40.2 l 5.5,3.8 -0.8,-6.6 v -0.1 c -0.4,-4.2 -2.2,-19.6 -9.4,-32 6.1,3.3 13.2,6 21.3,8 14.3,3.6 29.2,4.3 39.1,4.3 10.6,0 17.7,-0.8 18,-0.8 l 7.5,-0.9 -6,-4.5 c -0.3,-0.2 -29.7,-21.7 -60.7,-27.3 15.3,-4.7 31.7,-13.5 49,-26.4 20,-14.9 33.4,-29.5 34,-30.1 l 5.2,-5.7 -7.7,0.7 c -2.5,0.2 -25.1,2.5 -50.4,10.6 -15.2,4.8 -28.3,10.7 -39.1,17.5 -1.2,0.8 -2.4,1.5 -3.5,2.3 2.4,-3.9 4.6,-8.1 6.6,-12.6 6,-13.1 10.6,-28.6 13.8,-46.1 5.4,-29.7 4.6,-55.4 4.6,-55.7 z"
   id="path112"
   inkscape:connector-curvature="0" />
	</g>
</g>
</svg>