<?xml version="1.0" encoding="utf-8"?>
<!-- Generator: Adobe Illustrator 16.0.3, SVG Export Plug-In . SVG Version: 6.00 Build 0)  -->
<!DOCTYPE svg PUBLIC "-//W3C//DTD SVG 1.1//EN" "http://www.w3.org/Graphics/SVG/1.1/DTD/svg11.dtd">
<svg version="1.1" id="Layer_1" xmlns="http://www.w3.org/2000/svg" xmlns:xlink="http://www.w3.org/1999/xlink" x="0px" y="0px"
	 width="953.708px" height="260.891px" viewBox="16.764 49.03 953.708 260.891"
	 enable-background="new 16.764 49.03 953.708 260.891" xml:space="preserve">
<g>
	<path opacity="0.5" d="M32.5,81.785v18.066H21.525v-47.14h18.13c5.46,0,9.789,1.263,12.983,3.788
		c3.194,2.525,4.792,5.979,4.792,10.36c0,2.439-0.643,4.533-1.926,6.281c-1.284,1.748-3.178,3.173-5.682,4.273
		c2.892,0.82,4.97,2.186,6.232,4.096c1.262,1.91,1.894,4.29,1.894,7.139v2.979c0,1.23,0.183,2.634,0.55,4.209
		c0.367,1.576,1.004,2.698,1.91,3.367v0.647H49.142c-0.863-0.669-1.43-1.856-1.7-3.562c-0.271-1.705-0.405-3.28-0.405-4.727v-2.85
		c0-2.244-0.594-3.96-1.781-5.147c-1.187-1.187-2.925-1.78-5.212-1.78L32.5,81.785L32.5,81.785z M32.5,73.367h7.22
		c2.201,0,3.885-0.502,5.05-1.506c1.166-1.003,1.749-2.444,1.749-4.322c0-1.921-0.599-3.469-1.797-4.646
		c-1.198-1.176-2.887-1.765-5.067-1.765H32.5V73.367z"/>
	<path opacity="0.5" d="M94.759,79.681H76.272v11.752h21.789v8.418H65.297v-47.14h32.829v8.418H76.272v10.134h18.487V79.681z"/>
	<path opacity="0.5" d="M139.729,83.307l0.065,0.194c-0.216,5.525-1.851,9.745-4.905,12.659c-3.055,2.913-7.484,4.37-13.291,4.37
		c-5.828,0-10.566-1.791-14.213-5.374c-3.648-3.583-5.472-8.234-5.472-13.954v-9.843c0-5.697,1.753-10.343,5.261-13.938
		c3.507-3.593,8.066-5.391,13.679-5.391c5.957,0,10.511,1.5,13.663,4.5c3.151,3.001,4.932,7.264,5.342,12.789l-0.065,0.194h-10.652
		c-0.151-3.065-0.836-5.342-2.056-6.831c-1.22-1.49-3.297-2.234-6.232-2.234c-2.482,0-4.436,0.999-5.86,2.994
		c-1.425,1.997-2.137,4.614-2.137,7.852v9.907c0,3.259,0.777,5.893,2.331,7.899c1.554,2.008,3.69,3.012,6.41,3.012
		c2.633,0,4.5-0.702,5.601-2.104c1.101-1.403,1.727-3.638,1.878-6.702L139.729,83.307L139.729,83.307z"/>
	<path opacity="0.5" d="M175.083,79.681h-18.486v11.752h21.789v8.418h-32.765v-47.14h32.829v8.418h-21.854v10.134h18.486
		L175.083,79.681L175.083,79.681z"/>
	<path opacity="0.5" d="M222.676,99.851h-10.911l-17.256-30.045l-0.194,0.064v29.98h-10.976V52.711h10.976l17.256,30.045
		l0.194-0.064V52.711h10.911V99.851z"/>
	<path opacity="0.5" d="M262.045,61.129h-12.433v38.722h-10.975V61.129h-12.335v-8.418h35.743V61.129z"/>
	<path opacity="0.5" d="M293.968,83.696v16.155h-10.975v-47.14h19.134c5.59,0,10.026,1.431,13.307,4.291
		c3.281,2.859,4.922,6.599,4.922,11.218c0,4.641-1.641,8.38-4.922,11.218c-3.28,2.839-7.716,4.258-13.307,4.258H293.968z
		 M293.968,75.278h8.159c2.375,0,4.182-0.652,5.424-1.958c1.24-1.306,1.861-2.984,1.861-5.035c0-2.094-0.621-3.81-1.861-5.147
		c-1.242-1.339-3.049-2.008-5.424-2.008h-8.159V75.278z"/>
	<path opacity="0.5" d="M365.486,80.523c0,5.806-1.84,10.593-5.521,14.358c-3.68,3.767-8.488,5.649-14.423,5.649
		c-5.979,0-10.824-1.883-14.537-5.649c-3.712-3.766-5.569-8.553-5.569-14.358v-8.482c0-5.785,1.852-10.565,5.554-14.343
		c3.701-3.777,8.53-5.666,14.487-5.666c5.914,0,10.728,1.889,14.439,5.666s5.569,8.558,5.569,14.343L365.486,80.523L365.486,80.523z
		 M354.576,71.975c0-3.367-0.793-6.13-2.38-8.288c-1.586-2.158-3.826-3.237-6.718-3.237c-2.957,0-5.219,1.074-6.782,3.222
		c-1.566,2.147-2.349,4.915-2.349,8.304v8.548c0,3.41,0.793,6.194,2.379,8.353c1.588,2.158,3.858,3.238,6.815,3.238
		c2.871,0,5.094-1.08,6.67-3.238c1.575-2.158,2.363-4.942,2.363-8.353L354.576,71.975L354.576,71.975z"/>
	<path opacity="0.5" d="M396.858,87.354c0-1.662-0.551-2.946-1.651-3.853c-1.102-0.906-3.076-1.867-5.925-2.882
		c-5.958-1.878-10.371-3.89-13.242-6.038c-2.871-2.147-4.306-5.25-4.306-9.308c0-3.95,1.71-7.145,5.131-9.584
		c3.421-2.438,7.766-3.658,13.032-3.658c5.223,0,9.501,1.344,12.837,4.03c3.333,2.688,4.947,6.146,4.839,10.377l-0.064,0.194H396.89
		c0-1.878-0.637-3.404-1.909-4.581c-1.273-1.176-3.033-1.765-5.277-1.765c-2.202,0-3.929,0.486-5.18,1.457
		c-1.252,0.972-1.879,2.169-1.879,3.594c0,1.382,0.632,2.488,1.896,3.319c1.262,0.831,3.631,1.872,7.106,3.124
		c5.353,1.597,9.383,3.561,12.092,5.892s4.063,5.536,4.063,9.616c0,4.144-1.614,7.388-4.841,9.729
		c-3.227,2.341-7.505,3.512-12.836,3.512c-5.353,0-9.983-1.344-13.89-4.03c-3.906-2.688-5.807-6.557-5.698-11.607l0.063-0.193
		h10.652c0,2.719,0.734,4.662,2.202,5.827c1.467,1.165,3.691,1.748,6.669,1.748c2.266,0,3.955-0.453,5.066-1.359
		C396.302,90.009,396.858,88.822,396.858,87.354z"/>
	<path opacity="0.5" d="M446.588,61.129h-12.432v38.722H423.18V61.129h-12.335v-8.418h35.743V61.129z"/>
	<path opacity="0.5" d="M475.532,87.354c0-1.662-0.55-2.946-1.651-3.853c-1.101-0.906-3.076-1.867-5.925-2.882
		c-5.958-1.878-10.371-3.89-13.242-6.038c-2.871-2.147-4.306-5.25-4.306-9.308c0-3.95,1.71-7.145,5.131-9.584
		c3.421-2.438,7.765-3.658,13.032-3.658c5.223,0,9.501,1.344,12.837,4.03c3.334,2.688,4.948,6.146,4.84,10.377l-0.065,0.194h-10.618
		c0-1.878-0.638-3.404-1.91-4.581c-1.273-1.176-3.033-1.765-5.277-1.765c-2.202,0-3.928,0.486-5.18,1.457
		c-1.252,0.972-1.878,2.169-1.878,3.594c0,1.382,0.631,2.488,1.895,3.319c1.263,0.831,3.631,1.872,7.106,3.124
		c5.353,1.597,9.383,3.561,12.092,5.892c2.708,2.331,4.063,5.536,4.063,9.616c0,4.144-1.613,7.388-4.841,9.729
		c-3.227,2.342-7.505,3.512-12.836,3.512c-5.353,0-9.982-1.344-13.889-4.03c-3.907-2.688-5.806-6.557-5.698-11.607l0.064-0.193
		h10.651c0,2.719,0.734,4.662,2.202,5.827s3.691,1.748,6.669,1.748c2.267,0,3.955-0.453,5.066-1.359
		C474.976,90.009,475.532,88.822,475.532,87.354z"/>
	<path fill="#FFFFFF" d="M28.5,78.785v18.066H17.525v-47.14h18.13c5.46,0,9.789,1.263,12.983,3.788
		c3.194,2.525,4.792,5.979,4.792,10.36c0,2.439-0.643,4.533-1.926,6.281c-1.284,1.748-3.178,3.173-5.682,4.273
		c2.892,0.82,4.97,2.186,6.232,4.096c1.262,1.91,1.894,4.29,1.894,7.139v2.979c0,1.23,0.183,2.634,0.55,4.209
		c0.367,1.576,1.004,2.698,1.91,3.367v0.647H45.142c-0.863-0.669-1.43-1.856-1.7-3.562c-0.271-1.705-0.405-3.28-0.405-4.727v-2.85
		c0-2.244-0.594-3.96-1.781-5.147c-1.187-1.187-2.925-1.78-5.212-1.78L28.5,78.785L28.5,78.785z M28.5,70.367h7.22
		c2.201,0,3.885-0.502,5.05-1.506c1.166-1.003,1.749-2.444,1.749-4.322c0-1.921-0.599-3.469-1.797-4.646
		c-1.198-1.176-2.887-1.765-5.067-1.765H28.5V70.367z"/>
	<path fill="#FFFFFF" d="M90.759,76.681H72.272v11.752h21.789v8.418H61.297v-47.14h32.829v8.418H72.272v10.134h18.487V76.681z"/>
	<path fill="#FFFFFF" d="M135.729,80.307l0.065,0.194c-0.216,5.525-1.851,9.745-4.905,12.659c-3.055,2.913-7.484,4.37-13.291,4.37
		c-5.828,0-10.566-1.791-14.213-5.374c-3.648-3.583-5.472-8.234-5.472-13.954v-9.843c0-5.697,1.753-10.343,5.261-13.938
		c3.507-3.593,8.066-5.391,13.679-5.391c5.957,0,10.511,1.5,13.663,4.5c3.151,3.001,4.932,7.264,5.342,12.789l-0.065,0.194h-10.652
		c-0.151-3.065-0.836-5.342-2.056-6.831c-1.22-1.49-3.297-2.234-6.232-2.234c-2.482,0-4.436,0.999-5.86,2.994
		c-1.425,1.997-2.137,4.614-2.137,7.852v9.907c0,3.259,0.777,5.893,2.331,7.899c1.554,2.008,3.69,3.012,6.41,3.012
		c2.633,0,4.5-0.702,5.601-2.104c1.101-1.403,1.727-3.638,1.878-6.702L135.729,80.307L135.729,80.307z"/>
	<path fill="#FFFFFF" d="M171.083,76.681h-18.486v11.752h21.789v8.418h-32.765v-47.14h32.829v8.418h-21.854v10.134h18.486
		L171.083,76.681L171.083,76.681z"/>
	<path fill="#FFFFFF" d="M218.676,96.851h-10.911l-17.256-30.045l-0.194,0.064v29.98h-10.976V49.711h10.976l17.256,30.045
		l0.194-0.064V49.711h10.911V96.851z"/>
	<path fill="#FFFFFF" d="M258.045,58.129h-12.433v38.722h-10.975V58.129h-12.335v-8.418h35.743V58.129z"/>
	<path fill="#FFFFFF" d="M289.968,80.696v16.155h-10.975v-47.14h19.134c5.59,0,10.026,1.431,13.307,4.291
		c3.281,2.859,4.922,6.599,4.922,11.218c0,4.641-1.641,8.38-4.922,11.218c-3.28,2.839-7.716,4.258-13.307,4.258H289.968z
		 M289.968,72.278h8.159c2.375,0,4.182-0.652,5.424-1.958c1.24-1.306,1.861-2.984,1.861-5.035c0-2.094-0.621-3.81-1.861-5.147
		c-1.242-1.339-3.049-2.008-5.424-2.008h-8.159V72.278z"/>
	<path fill="#FFFFFF" d="M361.486,77.523c0,5.806-1.84,10.593-5.521,14.358c-3.68,3.767-8.488,5.649-14.423,5.649
		c-5.979,0-10.824-1.883-14.537-5.649c-3.712-3.766-5.569-8.553-5.569-14.358v-8.482c0-5.785,1.852-10.565,5.554-14.343
		c3.701-3.777,8.53-5.666,14.487-5.666c5.914,0,10.728,1.889,14.439,5.666s5.569,8.558,5.569,14.343L361.486,77.523L361.486,77.523z
		 M350.576,68.975c0-3.367-0.793-6.13-2.38-8.288c-1.586-2.158-3.826-3.237-6.718-3.237c-2.957,0-5.219,1.074-6.782,3.222
		c-1.566,2.147-2.349,4.915-2.349,8.304v8.548c0,3.41,0.793,6.194,2.379,8.353c1.588,2.158,3.858,3.238,6.815,3.238
		c2.871,0,5.094-1.08,6.67-3.238c1.575-2.158,2.363-4.942,2.363-8.353L350.576,68.975L350.576,68.975z"/>
	<path fill="#FFFFFF" d="M392.858,84.354c0-1.662-0.551-2.946-1.651-3.853c-1.102-0.906-3.076-1.867-5.925-2.882
		c-5.958-1.878-10.371-3.89-13.242-6.038c-2.871-2.147-4.306-5.25-4.306-9.308c0-3.95,1.71-7.145,5.131-9.584
		c3.421-2.438,7.766-3.658,13.032-3.658c5.223,0,9.501,1.344,12.837,4.03c3.333,2.688,4.947,6.146,4.839,10.377l-0.064,0.194H392.89
		c0-1.878-0.637-3.404-1.909-4.581c-1.273-1.176-3.033-1.765-5.277-1.765c-2.202,0-3.929,0.486-5.18,1.457
		c-1.252,0.972-1.879,2.169-1.879,3.594c0,1.382,0.632,2.488,1.896,3.319c1.262,0.831,3.631,1.872,7.106,3.124
		c5.353,1.597,9.383,3.561,12.092,5.892s4.063,5.536,4.063,9.616c0,4.144-1.614,7.388-4.841,9.729
		c-3.227,2.341-7.505,3.512-12.836,3.512c-5.353,0-9.983-1.344-13.89-4.03c-3.906-2.688-5.807-6.557-5.698-11.607l0.063-0.193
		h10.652c0,2.719,0.734,4.662,2.202,5.827c1.467,1.165,3.691,1.748,6.669,1.748c2.266,0,3.955-0.453,5.066-1.359
		C392.302,87.009,392.858,85.822,392.858,84.354z"/>
	<path fill="#FFFFFF" d="M442.588,58.129h-12.432v38.722H419.18V58.129h-12.335v-8.418h35.743V58.129z"/>
	<path fill="#FFFFFF" d="M471.532,84.354c0-1.662-0.55-2.946-1.651-3.853c-1.101-0.906-3.076-1.867-5.925-2.882
		c-5.958-1.878-10.371-3.89-13.242-6.038c-2.871-2.147-4.306-5.25-4.306-9.308c0-3.95,1.71-7.145,5.131-9.584
		c3.421-2.438,7.765-3.658,13.032-3.658c5.223,0,9.501,1.344,12.837,4.03c3.334,2.688,4.948,6.146,4.84,10.377l-0.065,0.194h-10.618
		c0-1.878-0.638-3.404-1.91-4.581c-1.273-1.176-3.033-1.765-5.277-1.765c-2.202,0-3.928,0.486-5.18,1.457
		c-1.252,0.972-1.878,2.169-1.878,3.594c0,1.382,0.631,2.488,1.895,3.319c1.263,0.831,3.631,1.872,7.106,3.124
		c5.353,1.597,9.383,3.561,12.092,5.892c2.708,2.331,4.063,5.536,4.063,9.616c0,4.144-1.613,7.388-4.841,9.729
		c-3.227,2.342-7.505,3.512-12.836,3.512c-5.353,0-9.982-1.344-13.889-4.03c-3.907-2.688-5.806-6.557-5.698-11.607l0.064-0.193
		h10.651c0,2.719,0.734,4.662,2.202,5.827s3.691,1.748,6.669,1.748c2.267,0,3.955-0.453,5.066-1.359
		C470.976,87.009,471.532,85.822,471.532,84.354z"/>
</g>
<g>
	<g>
		<path opacity="0.5" d="M57.208,116.52l26.758,83.642h0.493l27.087-83.642h36.609v119.515h-27.826v-29.633l2.626-54.586
			l-0.492-0.082l-28.811,84.301H74.938l-28.482-83.561l-0.493,0.081l2.627,53.847v29.633H20.764V116.52H57.208z"/>
		<path opacity="0.5" d="M231.879,212.803h-37.676l-6.73,23.231h-27.908l38.579-119.515h29.795L266.6,236.034h-27.91
			L231.879,212.803z M200.359,191.462h25.363l-12.477-42.767h-0.492L200.359,191.462z"/>
		<path opacity="0.5" d="M302.878,190.231v45.803h-27.825V116.52h45.966c13.845,0,24.816,3.203,32.915,9.605
			c8.1,6.401,12.148,15.158,12.148,26.266c0,6.183-1.629,11.492-4.884,15.924c-3.255,4.433-8.059,8.044-14.405,10.835
			c7.332,2.08,12.598,5.54,15.8,10.382c3.202,4.848,4.802,10.876,4.802,18.101v7.552c0,3.119,0.465,6.675,1.396,10.669
			c0.931,3.996,2.545,6.842,4.843,8.538v1.644H345.07c-2.191-1.699-3.626-4.707-4.311-9.03c-0.685-4.324-1.025-8.318-1.025-11.983
			v-7.225c0-5.69-1.506-10.04-4.515-13.052c-3.01-3.008-7.417-4.513-13.216-4.513h-19.126V190.231z M302.878,168.89h18.306
			c5.582,0,9.851-1.272,12.806-3.815c2.956-2.544,4.432-6.197,4.432-10.959c0-4.87-1.518-8.797-4.555-11.779
			c-3.037-2.981-7.318-4.474-12.848-4.474h-18.141V168.89z"/>
		<path opacity="0.5" d="M426.66,188.097h-12.807v47.938H386.03V116.52h27.823v46.788h9.441l26.266-46.788h34.475l-37.02,54.092
			l40.221,65.423h-33.818L426.66,188.097z"/>
		<path fill="#FFFFFF" d="M53.208,113.52l26.758,83.642h0.493l27.087-83.642h36.609v119.515h-27.826v-29.633l2.626-54.586
			l-0.492-0.082l-28.811,84.301H70.938l-28.482-83.561l-0.493,0.081l2.627,53.847v29.633H16.764V113.52H53.208z"/>
		<path fill="#FFFFFF" d="M227.879,209.803h-37.676l-6.73,23.231h-27.908l38.579-119.515h29.795L262.6,233.034h-27.91
			L227.879,209.803z M196.359,188.462h25.363l-12.477-42.767h-0.492L196.359,188.462z"/>
		<path fill="#FFFFFF" d="M298.878,187.231v45.803h-27.825V113.52h45.966c13.845,0,24.816,3.203,32.915,9.605
			c8.1,6.401,12.148,15.158,12.148,26.266c0,6.183-1.629,11.492-4.884,15.924c-3.255,4.433-8.059,8.044-14.405,10.835
			c7.332,2.08,12.598,5.54,15.8,10.382c3.202,4.848,4.802,10.876,4.802,18.101v7.552c0,3.119,0.465,6.675,1.396,10.669
			c0.931,3.996,2.545,6.842,4.843,8.538v1.644H341.07c-2.191-1.699-3.626-4.707-4.311-9.03c-0.685-4.324-1.025-8.318-1.025-11.983
			v-7.225c0-5.69-1.506-10.04-4.515-13.052c-3.01-3.008-7.417-4.513-13.216-4.513h-19.126V187.231z M298.878,165.89h18.306
			c5.582,0,9.851-1.272,12.806-3.815c2.956-2.544,4.432-6.197,4.432-10.959c0-4.87-1.518-8.797-4.555-11.779
			c-3.037-2.981-7.318-4.474-12.848-4.474h-18.141V165.89z"/>
		<path fill="#FFFFFF" d="M422.66,185.097h-12.807v47.938H382.03V113.52h27.823v46.788h9.441l26.266-46.788h34.475l-37.02,54.092
			l40.221,65.423h-33.818L422.66,185.097z"/>
	</g>
	<g>
		<path opacity="0.5" d="M498.581,234.319V115.28h43.002c14.008,0,25.727,4.569,35.156,13.694
			c9.429,9.132,14.142,20.835,14.142,35.116v21.42c0,14.333-4.714,26.052-14.142,35.153c-9.43,9.103-21.148,13.655-35.156,13.655
			H498.581z M526.295,136.539v76.524h13.406c7.36,0,13.109-2.523,17.251-7.564c4.145-5.04,6.214-11.704,6.214-19.988v-21.584
			c0-8.229-2.069-14.851-6.214-19.869c-4.142-5.013-9.891-7.52-17.251-7.52L526.295,136.539L526.295,136.539z"/>
		<path opacity="0.5" d="M706.403,185.511c0,14.66-4.648,26.747-13.941,36.259c-9.293,9.513-21.433,14.267-36.421,14.267
			c-15.099,0-27.333-4.754-36.708-14.267c-9.375-9.511-14.062-21.599-14.062-36.259v-21.42c0-14.609,4.673-26.682,14.021-36.217
			c9.346-9.54,21.541-14.309,36.584-14.309c14.935,0,27.089,4.769,36.464,14.309c9.374,9.535,14.063,21.606,14.063,36.217V185.511
			L706.403,185.511z M678.851,163.927c0-8.502-2.002-15.479-6.011-20.929c-4.003-5.451-9.658-8.174-16.963-8.174
			c-7.466,0-13.178,2.711-17.126,8.134c-3.954,5.422-5.93,12.411-5.93,20.968v21.585c0,8.612,2.005,15.643,6.008,21.093
			c4.01,5.451,9.743,8.174,17.212,8.174c7.248,0,12.861-2.723,16.841-8.174c3.98-5.45,5.969-12.48,5.969-21.093V163.927z"/>
		<path opacity="0.5" d="M818.163,193.36h0.49l15.614-78.08h26.735l-27.306,119.039h-25.998l-20.031-73.418h-0.492l-19.864,73.418
			h-26L713.923,115.28h26.817l15.615,78.08h0.49l21.013-78.08h19.213L818.163,193.36z"/>
		<path opacity="0.5" d="M970.473,234.319h-27.551l-43.578-75.87l-0.49,0.164v75.706h-27.715V115.28h27.715l43.576,75.871
			l0.492-0.166V115.28h27.551V234.319z"/>
		<path fill="#FFFFFF" d="M494.534,231.284V112.245h43.003c14.007,0,25.726,4.569,35.155,13.694
			c9.429,9.132,14.142,20.835,14.142,35.116v21.42c0,14.333-4.714,26.052-14.142,35.154c-9.43,9.103-21.148,13.655-35.155,13.655
			H494.534z M522.249,133.504v76.524h13.406c7.359,0,13.109-2.523,17.25-7.564c4.145-5.039,6.214-11.704,6.214-19.988v-21.583
			c0-8.229-2.069-14.852-6.214-19.869c-4.141-5.013-9.891-7.52-17.25-7.52L522.249,133.504L522.249,133.504z"/>
		<path fill="#FFFFFF" d="M702.356,182.476c0,14.661-4.648,26.747-13.941,36.259c-9.292,9.513-21.433,14.267-36.42,14.267
			c-15.1,0-27.334-4.754-36.709-14.267c-9.374-9.512-14.061-21.599-14.061-36.259v-21.42c0-14.609,4.673-26.681,14.021-36.216
			c9.345-9.541,21.54-14.309,36.584-14.309c14.934,0,27.088,4.769,36.464,14.309c9.374,9.535,14.062,21.606,14.062,36.216V182.476
			L702.356,182.476z M674.804,160.892c0-8.502-2.002-15.479-6.011-20.929c-4.003-5.451-9.657-8.174-16.962-8.174
			c-7.467,0-13.178,2.712-17.127,8.135c-3.953,5.422-5.929,12.411-5.929,20.968v21.584c0,8.613,2.004,15.643,6.007,21.093
			c4.011,5.452,9.744,8.174,17.213,8.174c7.247,0,12.86-2.723,16.841-8.174c3.98-5.45,5.968-12.48,5.968-21.093V160.892z"/>
		<path fill="#FFFFFF" d="M814.116,190.326h0.49l15.615-78.081h26.734L829.65,231.284h-25.998l-20.03-73.418h-0.492l-19.865,73.418
			h-25.999l-27.39-119.039h26.818l15.614,78.081h0.49l21.013-78.081h19.213L814.116,190.326z"/>
		<path fill="#FFFFFF" d="M966.426,231.284h-27.551l-43.578-75.869l-0.49,0.164v75.705h-27.715V112.245h27.715l43.577,75.872
			l0.491-0.166v-75.706h27.551V231.284z"/>
	</g>
</g>
<g>
	<path opacity="0.5" d="M553.106,300.897c-2.006,2.385-4.918,4.484-8.737,6.3c-3.82,1.816-8.617,2.724-14.389,2.724
		c-7.314,0-13.257-2.249-17.822-6.746c-4.564-4.498-6.849-10.338-6.849-17.519v-12.355c0-7.125,2.229-12.951,6.687-17.478
		c4.457-4.524,10.194-6.787,17.213-6.787c7.613,0,13.315,1.763,17.11,5.284c3.794,3.521,5.947,8.331,6.462,14.428l-0.08,0.244
		h-12.885c-0.462-3.116-1.471-5.46-3.027-7.03c-1.56-1.572-3.938-2.357-7.133-2.357c-3.197,0-5.771,1.268-7.724,3.801
		c-1.95,2.533-2.926,5.805-2.926,9.814v12.437c0,4.118,0.961,7.432,2.886,9.938c1.924,2.506,4.619,3.759,8.088,3.759
		c2.52,0,4.497-0.204,5.936-0.61c1.436-0.405,2.572-0.947,3.414-1.625v-9.348h-9.31v-9.105h23.086V300.897z"/>
	<path opacity="0.5" d="M598.466,283.746h-23.208V298.5h27.354v10.567h-41.132v-59.177h41.212v10.565h-27.434v12.723h23.208V283.746
		z"/>
	<path opacity="0.5" d="M658.211,309.067h-13.696l-21.663-37.718l-0.244,0.081v37.637H608.83v-59.177h13.777l21.663,37.717
		l0.244-0.081v-37.636h13.696V309.067z"/>
	<path opacity="0.5" d="M704.504,283.746h-23.209V298.5h27.354v10.567h-41.131v-59.177h41.212v10.565h-27.436v12.723h23.209V283.746
		z"/>
	<path opacity="0.5" d="M728.645,286.388v22.68h-13.777v-59.177h22.761c6.854,0,12.287,1.585,16.298,4.755s6.015,7.506,6.015,13.006
		c0,3.063-0.806,5.69-2.418,7.885c-1.611,2.195-3.99,3.983-7.133,5.364c3.631,1.03,6.238,2.745,7.824,5.142
		c1.585,2.398,2.378,5.387,2.378,8.963v3.738c0,1.545,0.229,3.307,0.69,5.284c0.461,1.979,1.26,3.387,2.397,4.228v0.813h-14.146
		c-1.082-0.841-1.795-2.331-2.133-4.471c-0.34-2.142-0.509-4.119-0.509-5.936v-3.576c0-2.817-0.745-4.973-2.235-6.462
		s-3.67-2.235-6.543-2.235H728.645L728.645,286.388z M728.645,275.821h9.063c2.764,0,4.877-0.63,6.341-1.892
		c1.463-1.259,2.194-3.068,2.194-5.425c0-2.412-0.752-4.355-2.256-5.832c-1.505-1.478-3.623-2.217-6.361-2.217h-8.981V275.821
		L728.645,275.821z"/>
	<path opacity="0.5" d="M801.274,297.564h-18.656l-3.332,11.503h-13.817l19.103-59.177h14.753l19.145,59.177H804.65L801.274,297.564
		z M785.669,286.997h12.559l-6.178-21.175h-0.245L785.669,286.997z"/>
	<path opacity="0.5" d="M860.331,260.457h-15.608v48.61h-13.777v-48.61h-15.484v-10.566h44.871L860.331,260.457L860.331,260.457z"/>
	<path opacity="0.5" d="M913.694,284.804c0,7.288-2.312,13.297-6.931,18.023c-4.619,4.729-10.655,7.092-18.105,7.092
		c-7.507,0-13.589-2.362-18.25-7.092c-4.659-4.728-6.989-10.735-6.989-18.023v-10.649c0-7.262,2.321-13.264,6.972-18.005
		c4.646-4.742,10.708-7.112,18.187-7.112c7.426,0,13.468,2.37,18.128,7.112c4.659,4.741,6.99,10.743,6.99,18.005L913.694,284.804
		L913.694,284.804z M899.999,274.073c0-4.227-0.996-7.695-2.989-10.404c-1.99-2.709-4.801-4.063-8.434-4.063
		c-3.712,0-6.551,1.349-8.515,4.044c-1.965,2.696-2.946,6.171-2.946,10.425v10.73c0,4.279,0.996,7.775,2.986,10.484
		c1.992,2.71,4.844,4.064,8.557,4.064c3.604,0,6.395-1.354,8.372-4.064c1.979-2.709,2.969-6.205,2.969-10.484V274.073
		L899.999,274.073z"/>
	<path opacity="0.5" d="M935.438,286.388v22.68H921.66v-59.177h22.761c6.854,0,12.288,1.585,16.299,4.755
		c4.009,3.17,6.015,7.506,6.015,13.006c0,3.063-0.807,5.69-2.419,7.885c-1.611,2.195-3.989,3.983-7.133,5.364
		c3.631,1.03,6.239,2.745,7.825,5.142c1.584,2.398,2.377,5.387,2.377,8.963v3.738c0,1.545,0.229,3.307,0.69,5.284
		c0.461,1.979,1.26,3.387,2.397,4.228v0.813h-14.146c-1.084-0.841-1.795-2.331-2.133-4.471c-0.339-2.142-0.509-4.119-0.509-5.936
		v-3.576c0-2.817-0.745-4.973-2.235-6.462c-1.489-1.489-3.671-2.235-6.543-2.235H935.438L935.438,286.388z M935.438,275.821h9.063
		c2.765,0,4.878-0.63,6.34-1.892c1.464-1.259,2.195-3.068,2.195-5.425c0-2.412-0.753-4.355-2.256-5.832
		c-1.504-1.478-3.624-2.217-6.36-2.217h-8.982V275.821z"/>
	<path fill="#FFFFFF" d="M549.106,297.897c-2.006,2.385-4.918,4.484-8.737,6.3c-3.82,1.816-8.617,2.724-14.389,2.724
		c-7.314,0-13.257-2.249-17.822-6.746c-4.564-4.498-6.849-10.338-6.849-17.519v-12.355c0-7.125,2.229-12.951,6.687-17.478
		c4.457-4.524,10.194-6.787,17.213-6.787c7.613,0,13.315,1.762,17.11,5.284c3.794,3.521,5.947,8.331,6.462,14.428l-0.08,0.244
		h-12.885c-0.462-3.116-1.471-5.46-3.027-7.03c-1.56-1.572-3.938-2.357-7.133-2.357c-3.197,0-5.771,1.268-7.724,3.801
		c-1.95,2.533-2.926,5.805-2.926,9.814v12.437c0,4.118,0.961,7.432,2.886,9.938c1.924,2.506,4.619,3.759,8.088,3.759
		c2.52,0,4.497-0.204,5.936-0.61c1.436-0.405,2.572-0.947,3.414-1.625v-9.348h-9.31v-9.105h23.086V297.897z"/>
	<path fill="#FFFFFF" d="M594.466,280.746h-23.208V295.5h27.354v10.567h-41.132v-59.177h41.212v10.565h-27.434v12.723h23.208
		V280.746z"/>
	<path fill="#FFFFFF" d="M654.211,306.067h-13.696l-21.663-37.718l-0.244,0.081v37.637H604.83v-59.177h13.777l21.663,37.717
		l0.244-0.081v-37.636h13.696V306.067z"/>
	<path fill="#FFFFFF" d="M700.504,280.746h-23.209V295.5h27.354v10.567h-41.131v-59.177h41.212v10.565h-27.436v12.723h23.209
		V280.746z"/>
	<path fill="#FFFFFF" d="M724.645,283.388v22.68h-13.777v-59.177h22.76c6.855,0,12.288,1.585,16.299,4.755s6.015,7.506,6.015,13.006
		c0,3.063-0.806,5.69-2.418,7.885c-1.611,2.195-3.99,3.983-7.133,5.364c3.631,1.03,6.238,2.745,7.824,5.142
		c1.585,2.398,2.378,5.387,2.378,8.963v3.738c0,1.545,0.229,3.307,0.69,5.284c0.461,1.979,1.26,3.387,2.397,4.228v0.813h-14.146
		c-1.082-0.841-1.795-2.331-2.133-4.471c-0.34-2.142-0.509-4.119-0.509-5.936v-3.576c0-2.817-0.745-4.973-2.235-6.462
		s-3.67-2.235-6.542-2.235H724.645L724.645,283.388z M724.645,272.821h9.063c2.765,0,4.878-0.63,6.342-1.892
		c1.463-1.259,2.194-3.068,2.194-5.425c0-2.412-0.752-4.355-2.256-5.832c-1.505-1.478-3.623-2.217-6.36-2.217h-8.982V272.821
		L724.645,272.821z"/>
	<path fill="#FFFFFF" d="M797.274,294.564h-18.656l-3.332,11.503h-13.817l19.103-59.177h14.753l19.145,59.177H800.65
		L797.274,294.564z M781.669,283.997h12.559l-6.178-21.175h-0.245L781.669,283.997z"/>
	<path fill="#FFFFFF" d="M856.331,257.457h-15.608v48.61h-13.777v-48.61h-15.484v-10.566h44.871L856.331,257.457L856.331,257.457z"
		/>
	<path fill="#FFFFFF" d="M909.694,281.804c0,7.288-2.312,13.297-6.931,18.023c-4.619,4.729-10.655,7.092-18.105,7.092
		c-7.507,0-13.589-2.362-18.25-7.092c-4.659-4.728-6.989-10.735-6.989-18.023v-10.649c0-7.262,2.321-13.264,6.972-18.005
		c4.646-4.742,10.708-7.111,18.187-7.111c7.426,0,13.468,2.369,18.128,7.111c4.659,4.741,6.99,10.743,6.99,18.005L909.694,281.804
		L909.694,281.804z M895.999,271.073c0-4.227-0.996-7.695-2.989-10.404c-1.99-2.709-4.801-4.063-8.434-4.063
		c-3.712,0-6.551,1.349-8.515,4.044c-1.965,2.696-2.946,6.171-2.946,10.425v10.73c0,4.279,0.996,7.775,2.986,10.484
		c1.992,2.71,4.844,4.064,8.557,4.064c3.604,0,6.395-1.354,8.372-4.064c1.979-2.709,2.969-6.205,2.969-10.484V271.073
		L895.999,271.073z"/>
	<path fill="#FFFFFF" d="M931.438,283.388v22.68H917.66v-59.177h22.761c6.854,0,12.288,1.585,16.299,4.755
		c4.009,3.17,6.015,7.506,6.015,13.006c0,3.063-0.807,5.69-2.419,7.885c-1.611,2.195-3.989,3.983-7.133,5.364
		c3.631,1.03,6.239,2.745,7.825,5.142c1.584,2.398,2.377,5.387,2.377,8.963v3.738c0,1.545,0.229,3.307,0.69,5.284
		c0.461,1.979,1.26,3.387,2.397,4.228v0.813h-14.146c-1.084-0.841-1.795-2.331-2.133-4.471c-0.339-2.142-0.509-4.119-0.509-5.936
		v-3.576c0-2.817-0.745-4.973-2.235-6.462c-1.489-1.489-3.671-2.235-6.543-2.235H931.438L931.438,283.388z M931.438,272.821h9.063
		c2.765,0,4.878-0.63,6.34-1.892c1.464-1.259,2.195-3.068,2.195-5.425c0-2.412-0.753-4.355-2.256-5.832
		c-1.504-1.478-3.624-2.217-6.36-2.217h-8.982V272.821z"/>
</g>
</svg>
