<?xml version="1.0" encoding="utf-8"?>
<!-- Generator: Adobe Illustrator 16.0.3, SVG Export Plug-In . SVG Version: 6.00 Build 0)  -->
<!DOCTYPE svg PUBLIC "-//W3C//DTD SVG 1.1//EN" "http://www.w3.org/Graphics/SVG/1.1/DTD/svg11.dtd">
<svg version="1.1" id="Layer_1" xmlns="http://www.w3.org/2000/svg" xmlns:xlink="http://www.w3.org/1999/xlink" x="0px" y="0px"
	 width="490.361px" height="56.141px" viewBox="0 0 490.361 56.141" enable-background="new 0 0 490.361 56.141"
	 xml:space="preserve">
<g fill="#fff">
	<path d="M7.013,52.311c-3.728-2.553-6.051-6.178-6.97-10.876c-0.153-1.021,0.102-1.927,0.766-2.718
		c0.664-0.792,1.506-1.188,2.527-1.188h8.885c1.327,0,2.348,0.69,3.063,2.067c0.459,1.227,1.237,2.146,2.336,2.759
		c1.097,0.611,2.31,0.918,3.638,0.918c1.532,0,2.922-0.408,4.174-1.225c1.251-0.816,1.877-1.94,1.877-3.37
		c0-1.685-0.869-2.897-2.604-3.638c-1.737-0.739-3.906-1.366-6.51-1.876c-0.051-0.051-0.103-0.078-0.153-0.078
		c-1.991-0.459-4.009-1.021-6.05-1.685c-2.043-0.662-3.933-1.57-5.668-2.719c-1.737-1.149-3.153-2.692-4.25-4.633
		c-1.099-1.94-1.647-4.416-1.647-7.43c0-5.309,1.812-9.406,5.438-12.292C9.488,1.444,14.467,0,20.799,0
		c5.616,0,10.135,1.188,13.556,3.562c3.42,2.374,5.54,5.732,6.357,10.072c0.153,1.021-0.103,1.915-0.766,2.68
		c-0.665,0.766-1.507,1.149-2.528,1.149h-8.425c-1.378,0-2.425-0.664-3.14-1.992c-0.409-1.021-1.085-1.773-2.03-2.259
		c-0.946-0.485-2.005-0.727-3.178-0.727c-1.328,0-2.527,0.293-3.6,0.879c-1.073,0.588-1.608,1.52-1.608,2.796
		c0,1.532,0.868,2.655,2.604,3.37c1.735,0.715,3.907,1.354,6.51,1.915c1.992,0.512,4.046,1.11,6.165,1.8
		c2.118,0.689,4.085,1.635,5.898,2.834c1.812,1.2,3.293,2.783,4.442,4.748c1.149,1.966,1.723,4.48,1.723,7.544
		c0,3.933-0.932,7.213-2.795,9.841c-1.865,2.632-4.404,4.609-7.621,5.937c-3.217,1.328-6.893,1.992-11.029,1.992
		C15.514,56.141,10.739,54.863,7.013,52.311z"/>
	<path d="M107.19,53.153c-0.459,1.123-1.225,1.685-2.298,1.685h-9.574c-0.97,0-1.711-0.511-2.22-1.532l-7.353-18.534
		c-0.511-1.021-1.277-1.531-2.298-1.531c-1.021,0-1.788,0.51-2.298,1.531l-7.199,18.534c-0.511,1.021-1.277,1.532-2.298,1.532
		h-9.497c-1.072,0-1.865-0.562-2.374-1.685L44.541,4.443c-0.204-0.817-0.076-1.557,0.383-2.221c0.46-0.663,1.123-0.997,1.992-0.997
		h10.646c1.072,0,1.863,0.613,2.375,1.838l6.28,22.287c0.408,1.124,1.136,1.724,2.183,1.8c1.046,0.078,1.85-0.42,2.412-1.493
		l9.421-22.67c0.51-0.969,1.275-1.456,2.298-1.456h1.838c0.969,0,1.71,0.486,2.221,1.456l9.65,22.67
		c0.562,1.073,1.366,1.571,2.413,1.493c1.045-0.076,1.773-0.676,2.182-1.8l6.127-22.287c0.51-1.225,1.302-1.838,2.375-1.838h10.569
		c0.816,0,1.467,0.333,1.953,0.997c0.485,0.664,0.625,1.404,0.421,2.221L107.19,53.153z"/>
	<path d="M164.326,51.545c0,0.919-0.333,1.698-0.996,2.335c-0.664,0.639-1.456,0.958-2.375,0.958h-28.261
		c-0.919,0-1.711-0.319-2.375-0.958c-0.664-0.637-0.996-1.416-0.996-2.335V4.596c0-0.919,0.332-1.71,0.996-2.374
		c0.663-0.663,1.456-0.997,2.375-0.997h27.648c0.919,0,1.697,0.333,2.336,0.997c0.638,0.664,0.957,1.455,0.957,2.374v6.051
		c0,0.918-0.319,1.711-0.957,2.374c-0.639,0.664-1.417,0.996-2.336,0.996h-12.944c-0.918,0-1.711,0.332-2.374,0.995
		c-0.664,0.664-0.996,1.456-0.996,2.374v1.149c0,0.92,0.332,1.711,0.996,2.375c0.663,0.664,1.456,0.995,2.374,0.995h10.953
		c0.918,0,1.696,0.333,2.336,0.996c0.638,0.664,0.958,1.456,0.958,2.374v5.438c0,0.92-0.319,1.698-0.958,2.337
		c-0.64,0.639-1.417,0.957-2.336,0.957h-10.953c-0.918,0-1.711,0.332-2.374,0.995c-0.664,0.664-0.996,1.455-0.996,2.375v1.302
		c0,0.918,0.332,1.711,0.996,2.374c0.663,0.664,1.456,0.996,2.374,0.996h13.557c0.919,0,1.71,0.318,2.375,0.957
		c0.663,0.639,0.996,1.443,0.996,2.413V51.545z"/>
	<path d="M188.909,46.184c-1.43,0-2.477,0.741-3.14,2.221l-1.456,4.212c-0.664,1.482-1.711,2.222-3.14,2.222h-8.501
		c-1.176,0-2.094-0.472-2.757-1.417c-0.665-0.943-0.792-1.978-0.383-3.103L187.99,3.37c0.663-1.428,1.685-2.145,3.063-2.145h9.957
		c1.327,0,2.348,0.717,3.064,2.145l18.84,46.872c0.409,1.176,0.293,2.235-0.345,3.179c-0.639,0.945-1.544,1.417-2.719,1.417h-8.961
		c-1.43,0-2.477-0.739-3.14-2.222l-1.455-4.212c-0.665-1.479-1.711-2.221-3.14-2.221H188.909z M191.743,30.101
		c-0.357,1.174-0.218,2.22,0.421,3.14c0.638,0.918,1.543,1.378,2.719,1.378h2.298c1.173,0,2.079-0.46,2.719-1.378
		c0.638-0.92,0.778-1.966,0.421-3.14l-1.149-3.294c-0.664-1.481-1.711-2.221-3.14-2.221c-1.43,0-2.477,0.766-3.141,2.298
		L191.743,30.101z"/>
	<path d="M253.321,14.552c-0.92,0-1.711,0.32-2.374,0.957c-0.664,0.639-0.996,1.444-0.996,2.413v33.623
		c0,0.919-0.32,1.698-0.958,2.335c-0.639,0.639-1.416,0.958-2.336,0.958h-8.195c-0.918,0-1.698-0.319-2.336-0.958
		c-0.639-0.637-0.958-1.416-0.958-2.335V17.922c0-0.969-0.333-1.774-0.995-2.413c-0.665-0.637-1.456-0.957-2.374-0.957h-7.889
		c-0.919,0-1.711-0.333-2.374-0.997c-0.665-0.663-0.996-1.454-0.996-2.374V4.596c0-0.919,0.331-1.71,0.996-2.374
		c0.663-0.663,1.455-0.997,2.374-0.997h37.299c0.92,0,1.698,0.333,2.337,0.997c0.637,0.664,0.957,1.455,0.957,2.374v6.586
		c0,0.92-0.32,1.711-0.957,2.374c-0.639,0.664-1.417,0.997-2.337,0.997H253.321z"/>
	<path d="M275.379,52.311c-3.729-2.553-6.052-6.178-6.972-10.876c-0.152-1.021,0.103-1.927,0.767-2.718
		c0.664-0.792,1.506-1.188,2.527-1.188h8.885c1.326,0,2.349,0.69,3.063,2.067c0.459,1.227,1.237,2.146,2.336,2.759
		c1.097,0.611,2.31,0.918,3.639,0.918c1.531,0,2.921-0.408,4.173-1.225c1.251-0.816,1.878-1.94,1.878-3.37
		c0-1.685-0.869-2.897-2.604-3.638c-1.736-0.739-3.906-1.366-6.51-1.876c-0.053-0.051-0.104-0.078-0.154-0.078
		c-1.991-0.459-4.009-1.021-6.05-1.685c-2.043-0.662-3.933-1.57-5.668-2.719c-1.736-1.149-3.153-2.692-4.251-4.633
		c-1.098-1.94-1.646-4.416-1.646-7.43c0-5.309,1.813-9.406,5.438-12.292C277.855,1.444,282.833,0,289.165,0
		c5.616,0,10.135,1.188,13.556,3.562c3.42,2.374,5.54,5.732,6.358,10.072c0.152,1.021-0.104,1.915-0.767,2.68
		c-0.664,0.766-1.508,1.149-2.528,1.149h-8.424c-1.38,0-2.427-0.664-3.141-1.992c-0.409-1.021-1.086-1.773-2.029-2.259
		c-0.945-0.485-2.005-0.727-3.179-0.727c-1.329,0-2.527,0.293-3.6,0.879c-1.072,0.588-1.608,1.52-1.608,2.796
		c0,1.532,0.868,2.655,2.604,3.37s3.907,1.354,6.51,1.915c1.992,0.512,4.047,1.11,6.166,1.8c2.118,0.689,4.084,1.635,5.896,2.834
		c1.813,1.2,3.294,2.783,4.443,4.748c1.148,1.966,1.723,4.48,1.723,7.544c0,3.933-0.932,7.213-2.795,9.841
		c-1.864,2.632-4.404,4.609-7.62,5.937c-3.218,1.328-6.894,1.992-11.029,1.992C283.88,56.141,279.105,54.863,275.379,52.311z"/>
	<path d="M364.453,51.545c0,0.919-0.32,1.698-0.957,2.335c-0.641,0.639-1.444,0.958-2.413,0.958h-8.196
		c-0.918,0-1.697-0.319-2.335-0.958c-0.639-0.637-0.957-1.416-0.957-2.335V37.605c0-0.919-0.334-1.696-0.996-2.336
		c-0.664-0.639-1.456-0.957-2.374-0.957h-9.421c-0.919,0-1.698,0.318-2.336,0.957c-0.639,0.64-0.957,1.417-0.957,2.336v13.939
		c0,0.919-0.334,1.698-0.996,2.335c-0.664,0.639-1.456,0.958-2.374,0.958h-8.194c-0.92,0-1.711-0.319-2.376-0.958
		c-0.664-0.637-0.994-1.416-0.994-2.335V4.596c0-0.919,0.33-1.71,0.994-2.374c0.665-0.663,1.456-0.997,2.376-0.997h8.194
		c0.918,0,1.71,0.333,2.374,0.997c0.662,0.664,0.996,1.455,0.996,2.374v12.637c0,0.919,0.318,1.711,0.957,2.374
		c0.638,0.665,1.417,0.997,2.336,0.997h9.421c0.918,0,1.71-0.332,2.374-0.997c0.662-0.663,0.996-1.455,0.996-2.374V4.596
		c0-0.919,0.318-1.71,0.957-2.374c0.638-0.663,1.417-0.997,2.335-0.997h8.196c0.969,0,1.772,0.333,2.413,0.997
		c0.637,0.664,0.957,1.455,0.957,2.374V51.545z"/>
	<path d="M387.122,1.225c0.918,0,1.696,0.333,2.336,0.997c0.638,0.664,0.958,1.455,0.958,2.374v46.949
		c0,0.919-0.32,1.698-0.958,2.335c-0.64,0.639-1.418,0.958-2.336,0.958h-8.272c-0.919,0-1.712-0.319-2.374-0.958
		c-0.664-0.637-0.995-1.416-0.995-2.335V4.596c0-0.919,0.331-1.71,0.995-2.374c0.662-0.663,1.455-0.997,2.374-0.997H387.122z"/>
	<path d="M419.134,38.447c-0.918,0-1.711,0.334-2.374,0.996c-0.664,0.664-0.994,1.456-0.994,2.374v9.728
		c0,0.919-0.32,1.698-0.958,2.335c-0.64,0.639-1.418,0.958-2.336,0.958h-8.118c-0.92,0-1.698-0.319-2.337-0.958
		c-0.639-0.637-0.957-1.416-0.957-2.335V4.596c0-0.919,0.318-1.71,0.957-2.374c0.639-0.663,1.417-0.997,2.337-0.997h19.913
		c5.77,0,10.53,1.762,14.284,5.285c3.751,3.523,5.629,8.093,5.629,13.709c0,5.566-2.095,10.084-6.281,13.556
		c-0.612,0.512-0.995,1.149-1.148,1.915s-0.052,1.506,0.307,2.222l6.586,12.023c0.563,1.176,0.523,2.286-0.113,3.333
		c-0.641,1.047-1.571,1.569-2.796,1.569h-8.885c-1.227,0-2.195-0.587-2.911-1.761l-6.816-12.868
		C421.356,39.035,420.361,38.447,419.134,38.447z M416.76,25.044c0.663,0.665,1.456,0.997,2.374,0.997h3.37
		c2.093,0,3.703-0.561,4.826-1.685c1.122-1.124,1.685-2.528,1.685-4.212c0-1.633-0.563-2.999-1.685-4.099
		c-1.123-1.097-2.733-1.646-4.826-1.646h-3.37c-0.918,0-1.711,0.319-2.374,0.958c-0.664,0.639-0.994,1.417-0.994,2.335v4.978
		C415.766,23.59,416.096,24.381,416.76,25.044z"/>
	<path d="M479.179,14.552c-0.919,0-1.711,0.32-2.374,0.957c-0.664,0.639-0.996,1.444-0.996,2.413v33.623
		c0,0.919-0.318,1.698-0.957,2.335c-0.64,0.639-1.417,0.958-2.336,0.958h-8.195c-0.919,0-1.698-0.319-2.335-0.958
		c-0.641-0.637-0.958-1.416-0.958-2.335V17.922c0-0.969-0.333-1.774-0.996-2.413c-0.664-0.637-1.455-0.957-2.374-0.957h-7.889
		c-0.919,0-1.712-0.333-2.374-0.997c-0.664-0.663-0.996-1.454-0.996-2.374V4.596c0-0.919,0.332-1.71,0.996-2.374
		c0.662-0.663,1.455-0.997,2.374-0.997h37.3c0.918,0,1.696,0.333,2.335,0.997c0.639,0.664,0.957,1.455,0.957,2.374v6.586
		c0,0.92-0.318,1.711-0.957,2.374c-0.639,0.664-1.417,0.997-2.335,0.997H479.179z"/>
</g>
<g>
</g>
<g>
</g>
<g>
</g>
<g>
</g>
<g>
</g>
<g>
</g>
<g>
</g>
<g>
</g>
<g>
</g>
<g>
</g>
<g>
</g>
<g>
</g>
<g>
</g>
<g>
</g>
<g>
</g>
</svg>
