<svg width="580" height="160" viewBox="0 0 580 160" fill="none" xmlns="http://www.w3.org/2000/svg">
<g filter="url(#filter0_d)">
<path fill-rule="evenodd" clip-rule="evenodd" d="M138 16C132.477 16 128 20.4772 128 26H451C451 20.4772 446.523 16 441 16H138ZM451 134V26H128V134C128 139.523 132.477 144 138 144H441C446.523 144 451 139.523 451 134Z" fill="white"/>
</g>
<path d="M128 40H451V134C451 139.523 446.523 144 441 144H138C132.477 144 128 139.523 128 134V40Z" fill="#EAE5E5"/>
<path d="M128 26C128 20.4772 132.477 16 138 16H441C446.523 16 451 20.4772 451 26V43H128V26Z" fill="#C4C4C4"/>
<circle cx="143.5" cy="29.5" r="8.5" fill="#E61616"/>
<circle cx="168.5" cy="29.5" r="8.5" fill="#E6D116"/>
<circle cx="194.5" cy="29.5" r="8.5" fill="#1AE616"/>
<path d="M177.55 96.2549C177.55 100.068 176.843 103.443 175.428 106.379C174.014 109.316 172 111.58 169.386 113.174C166.79 114.749 163.827 115.537 160.497 115.537C157.167 115.537 154.212 114.776 151.634 113.254C149.056 111.715 147.042 109.521 145.592 106.675C144.16 103.828 143.408 100.561 143.336 96.8726V94.6704C143.336 90.839 144.034 87.4642 145.431 84.5459C146.845 81.6097 148.859 79.3449 151.473 77.7515C154.105 76.158 157.095 75.3613 160.443 75.3613C163.755 75.3613 166.709 76.1491 169.305 77.7246C171.901 79.3001 173.915 81.547 175.348 84.4653C176.798 87.3657 177.532 90.6958 177.55 94.4556V96.2549ZM167.962 94.6167C167.962 90.7316 167.309 87.7865 166.002 85.7812C164.713 83.7581 162.86 82.7466 160.443 82.7466C155.716 82.7466 153.219 86.2915 152.95 93.3813L152.923 96.2549C152.923 100.086 153.559 103.031 154.83 105.09C156.101 107.149 157.99 108.179 160.497 108.179C162.878 108.179 164.713 107.167 166.002 105.144C167.291 103.121 167.944 100.212 167.962 96.416V94.6167ZM202.579 104.607C202.579 103.228 202.087 102.154 201.102 101.384C200.135 100.614 198.425 99.8177 195.973 98.9941C193.52 98.1706 191.515 97.3739 189.957 96.604C184.89 94.1154 182.357 90.6958 182.357 86.3452C182.357 84.1789 182.984 82.2721 184.237 80.625C185.508 78.96 187.298 77.6709 189.608 76.7578C191.917 75.8268 194.514 75.3613 197.396 75.3613C200.207 75.3613 202.722 75.8626 204.942 76.8652C207.18 77.8678 208.917 79.3001 210.152 81.1621C211.388 83.0062 212.005 85.1188 212.005 87.5H202.606C202.606 85.9066 202.114 84.6712 201.129 83.7939C200.162 82.9167 198.846 82.478 197.181 82.478C195.498 82.478 194.164 82.854 193.18 83.606C192.213 84.34 191.729 85.2799 191.729 86.4258C191.729 87.4284 192.267 88.3415 193.341 89.165C194.415 89.9707 196.304 90.8122 199.007 91.6895C201.711 92.5488 203.931 93.4798 205.667 94.4824C209.893 96.9173 212.005 100.274 212.005 104.553C212.005 107.973 210.716 110.658 208.138 112.61C205.56 114.561 202.024 115.537 197.53 115.537C194.361 115.537 191.488 114.973 188.91 113.845C186.349 112.699 184.416 111.142 183.109 109.172C181.82 107.185 181.175 104.902 181.175 102.324H190.628C190.628 104.419 191.166 105.968 192.24 106.97C193.332 107.955 195.095 108.447 197.53 108.447C199.088 108.447 200.314 108.116 201.209 107.454C202.123 106.773 202.579 105.824 202.579 104.607ZM245.118 88.8965L251.51 75.8984H262.279L251.349 95.2881L262.574 115H251.698L245.118 101.76L238.539 115H227.689L238.888 95.2881L227.984 75.8984H238.727L245.118 88.8965ZM282.823 115H281.373V85.9424H282.823V115ZM280.621 76.8652C280.621 76.4535 280.764 76.1043 281.051 75.8179C281.337 75.5135 281.686 75.3613 282.098 75.3613C282.51 75.3613 282.859 75.5135 283.146 75.8179C283.45 76.1043 283.602 76.4535 283.602 76.8652C283.602 77.277 283.45 77.6261 283.146 77.9126C282.859 78.1991 282.51 78.3423 282.098 78.3423C281.686 78.3423 281.337 78.1991 281.051 77.9126C280.764 77.6261 280.621 77.277 280.621 76.8652ZM293.807 92.71C294.756 90.4541 296.153 88.6727 297.997 87.3657C299.841 86.0588 301.882 85.4053 304.12 85.4053C307.235 85.4053 309.544 86.2915 311.048 88.064C312.57 89.8185 313.34 92.4772 313.358 96.04V115H311.908V95.9863C311.89 92.8711 311.254 90.5705 310.001 89.0845C308.748 87.5806 306.76 86.8286 304.039 86.8286C301.533 86.8286 299.357 87.7238 297.513 89.5142C295.687 91.2866 294.452 93.5783 293.807 96.3892V115H292.357V85.9424H293.807V92.71ZM366.156 101.76C366.03 104.482 365.296 106.89 363.954 108.984C362.611 111.061 360.722 112.673 358.287 113.818C355.87 114.964 353.104 115.537 349.989 115.537C344.85 115.537 340.804 113.863 337.85 110.515C334.896 107.167 333.419 102.441 333.419 96.3354V94.4019C333.419 90.5705 334.081 87.2225 335.406 84.3579C336.749 81.4754 338.674 79.2554 341.18 77.6978C343.687 76.1222 346.587 75.3345 349.881 75.3345C354.626 75.3345 358.439 76.5877 361.322 79.0942C364.204 81.5828 365.842 85.0203 366.236 89.4067H356.837C356.765 87.0256 356.166 85.3158 355.038 84.2773C353.91 83.2389 352.191 82.7197 349.881 82.7197C347.536 82.7197 345.817 83.597 344.725 85.3516C343.633 87.1061 343.06 89.908 343.006 93.7573V96.5234C343.006 100.695 343.526 103.676 344.564 105.466C345.62 107.257 347.429 108.152 349.989 108.152C352.155 108.152 353.811 107.642 354.957 106.621C356.103 105.601 356.712 103.98 356.783 101.76H366.156ZM390.782 104.607C390.782 103.228 390.29 102.154 389.305 101.384C388.338 100.614 386.629 99.8177 384.176 98.9941C381.723 98.1706 379.718 97.3739 378.16 96.604C373.093 94.1154 370.56 90.6958 370.56 86.3452C370.56 84.1789 371.187 82.2721 372.44 80.625C373.711 78.96 375.501 77.6709 377.811 76.7578C380.121 75.8268 382.717 75.3613 385.599 75.3613C388.41 75.3613 390.925 75.8626 393.146 76.8652C395.383 77.8678 397.12 79.3001 398.355 81.1621C399.591 83.0062 400.208 85.1188 400.208 87.5H390.809C390.809 85.9066 390.317 84.6712 389.332 83.7939C388.365 82.9167 387.049 82.478 385.384 82.478C383.701 82.478 382.368 82.854 381.383 83.606C380.416 84.34 379.933 85.2799 379.933 86.4258C379.933 87.4284 380.47 88.3415 381.544 89.165C382.618 89.9707 384.507 90.8122 387.21 91.6895C389.914 92.5488 392.134 93.4798 393.871 94.4824C398.096 96.9173 400.208 100.274 400.208 104.553C400.208 107.973 398.919 110.658 396.341 112.61C393.763 114.561 390.227 115.537 385.733 115.537C382.564 115.537 379.691 114.973 377.113 113.845C374.553 112.699 372.619 111.142 371.312 109.172C370.023 107.185 369.378 104.902 369.378 102.324H378.832C378.832 104.419 379.369 105.968 380.443 106.97C381.535 107.955 383.299 108.447 385.733 108.447C387.291 108.447 388.517 108.116 389.413 107.454C390.326 106.773 390.782 105.824 390.782 104.607ZM425.211 104.607C425.211 103.228 424.719 102.154 423.734 101.384C422.767 100.614 421.057 99.8177 418.604 98.9941C416.152 98.1706 414.146 97.3739 412.589 96.604C407.522 94.1154 404.989 90.6958 404.989 86.3452C404.989 84.1789 405.615 82.2721 406.869 80.625C408.14 78.96 409.93 77.6709 412.24 76.7578C414.549 75.8268 417.145 75.3613 420.028 75.3613C422.839 75.3613 425.354 75.8626 427.574 76.8652C429.812 77.8678 431.549 79.3001 432.784 81.1621C434.02 83.0062 434.637 85.1188 434.637 87.5H425.238C425.238 85.9066 424.745 84.6712 423.761 83.7939C422.794 82.9167 421.478 82.478 419.813 82.478C418.13 82.478 416.796 82.854 415.812 83.606C414.845 84.34 414.361 85.2799 414.361 86.4258C414.361 87.4284 414.898 88.3415 415.973 89.165C417.047 89.9707 418.936 90.8122 421.639 91.6895C424.343 92.5488 426.563 93.4798 428.299 94.4824C432.525 96.9173 434.637 100.274 434.637 104.553C434.637 107.973 433.348 110.658 430.77 112.61C428.192 114.561 424.656 115.537 420.162 115.537C416.993 115.537 414.12 114.973 411.542 113.845C408.981 112.699 407.048 111.142 405.741 109.172C404.452 107.185 403.807 104.902 403.807 102.324H413.26C413.26 104.419 413.797 105.968 414.872 106.97C415.964 107.955 417.727 108.447 420.162 108.447C421.72 108.447 422.946 108.116 423.841 107.454C424.754 106.773 425.211 105.824 425.211 104.607Z" fill="black"/>
<defs>
<filter id="filter0_d" x="127" y="16" width="325" height="130" filterUnits="userSpaceOnUse" color-interpolation-filters="sRGB">
<feFlood flood-opacity="0" result="BackgroundImageFix"/>
<feColorMatrix in="SourceAlpha" type="matrix" values="0 0 0 0 0 0 0 0 0 0 0 0 0 0 0 0 0 0 127 0"/>
<feOffset dy="1"/>
<feGaussianBlur stdDeviation="0.5"/>
<feColorMatrix type="matrix" values="0 0 0 0 0 0 0 0 0 0 0 0 0 0 0 0 0 0 0.25 0"/>
<feBlend mode="normal" in2="BackgroundImageFix" result="effect1_dropShadow"/>
<feBlend mode="normal" in="SourceGraphic" in2="effect1_dropShadow" result="shape"/>
</filter>
</defs>
</svg>
